<?xml version="1.0" encoding="UTF-8"?>
<svg width="1198px" height="961px" viewBox="0 0 1198 961" version="1.1" xmlns="http://www.w3.org/2000/svg" xmlns:xlink="http://www.w3.org/1999/xlink">
    <title>Group 6</title>
    <defs>
        <rect id="path-1" x="0" y="0" width="563" height="330" rx="26"></rect>
        <rect id="path-3" x="0.0564700018" y="0" width="319" height="239" rx="17"></rect>
        <linearGradient x1="50%" y1="0%" x2="50%" y2="100%" id="linearGradient-5">
            <stop stop-color="#DCDBD7" offset="0%"></stop>
            <stop stop-color="#FFFAF2" offset="100%"></stop>
        </linearGradient>
    </defs>
    <g id="Page-1" stroke="none" stroke-width="1" fill="none" fill-rule="evenodd">
        <g id="Artboard-Copy-20" transform="translate(-221.000000, -322.000000)">
            <g id="Group-6" transform="translate(221.943530, 322.000000)">
                <g id="Group-2" transform="translate(47.056470, 0.000000)">
                    <rect id="Rectangle" fill="#466BE5" x="208" y="0" width="571" height="961" rx="40"></rect>
                    <rect id="Rectangle" fill="#466BE5" x="208" y="0" width="571" height="961" rx="40"></rect>
                    <rect id="Rectangle" fill="#FFFFFF" x="578" y="373" width="571" height="330" rx="26"></rect>
                    <g id="Rectangle" transform="translate(578.000000, 373.000000)">
                        <mask id="mask-2" fill="white">
                            <use xlink:href="#path-1"></use>
                        </mask>
                        <use id="Mask" fill="#FFFFFF" xlink:href="#path-1"></use>
                        <rect fill="#31C6EC" mask="url(#mask-2)" x="-26" y="-22" width="157" height="405"></rect>
                    </g>
                    <rect id="Rectangle-Copy" fill="#FFFFFF" x="0" y="209" width="344" height="330" rx="26"></rect>
                    <path d="M783.92,484.895 L783.92,480.44 C791.73,479.835 796.405,475.16 796.405,468.615 C796.405,463.005 792.5,459.87 786.01,458.495 L780.51,457.34 C778.035,456.845 775.78,455.69 775.78,453.16 C775.78,450.3 778.145,448.485 781.665,448.485 C785.46,448.485 788.045,450.905 788.265,454.535 L795.91,454.535 C795.415,447.825 790.685,443.315 783.92,442.435 L783.92,437.815 L778.915,437.815 L778.915,442.435 C772.48,443.37 768.025,447.825 768.025,453.765 C768.025,460.365 772.59,462.895 777.925,464.105 L783.535,465.26 C786.34,465.865 788.265,467.24 788.265,469.605 C788.265,472.63 785.35,474.335 781.555,474.335 C776.99,474.335 774.405,471.915 774.295,468.01 L766.65,468.01 C767.145,474.775 771.655,479.395 778.915,480.33 L778.915,484.895 L783.92,484.895 Z M825.72,480 L825.72,473.18 L811.365,473.18 L816.975,467.13 C823.465,460.585 825.115,457.725 825.115,453.215 C825.115,446.945 819.67,442.27 812.245,442.27 C804.27,442.27 798.66,447.55 798.66,454.975 L806.085,454.975 C806.085,451.345 808.285,449.09 811.86,449.09 C815.105,449.09 817.14,451.125 817.14,454.15 C817.14,457.395 815.325,459.705 811.035,464.105 L799.76,475.655 L799.76,480 L825.72,480 Z M827.315,488.03 C834.245,487.975 839.635,483.63 839.635,477.03 C839.635,472.355 837.545,469.935 834.025,469.935 C831.22,469.935 829.075,471.86 829.075,474.72 C829.075,477.195 830.945,479.23 833.42,479.23 C833.75,479.23 834.08,479.23 834.575,479.065 C834.135,482.035 831.385,483.905 827.315,483.96 L827.315,488.03 Z M856.355,480.44 C864.825,480.44 870.765,474.775 870.765,467.625 C870.765,460.585 865.43,455.58 857.84,455.58 C857.235,455.58 856.63,455.635 856.025,455.855 L866.695,442.82 L858.06,442.82 L846.84,456.35 C843.375,460.475 842,463.445 842,468.12 C842,474.775 847.885,480.44 856.355,480.44 Z M856.41,474.06 C852.945,474.06 849.975,471.86 849.975,467.845 C849.975,463.5 852.945,461.575 856.41,461.575 C859.875,461.575 862.845,463.665 862.845,467.9 C862.845,471.86 859.875,474.06 856.41,474.06 Z M887.43,480.495 C895.955,480.495 901.675,475.82 901.675,469.22 C901.675,465.15 898.98,462.29 895.405,460.695 C898.32,459.1 900.41,456.515 900.41,452.94 C900.41,446.78 895.13,442.27 887.43,442.27 C879.62,442.27 874.34,446.78 874.34,452.94 C874.34,456.515 876.43,459.1 879.345,460.695 C875.715,462.29 873.075,465.15 873.075,469.22 C873.075,475.82 878.74,480.495 887.43,480.495 Z M887.43,457.78 C884.185,457.78 882.205,456.02 882.205,453.215 C882.205,450.19 884.185,448.32 887.43,448.32 C890.565,448.32 892.6,450.19 892.6,453.215 C892.6,456.02 890.565,457.78 887.43,457.78 Z M887.43,474.445 C883.415,474.445 880.94,472.41 880.94,469.055 C880.94,465.865 883.415,463.83 887.43,463.83 C891.335,463.83 893.865,465.865 893.865,469.055 C893.865,472.41 891.335,474.445 887.43,474.445 Z M919.165,480.55 C928.46,480.55 933.575,473.73 933.575,461.465 C933.575,449.145 928.35,442.27 919.165,442.27 C909.98,442.27 904.81,449.145 904.81,461.465 C904.81,473.73 909.87,480.55 919.165,480.55 Z M919.165,473.73 C914.875,473.73 912.675,469.44 912.675,461.465 C912.675,453.435 914.985,449.09 919.165,449.09 C923.4,449.09 925.71,453.435 925.71,461.465 C925.71,469.44 923.4,473.73 919.165,473.73 Z M940.835,480.275 C943.86,480.275 945.95,478.13 945.95,475.105 C945.95,472.025 943.86,469.88 940.835,469.88 C937.81,469.88 935.665,472.025 935.665,475.105 C935.665,478.13 937.81,480.275 940.835,480.275 Z M962.45,480.55 C971.745,480.55 976.86,473.73 976.86,461.465 C976.86,449.145 971.635,442.27 962.45,442.27 C953.265,442.27 948.095,449.145 948.095,461.465 C948.095,473.73 953.155,480.55 962.45,480.55 Z M962.45,473.73 C958.16,473.73 955.96,469.44 955.96,461.465 C955.96,453.435 958.27,449.09 962.45,449.09 C966.685,449.09 968.995,453.435 968.995,461.465 C968.995,469.44 966.685,473.73 962.45,473.73 Z M994.845,480.55 C1004.14,480.55 1009.255,473.73 1009.255,461.465 C1009.255,449.145 1004.03,442.27 994.845,442.27 C985.66,442.27 980.49,449.145 980.49,461.465 C980.49,473.73 985.55,480.55 994.845,480.55 Z M994.845,473.73 C990.555,473.73 988.355,469.44 988.355,461.465 C988.355,453.435 990.665,449.09 994.845,449.09 C999.08,449.09 1001.39,453.435 1001.39,461.465 C1001.39,469.44 999.08,473.73 994.845,473.73 Z" id="$2,680.00" fill="#000000" fill-rule="nonzero"></path>
                    <path d="M49.502,278 C52.78,278 54.892,276.35 54.892,273.468 C54.892,271.664 53.836,270.322 51.878,269.772 C53.396,269.112 54.298,267.836 54.298,266.34 C54.298,263.678 52.384,262.204 49.194,262.204 L43.716,262.204 L43.716,278 L49.502,278 Z M49.04,268.892 L45.938,268.892 L45.938,264.14 L49.04,264.14 C50.954,264.14 51.988,265.042 51.988,266.516 C51.988,267.99 50.954,268.892 49.04,268.892 Z M49.348,276.064 L45.938,276.064 L45.938,270.828 L49.348,270.828 C51.416,270.828 52.582,271.796 52.582,273.402 C52.582,275.074 51.416,276.064 49.348,276.064 Z M58.61,265.108 C59.556,265.108 60.216,264.47 60.216,263.634 C60.216,262.776 59.556,262.16 58.61,262.16 C57.664,262.16 56.982,262.776 56.982,263.634 C56.982,264.47 57.664,265.108 58.61,265.108 Z M59.732,278 L59.732,266.34 L57.51,266.34 L57.51,278 L59.732,278 Z M67.41,278.22 C68.114,278.22 68.708,278.11 69.39,277.802 L69.39,275.844 C68.928,276.064 68.466,276.152 67.938,276.152 C66.75,276.152 65.98,275.58 65.98,273.974 L65.98,268.232 L69.5,268.232 L69.5,266.34 L65.98,266.34 L65.98,262.886 L63.758,262.886 L63.758,266.34 L61.184,266.34 L61.184,268.232 L63.758,268.232 L63.758,274.48 C63.758,277.054 65.254,278.22 67.41,278.22 Z M76.21,278.242 C79.136,278.242 81.204,276.35 81.6,273.27 L79.29,273.27 C79.026,275.162 77.882,276.262 76.232,276.262 C74.318,276.262 73.064,274.656 73.064,272.17 C73.064,269.706 74.318,268.078 76.232,268.078 C77.86,268.078 79.026,269.2 79.268,271.07 L81.6,271.07 C81.182,268.034 79.092,266.12 76.21,266.12 C73.064,266.12 70.776,268.65 70.776,272.17 C70.776,275.734 73.02,278.242 76.21,278.242 Z M88.728,278.22 C92.028,278.22 94.448,275.624 94.448,272.17 C94.448,268.716 92.028,266.12 88.728,266.12 C85.428,266.12 83.008,268.716 83.008,272.17 C83.008,275.624 85.428,278.22 88.728,278.22 Z M88.728,276.262 C86.814,276.262 85.318,274.722 85.318,272.17 C85.318,269.618 86.814,268.1 88.728,268.1 C90.642,268.1 92.16,269.618 92.16,272.17 C92.16,274.722 90.642,276.262 88.728,276.262 Z M97.814,265.108 C98.76,265.108 99.42,264.47 99.42,263.634 C99.42,262.776 98.76,262.16 97.814,262.16 C96.868,262.16 96.186,262.776 96.186,263.634 C96.186,264.47 96.868,265.108 97.814,265.108 Z M98.936,278 L98.936,266.34 L96.714,266.34 L96.714,278 L98.936,278 Z M104.238,278 L104.238,271.422 C104.238,269.354 105.514,268.078 107.032,268.078 C108.682,268.078 109.562,269.2 109.562,271.202 L109.562,278 L111.784,278 L111.784,270.454 C111.784,267.66 110.2,266.12 107.802,266.12 C106.196,266.12 104.876,266.978 104.084,268.276 L104.084,266.34 L102.016,266.34 L102.016,278 L104.238,278 Z" id="Bitcoin" fill="#000000" fill-rule="nonzero"></path>
                    <path d="M204.168,277.958 L204.168,276.176 C207.292,275.934 209.162,274.064 209.162,271.446 C209.162,269.202 207.6,267.948 205.004,267.398 L202.804,266.936 C201.814,266.738 200.912,266.276 200.912,265.264 C200.912,264.12 201.858,263.394 203.266,263.394 C204.784,263.394 205.818,264.362 205.906,265.814 L208.964,265.814 C208.766,263.13 206.874,261.326 204.168,260.974 L204.168,259.126 L202.166,259.126 L202.166,260.974 C199.592,261.348 197.81,263.13 197.81,265.506 C197.81,268.146 199.636,269.158 201.77,269.642 L204.014,270.104 C205.136,270.346 205.906,270.896 205.906,271.842 C205.906,273.052 204.74,273.734 203.222,273.734 C201.396,273.734 200.362,272.766 200.318,271.204 L197.26,271.204 C197.458,273.91 199.262,275.758 202.166,276.132 L202.166,277.958 L204.168,277.958 Z M220.052,276 L220.052,273.074 L222.142,273.074 L222.142,270.412 L220.052,270.412 L220.052,261.128 L217.632,261.128 L209.954,270.808 L209.954,273.074 L217.016,273.074 L217.016,276 L220.052,276 Z M217.016,270.412 L213.298,270.412 L217.016,265.506 L217.016,270.412 Z M233.362,276 L233.362,273.272 L227.62,273.272 L229.864,270.852 C232.46,268.234 233.12,267.09 233.12,265.286 C233.12,262.778 230.942,260.908 227.972,260.908 C224.782,260.908 222.538,263.02 222.538,265.99 L225.508,265.99 C225.508,264.538 226.388,263.636 227.818,263.636 C229.116,263.636 229.93,264.45 229.93,265.66 C229.93,266.958 229.204,267.882 227.488,269.642 L222.978,274.262 L222.978,276 L233.362,276 Z M234,279.212 C236.772,279.19 238.928,277.452 238.928,274.812 C238.928,272.942 238.092,271.974 236.684,271.974 C235.562,271.974 234.704,272.744 234.704,273.888 C234.704,274.878 235.452,275.692 236.442,275.692 C236.574,275.692 236.706,275.692 236.904,275.626 C236.728,276.814 235.628,277.562 234,277.584 L234,279.212 Z M245.748,276.198 C249.158,276.198 251.446,274.328 251.446,271.688 C251.446,270.06 250.368,268.916 248.938,268.278 C250.104,267.64 250.94,266.606 250.94,265.176 C250.94,262.712 248.828,260.908 245.748,260.908 C242.624,260.908 240.512,262.712 240.512,265.176 C240.512,266.606 241.348,267.64 242.514,268.278 C241.062,268.916 240.006,270.06 240.006,271.688 C240.006,274.328 242.272,276.198 245.748,276.198 Z M245.748,267.112 C244.45,267.112 243.658,266.408 243.658,265.286 C243.658,264.076 244.45,263.328 245.748,263.328 C247.002,263.328 247.816,264.076 247.816,265.286 C247.816,266.408 247.002,267.112 245.748,267.112 Z M245.748,273.778 C244.142,273.778 243.152,272.964 243.152,271.622 C243.152,270.346 244.142,269.532 245.748,269.532 C247.31,269.532 248.322,270.346 248.322,271.622 C248.322,272.964 247.31,273.778 245.748,273.778 Z M257.276,276 L261.742,270.588 C263.172,268.894 263.7,267.706 263.7,265.88 C263.7,263.218 261.324,260.952 257.958,260.952 C254.548,260.952 252.194,263.218 252.194,266.078 C252.194,268.894 254.306,270.896 257.342,270.896 C257.584,270.896 257.826,270.874 258.09,270.786 L253.822,276 L257.276,276 Z M257.936,268.498 C256.528,268.498 255.362,267.662 255.362,265.968 C255.362,264.384 256.528,263.504 257.936,263.504 C259.3,263.504 260.51,264.384 260.51,265.99 C260.51,267.728 259.3,268.498 257.936,268.498 Z M270.498,276.22 C274.216,276.22 276.262,273.492 276.262,268.586 C276.262,263.658 274.172,260.908 270.498,260.908 C266.824,260.908 264.756,263.658 264.756,268.586 C264.756,273.492 266.78,276.22 270.498,276.22 Z M270.498,273.492 C268.782,273.492 267.902,271.776 267.902,268.586 C267.902,265.374 268.826,263.636 270.498,263.636 C272.192,263.636 273.116,265.374 273.116,268.586 C273.116,271.776 272.192,273.492 270.498,273.492 Z M279.166,276.11 C280.376,276.11 281.212,275.252 281.212,274.042 C281.212,272.81 280.376,271.952 279.166,271.952 C277.956,271.952 277.098,272.81 277.098,274.042 C277.098,275.252 277.956,276.11 279.166,276.11 Z M286.8,276 L286.8,261.128 L280.926,261.128 L280.926,263.768 L283.742,263.768 L283.742,276 L286.8,276 Z M294.192,276.176 C297.58,276.176 299.956,273.91 299.956,271.05 C299.956,268.234 297.822,266.232 294.786,266.232 C294.544,266.232 294.302,266.254 294.06,266.342 L298.328,261.128 L294.874,261.128 L290.386,266.54 C289,268.19 288.45,269.378 288.45,271.248 C288.45,273.91 290.804,276.176 294.192,276.176 Z M294.214,273.624 C292.828,273.624 291.64,272.744 291.64,271.138 C291.64,269.4 292.828,268.63 294.214,268.63 C295.6,268.63 296.788,269.466 296.788,271.16 C296.788,272.744 295.6,273.624 294.214,273.624 Z" id="$42,890.16" fill="#000000" fill-rule="nonzero"></path>
                    <path d="M251.706,300.272 L251.706,296.942 L255.036,296.942 L255.036,294.782 L251.706,294.782 L251.706,291.452 L249.366,291.452 L249.366,294.782 L246.036,294.782 L246.036,296.942 L249.366,296.942 L249.366,300.272 L251.706,300.272 Z M264.558,302 L264.558,299.606 L266.268,299.606 L266.268,297.428 L264.558,297.428 L264.558,289.832 L262.578,289.832 L256.296,297.752 L256.296,299.606 L262.074,299.606 L262.074,302 L264.558,302 Z M262.074,297.428 L259.032,297.428 L262.074,293.414 L262.074,297.428 Z M268.716,302.09 C269.706,302.09 270.39,301.388 270.39,300.398 C270.39,299.39 269.706,298.688 268.716,298.688 C267.726,298.688 267.024,299.39 267.024,300.398 C267.024,301.388 267.726,302.09 268.716,302.09 Z M275.844,302.18 C278.904,302.18 280.452,300.11 280.452,298.022 C280.452,295.97 279.066,293.972 276.168,293.972 C275.448,293.972 274.746,294.152 274.134,294.548 L274.512,292.064 L279.732,292.064 L279.732,289.832 L272.694,289.832 L271.632,296.654 L273.684,297.32 C274.062,296.492 274.782,296.096 275.754,296.096 C277.23,296.096 277.86,297.068 277.86,298.022 C277.86,299.012 277.302,299.948 275.826,299.948 C274.692,299.948 273.864,299.354 273.72,298.292 L271.218,298.292 C271.29,300.56 273.252,302.18 275.844,302.18 Z M284.88,297.284 C287.13,297.284 288.822,295.574 288.822,293.504 C288.822,291.416 287.13,289.724 284.88,289.724 C282.612,289.724 280.938,291.416 280.938,293.504 C280.938,295.574 282.612,297.284 284.88,297.284 Z M287.868,302 L294.78,289.832 L292.782,289.832 L285.87,302 L287.868,302 Z M284.88,295.52 C283.872,295.52 282.972,294.836 282.972,293.504 C282.972,292.172 283.872,291.488 284.88,291.488 C285.906,291.488 286.77,292.172 286.77,293.504 C286.77,294.836 285.906,295.52 284.88,295.52 Z M296.076,302.162 C298.344,302.162 300.018,300.452 300.018,298.382 C300.018,296.294 298.344,294.602 296.076,294.602 C293.808,294.602 292.134,296.294 292.134,298.382 C292.134,300.452 293.808,302.162 296.076,302.162 Z M296.076,300.38 C295.068,300.38 294.168,299.714 294.168,298.382 C294.168,297.032 295.068,296.366 296.076,296.366 C297.102,296.366 297.984,297.032 297.984,298.382 C297.984,299.714 297.102,300.38 296.076,300.38 Z" id="+4.5%" fill="#82D863" fill-rule="nonzero"></path>
                    <text id="BTC" font-family="GeneralSans-Medium, General Sans" font-size="18" font-weight="400" letter-spacing="-0.45" fill="#AFAFAF">
                        <tspan x="42" y="305">BTC</tspan>
                    </text>
                    <path d="M53.726,371 L53.726,368.888 L46.136,368.888 L46.136,363.916 L52.912,363.916 L52.912,361.804 L46.136,361.804 L46.136,357.316 L53.572,357.316 L53.572,355.204 L43.716,355.204 L43.716,371 L53.726,371 Z M60.986,371.22 C61.69,371.22 62.284,371.11 62.966,370.802 L62.966,368.844 C62.504,369.064 62.042,369.152 61.514,369.152 C60.326,369.152 59.556,368.58 59.556,366.974 L59.556,361.232 L63.076,361.232 L63.076,359.34 L59.556,359.34 L59.556,355.886 L57.334,355.886 L57.334,359.34 L54.76,359.34 L54.76,361.232 L57.334,361.232 L57.334,367.48 C57.334,370.054 58.83,371.22 60.986,371.22 Z M67.41,371 L67.41,364.422 C67.41,362.354 68.686,361.078 70.204,361.078 C71.854,361.078 72.734,362.2 72.734,364.202 L72.734,371 L74.956,371 L74.956,363.454 C74.956,360.66 73.372,359.12 70.974,359.12 C69.368,359.12 68.18,359.956 67.41,361.21 L67.41,355.204 L65.188,355.204 L65.188,371 L67.41,371 Z M82.7,371.22 C85.45,371.22 87.452,369.658 88.024,367.062 L85.824,367.062 C85.45,368.58 84.306,369.482 82.656,369.482 C80.698,369.482 79.51,368.096 79.334,365.72 L88.024,365.72 C88.42,361.936 86.11,359.12 82.634,359.12 C79.422,359.12 77.068,361.65 77.068,365.104 C77.068,368.778 79.334,371.22 82.7,371.22 Z M85.67,364.246 L79.356,364.246 C79.598,362.068 80.808,360.792 82.59,360.792 C84.394,360.792 85.56,362.09 85.67,364.246 Z M92.6,371 L92.6,365.038 C92.6,362.464 94.426,361.364 96.934,361.496 L96.934,359.186 C95.02,359.186 93.26,360.198 92.446,361.804 L92.446,359.34 L90.378,359.34 L90.378,371 L92.6,371 Z M103.49,371.22 C106.24,371.22 108.242,369.658 108.814,367.062 L106.614,367.062 C106.24,368.58 105.096,369.482 103.446,369.482 C101.488,369.482 100.3,368.096 100.124,365.72 L108.814,365.72 C109.21,361.936 106.9,359.12 103.424,359.12 C100.212,359.12 97.858,361.65 97.858,365.104 C97.858,368.778 100.124,371.22 103.49,371.22 Z M106.46,364.246 L100.146,364.246 C100.388,362.068 101.598,360.792 103.38,360.792 C105.184,360.792 106.35,362.09 106.46,364.246 Z M115.04,371.22 C116.624,371.22 117.988,370.362 118.604,369.152 L118.604,371 L120.672,371 L120.672,359.34 L118.45,359.34 L118.45,366.204 C118.45,368.03 117.24,369.262 115.744,369.262 C114.292,369.262 113.28,368.426 113.28,366.402 L113.28,359.34 L111.058,359.34 L111.058,366.842 C111.058,369.834 112.686,371.22 115.04,371.22 Z M125.974,371 L125.974,364.312 C125.974,362.354 127.184,361.078 128.724,361.078 C130.352,361.078 131.21,362.222 131.21,364.158 L131.21,371 L133.432,371 L133.432,364.312 C133.432,362.354 134.664,361.078 136.182,361.078 C137.81,361.078 138.668,362.222 138.668,364.158 L138.668,371 L140.89,371 L140.89,363.454 C140.89,360.682 139.35,359.12 136.952,359.12 C135.17,359.12 133.828,360.044 133.014,361.54 C132.486,360 131.188,359.12 129.472,359.12 C127.866,359.12 126.612,359.934 125.82,361.276 L125.82,359.34 L123.752,359.34 L123.752,371 L125.974,371 Z" id="Ethereum" fill="#000000" fill-rule="nonzero"></path>
                    <path d="M213.012,370.958 L213.012,369.176 C216.136,368.934 218.006,367.064 218.006,364.446 C218.006,362.202 216.444,360.948 213.848,360.398 L211.648,359.936 C210.658,359.738 209.756,359.276 209.756,358.264 C209.756,357.12 210.702,356.394 212.11,356.394 C213.628,356.394 214.662,357.362 214.75,358.814 L217.808,358.814 C217.61,356.13 215.718,354.326 213.012,353.974 L213.012,352.126 L211.01,352.126 L211.01,353.974 C208.436,354.348 206.654,356.13 206.654,358.506 C206.654,361.146 208.48,362.158 210.614,362.642 L212.858,363.104 C213.98,363.346 214.75,363.896 214.75,364.842 C214.75,366.052 213.584,366.734 212.066,366.734 C210.24,366.734 209.206,365.766 209.162,364.204 L206.104,364.204 C206.302,366.91 208.106,368.758 211.01,369.132 L211.01,370.958 L213.012,370.958 Z M224.408,369.198 C227.818,369.198 230.106,367.328 230.106,364.578 C230.106,362.972 229.05,361.784 227.202,361.19 C228.632,360.442 229.424,359.364 229.424,358 C229.424,355.602 227.51,353.908 224.386,353.908 C221.46,353.908 219.216,355.844 219.194,358.418 L222.164,358.418 C222.186,357.12 222.978,356.328 224.232,356.328 C225.508,356.328 226.278,357.054 226.278,358.22 C226.278,359.43 225.376,360.178 223.88,360.178 L222.45,360.178 L222.45,362.598 L224.056,362.598 C225.882,362.598 226.96,363.368 226.96,364.666 C226.96,365.986 226.036,366.778 224.452,366.778 C222.934,366.778 221.966,365.964 221.878,364.622 L218.908,364.622 C218.93,367.306 221.196,369.198 224.408,369.198 Z M230.414,372.212 C233.186,372.19 235.342,370.452 235.342,367.812 C235.342,365.942 234.506,364.974 233.098,364.974 C231.976,364.974 231.118,365.744 231.118,366.888 C231.118,367.878 231.866,368.692 232.856,368.692 C232.988,368.692 233.12,368.692 233.318,368.626 C233.142,369.814 232.042,370.562 230.414,370.584 L230.414,372.212 Z M247.244,369 L247.244,366.272 L241.502,366.272 L243.746,363.852 C246.342,361.234 247.002,360.09 247.002,358.286 C247.002,355.778 244.824,353.908 241.854,353.908 C238.664,353.908 236.42,356.02 236.42,358.99 L239.39,358.99 C239.39,357.538 240.27,356.636 241.7,356.636 C242.998,356.636 243.812,357.45 243.812,358.66 C243.812,359.958 243.086,360.882 241.37,362.642 L236.86,367.262 L236.86,369 L247.244,369 Z M253.382,369 L257.848,363.588 C259.278,361.894 259.806,360.706 259.806,358.88 C259.806,356.218 257.43,353.952 254.064,353.952 C250.654,353.952 248.3,356.218 248.3,359.078 C248.3,361.894 250.412,363.896 253.448,363.896 C253.69,363.896 253.932,363.874 254.196,363.786 L249.928,369 L253.382,369 Z M254.042,361.498 C252.634,361.498 251.468,360.662 251.468,358.968 C251.468,357.384 252.634,356.504 254.042,356.504 C255.406,356.504 256.616,357.384 256.616,358.99 C256.616,360.728 255.406,361.498 254.042,361.498 Z M271.62,369 L271.62,366.272 L265.878,366.272 L268.122,363.852 C270.718,361.234 271.378,360.09 271.378,358.286 C271.378,355.778 269.2,353.908 266.23,353.908 C263.04,353.908 260.796,356.02 260.796,358.99 L263.766,358.99 C263.766,357.538 264.646,356.636 266.076,356.636 C267.374,356.636 268.188,357.45 268.188,358.66 C268.188,359.958 267.462,360.882 265.746,362.642 L261.236,367.262 L261.236,369 L271.62,369 Z M275.14,369.11 C276.35,369.11 277.186,368.252 277.186,367.042 C277.186,365.81 276.35,364.952 275.14,364.952 C273.93,364.952 273.072,365.81 273.072,367.042 C273.072,368.252 273.93,369.11 275.14,369.11 Z M283.588,369.198 C286.998,369.198 289.286,367.328 289.286,364.578 C289.286,362.972 288.23,361.784 286.382,361.19 C287.812,360.442 288.604,359.364 288.604,358 C288.604,355.602 286.69,353.908 283.566,353.908 C280.64,353.908 278.396,355.844 278.374,358.418 L281.344,358.418 C281.366,357.12 282.158,356.328 283.412,356.328 C284.688,356.328 285.458,357.054 285.458,358.22 C285.458,359.43 284.556,360.178 283.06,360.178 L281.63,360.178 L281.63,362.598 L283.236,362.598 C285.062,362.598 286.14,363.368 286.14,364.666 C286.14,365.986 285.216,366.778 283.632,366.778 C282.114,366.778 281.146,365.964 281.058,364.622 L278.088,364.622 C278.11,367.306 280.376,369.198 283.588,369.198 Z M294.588,369 L300.088,355.91 L300.088,354.128 L289.638,354.128 L289.638,356.856 L296.7,356.856 L291.31,369 L294.588,369 Z" id="$3,292.37" fill="#000000" fill-rule="nonzero"></path>
                    <path d="M253.128,393.272 L253.128,389.942 L256.458,389.942 L256.458,387.782 L253.128,387.782 L253.128,384.452 L250.788,384.452 L250.788,387.782 L247.458,387.782 L247.458,389.942 L250.788,389.942 L250.788,393.272 L253.128,393.272 Z M262.092,395 L265.746,390.572 C266.916,389.186 267.348,388.214 267.348,386.72 C267.348,384.542 265.404,382.688 262.65,382.688 C259.86,382.688 257.934,384.542 257.934,386.882 C257.934,389.186 259.662,390.824 262.146,390.824 C262.344,390.824 262.542,390.806 262.758,390.734 L259.266,395 L262.092,395 Z M262.632,388.862 C261.48,388.862 260.526,388.178 260.526,386.792 C260.526,385.496 261.48,384.776 262.632,384.776 C263.748,384.776 264.738,385.496 264.738,386.81 C264.738,388.232 263.748,388.862 262.632,388.862 Z M268.716,395.09 C269.706,395.09 270.39,394.388 270.39,393.398 C270.39,392.39 269.706,391.688 268.716,391.688 C267.726,391.688 267.024,392.39 267.024,393.398 C267.024,394.388 267.726,395.09 268.716,395.09 Z M275.844,395.18 C278.904,395.18 280.452,393.11 280.452,391.022 C280.452,388.97 279.066,386.972 276.168,386.972 C275.448,386.972 274.746,387.152 274.134,387.548 L274.512,385.064 L279.732,385.064 L279.732,382.832 L272.694,382.832 L271.632,389.654 L273.684,390.32 C274.062,389.492 274.782,389.096 275.754,389.096 C277.23,389.096 277.86,390.068 277.86,391.022 C277.86,392.012 277.302,392.948 275.826,392.948 C274.692,392.948 273.864,392.354 273.72,391.292 L271.218,391.292 C271.29,393.56 273.252,395.18 275.844,395.18 Z M284.88,390.284 C287.13,390.284 288.822,388.574 288.822,386.504 C288.822,384.416 287.13,382.724 284.88,382.724 C282.612,382.724 280.938,384.416 280.938,386.504 C280.938,388.574 282.612,390.284 284.88,390.284 Z M287.868,395 L294.78,382.832 L292.782,382.832 L285.87,395 L287.868,395 Z M284.88,388.52 C283.872,388.52 282.972,387.836 282.972,386.504 C282.972,385.172 283.872,384.488 284.88,384.488 C285.906,384.488 286.77,385.172 286.77,386.504 C286.77,387.836 285.906,388.52 284.88,388.52 Z M296.076,395.162 C298.344,395.162 300.018,393.452 300.018,391.382 C300.018,389.294 298.344,387.602 296.076,387.602 C293.808,387.602 292.134,389.294 292.134,391.382 C292.134,393.452 293.808,395.162 296.076,395.162 Z M296.076,393.38 C295.068,393.38 294.168,392.714 294.168,391.382 C294.168,390.032 295.068,389.366 296.076,389.366 C297.102,389.366 297.984,390.032 297.984,391.382 C297.984,392.714 297.102,393.38 296.076,393.38 Z" id="+9.5%" fill="#82D863" fill-rule="nonzero"></path>
                    <path d="M51.594,398 L51.594,396.272 L45.384,396.272 L45.384,392.204 L50.928,392.204 L50.928,390.476 L45.384,390.476 L45.384,386.804 L51.468,386.804 L51.468,385.076 L43.404,385.076 L43.404,398 L51.594,398 Z M58.596,398 L58.596,386.858 L62.808,386.858 L62.808,385.076 L52.404,385.076 L52.404,386.858 L56.616,386.858 L56.616,398 L58.596,398 Z M66.084,398 L66.084,392.204 L72.636,392.204 L72.636,398 L74.616,398 L74.616,385.076 L72.636,385.076 L72.636,390.476 L66.084,390.476 L66.084,385.076 L64.104,385.076 L64.104,398 L66.084,398 Z" id="ETH" fill="#AFAFAF" fill-rule="nonzero"></path>
                    <path d="M50.602,468.33 C54.562,468.33 57.73,465.69 58.324,461.774 L55.75,461.774 C55.31,464.326 53.242,466.152 50.624,466.152 C47.5,466.152 45.3,463.622 45.3,460.08 C45.3,456.582 47.5,454.052 50.624,454.052 C53.242,454.052 55.31,455.856 55.75,458.408 L58.324,458.408 C57.73,454.514 54.562,451.874 50.602,451.874 C46.202,451.874 42.792,455.438 42.792,460.08 C42.792,464.744 46.202,468.33 50.602,468.33 Z M63.978,468.22 C65.694,468.22 66.992,467.494 67.718,466.196 L67.718,468 L69.566,468 L69.566,460.52 C69.566,457.748 67.894,456.12 65.012,456.12 C62.284,456.12 60.414,457.858 60.304,460.476 L62.328,460.476 C62.394,458.848 63.384,457.88 65.012,457.88 C66.552,457.88 67.454,458.826 67.454,460.498 L67.454,461.356 C66.508,461.246 65.958,461.224 65.276,461.224 C61.8,461.224 59.974,462.412 59.974,464.7 C59.974,466.834 61.558,468.22 63.978,468.22 Z M64.418,466.636 C62.988,466.636 62.086,465.844 62.086,464.634 C62.086,463.27 63.186,462.61 65.408,462.61 C65.98,462.61 66.596,462.632 67.454,462.742 L67.454,463.688 C67.454,465.47 66.288,466.636 64.418,466.636 Z M74.758,468 L74.758,462.038 C74.758,459.464 76.584,458.364 79.092,458.496 L79.092,456.186 C77.178,456.186 75.418,457.198 74.604,458.804 L74.604,456.34 L72.536,456.34 L72.536,468 L74.758,468 Z M85.186,468.22 C86.836,468.22 88.244,467.384 89.08,465.91 L89.08,468 L91.148,468 L91.148,452.204 L88.926,452.204 L88.926,458.342 C88.112,456.912 86.748,456.12 85.186,456.12 C82.04,456.12 80.016,458.628 80.016,462.17 C80.016,465.668 82.04,468.22 85.186,468.22 Z M85.626,466.24 C83.69,466.24 82.326,464.766 82.326,462.17 C82.326,459.53 83.69,458.078 85.626,458.078 C87.474,458.078 88.926,459.508 88.926,462.126 C88.926,464.7 87.518,466.24 85.626,466.24 Z M97.55,468.22 C99.266,468.22 100.564,467.494 101.29,466.196 L101.29,468 L103.138,468 L103.138,460.52 C103.138,457.748 101.466,456.12 98.584,456.12 C95.856,456.12 93.986,457.858 93.876,460.476 L95.9,460.476 C95.966,458.848 96.956,457.88 98.584,457.88 C100.124,457.88 101.026,458.826 101.026,460.498 L101.026,461.356 C100.08,461.246 99.53,461.224 98.848,461.224 C95.372,461.224 93.546,462.412 93.546,464.7 C93.546,466.834 95.13,468.22 97.55,468.22 Z M97.99,466.636 C96.56,466.636 95.658,465.844 95.658,464.634 C95.658,463.27 96.758,462.61 98.98,462.61 C99.552,462.61 100.168,462.632 101.026,462.742 L101.026,463.688 C101.026,465.47 99.86,466.636 97.99,466.636 Z M108.33,468 L108.33,461.422 C108.33,459.354 109.606,458.078 111.124,458.078 C112.774,458.078 113.654,459.2 113.654,461.202 L113.654,468 L115.876,468 L115.876,460.454 C115.876,457.66 114.292,456.12 111.894,456.12 C110.288,456.12 108.968,456.978 108.176,458.276 L108.176,456.34 L106.108,456.34 L106.108,468 L108.33,468 Z M123.708,468.22 C127.008,468.22 129.428,465.624 129.428,462.17 C129.428,458.716 127.008,456.12 123.708,456.12 C120.408,456.12 117.988,458.716 117.988,462.17 C117.988,465.624 120.408,468.22 123.708,468.22 Z M123.708,466.262 C121.794,466.262 120.298,464.722 120.298,462.17 C120.298,459.618 121.794,458.1 123.708,458.1 C125.622,458.1 127.14,459.618 127.14,462.17 C127.14,464.722 125.622,466.262 123.708,466.262 Z" id="Cardano" fill="#000000" fill-rule="nonzero"></path>
                    <path d="M253.69,467.958 L253.69,466.176 C256.814,465.934 258.684,464.064 258.684,461.446 C258.684,459.202 257.122,457.948 254.526,457.398 L252.326,456.936 C251.336,456.738 250.434,456.276 250.434,455.264 C250.434,454.12 251.38,453.394 252.788,453.394 C254.306,453.394 255.34,454.362 255.428,455.814 L258.486,455.814 C258.288,453.13 256.396,451.326 253.69,450.974 L253.69,449.126 L251.688,449.126 L251.688,450.974 C249.114,451.348 247.332,453.13 247.332,455.506 C247.332,458.146 249.158,459.158 251.292,459.642 L253.536,460.104 C254.658,460.346 255.428,460.896 255.428,461.842 C255.428,463.052 254.262,463.734 252.744,463.734 C250.918,463.734 249.884,462.766 249.84,461.204 L246.782,461.204 C246.98,463.91 248.784,465.758 251.688,466.132 L251.688,467.958 L253.69,467.958 Z M270.41,466 L270.41,463.272 L264.668,463.272 L266.912,460.852 C269.508,458.234 270.168,457.09 270.168,455.286 C270.168,452.778 267.99,450.908 265.02,450.908 C261.83,450.908 259.586,453.02 259.586,455.99 L262.556,455.99 C262.556,454.538 263.436,453.636 264.866,453.636 C266.164,453.636 266.978,454.45 266.978,455.66 C266.978,456.958 266.252,457.882 264.536,459.642 L260.026,464.262 L260.026,466 L270.41,466 Z M273.93,466.11 C275.14,466.11 275.976,465.252 275.976,464.042 C275.976,462.81 275.14,461.952 273.93,461.952 C272.72,461.952 271.862,462.81 271.862,464.042 C271.862,465.252 272.72,466.11 273.93,466.11 Z M287.702,466 L287.702,463.272 L281.96,463.272 L284.204,460.852 C286.8,458.234 287.46,457.09 287.46,455.286 C287.46,452.778 285.282,450.908 282.312,450.908 C279.122,450.908 276.878,453.02 276.878,455.99 L279.848,455.99 C279.848,454.538 280.728,453.636 282.158,453.636 C283.456,453.636 284.27,454.45 284.27,455.66 C284.27,456.958 283.544,457.882 281.828,459.642 L277.318,464.262 L277.318,466 L287.702,466 Z M294.302,466.22 C298.042,466.22 299.934,463.69 299.934,461.138 C299.934,458.63 298.24,456.188 294.698,456.188 C293.818,456.188 292.96,456.408 292.212,456.892 L292.674,453.856 L299.054,453.856 L299.054,451.128 L290.452,451.128 L289.154,459.466 L291.662,460.28 C292.124,459.268 293.004,458.784 294.192,458.784 C295.996,458.784 296.766,459.972 296.766,461.138 C296.766,462.348 296.084,463.492 294.28,463.492 C292.894,463.492 291.882,462.766 291.706,461.468 L288.648,461.468 C288.736,464.24 291.134,466.22 294.302,466.22 Z" id="$2.25" fill="#000000" fill-rule="nonzero"></path>
                    <path d="M245.946,490.272 L245.946,486.942 L249.276,486.942 L249.276,484.782 L245.946,484.782 L245.946,481.452 L243.606,481.452 L243.606,484.782 L240.276,484.782 L240.276,486.942 L243.606,486.942 L243.606,490.272 L245.946,490.272 Z M255.414,492 L255.414,479.832 L250.608,479.832 L250.608,481.992 L252.912,481.992 L252.912,492 L255.414,492 Z M265.638,492 L265.638,489.768 L260.94,489.768 L262.776,487.788 C264.9,485.646 265.44,484.71 265.44,483.234 C265.44,481.182 263.658,479.652 261.228,479.652 C258.618,479.652 256.782,481.38 256.782,483.81 L259.212,483.81 C259.212,482.622 259.932,481.884 261.102,481.884 C262.164,481.884 262.83,482.55 262.83,483.54 C262.83,484.602 262.236,485.358 260.832,486.798 L257.142,490.578 L257.142,492 L265.638,492 Z M268.518,492.09 C269.508,492.09 270.192,491.388 270.192,490.398 C270.192,489.39 269.508,488.688 268.518,488.688 C267.528,488.688 266.826,489.39 266.826,490.398 C266.826,491.388 267.528,492.09 268.518,492.09 Z M275.646,492.162 C278.436,492.162 280.308,490.632 280.308,488.472 C280.308,487.14 279.426,486.204 278.256,485.682 C279.21,485.16 279.894,484.314 279.894,483.144 C279.894,481.128 278.166,479.652 275.646,479.652 C273.09,479.652 271.362,481.128 271.362,483.144 C271.362,484.314 272.046,485.16 273,485.682 C271.812,486.204 270.948,487.14 270.948,488.472 C270.948,490.632 272.802,492.162 275.646,492.162 Z M275.646,484.728 C274.584,484.728 273.936,484.152 273.936,483.234 C273.936,482.244 274.584,481.632 275.646,481.632 C276.672,481.632 277.338,482.244 277.338,483.234 C277.338,484.152 276.672,484.728 275.646,484.728 Z M275.646,490.182 C274.332,490.182 273.522,489.516 273.522,488.418 C273.522,487.374 274.332,486.708 275.646,486.708 C276.924,486.708 277.752,487.374 277.752,488.418 C277.752,489.516 276.924,490.182 275.646,490.182 Z M284.88,487.284 C287.13,487.284 288.822,485.574 288.822,483.504 C288.822,481.416 287.13,479.724 284.88,479.724 C282.612,479.724 280.938,481.416 280.938,483.504 C280.938,485.574 282.612,487.284 284.88,487.284 Z M287.868,492 L294.78,479.832 L292.782,479.832 L285.87,492 L287.868,492 Z M284.88,485.52 C283.872,485.52 282.972,484.836 282.972,483.504 C282.972,482.172 283.872,481.488 284.88,481.488 C285.906,481.488 286.77,482.172 286.77,483.504 C286.77,484.836 285.906,485.52 284.88,485.52 Z M296.076,492.162 C298.344,492.162 300.018,490.452 300.018,488.382 C300.018,486.294 298.344,484.602 296.076,484.602 C293.808,484.602 292.134,486.294 292.134,488.382 C292.134,490.452 293.808,492.162 296.076,492.162 Z M296.076,490.38 C295.068,490.38 294.168,489.714 294.168,488.382 C294.168,487.032 295.068,486.366 296.076,486.366 C297.102,486.366 297.984,487.032 297.984,488.382 C297.984,489.714 297.102,490.38 296.076,490.38 Z" id="+12.8%" fill="#82D863" fill-rule="nonzero"></path>
                    <path d="M44.358,495 L45.546,491.796 L51.126,491.796 L52.296,495 L54.402,495 L49.488,482.076 L47.31,482.076 L42.36,495 L44.358,495 Z M50.532,490.194 L46.14,490.194 L48.354,484.236 L50.532,490.194 Z M59.82,495 C63.852,495 66.318,492.21 66.318,488.484 C66.318,484.704 63.942,482.076 59.82,482.076 L55.734,482.076 L55.734,495 L59.82,495 Z M59.73,493.29 L57.714,493.29 L57.714,483.786 L59.73,483.786 C62.718,483.786 64.302,485.568 64.302,488.484 C64.302,491.454 62.7,493.29 59.73,493.29 Z M68.082,495 L69.27,491.796 L74.85,491.796 L76.02,495 L78.126,495 L73.212,482.076 L71.034,482.076 L66.084,495 L68.082,495 Z M74.256,490.194 L69.864,490.194 L72.078,484.236 L74.256,490.194 Z" id="ADA" fill="#AFAFAF" fill-rule="nonzero"></path>
                    <path d="M767.882,521 L769.334,517.084 L776.154,517.084 L777.584,521 L780.158,521 L774.152,505.204 L771.49,505.204 L765.44,521 L767.882,521 Z M775.428,515.126 L770.06,515.126 L772.766,507.844 L775.428,515.126 Z M787.462,521 L791.84,509.34 L789.574,509.34 L786.296,518.448 L783.062,509.34 L780.664,509.34 L785.042,521 L787.462,521 Z M796.746,521.22 C798.462,521.22 799.76,520.494 800.486,519.196 L800.486,521 L802.334,521 L802.334,513.52 C802.334,510.748 800.662,509.12 797.78,509.12 C795.052,509.12 793.182,510.858 793.072,513.476 L795.096,513.476 C795.162,511.848 796.152,510.88 797.78,510.88 C799.32,510.88 800.222,511.826 800.222,513.498 L800.222,514.356 C799.276,514.246 798.726,514.224 798.044,514.224 C794.568,514.224 792.742,515.412 792.742,517.7 C792.742,519.834 794.326,521.22 796.746,521.22 Z M797.186,519.636 C795.756,519.636 794.854,518.844 794.854,517.634 C794.854,516.27 795.954,515.61 798.176,515.61 C798.748,515.61 799.364,515.632 800.222,515.742 L800.222,516.688 C800.222,518.47 799.056,519.636 797.186,519.636 Z M806.404,508.108 C807.35,508.108 808.01,507.47 808.01,506.634 C808.01,505.776 807.35,505.16 806.404,505.16 C805.458,505.16 804.776,505.776 804.776,506.634 C804.776,507.47 805.458,508.108 806.404,508.108 Z M807.526,521 L807.526,509.34 L805.304,509.34 L805.304,521 L807.526,521 Z M812.85,521 L812.85,505.204 L810.606,505.204 L810.606,521 L812.85,521 Z M819.252,521.22 C820.968,521.22 822.266,520.494 822.992,519.196 L822.992,521 L824.84,521 L824.84,513.52 C824.84,510.748 823.168,509.12 820.286,509.12 C817.558,509.12 815.688,510.858 815.578,513.476 L817.602,513.476 C817.668,511.848 818.658,510.88 820.286,510.88 C821.826,510.88 822.728,511.826 822.728,513.498 L822.728,514.356 C821.782,514.246 821.232,514.224 820.55,514.224 C817.074,514.224 815.248,515.412 815.248,517.7 C815.248,519.834 816.832,521.22 819.252,521.22 Z M819.692,519.636 C818.262,519.636 817.36,518.844 817.36,517.634 C817.36,516.27 818.46,515.61 820.682,515.61 C821.254,515.61 821.87,515.632 822.728,515.742 L822.728,516.688 C822.728,518.47 821.562,519.636 819.692,519.636 Z M833.772,521.22 C836.918,521.22 838.942,518.668 838.942,515.17 C838.942,511.628 836.896,509.12 833.772,509.12 C832.188,509.12 830.846,509.912 830.032,511.342 L830.032,505.204 L827.81,505.204 L827.81,521 L829.878,521 L829.878,518.91 C830.714,520.384 832.122,521.22 833.772,521.22 Z M833.332,519.24 C831.44,519.24 830.032,517.7 830.032,515.126 C830.032,512.508 831.484,511.078 833.332,511.078 C835.246,511.078 836.632,512.53 836.632,515.17 C836.632,517.766 835.246,519.24 833.332,519.24 Z M843.43,521 L843.43,505.204 L841.186,505.204 L841.186,521 L843.43,521 Z M851.306,521.22 C854.056,521.22 856.058,519.658 856.63,517.062 L854.43,517.062 C854.056,518.58 852.912,519.482 851.262,519.482 C849.304,519.482 848.116,518.096 847.94,515.72 L856.63,515.72 C857.026,511.936 854.716,509.12 851.24,509.12 C848.028,509.12 845.674,511.65 845.674,515.104 C845.674,518.778 847.94,521.22 851.306,521.22 Z M854.276,514.246 L847.962,514.246 C848.204,512.068 849.414,510.792 851.196,510.792 C853,510.792 854.166,512.09 854.276,514.246 Z M869.544,521 C872.822,521 874.934,519.35 874.934,516.468 C874.934,514.664 873.878,513.322 871.92,512.772 C873.438,512.112 874.34,510.836 874.34,509.34 C874.34,506.678 872.426,505.204 869.236,505.204 L863.758,505.204 L863.758,521 L869.544,521 Z M869.082,511.892 L865.98,511.892 L865.98,507.14 L869.082,507.14 C870.996,507.14 872.03,508.042 872.03,509.516 C872.03,510.99 870.996,511.892 869.082,511.892 Z M869.39,519.064 L865.98,519.064 L865.98,513.828 L869.39,513.828 C871.458,513.828 872.624,514.796 872.624,516.402 C872.624,518.074 871.458,519.064 869.39,519.064 Z M880.874,521.22 C882.59,521.22 883.888,520.494 884.614,519.196 L884.614,521 L886.462,521 L886.462,513.52 C886.462,510.748 884.79,509.12 881.908,509.12 C879.18,509.12 877.31,510.858 877.2,513.476 L879.224,513.476 C879.29,511.848 880.28,510.88 881.908,510.88 C883.448,510.88 884.35,511.826 884.35,513.498 L884.35,514.356 C883.404,514.246 882.854,514.224 882.172,514.224 C878.696,514.224 876.87,515.412 876.87,517.7 C876.87,519.834 878.454,521.22 880.874,521.22 Z M881.314,519.636 C879.884,519.636 878.982,518.844 878.982,517.634 C878.982,516.27 880.082,515.61 882.304,515.61 C882.876,515.61 883.492,515.632 884.35,515.742 L884.35,516.688 C884.35,518.47 883.184,519.636 881.314,519.636 Z M891.676,521 L891.676,505.204 L889.432,505.204 L889.432,521 L891.676,521 Z M898.078,521.22 C899.794,521.22 901.092,520.494 901.818,519.196 L901.818,521 L903.666,521 L903.666,513.52 C903.666,510.748 901.994,509.12 899.112,509.12 C896.384,509.12 894.514,510.858 894.404,513.476 L896.428,513.476 C896.494,511.848 897.484,510.88 899.112,510.88 C900.652,510.88 901.554,511.826 901.554,513.498 L901.554,514.356 C900.608,514.246 900.058,514.224 899.376,514.224 C895.9,514.224 894.074,515.412 894.074,517.7 C894.074,519.834 895.658,521.22 898.078,521.22 Z M898.518,519.636 C897.088,519.636 896.186,518.844 896.186,517.634 C896.186,516.27 897.286,515.61 899.508,515.61 C900.08,515.61 900.696,515.632 901.554,515.742 L901.554,516.688 C901.554,518.47 900.388,519.636 898.518,519.636 Z M908.858,521 L908.858,514.422 C908.858,512.354 910.134,511.078 911.652,511.078 C913.302,511.078 914.182,512.2 914.182,514.202 L914.182,521 L916.404,521 L916.404,513.454 C916.404,510.66 914.82,509.12 912.422,509.12 C910.816,509.12 909.496,509.978 908.704,511.276 L908.704,509.34 L906.636,509.34 L906.636,521 L908.858,521 Z M923.95,521.242 C926.876,521.242 928.944,519.35 929.34,516.27 L927.03,516.27 C926.766,518.162 925.622,519.262 923.972,519.262 C922.058,519.262 920.804,517.656 920.804,515.17 C920.804,512.706 922.058,511.078 923.972,511.078 C925.6,511.078 926.766,512.2 927.008,514.07 L929.34,514.07 C928.922,511.034 926.832,509.12 923.95,509.12 C920.804,509.12 918.516,511.65 918.516,515.17 C918.516,518.734 920.76,521.242 923.95,521.242 Z M936.38,521.22 C939.13,521.22 941.132,519.658 941.704,517.062 L939.504,517.062 C939.13,518.58 937.986,519.482 936.336,519.482 C934.378,519.482 933.19,518.096 933.014,515.72 L941.704,515.72 C942.1,511.936 939.79,509.12 936.314,509.12 C933.102,509.12 930.748,511.65 930.748,515.104 C930.748,518.778 933.014,521.22 936.38,521.22 Z M939.35,514.246 L933.036,514.246 C933.278,512.068 934.488,510.792 936.27,510.792 C938.074,510.792 939.24,512.09 939.35,514.246 Z" id="AvailableBalance" fill="#6A6565" fill-rule="nonzero"></path>
                    <path d="M794.416,568.24 C797.744,568.24 800.256,565.632 800.256,562.24 C800.256,558.848 797.744,556.272 794.416,556.272 C791.088,556.272 788.576,558.848 788.576,562.24 C788.576,565.632 791.088,568.24 794.416,568.24 Z M794.416,566.656 C791.984,566.656 790.4,564.704 790.4,562.24 C790.4,559.776 791.984,557.856 794.416,557.856 C796.848,557.856 798.432,559.776 798.432,562.24 C798.432,564.704 796.848,566.656 794.416,566.656 Z M804.768,568.16 C805.92,568.16 806.912,567.536 807.36,566.656 L807.36,568 L808.864,568 L808.864,559.52 L807.248,559.52 L807.248,564.512 C807.248,565.84 806.368,566.736 805.28,566.736 C804.224,566.736 803.488,566.128 803.488,564.656 L803.488,559.52 L801.872,559.52 L801.872,564.976 C801.872,567.152 803.056,568.16 804.768,568.16 Z M814.448,568.16 C814.96,568.16 815.392,568.08 815.888,567.856 L815.888,566.432 C815.552,566.592 815.216,566.656 814.832,566.656 C813.968,566.656 813.408,566.24 813.408,565.072 L813.408,560.896 L815.968,560.896 L815.968,559.52 L813.408,559.52 L813.408,557.008 L811.792,557.008 L811.792,559.52 L809.92,559.52 L809.92,560.896 L811.792,560.896 L811.792,565.44 C811.792,567.312 812.88,568.16 814.448,568.16 Z M820.848,568.176 C822.976,568.176 824.48,566.8 824.768,564.56 L823.088,564.56 C822.896,565.936 822.064,566.736 820.864,566.736 C819.472,566.736 818.56,565.568 818.56,563.76 C818.56,561.968 819.472,560.784 820.864,560.784 C822.048,560.784 822.896,561.6 823.072,562.96 L824.768,562.96 C824.464,560.752 822.944,559.36 820.848,559.36 C818.56,559.36 816.896,561.2 816.896,563.76 C816.896,566.352 818.528,568.176 820.848,568.176 Z M829.952,568.16 C832.352,568.16 834.112,566.272 834.112,563.76 C834.112,561.248 832.352,559.36 829.952,559.36 C827.552,559.36 825.792,561.248 825.792,563.76 C825.792,566.272 827.552,568.16 829.952,568.16 Z M829.952,566.736 C828.56,566.736 827.472,565.616 827.472,563.76 C827.472,561.904 828.56,560.8 829.952,560.8 C831.344,560.8 832.448,561.904 832.448,563.76 C832.448,565.616 831.344,566.736 829.952,566.736 Z M837.376,568 L837.376,563.136 C837.376,561.712 838.256,560.784 839.376,560.784 C840.56,560.784 841.184,561.616 841.184,563.024 L841.184,568 L842.8,568 L842.8,563.136 C842.8,561.712 843.696,560.784 844.8,560.784 C845.984,560.784 846.608,561.616 846.608,563.024 L846.608,568 L848.224,568 L848.224,562.512 C848.224,560.496 847.104,559.36 845.36,559.36 C844.064,559.36 843.088,560.032 842.496,561.12 C842.112,560 841.168,559.36 839.92,559.36 C838.752,559.36 837.84,559.952 837.264,560.928 L837.264,559.52 L835.76,559.52 L835.76,568 L837.376,568 Z M853.872,568.16 C855.872,568.16 857.328,567.024 857.744,565.136 L856.144,565.136 C855.872,566.24 855.04,566.896 853.84,566.896 C852.416,566.896 851.552,565.888 851.424,564.16 L857.744,564.16 C858.032,561.408 856.352,559.36 853.824,559.36 C851.488,559.36 849.776,561.2 849.776,563.712 C849.776,566.384 851.424,568.16 853.872,568.16 Z M856.032,563.088 L851.44,563.088 C851.616,561.504 852.496,560.576 853.792,560.576 C855.104,560.576 855.952,561.52 856.032,563.088 Z" id="Outcome" fill="#6A6565" fill-rule="nonzero"></path>
                    <circle id="Oval" fill="#41ADCA" cx="773" cy="562" r="8"></circle>
                    <path d="M921.008,568 L921.008,556.512 L919.248,556.512 L919.248,568 L921.008,568 Z M924.992,568 L924.992,563.216 C924.992,561.712 925.92,560.784 927.024,560.784 C928.224,560.784 928.864,561.6 928.864,563.056 L928.864,568 L930.48,568 L930.48,562.512 C930.48,560.48 929.328,559.36 927.584,559.36 C926.416,559.36 925.456,559.984 924.88,560.928 L924.88,559.52 L923.376,559.52 L923.376,568 L924.992,568 Z M935.968,568.176 C938.096,568.176 939.6,566.8 939.888,564.56 L938.208,564.56 C938.016,565.936 937.184,566.736 935.984,566.736 C934.592,566.736 933.68,565.568 933.68,563.76 C933.68,561.968 934.592,560.784 935.984,560.784 C937.168,560.784 938.016,561.6 938.192,562.96 L939.888,562.96 C939.584,560.752 938.064,559.36 935.968,559.36 C933.68,559.36 932.016,561.2 932.016,563.76 C932.016,566.352 933.648,568.176 935.968,568.176 Z M945.072,568.16 C947.472,568.16 949.232,566.272 949.232,563.76 C949.232,561.248 947.472,559.36 945.072,559.36 C942.672,559.36 940.912,561.248 940.912,563.76 C940.912,566.272 942.672,568.16 945.072,568.16 Z M945.072,566.736 C943.68,566.736 942.592,565.616 942.592,563.76 C942.592,561.904 943.68,560.8 945.072,560.8 C946.464,560.8 947.568,561.904 947.568,563.76 C947.568,565.616 946.464,566.736 945.072,566.736 Z M952.496,568 L952.496,563.136 C952.496,561.712 953.376,560.784 954.496,560.784 C955.68,560.784 956.304,561.616 956.304,563.024 L956.304,568 L957.92,568 L957.92,563.136 C957.92,561.712 958.816,560.784 959.92,560.784 C961.104,560.784 961.728,561.616 961.728,563.024 L961.728,568 L963.344,568 L963.344,562.512 C963.344,560.496 962.224,559.36 960.48,559.36 C959.184,559.36 958.208,560.032 957.616,561.12 C957.232,560 956.288,559.36 955.04,559.36 C953.872,559.36 952.96,559.952 952.384,560.928 L952.384,559.52 L950.88,559.52 L950.88,568 L952.496,568 Z M968.992,568.16 C970.992,568.16 972.448,567.024 972.864,565.136 L971.264,565.136 C970.992,566.24 970.16,566.896 968.96,566.896 C967.536,566.896 966.672,565.888 966.544,564.16 L972.864,564.16 C973.152,561.408 971.472,559.36 968.944,559.36 C966.608,559.36 964.896,561.2 964.896,563.712 C964.896,566.384 966.544,568.16 968.992,568.16 Z M971.152,563.088 L966.56,563.088 C966.736,561.504 967.616,560.576 968.912,560.576 C970.224,560.576 971.072,561.52 971.152,563.088 Z" id="Income" fill="#6A6565" fill-rule="nonzero"></path>
                    <circle id="Oval-Copy" fill="#6CD62D" cx="903" cy="562" r="8"></circle>
                    <path d="M623.169565,827 C628.48476,827 633.591772,828.869325 633.976756,829.013119 L634,829.021862 L632.282769,838.981084 C627.129837,836.134352 615.402433,835.460811 615.402433,840.702768 C615.402433,845.944724 632.207299,847.067292 632.207299,859.124041 C632.207299,870.731762 619.809334,875 611.593099,875 C603.654186,875 598.367715,872.554861 598.018433,872.389089 L598,872.380262 L599.791463,861.969533 C604.720462,865.937592 619.658396,867.0614 619.658396,860.7713 C619.658396,854.4812 603.004468,854.332351 603.004468,842.351268 C603.004468,829.619738 617.193896,827 623.169565,827 Z M598,828 L590.307011,874 L578,874 L585.691724,828 L598,828 Z M546.222673,828 C551.452608,828 551.941908,832.171829 551.941908,832.171829 L551.941908,832.171829 L556,853 C556,853 555.999539,852.998575 555.998612,852.995746 L555.987389,852.962117 C555.906858,852.723738 555.435451,851.378486 554.424909,849.441794 L555.090529,852.827252 L556.45242,859.63792 L567.983756,828 L581,828 L561.758325,874 L549.15711,874 L538.649677,834.037931 C531.830283,829.9786 526,828.777659 526,828.777659 L526,828.777659 L526.222426,828 Z M665.323292,828 L675,874 L663.901343,874 L662.484361,867.168414 L647.118614,867.168414 L644.597603,874 L632,874 L650.025848,831.428098 L650.025848,831.428098 L650.032831,831.407493 C650.132103,831.123535 651.321465,828 655.605603,828 L655.605603,828 L665.323292,828 Z M656.95304,840.512679 L650.600838,857.728226 L660.525921,857.728226 L656.95304,840.512679 Z" id="Combined-Shape" fill="#FFFFFF"></path>
                    <line x1="42.5" y1="328.5" x2="301.5" y2="328.5" id="Line" stroke="#ECECEC" stroke-linecap="square"></line>
                    <line x1="42.5" y1="328.5" x2="301.5" y2="328.5" id="Line-Copy" stroke="#ECECEC" stroke-linecap="square"></line>
                    <line x1="42.5" y1="428.5" x2="301.5" y2="428.5" id="Line-Copy" stroke="#ECECEC" stroke-linecap="square"></line>
                    <g id="Group-4" transform="translate(281.000000, 818.000000)" fill="#31C6EC" opacity="0.600000024">
                        <g id="Group" transform="translate(0.000000, 23.000000)">
                            <circle id="Oval" cx="6" cy="6" r="6"></circle>
                            <circle id="Oval-Copy-2" cx="31" cy="6" r="6"></circle>
                            <circle id="Oval-Copy-4" cx="6" cy="27" r="6"></circle>
                            <circle id="Oval-Copy-3" cx="31" cy="27" r="6"></circle>
                        </g>
                        <g id="Group-Copy" transform="translate(49.000000, 0.000000)">
                            <circle id="Oval" cx="6" cy="6" r="6"></circle>
                            <circle id="Oval-Copy-2" cx="31" cy="6" r="6"></circle>
                            <circle id="Oval-Copy-4" cx="6" cy="27" r="6"></circle>
                            <circle id="Oval-Copy-3" cx="31" cy="27" r="6"></circle>
                        </g>
                    </g>
                </g>
                <g id="Group-3" transform="translate(0.000000, 613.000000)">
                    <rect id="Rectangle" fill="#FFFFFF" x="0.0564700018" y="0" width="319" height="239" rx="17"></rect>
                    <g id="Stroke-89">
                        <mask id="mask-4" fill="white">
                            <use xlink:href="#path-3"></use>
                        </mask>
                        <use id="Mask" fill="#FFFFFF" xlink:href="#path-3"></use>
                        <path d="M76.1931662,126.5 C84.0229114,126.5 91.6949739,128.661875 98.3631633,132.741475 L98.9016108,133.076451 L125.446885,149.859111 C130.951959,153.338645 137.304349,155.23547 143.806751,155.347234 L144.416769,155.352476 L169.24427,155.352476 C177.178959,155.352476 184.877887,152.695154 191.11582,147.812357 L191.548638,147.468091 L202.979534,138.233735 C217.89661,126.181489 239.012644,125.627513 254.529878,136.815346 L254.792,137.007 L255.248185,137.258379 C265.943479,143.078743 276.443325,145.226558 286.687727,144.316793 L287.290043,144.259755 C295.743194,143.409486 303.652294,140.527052 310.843222,136.243736 C313.896608,134.424969 316.607736,132.477067 318.938616,130.535449 C319.169535,130.343094 319.391633,130.154978 319.604802,129.971501 L320.217416,129.435384 C320.412621,129.261583 320.59879,129.09282 320.775818,128.929494 L321.265551,128.46956 L321.641536,128.101269 C321.656897,128.085649 321.670301,128.071872 321.681742,128.059972 C323.021356,126.666448 325.237003,126.622745 326.630527,127.96236 C328.024051,129.301974 328.067753,131.517621 326.728138,132.911145 L326.474992,133.169043 L326.175267,133.463703 L325.829322,133.793521 C325.767833,133.851332 325.704433,133.91054 325.639129,133.971114 L325.000206,134.552221 L324.517751,134.977897 L323.99051,135.43232 L323.418841,135.913886 C320.817336,138.080933 317.809946,140.241696 314.425463,142.257682 C306.408054,147.033297 297.544328,150.26364 287.990611,151.22461 C276.154314,152.415177 264.032497,150.014295 251.874432,143.39178 L251.247983,143.047523 C251.175244,143.008175 251.103788,142.966189 251.033763,142.921612 L250.828128,142.78016 C237.962521,133.23714 220.321179,133.503754 207.757711,143.376662 L207.378564,143.678781 L195.948089,152.912798 C188.541269,158.899028 179.340901,162.218114 169.827125,162.348483 L169.24427,162.352476 L144.416769,162.352476 C136.589607,162.352476 128.917632,160.190271 122.245335,156.110975 L121.706546,155.776025 L95.1602879,138.992743 C89.6594113,135.513301 83.3078999,133.616974 76.8033908,133.505241 L76.1931662,133.5 L60.2978031,133.5 C47.6775819,133.5 36.0201277,140.198415 29.6597466,151.07027 L29.361189,151.586192 L-2.01512307,202.827706 C-3.0245373,204.476208 -5.17920413,204.994291 -6.82770614,203.984877 C-8.41936325,203.01027 -8.95721716,200.968032 -8.08386651,199.344566 L-7.98487693,199.172294 L23.361,147.979 L23.5830518,147.594961 C31.1053902,134.688952 44.8560788,126.679372 59.7938405,126.502975 L60.2978031,126.5 L76.1931662,126.5 Z" fill="#31C6EC" fill-rule="nonzero" mask="url(#mask-4)"></path>
                    </g>
                    <path d="M59.06447,67.848 L59.06447,65.256 C63.60847,64.904 66.32847,62.184 66.32847,58.376 C66.32847,55.112 64.05647,53.288 60.28047,52.488 L57.08047,51.816 C55.64047,51.528 54.32847,50.856 54.32847,49.384 C54.32847,47.72 55.70447,46.664 57.75247,46.664 C59.96047,46.664 61.46447,48.072 61.59247,50.184 L66.04047,50.184 C65.75247,46.28 63.00047,43.656 59.06447,43.144 L59.06447,40.456 L56.15247,40.456 L56.15247,43.144 C52.40847,43.688 49.81647,46.28 49.81647,49.736 C49.81647,53.576 52.47247,55.048 55.57647,55.752 L58.84047,56.424 C60.47247,56.776 61.59247,57.576 61.59247,58.952 C61.59247,60.712 59.89647,61.704 57.68847,61.704 C55.03247,61.704 53.52847,60.296 53.46447,58.024 L49.01647,58.024 C49.30447,61.96 51.92847,64.648 56.15247,65.192 L56.15247,67.848 L59.06447,67.848 Z M83.38447,65 L83.38447,61.032 L75.03247,61.032 L78.29647,57.512 C82.07247,53.704 83.03247,52.04 83.03247,49.416 C83.03247,45.768 79.86447,43.048 75.54447,43.048 C70.90447,43.048 67.64047,46.12 67.64047,50.44 L71.96047,50.44 C71.96047,48.328 73.24047,47.016 75.32047,47.016 C77.20847,47.016 78.39247,48.2 78.39247,49.96 C78.39247,51.848 77.33647,53.192 74.84047,55.752 L68.28047,62.472 L68.28047,65 L83.38447,65 Z M84.31247,69.672 C88.34447,69.64 91.48047,67.112 91.48047,63.272 C91.48047,60.552 90.26447,59.144 88.21647,59.144 C86.58447,59.144 85.33647,60.264 85.33647,61.928 C85.33647,63.368 86.42447,64.552 87.86447,64.552 C88.05647,64.552 88.24847,64.552 88.53647,64.456 C88.28047,66.184 86.68047,67.272 84.31247,67.304 L84.31247,69.672 Z M101.20847,65.256 C106.13647,65.256 109.59247,61.96 109.59247,57.8 C109.59247,53.704 106.48847,50.792 102.07247,50.792 C101.72047,50.792 101.36847,50.824 101.01647,50.952 L107.22447,43.368 L102.20047,43.368 L95.67247,51.24 C93.65647,53.64 92.85647,55.368 92.85647,58.088 C92.85647,61.96 96.28047,65.256 101.20847,65.256 Z M101.24047,61.544 C99.22447,61.544 97.49647,60.264 97.49647,57.928 C97.49647,55.4 99.22447,54.28 101.24047,54.28 C103.25647,54.28 104.98447,55.496 104.98447,57.96 C104.98447,60.264 103.25647,61.544 101.24047,61.544 Z M119.28847,65.288 C124.24847,65.288 127.57647,62.568 127.57647,58.728 C127.57647,56.36 126.00847,54.696 123.92847,53.768 C125.62447,52.84 126.84047,51.336 126.84047,49.256 C126.84047,45.672 123.76847,43.048 119.28847,43.048 C114.74447,43.048 111.67247,45.672 111.67247,49.256 C111.67247,51.336 112.88847,52.84 114.58447,53.768 C112.47247,54.696 110.93647,56.36 110.93647,58.728 C110.93647,62.568 114.23247,65.288 119.28847,65.288 Z M119.28847,52.072 C117.40047,52.072 116.24847,51.048 116.24847,49.416 C116.24847,47.656 117.40047,46.568 119.28847,46.568 C121.11247,46.568 122.29647,47.656 122.29647,49.416 C122.29647,51.048 121.11247,52.072 119.28847,52.072 Z M119.28847,61.768 C116.95247,61.768 115.51247,60.584 115.51247,58.632 C115.51247,56.776 116.95247,55.592 119.28847,55.592 C121.56047,55.592 123.03247,56.776 123.03247,58.632 C123.03247,60.584 121.56047,61.768 119.28847,61.768 Z M137.75247,65.32 C143.16047,65.32 146.13647,61.352 146.13647,54.216 C146.13647,47.048 143.09647,43.048 137.75247,43.048 C132.40847,43.048 129.40047,47.048 129.40047,54.216 C129.40047,61.352 132.34447,65.32 137.75247,65.32 Z M137.75247,61.352 C135.25647,61.352 133.97647,58.856 133.97647,54.216 C133.97647,49.544 135.32047,47.016 137.75247,47.016 C140.21647,47.016 141.56047,49.544 141.56047,54.216 C141.56047,58.856 140.21647,61.352 137.75247,61.352 Z M150.36047,65.16 C152.12047,65.16 153.33647,63.912 153.33647,62.152 C153.33647,60.36 152.12047,59.112 150.36047,59.112 C148.60047,59.112 147.35247,60.36 147.35247,62.152 C147.35247,63.912 148.60047,65.16 150.36047,65.16 Z M162.93647,65.32 C168.34447,65.32 171.32047,61.352 171.32047,54.216 C171.32047,47.048 168.28047,43.048 162.93647,43.048 C157.59247,43.048 154.58447,47.048 154.58447,54.216 C154.58447,61.352 157.52847,65.32 162.93647,65.32 Z M162.93647,61.352 C160.44047,61.352 159.16047,58.856 159.16047,54.216 C159.16047,49.544 160.50447,47.016 162.93647,47.016 C165.40047,47.016 166.74447,49.544 166.74447,54.216 C166.74447,58.856 165.40047,61.352 162.93647,61.352 Z M181.78447,65.32 C187.19247,65.32 190.16847,61.352 190.16847,54.216 C190.16847,47.048 187.12847,43.048 181.78447,43.048 C176.44047,43.048 173.43247,47.048 173.43247,54.216 C173.43247,61.352 176.37647,65.32 181.78447,65.32 Z M181.78447,61.352 C179.28847,61.352 178.00847,58.856 178.00847,54.216 C178.00847,49.544 179.35247,47.016 181.78447,47.016 C184.24847,47.016 185.59247,49.544 185.59247,54.216 C185.59247,58.856 184.24847,61.352 181.78447,61.352 Z" id="$2,680.00" fill="#000000" fill-rule="nonzero"></path>
                    <path d="M260.37647,58 L260.37647,56.016 L256.20047,56.016 L257.83247,54.256 C259.72047,52.352 260.20047,51.52 260.20047,50.208 C260.20047,48.384 258.61647,47.024 256.45647,47.024 C254.13647,47.024 252.50447,48.56 252.50447,50.72 L254.66447,50.72 C254.66447,49.664 255.30447,49.008 256.34447,49.008 C257.28847,49.008 257.88047,49.6 257.88047,50.48 C257.88047,51.424 257.35247,52.096 256.10447,53.376 L252.82447,56.736 L252.82447,58 L260.37647,58 Z M265.08047,58.144 C267.56047,58.144 269.22447,56.784 269.22447,54.784 C269.22447,53.616 268.45647,52.752 267.11247,52.32 C268.15247,51.776 268.72847,50.992 268.72847,50 C268.72847,48.256 267.33647,47.024 265.06447,47.024 C262.93647,47.024 261.30447,48.432 261.28847,50.304 L263.44847,50.304 C263.46447,49.36 264.04047,48.784 264.95247,48.784 C265.88047,48.784 266.44047,49.312 266.44047,50.16 C266.44047,51.04 265.78447,51.584 264.69647,51.584 L263.65647,51.584 L263.65647,53.344 L264.82447,53.344 C266.15247,53.344 266.93647,53.904 266.93647,54.848 C266.93647,55.808 266.26447,56.384 265.11247,56.384 C264.00847,56.384 263.30447,55.792 263.24047,54.816 L261.08047,54.816 C261.09647,56.768 262.74447,58.144 265.08047,58.144 Z M273.27247,53.808 C275.27247,53.808 276.77647,52.288 276.77647,50.448 C276.77647,48.592 275.27247,47.088 273.27247,47.088 C271.25647,47.088 269.76847,48.592 269.76847,50.448 C269.76847,52.288 271.25647,53.808 273.27247,53.808 Z M275.92847,58 L282.07247,47.184 L280.29647,47.184 L274.15247,58 L275.92847,58 Z M273.27247,52.24 C272.37647,52.24 271.57647,51.632 271.57647,50.448 C271.57647,49.264 272.37647,48.656 273.27247,48.656 C274.18447,48.656 274.95247,49.264 274.95247,50.448 C274.95247,51.632 274.18447,52.24 273.27247,52.24 Z M283.22447,58.144 C285.24047,58.144 286.72847,56.624 286.72847,54.784 C286.72847,52.928 285.24047,51.424 283.22447,51.424 C281.20847,51.424 279.72047,52.928 279.72047,54.784 C279.72047,56.624 281.20847,58.144 283.22447,58.144 Z M283.22447,56.56 C282.32847,56.56 281.52847,55.968 281.52847,54.784 C281.52847,53.584 282.32847,52.992 283.22447,52.992 C284.13647,52.992 284.92047,53.584 284.92047,54.784 C284.92047,55.968 284.13647,56.56 283.22447,56.56 Z" id="23%" fill="#68D54B" fill-rule="nonzero"></path>
                    <polygon id="Triangle" fill="#68D54B" points="237.55647 47 246.05647 58 229.05647 58"></polygon>
                    <path d="M50.87647,88 L50.87647,77.23 L49.22647,77.23 L49.22647,88 L50.87647,88 Z M54.61147,88 L54.61147,83.515 C54.61147,82.105 55.48147,81.235 56.51647,81.235 C57.64147,81.235 58.24147,82 58.24147,83.365 L58.24147,88 L59.75647,88 L59.75647,82.855 C59.75647,80.95 58.67647,79.9 57.04147,79.9 C55.94647,79.9 55.04647,80.485 54.50647,81.37 L54.50647,80.05 L53.09647,80.05 L53.09647,88 L54.61147,88 Z M65.38147,88 L68.36647,80.05 L66.82147,80.05 L64.58647,86.26 L62.38147,80.05 L60.74647,80.05 L63.73147,88 L65.38147,88 Z M72.71647,88.15 C74.59147,88.15 75.95647,87.085 76.34647,85.315 L74.84647,85.315 C74.59147,86.35 73.81147,86.965 72.68647,86.965 C71.35147,86.965 70.54147,86.02 70.42147,84.4 L76.34647,84.4 C76.61647,81.82 75.04147,79.9 72.67147,79.9 C70.48147,79.9 68.87647,81.625 68.87647,83.98 C68.87647,86.485 70.42147,88.15 72.71647,88.15 Z M74.74147,83.395 L70.43647,83.395 C70.60147,81.91 71.42647,81.04 72.64147,81.04 C73.87147,81.04 74.66647,81.925 74.74147,83.395 Z M80.92147,88.15 C83.03647,88.15 84.25147,87.19 84.25147,85.63 C84.25147,84.49 83.50147,83.8 81.92647,83.515 L80.57647,83.26 C79.61647,83.08 79.21147,82.78 79.21147,82.135 C79.21147,81.445 79.85647,81.04 80.81647,81.04 C81.88147,81.04 82.58647,81.595 82.67647,82.555 L84.13147,82.555 C83.99647,80.92 82.70647,79.9 80.80147,79.9 C78.95647,79.9 77.74147,80.875 77.74147,82.27 C77.74147,83.47 78.56647,84.22 80.03647,84.505 L81.32647,84.745 C82.31647,84.94 82.72147,85.225 82.72147,85.885 C82.72147,86.635 82.01647,87.01 80.95147,87.01 C79.73647,87.01 78.94147,86.395 78.88147,85.405 L77.42647,85.405 C77.57647,87.115 78.82147,88.15 80.92147,88.15 Z M89.03647,88.15 C89.51647,88.15 89.92147,88.075 90.38647,87.865 L90.38647,86.53 C90.07147,86.68 89.75647,86.74 89.39647,86.74 C88.58647,86.74 88.06147,86.35 88.06147,85.255 L88.06147,81.34 L90.46147,81.34 L90.46147,80.05 L88.06147,80.05 L88.06147,77.695 L86.54647,77.695 L86.54647,80.05 L84.79147,80.05 L84.79147,81.34 L86.54647,81.34 L86.54647,85.6 C86.54647,87.355 87.56647,88.15 89.03647,88.15 Z M99.98647,88 L103.94647,77.23 L102.29647,77.23 L99.11647,86.08 L95.98147,77.23 L94.21147,77.23 L98.17147,88 L99.98647,88 Z M107.50147,88.15 C108.67147,88.15 109.55647,87.655 110.05147,86.77 L110.05147,88 L111.31147,88 L111.31147,82.9 C111.31147,81.01 110.17147,79.9 108.20647,79.9 C106.34647,79.9 105.07147,81.085 104.99647,82.87 L106.37647,82.87 C106.42147,81.76 107.09647,81.1 108.20647,81.1 C109.25647,81.1 109.87147,81.745 109.87147,82.885 L109.87147,83.47 C109.22647,83.395 108.85147,83.38 108.38647,83.38 C106.01647,83.38 104.77147,84.19 104.77147,85.75 C104.77147,87.205 105.85147,88.15 107.50147,88.15 Z M107.80147,87.07 C106.82647,87.07 106.21147,86.53 106.21147,85.705 C106.21147,84.775 106.96147,84.325 108.47647,84.325 C108.86647,84.325 109.28647,84.34 109.87147,84.415 L109.87147,85.06 C109.87147,86.275 109.07647,87.07 107.80147,87.07 Z M114.86647,88 L114.86647,77.23 L113.33647,77.23 L113.33647,88 L114.86647,88 Z M119.60647,88.15 C120.68647,88.15 121.61647,87.565 122.03647,86.74 L122.03647,88 L123.44647,88 L123.44647,80.05 L121.93147,80.05 L121.93147,84.73 C121.93147,85.975 121.10647,86.815 120.08647,86.815 C119.09647,86.815 118.40647,86.245 118.40647,84.865 L118.40647,80.05 L116.89147,80.05 L116.89147,85.165 C116.89147,87.205 118.00147,88.15 119.60647,88.15 Z M128.81647,88.15 C130.69147,88.15 132.05647,87.085 132.44647,85.315 L130.94647,85.315 C130.69147,86.35 129.91147,86.965 128.78647,86.965 C127.45147,86.965 126.64147,86.02 126.52147,84.4 L132.44647,84.4 C132.71647,81.82 131.14147,79.9 128.77147,79.9 C126.58147,79.9 124.97647,81.625 124.97647,83.98 C124.97647,86.485 126.52147,88.15 128.81647,88.15 Z M130.84147,83.395 L126.53647,83.395 C126.70147,81.91 127.52647,81.04 128.74147,81.04 C129.97147,81.04 130.76647,81.925 130.84147,83.395 Z" id="InvestValue" fill="#6A6565" fill-rule="nonzero"></path>
                </g>
                <g id="Group-5" transform="translate(585.056470, 216.000000)">
                    <rect id="Rectangle" fill="url(#linearGradient-5)" x="0" y="0" width="74" height="100" rx="9"></rect>
                    <path d="M51,70 L51,100 L48,100 L48,73 L25,73 L25,100 L22,100 L22,73 L9,73 L9,53 L0,53 L0,50 L9,50 L9,30 L22,30 L22,0 L25,0 L25,30 L48,30 L48,0 L51,0 L51,30 L64,30 L64,50 L74,50 L74,53 L61,53 L61,33 L12,33 L12,70 L51,70 Z" id="Combined-Shape" fill="#B8B7B4"></path>
                </g>
                <path d="M342.611092,129 C355.922016,129 364.05647,121.966079 364.05647,111.928087 C364.05647,104.161465 359.027899,99.9118046 349.710252,98.0800543 L340.614453,96.2483039 C336.769075,95.5156038 333.441344,93.9769335 333.441344,90.3867028 C333.441344,86.7232022 336.547226,83.6458616 342.019495,83.6458616 C347.639663,83.6458616 351.485041,87.3826323 351.854789,92.8778833 L363.243025,92.8778833 C362.503529,81.8873813 353.777478,75 341.871596,75 C330.409411,75 322.053109,81.7408412 322.053109,91.119403 C322.053109,99.8385346 328.264873,104.161465 336.325378,105.700136 L345.051428,107.385346 C349.562352,108.264586 352.150588,110.242877 352.150588,113.540027 C352.150588,117.789688 348.083361,120.280868 342.389243,120.280868 C335.511932,120.280868 331.740504,116.544098 331.444705,110.755767 L320.05647,110.755767 C320.869915,121.892809 329.226218,129 342.611092,129 Z M374.093903,129 C378.21155,129 381.05647,126.111111 381.05647,122.037037 C381.05647,117.888889 378.21155,115 374.093903,115 C369.976256,115 367.05647,117.888889 367.05647,122.037037 C367.05647,126.111111 369.976256,129 374.093903,129 Z" id="S.-Copy" fill="#FFFFFF" fill-rule="nonzero"></path>
            </g>
        </g>
    </g>
</svg>