<?xml version="1.0" encoding="UTF-8"?>
<svg width="1237px" height="1032px" viewBox="0 0 1237 1032" version="1.1" xmlns="http://www.w3.org/2000/svg" xmlns:xlink="http://www.w3.org/1999/xlink">
    <title>Artboard</title>
    <defs>
        <rect id="path-1" x="0" y="0" width="692" height="723" rx="94"></rect>
        <filter x="-17.7%" y="-12.1%" width="135.4%" height="133.9%" filterUnits="objectBoundingBox" id="filter-2">
            <feOffset dx="0" dy="35" in="SourceAlpha" result="shadowOffsetOuter1"></feOffset>
            <feGaussianBlur stdDeviation="35" in="shadowOffsetOuter1" result="shadowBlurOuter1"></feGaussianBlur>
            <feColorMatrix values="0 0 0 0 0   0 0 0 0 0   0 0 0 0 0  0 0 0 0.05 0" type="matrix" in="shadowBlurOuter1"></feColorMatrix>
        </filter>
    </defs>
    <g id="Artboard" stroke="none" stroke-width="1" fill="none" fill-rule="evenodd">
        <rect id="Rectangle" fill="#000000" x="216" y="101" width="806" height="832" rx="147"></rect>
        <g id="Group-33-Copy" transform="translate(273.000000, 155.000000)">
            <g id="Rectangle-Copy-75">
                <use fill="black" fill-opacity="1" filter="url(#filter-2)" xlink:href="#path-1"></use>
                <use fill="#FFFFFF" fill-rule="evenodd" xlink:href="#path-1"></use>
            </g>
            <g id="Group-30-Copy" transform="translate(75.000000, 139.000000)">
                <rect id="Rectangle-Copy-44" fill="#22AA72" x="0" y="223" width="543" height="151" rx="14"></rect>
                <rect id="Rectangle" fill="#4CE3A5" opacity="0.427482242" x="145" y="304" width="55" height="24" rx="2"></rect>
                <path d="M153.896,294.24 C158.072,294.24 160.472,291.96 160.472,288.96 C160.472,286.392 158.816,285.096 155.864,284.496 L153.32,283.992 C151.712,283.656 150.296,283.08 150.296,281.448 C150.296,279.96 151.52,278.64 153.752,278.64 C155.912,278.64 157.4,280.08 157.544,282.144 L160.232,282.144 C160.016,278.712 157.304,276.528 153.728,276.528 C150.152,276.528 147.608,278.712 147.608,281.616 C147.608,284.544 149.816,285.768 152.24,286.248 L154.736,286.728 C156.728,287.16 157.664,287.88 157.664,289.32 C157.664,291.096 156.032,292.128 153.848,292.128 C151.208,292.128 149.816,290.712 149.696,288.528 L147.008,288.528 C147.224,291.96 149.744,294.24 153.896,294.24 Z M167.792,294.24 C168.56,294.24 169.208,294.12 169.952,293.784 L169.952,291.648 C169.448,291.888 168.944,291.984 168.368,291.984 C167.072,291.984 166.232,291.36 166.232,289.608 L166.232,283.344 L170.072,283.344 L170.072,281.28 L166.232,281.28 L166.232,277.512 L163.808,277.512 L163.808,281.28 L161,281.28 L161,283.344 L163.808,283.344 L163.808,290.16 C163.808,292.968 165.44,294.24 167.792,294.24 Z M175.4,294.24 C177.272,294.24 178.688,293.448 179.48,292.032 L179.48,294 L181.496,294 L181.496,285.84 C181.496,282.816 179.672,281.04 176.528,281.04 C173.552,281.04 171.512,282.936 171.392,285.792 L173.6,285.792 C173.672,284.016 174.752,282.96 176.528,282.96 C178.208,282.96 179.192,283.992 179.192,285.816 L179.192,286.752 C178.16,286.632 177.56,286.608 176.816,286.608 C173.024,286.608 171.032,287.904 171.032,290.4 C171.032,292.728 172.76,294.24 175.4,294.24 Z M175.88,292.512 C174.32,292.512 173.336,291.648 173.336,290.328 C173.336,288.84 174.536,288.12 176.96,288.12 C177.584,288.12 178.256,288.144 179.192,288.264 L179.192,289.296 C179.192,291.24 177.92,292.512 175.88,292.512 Z M186.56,294 L186.56,287.496 C186.56,284.688 188.552,283.488 191.288,283.632 L191.288,281.112 C189.2,281.112 187.28,282.216 186.392,283.968 L186.392,281.28 L184.136,281.28 L184.136,294 L186.56,294 Z M199.112,294.24 C202.544,294.24 204.752,291.456 204.752,287.64 C204.752,283.776 202.52,281.04 199.112,281.04 C197.384,281.04 195.92,281.904 195.032,283.464 L195.032,276.768 L192.608,276.768 L192.608,294 L194.864,294 L194.864,291.72 C195.776,293.328 197.312,294.24 199.112,294.24 Z M198.632,292.08 C196.568,292.08 195.032,290.4 195.032,287.592 C195.032,284.736 196.616,283.176 198.632,283.176 C200.72,283.176 202.232,284.76 202.232,287.64 C202.232,290.472 200.72,292.08 198.632,292.08 Z M210.824,294.24 C212.552,294.24 214.04,293.304 214.712,291.984 L214.712,294 L216.968,294 L216.968,281.28 L214.544,281.28 L214.544,288.768 C214.544,290.76 213.224,292.104 211.592,292.104 C210.008,292.104 208.904,291.192 208.904,288.984 L208.904,281.28 L206.48,281.28 L206.48,289.464 C206.48,292.728 208.256,294.24 210.824,294.24 Z M224.744,294.264 C227.936,294.264 230.192,292.2 230.624,288.84 L228.104,288.84 C227.816,290.904 226.568,292.104 224.768,292.104 C222.68,292.104 221.312,290.352 221.312,287.64 C221.312,284.952 222.68,283.176 224.768,283.176 C226.544,283.176 227.816,284.4 228.08,286.44 L230.624,286.44 C230.168,283.128 227.888,281.04 224.744,281.04 C221.312,281.04 218.816,283.8 218.816,287.64 C218.816,291.528 221.264,294.264 224.744,294.264 Z M234.896,294 L234.896,287.976 L240.632,294 L243.752,294 L237.32,287.448 L243.2,281.28 L240.344,281.28 L234.896,286.968 L234.896,276.768 L232.472,276.768 L232.472,294 L234.896,294 Z M249.128,294.24 C252.512,294.24 254.456,292.704 254.456,290.208 C254.456,288.384 253.256,287.28 250.736,286.824 L248.576,286.416 C247.04,286.128 246.392,285.648 246.392,284.616 C246.392,283.512 247.424,282.864 248.96,282.864 C250.664,282.864 251.792,283.752 251.936,285.288 L254.264,285.288 C254.048,282.672 251.984,281.04 248.936,281.04 C245.984,281.04 244.04,282.6 244.04,284.832 C244.04,286.752 245.36,287.952 247.712,288.408 L249.776,288.792 C251.36,289.104 252.008,289.56 252.008,290.616 C252.008,291.816 250.88,292.416 249.176,292.416 C247.232,292.416 245.96,291.432 245.864,289.848 L243.536,289.848 C243.776,292.584 245.768,294.24 249.128,294.24 Z" id="Starbucks" fill="#FFFFFF" fill-rule="nonzero"></path>
                <path d="M155.316,322.246 L155.316,321.112 C157.304,320.958 158.494,319.768 158.494,318.102 C158.494,316.674 157.5,315.876 155.848,315.526 L154.448,315.232 C153.818,315.106 153.244,314.812 153.244,314.168 C153.244,313.44 153.846,312.978 154.742,312.978 C155.708,312.978 156.366,313.594 156.422,314.518 L158.368,314.518 C158.242,312.81 157.038,311.662 155.316,311.438 L155.316,310.262 L154.042,310.262 L154.042,311.438 C152.404,311.676 151.27,312.81 151.27,314.322 C151.27,316.002 152.432,316.646 153.79,316.954 L155.218,317.248 C155.932,317.402 156.422,317.752 156.422,318.354 C156.422,319.124 155.68,319.558 154.714,319.558 C153.552,319.558 152.894,318.942 152.866,317.948 L150.92,317.948 C151.046,319.67 152.194,320.846 154.042,321.084 L154.042,322.246 L155.316,322.246 Z M162.568,321.126 C164.738,321.126 166.194,319.936 166.194,318.186 C166.194,317.164 165.522,316.408 164.346,316.03 C165.256,315.554 165.76,314.868 165.76,314 C165.76,312.474 164.542,311.396 162.554,311.396 C160.692,311.396 159.264,312.628 159.25,314.266 L161.14,314.266 C161.154,313.44 161.658,312.936 162.456,312.936 C163.268,312.936 163.758,313.398 163.758,314.14 C163.758,314.91 163.184,315.386 162.232,315.386 L161.322,315.386 L161.322,316.926 L162.344,316.926 C163.506,316.926 164.192,317.416 164.192,318.242 C164.192,319.082 163.604,319.586 162.596,319.586 C161.63,319.586 161.014,319.068 160.958,318.214 L159.068,318.214 C159.082,319.922 160.524,321.126 162.568,321.126 Z M173.11,321 L173.11,319.138 L174.44,319.138 L174.44,317.444 L173.11,317.444 L173.11,311.536 L171.57,311.536 L166.684,317.696 L166.684,319.138 L171.178,319.138 L171.178,321 L173.11,321 Z M171.178,317.444 L168.812,317.444 L171.178,314.322 L171.178,317.444 Z M176.344,321.07 C177.114,321.07 177.646,320.524 177.646,319.754 C177.646,318.97 177.114,318.424 176.344,318.424 C175.574,318.424 175.028,318.97 175.028,319.754 C175.028,320.524 175.574,321.07 176.344,321.07 Z M181.888,321.14 C184.268,321.14 185.472,319.53 185.472,317.906 C185.472,316.31 184.394,314.756 182.14,314.756 C181.58,314.756 181.034,314.896 180.558,315.204 L180.852,313.272 L184.912,313.272 L184.912,311.536 L179.438,311.536 L178.612,316.842 L180.208,317.36 C180.502,316.716 181.062,316.408 181.818,316.408 C182.966,316.408 183.456,317.164 183.456,317.906 C183.456,318.676 183.022,319.404 181.874,319.404 C180.992,319.404 180.348,318.942 180.236,318.116 L178.29,318.116 C178.346,319.88 179.872,321.14 181.888,321.14 Z M189.812,321.14 C192.178,321.14 193.48,319.404 193.48,316.282 C193.48,313.146 192.15,311.396 189.812,311.396 C187.474,311.396 186.158,313.146 186.158,316.282 C186.158,319.404 187.446,321.14 189.812,321.14 Z M189.812,319.404 C188.72,319.404 188.16,318.312 188.16,316.282 C188.16,314.238 188.748,313.132 189.812,313.132 C190.89,313.132 191.478,314.238 191.478,316.282 C191.478,318.312 190.89,319.404 189.812,319.404 Z" id="$34.50" fill="#FFED83" fill-rule="nonzero"></path>
                <path d="M448.22,305.255 C451.246,305.255 452.878,303.351 452.878,300.614 L452.878,292.794 L450.277,292.794 L450.277,300.682 C450.277,302.059 449.733,302.943 448.22,302.943 C446.741,302.943 446.214,302.042 446.18,300.75 L443.596,300.75 C443.63,303.351 445.245,305.255 448.22,305.255 Z M457.723,305.17 C458.879,305.17 459.882,304.609 460.375,303.81 L460.375,305 L462.534,305 L462.534,295.922 L460.188,295.922 L460.188,301.175 C460.188,302.399 459.372,303.079 458.522,303.079 C457.57,303.079 456.941,302.518 456.941,301.243 L456.941,295.922 L454.578,295.922 L454.578,301.702 C454.578,304.065 455.904,305.17 457.723,305.17 Z M466.614,305 L466.614,292.794 L464.234,292.794 L464.234,305 L466.614,305 Z M472.071,308.281 L476.491,295.922 L474.128,295.922 L472.054,302.144 L469.776,295.922 L467.226,295.922 L470.796,304.898 L469.504,308.281 L472.071,308.281 Z M483.988,305.153 C486.623,305.153 488.391,303.708 488.391,301.583 C488.391,300.342 487.575,299.424 486.147,298.965 C487.252,298.387 487.864,297.554 487.864,296.5 C487.864,294.647 486.385,293.338 483.971,293.338 C481.71,293.338 479.976,294.834 479.959,296.823 L482.254,296.823 C482.271,295.82 482.883,295.208 483.852,295.208 C484.838,295.208 485.433,295.769 485.433,296.67 C485.433,297.605 484.736,298.183 483.58,298.183 L482.475,298.183 L482.475,300.053 L483.716,300.053 C485.127,300.053 485.96,300.648 485.96,301.651 C485.96,302.671 485.246,303.283 484.022,303.283 C482.849,303.283 482.101,302.654 482.033,301.617 L479.738,301.617 C479.755,303.691 481.506,305.153 483.988,305.153 Z M493.78,305.17 C496.653,305.17 498.234,303.062 498.234,299.271 C498.234,295.463 496.619,293.338 493.78,293.338 C490.941,293.338 489.343,295.463 489.343,299.271 C489.343,303.062 490.907,305.17 493.78,305.17 Z M493.78,303.062 C492.454,303.062 491.774,301.736 491.774,299.271 C491.774,296.789 492.488,295.446 493.78,295.446 C495.089,295.446 495.803,296.789 495.803,299.271 C495.803,301.736 495.089,303.062 493.78,303.062 Z" id="July30" fill="#FFFFFF" fill-rule="nonzero" opacity="0.411425636"></path>
                <g id="Group-6" transform="translate(50.263000, 271.500000)" fill-rule="nonzero">
                    <path d="M56.737,28.5 C56.737,43.9640535 44.2008976,56.5 28.7370941,56.5 C13.2731024,56.5 0.737,43.9642408 0.737,28.5 C0.737,13.0361338 13.2731024,0.5 28.7370941,0.5 C44.2010858,0.5 56.737,13.0361338 56.737,28.5 Z" id="path3040" fill="#FFFFFF"></path>
                    <g id="g4381" transform="translate(0.737000, 0.500000)">
                        <path d="M27.8405855,9.84318997 C28.8378307,10.4180833 29.8956419,11.1579394 30.700904,11.9419887 L30.384551,12.2599135 C28.7955487,12.0909505 27.1219824,12.3018209 25.6156394,12.3250605 C25.4476543,12.155526 25.109208,11.9006528 25.4244182,11.687687 L27.8405855,9.84318997 L27.8405855,9.84318997 Z M55.9373389,29.5848135 C55.9584799,30.302192 56.0259025,30.9182308 55.7461177,31.6523722 C52.8431363,32.4781385 50.9362573,29.4040402 48.1195541,29.8676885 L48.4380021,31.4611221 C51.0438669,31.5468418 52.6715324,34.0460467 55.3636753,33.9386114 C54.981233,34.7026595 55.5343269,36.7155481 53.8398101,35.910926 C52.080918,35.4882327 50.809221,33.9386114 48.8817724,33.9386114 C48.6492215,34.3656859 48.7964466,34.9569612 48.7556883,35.4621358 C50.7890323,35.7812035 52.2513791,37.4999784 54.2841517,37.8173317 C54.0929306,38.5160424 53.9034235,39.2983773 53.3309027,39.7244994 C51.6771442,39.3219978 50.3854489,37.836571 48.6248427,37.8790499 L48.3113466,39.3421896 C49.984532,39.3852399 51.0655792,40.8657141 52.5692558,41.310123 C52.6105855,41.9273047 52.0590152,42.478768 51.741329,43.0296598 C50.4063994,42.6286822 49.3883942,41.4817528 47.8631958,41.5663296 C47.8420548,40.9916267 48.1831675,40.3390142 48.054417,39.7244994 C46.3414256,40.2340553 45.1927653,38.6421455 43.9231633,37.6872283 C43.8865951,34.5622697 40.5973621,32.5122359 40.4236632,29.5848135 C40.3903328,29.0011577 40.4792773,28.3780709 40.7451586,27.7085049 C41.8262058,25.2085381 41.4866168,21.96281 40.3011979,19.6319966 C39.9410392,19.0186246 39.30281,18.5344037 38.7080054,18.1738096 C39.5782142,20.0183066 40.6386918,22.1976819 40.1094053,24.4648722 C40.0480774,26.2156491 39.0152163,27.8970882 39.0034079,29.5848135 C38.9994082,30.1865657 39.1277778,30.7883178 39.4738424,31.3959751 C40.8520063,33.8784171 43.3314061,36.2282793 42.3991076,39.3416181 C42.1427493,40.2978688 41.3793882,41.0373439 41.1889289,42.010548 C42.8011672,43.3460607 44.3256039,44.8509173 46.4648432,44.9356845 C47.2270616,44.4487967 46.8036704,42.2896132 48.3717222,43.2854854 L50.661234,44.4308908 C50.4943917,45.0438818 49.9812942,45.5932497 49.5165734,46.0153715 C48.6478883,45.5924878 47.8005346,45.0855987 46.7173923,45.1269347 C46.397992,45.4658131 46.1231592,45.846218 46.147538,46.3325344 C46.9097563,46.4580661 47.6089325,46.7798006 48.2456381,47.2255429 C47.9500452,47.8623449 47.3739057,48.2614177 46.8442383,48.7490674 L45.0682049,48.1139798 C44.7716596,48.5383875 44.1557141,48.9843203 44.3718855,49.4500639 C44.7726119,49.6216938 45.2171441,49.8537084 45.5121656,50.1510604 C44.7282349,50.9985423 43.7346085,51.5437195 42.7785026,52.1189938 C41.9549564,49.4268244 39.241482,47.539277 39.4744138,44.4259382 L39.3483297,44.3000255 C38.7104814,45.0172135 38.9236054,46.1641428 38.9647446,47.0948681 C39.7281057,49.0448956 41.548897,50.5510856 41.8250631,52.6895059 C41.5062341,53.2398263 40.7874406,53.3495475 40.2360608,53.5825145 C40.3000551,49.7270337 34.4527627,46.8028497 38.2025263,42.9029852 C39.4530824,40.9933411 41.5483257,39.1709407 40.8059151,36.5418229 C40.0436968,34.0033774 37.3477448,32.4305165 37.3715522,29.5848135 L37.3757423,29.3628948 C37.9897832,26.3952794 39.8551421,23.2375569 38.3291818,20.0805962 C37.9038861,18.810802 36.9536844,17.3678541 35.6612272,16.837154 C37.5881045,19.0430071 38.3520369,22.6420908 37.2496582,25.6102776 C36.6940883,26.7909234 35.9292035,28.1974881 35.8524484,29.585385 L35.8478774,29.585385 C35.8069286,30.3101925 35.9549156,31.0309998 36.4224932,31.7144714 C37.885602,34.0887161 40.4267106,36.6966897 38.9649351,39.7907893 C37.3125098,42.2690405 34.4310503,44.7899611 36.0402413,48.0541665 C37.2054716,50.0036226 39.0079789,51.9488879 38.5217362,54.3454197 L36.6148572,54.9805073 C37.8861733,50.5105116 31.6562481,47.8840606 34.2642079,43.412541 C35.8743512,41.0181046 38.7540966,38.771487 37.123955,35.5935727 C36.1493745,33.6244964 34.1356479,32.4590897 34.1992613,29.9983634 L34.2685885,29.5851945 C34.9247209,26.0952605 37.5772483,22.7918145 35.7225551,19.0624369 C35.2351697,17.9612248 34.2611606,16.8384874 33.1801133,16.2022569 L33.1147858,16.2675943 C35.2770707,18.3654407 35.9349173,21.8170865 34.7691157,24.5917373 C34.2251638,26.2196493 33.0313646,27.8412752 32.7887194,29.585766 C32.673301,30.4082939 32.7706257,31.2607285 33.2458218,32.1586898 C34.6228429,34.339589 37.0376769,36.653068 35.5307626,39.472674 C33.9438553,41.8015825 31.2945658,44.0676299 32.3527579,47.0962015 C33.5183691,49.7458921 35.9522491,52.2700509 34.6380796,55.5555911 L32.6704441,56 C34.2377341,52.7980842 31.8876562,49.6209318 30.511016,46.8439951 C28.836307,42.8599348 34.109174,40.9521957 34.193738,37.3096807 C34.1737397,34.9586756 31.6747226,33.6237344 31.1465789,31.4624555 C30.0649602,30.5498266 28.9439165,31.8253355 27.650888,31.5885587 C26.6963058,31.7803803 25.2301497,30.2743807 24.6602953,31.9068644 C23.9816887,34.3001579 20.8901526,36.0596973 22.2488896,38.8983521 C23.5417276,41.4209871 26.6530715,43.2656746 25.6137348,46.5302611 C24.6831505,49.5795959 21.6091366,52.4830167 23.5156347,56 C22.7324658,55.7462697 21.2699285,56.2320146 21.2910695,54.9806977 C20.0839382,50.7215725 25.2316734,48.2402735 23.6417188,43.9834341 C22.9017842,41.3760319 19.5304633,39.9355603 20.2726834,36.7995534 C20.8213967,34.2180575 23.717712,32.4133725 23.3114623,29.5855755 C23.2785128,29.3487987 23.2202322,29.1064977 23.1370015,28.8539104 C22.0559542,25.8024802 19.850435,22.7502881 21.1649854,19.1889211 C21.5259059,18.1717142 22.2467945,17.3030881 22.8802623,16.393888 C20.782543,17.5166253 19.7243509,19.8906795 19.7677756,22.3058792 C19.6763552,24.9323302 21.6161836,27.1821861 21.8921592,29.5855755 C22.000721,30.5555413 21.8418779,31.5487467 21.1649854,32.6023368 C19.7889166,34.4698829 17.9892663,36.4389592 18.8143361,38.8979712 C19.5988382,41.3783178 22.691898,42.8808885 22.5012482,45.7639271 C22.4802977,49.174237 18.5181719,51.2976088 19.6411202,55.1115631 L17.6691041,54.4717133 C16.8861257,51.0825476 20.4873311,49.3485337 20.5286607,46.2127173 C21.0383299,42.6065855 16.439689,41.2685966 16.7156646,37.7533277 C16.6958568,35.0824929 19.0465061,33.3909579 20.0847,31.1443403 C20.2627795,30.5976392 20.3220123,30.0810352 20.2982049,29.585766 C20.1709781,27.1018001 17.9330807,25.1597731 18.3044765,22.3670259 C18.4294178,20.3116584 19.1285941,18.5100212 20.4639046,16.9642096 C18.6215913,17.7044467 17.8605157,19.8255326 17.3516084,21.6058351 C16.4684484,24.460491 18.5766429,27.0282717 18.7880528,29.5859565 C18.8817588,30.7153609 18.6057832,31.8382887 17.5432105,32.986361 C16.0168693,34.7853313 14.4690061,37.0551885 15.5710039,39.473055 C16.7379483,42.1408419 20.4041003,44.2173536 18.8139552,47.5448011 C17.9464129,49.6430284 15.8690728,51.2313189 15.9543986,53.7097606 C15.4039711,53.4766031 14.832974,53.2442075 14.3652058,52.8215142 C14.3652058,49.6647441 18.8550944,47.6930009 16.7158551,44.3661249 C16.526348,45.0225471 16.4855897,45.9146033 16.3372219,46.6561738 C15.5948113,48.5854381 14.0063804,50.1297257 13.4119568,52.124137 C12.4179494,51.7404938 11.3786128,50.9343478 10.5518287,50.0868659 L11.6970608,49.3858694 C11.569834,48.9612712 11.2313877,48.6014391 10.9354139,48.2412259 C10.1916701,48.1366479 9.70333236,48.6246786 9.09024372,48.8159288 C8.56057628,48.3488517 8.04938339,47.9248251 7.62713502,47.352789 C8.00729187,46.2698637 10.9776959,47.1653487 9.47287655,45.3848557 C8.45696639,44.7495776 7.43724705,45.6570633 6.54761144,46.080709 L5.34162285,44.5571845 C6.37981675,43.9220969 7.41534422,43.0300408 8.70665859,43.2858664 C9.02491616,43.8590453 9.04700945,44.7019555 9.66009809,45.0012125 C11.8427622,44.9587336 13.3892921,43.307582 15.0624775,42.0145483 C13.8962949,40.2790105 12.9470455,37.8830501 13.9829539,35.7842514 C14.8129757,33.6810714 16.9756416,31.9097218 17.0737282,29.584623 C17.0958215,29.0554469 17.0133526,28.4986499 16.7819445,27.8993741 C15.6384265,24.9534744 15.2348432,20.9720809 17.4175073,18.3646787 C16.2307551,18.6835559 15.5310075,20.1628871 15.127805,21.2861959 C13.8157306,24.162758 15.4752029,26.8276876 15.5325311,29.5844325 C15.54034,30.0802733 15.500153,30.5772569 15.3799732,31.0778599 C14.256644,33.3450502 12.4366144,35.3343183 12.1410215,37.9432444 C10.8481835,38.7680582 9.78675355,40.2104347 7.94463075,39.7237374 C7.87987457,40.2106252 8.0282424,40.9527672 8.19717984,41.5042304 C6.73635665,41.4428932 5.74025426,42.5197229 4.5102678,43.0283264 C3.85508765,42.8180274 3.68462653,41.9709265 3.43093468,41.3781273 C4.87061688,40.8918109 5.9091917,39.4482915 7.56218838,39.4711501 C7.75379048,38.9387356 7.45476931,38.4508954 7.37039582,37.9428634 C5.3141967,37.0300441 2.0548659,42.4551474 1.7807949,37.7516133 C3.83547033,37.6243672 5.14849707,35.7168185 7.18336474,35.5267113 L7.24412127,34.0031869 C4.93480168,33.7698389 3.44921878,36.144274 1.14085149,35.910164 L0.631753654,33.8770837 C3.3019937,34.0439513 4.89290063,31.6506578 7.43591383,31.5218878 C7.77378871,31.0774789 7.81454701,30.4204852 7.87968411,29.8065418 C5.10392958,29.4448047 3.19914565,32.5213793 0.253120472,31.5870348 C0.253120472,31.5870348 0.15160564,30.3065732 0.096562889,29.584623 L0.100562535,29.584623 C0.0805643038,29.3023196 0.0615183691,29.1055453 0.0615183691,29.1055453 C2.68852414,30.125038 4.99670097,28.2378716 7.24412127,27.263715 C7.81568977,27.0926567 8.70703951,27.3892468 8.96339779,26.7541592 C8.94111405,26.2666999 9.82998782,25.6967593 9.09005326,25.3565474 C5.80443906,24.9106146 3.62177495,28.8741021 0.252739554,27.0718934 L0,26.5623376 C0.700890397,16.9855443 6.10117473,7.72667579 15.0624775,3.170389 C18.6918708,1.09597272 23.2008054,0.0385728286 27.7480223,0.00104665703 C33.2357275,-0.0444800181 38.7807609,1.39522965 42.9057294,4.31560394 C46.9114704,6.77309196 50.7431316,10.8230612 52.8225667,14.9343676 C54.8113432,18.5364991 55.7266908,22.5784678 56,26.8815958 C52.5244978,29.5080468 50.1928945,24.4071543 46.6537789,25.54875 C46.8444287,26.1007847 46.9499432,26.6718683 47.3544789,27.1379928 C50.4911538,27.1158962 52.6511533,30.4006744 55.934482,29.1061167 L55.9373389,29.5848135 L55.9373389,29.5848135 Z M16.0147742,17.7901664 C13.8109691,16.3487423 11.0169305,17.7059706 8.96301688,18.4909724 C8.77236707,16.5617081 7.98900777,14.8040736 6.35562841,13.5327555 C6.19716624,13.4538934 5.97813799,13.2879782 5.7808221,13.275787 C5.66273731,13.2683579 5.55036629,13.31598 5.46313591,13.4670371 C6.2034514,18.022181 3.24276084,21.2006668 1.14466068,24.6561223 C1.84326556,25.2272059 2.96564249,25.1418672 3.81299613,24.9740471 C6.03718039,24.0844673 8.15585016,22.5361794 10.8041874,23.0668795 C11.5873562,21.7319383 12.9032398,20.4389045 13.9821921,19.3794093 C14.6413719,18.8088972 15.547006,18.4465886 16.0147742,17.7901664 L16.0147742,17.7901664 Z M22.7536068,20.6509179 C22.7113248,20.9252208 22.7747478,21.414204 23.1975676,21.2252397 C23.8554141,20.3141348 25.0200731,21.034942 25.7400094,21.0991365 L25.7400094,20.8427395 C25.3449967,20.2223195 24.5323067,19.9106808 23.7070463,19.9417304 C23.516587,19.9483975 23.3230803,19.9762087 23.136811,20.0194495 C22.860645,20.0807867 22.6684715,20.3335646 22.7536068,20.6509179 L22.7536068,20.6509179 Z M33.1138335,17.9210317 C32.5222667,16.6068538 31.1661962,16.0750108 29.9356383,15.7572765 C29.3324536,15.6829861 28.7064137,15.6326972 28.0855162,15.6267921 C27.9691456,15.6256492 27.8529654,15.6241253 27.7371661,15.6267921 C26.0003673,15.6618419 24.340895,16.1077748 23.3270799,17.537579 C23.181569,17.9412235 22.541816,18.5081163 23.1358587,18.8698534 C24.4707883,18.7845147 25.9940822,18.6170756 26.8839082,19.762862 C26.8839082,20.7810213 27.5411834,22.1355827 26.4399475,22.623042 C25.5274568,21.7780364 24.4467904,22.9826837 23.4539258,22.3045458 C22.98711,22.0287189 22.6917075,22.3506439 22.5004864,22.7531454 C22.2245108,25.3801679 23.5998177,28.279398 26.0571242,29.7410138 C27.0530361,30.1002745 28.3917749,30.4420103 29.4311115,29.932264 C31.9310809,28.7680002 32.9666084,26.0996418 33.432091,23.6412013 C33.3696204,23.1733623 33.3919041,22.2616859 32.7355812,22.2395893 C31.9945039,22.7083807 30.9136471,22.4314109 30.1281927,22.2395893 C29.6638529,22.3895035 29.6425214,23.0689748 29.1139967,23.1977448 L28.79193,22.9407763 C28.5161448,21.777084 28.3460646,20.1236466 29.4276833,19.318453 C30.6363383,18.8309938 32.0558318,18.618028 33.3058165,19.0005283 C33.5391292,18.5982172 33.1789706,18.2814354 33.1138335,17.9210317 L33.1138335,17.9210317 Z M31.8383272,20.0104966 C31.7543347,20.012592 31.6726276,20.0167827 31.5899682,20.0194495 C31.1460075,20.3156587 29.8522172,20.1026929 30.3192235,21.0991365 C31.1248665,20.4617631 32.2478148,20.9084579 33.0528865,21.2252397 C33.3505744,21.0774209 33.2860087,20.7806403 33.305626,20.5248147 C33.0471727,20.043832 32.429513,19.9986863 31.8383272,20.0104966 Z M41.0630352,11.0510755 C39.494793,10.9678322 38.1815758,11.8581739 36.7405604,12.2610564 C36.6150476,11.0346935 37.5465843,9.7395644 37.7591369,8.50843929 C35.4292478,8.65835348 33.5838871,10.060918 31.6564385,11.1813694 C31.2103828,10.1033968 30.7629937,9.01990005 30.3199853,7.93792718 L32.8624271,5.52158462 L32.9275642,5.20327887 L29.4933917,5.01202873 C28.901825,3.97539205 28.6687028,2.72674203 27.9695265,1.7731582 C27.3973866,2.85379765 27.0130397,3.99748868 26.4414712,5.07717569 L23.0112983,5.26899729 L23.0112983,5.52158462 L25.6146871,7.87258974 C25.2964296,9.08104676 25.0006462,10.3940818 24.2174774,11.3074726 C22.6920885,10.3937008 21.1884119,9.39916202 19.5159884,8.76464589 C19.1135478,8.63473295 18.5398842,8.42348156 18.1797256,8.69949893 C18.7086312,9.86528659 19.4493276,11.1192703 19.3247672,12.3917313 C18.62521,12.2629613 18.0753539,11.8143617 17.4180787,11.6257784 C16.6320529,11.4112887 15.6993735,10.9922147 14.9367743,11.2470879 C16.2082809,13.026057 17.2460939,14.8878884 17.6051098,17.0287851 C21.8232129,14.9926569 26.7423969,13.8727769 31.848612,14.7429269 C34.2421146,15.1239033 36.4430629,16.0990123 38.5832545,16.902301 C38.6668662,14.6573978 40.0863597,12.8534747 41.0630352,11.0510755 L41.0630352,11.0510755 Z M48.3065851,23.2583201 C50.4660132,23.8299751 52.6322978,26.1830756 54.9189527,24.6563128 C52.9275098,21.3511524 49.963391,18.2989603 50.787699,13.9767835 C50.8739771,13.6817173 50.6833273,13.3830318 50.4090659,13.3411244 C49.1171801,13.8691577 48.1166972,15.1421902 47.6055043,16.393507 C47.3952372,17.1335536 47.2706767,17.9202698 46.9745125,18.6178375 C45.4268398,17.812263 43.7753668,17.0318329 41.8898193,17.2204162 C41.2098794,17.3051835 40.2351085,17.3497577 40.1095958,18.0478969 C42.2494065,19.1915879 44.0090604,21.1002795 45.320373,23.1327884 C46.2334351,22.9838266 47.3531456,23.1110727 48.3065851,23.2583201 L48.3065851,23.2583201 Z M25.6788719,26.2453652 L25.7398189,26.628437 C26.5677457,27.1800907 26.8223899,28.1150067 27.9685742,28.030049 C28.9850557,28.0904337 29.747655,27.1379928 30.2540864,26.3756591 C28.878589,26.1857424 27.2048322,26.4796657 25.6788719,26.2453652 L25.6788719,26.2453652 Z M26.8235326,24.5300192 C26.8648623,24.6997441 26.7185895,24.9540459 26.9496167,25.0397655 C27.627652,24.8925182 28.8559243,25.4005502 29.2345575,24.5953566 C28.9701999,24.2991475 28.538619,24.1646628 28.0857067,24.1646628 C27.6329848,24.1646628 27.1631216,24.2966711 26.8235326,24.5300192 Z" id="inner_artwork" fill="#007042"></path>
                        <g id="g4377" transform="translate(26.000000, 24.000000)">
                            <polygon id="rect3815" fill="#FFFFFF" opacity="0.99" points="0.077559322 0.166118644 4.62522034 0.166118644 4.62522034 2.03444068 0.077559322 2.03444068"></polygon>
                            <path d="M0.917661017,1.1650678 C1.50532203,1.30415254 1.65074576,1.51259322 2.11516949,1.57076271 C2.60886441,1.562 2.53764407,1.46169492 3.39881356,1.16450847 C3.45530508,1.14455932 3.53305085,1.01983051 3.43666102,0.924186441 C2.90194915,0.393389831 2.53242373,0.772610169 2.19720339,0.782677966 C1.75254237,0.787525424 1.33547458,0.401966102 0.901067797,0.903118644 C0.827050847,1.00491525 0.788457627,1.10484746 0.917661017,1.1650678 L0.917661017,1.1650678 Z" id="path3032-6" fill="#007042"></path>
                        </g>
                    </g>
                </g>
                <rect id="Rectangle-Copy-45" fill="#F9F9F9" x="0" y="383" width="543" height="151" rx="14"></rect>
                <path d="M149.144,454 L150.728,449.728 L158.168,449.728 L159.728,454 L162.536,454 L155.984,436.768 L153.08,436.768 L146.48,454 L149.144,454 Z M157.376,447.592 L151.52,447.592 L154.472,439.648 L157.376,447.592 Z M166.544,458.632 L166.544,451.84 C167.456,453.376 168.92,454.24 170.648,454.24 C174.056,454.24 176.264,451.48 176.264,447.64 C176.264,443.8 174.032,441.04 170.648,441.04 C168.848,441.04 167.288,441.976 166.376,443.608 L166.376,441.28 L164.12,441.28 L164.12,458.632 L166.544,458.632 Z M170.144,452.08 C168.104,452.08 166.544,450.448 166.544,447.64 C166.544,444.784 168.128,443.176 170.144,443.176 C172.232,443.176 173.744,444.784 173.744,447.64 C173.744,450.496 172.232,452.08 170.144,452.08 Z M180.536,458.632 L180.536,451.84 C181.448,453.376 182.912,454.24 184.64,454.24 C188.048,454.24 190.256,451.48 190.256,447.64 C190.256,443.8 188.024,441.04 184.64,441.04 C182.84,441.04 181.28,441.976 180.368,443.608 L180.368,441.28 L178.112,441.28 L178.112,458.632 L180.536,458.632 Z M184.136,452.08 C182.096,452.08 180.536,450.448 180.536,447.64 C180.536,444.784 182.12,443.176 184.136,443.176 C186.224,443.176 187.736,444.784 187.736,447.64 C187.736,450.496 186.224,452.08 184.136,452.08 Z M194.552,454 L194.552,436.768 L192.104,436.768 L192.104,454 L194.552,454 Z M202.544,454.24 C205.544,454.24 207.728,452.536 208.352,449.704 L205.952,449.704 C205.544,451.36 204.296,452.344 202.496,452.344 C200.36,452.344 199.064,450.832 198.872,448.24 L208.352,448.24 C208.784,444.112 206.264,441.04 202.472,441.04 C198.968,441.04 196.4,443.8 196.4,447.568 C196.4,451.576 198.872,454.24 202.544,454.24 Z M205.784,446.632 L198.896,446.632 C199.16,444.256 200.48,442.864 202.424,442.864 C204.392,442.864 205.664,444.28 205.784,446.632 Z M220.952,454.24 C225.128,454.24 227.528,451.96 227.528,448.96 C227.528,446.392 225.872,445.096 222.92,444.496 L220.376,443.992 C218.768,443.656 217.352,443.08 217.352,441.448 C217.352,439.96 218.576,438.64 220.808,438.64 C222.968,438.64 224.456,440.08 224.6,442.144 L227.288,442.144 C227.072,438.712 224.36,436.528 220.784,436.528 C217.208,436.528 214.664,438.712 214.664,441.616 C214.664,444.544 216.872,445.768 219.296,446.248 L221.792,446.728 C223.784,447.16 224.72,447.88 224.72,449.32 C224.72,451.096 223.088,452.128 220.904,452.128 C218.264,452.128 216.872,450.712 216.752,448.528 L214.064,448.528 C214.28,451.96 216.8,454.24 220.952,454.24 Z M234.848,454.24 C235.616,454.24 236.264,454.12 237.008,453.784 L237.008,451.648 C236.504,451.888 236,451.984 235.424,451.984 C234.128,451.984 233.288,451.36 233.288,449.608 L233.288,443.344 L237.128,443.344 L237.128,441.28 L233.288,441.28 L233.288,437.512 L230.864,437.512 L230.864,441.28 L228.056,441.28 L228.056,443.344 L230.864,443.344 L230.864,450.16 C230.864,452.968 232.496,454.24 234.848,454.24 Z M243.8,454.24 C247.4,454.24 250.04,451.408 250.04,447.64 C250.04,443.872 247.4,441.04 243.8,441.04 C240.2,441.04 237.56,443.872 237.56,447.64 C237.56,451.408 240.2,454.24 243.8,454.24 Z M243.8,452.104 C241.712,452.104 240.08,450.424 240.08,447.64 C240.08,444.856 241.712,443.2 243.8,443.2 C245.888,443.2 247.544,444.856 247.544,447.64 C247.544,450.424 245.888,452.104 243.8,452.104 Z M254.336,454 L254.336,447.496 C254.336,444.688 256.328,443.488 259.064,443.632 L259.064,441.112 C256.976,441.112 255.056,442.216 254.168,443.968 L254.168,441.28 L251.912,441.28 L251.912,454 L254.336,454 Z M265.568,454.24 C268.568,454.24 270.752,452.536 271.376,449.704 L268.976,449.704 C268.568,451.36 267.32,452.344 265.52,452.344 C263.384,452.344 262.088,450.832 261.896,448.24 L271.376,448.24 C271.808,444.112 269.288,441.04 265.496,441.04 C261.992,441.04 259.424,443.8 259.424,447.568 C259.424,451.576 261.896,454.24 265.568,454.24 Z M268.808,446.632 L261.92,446.632 C262.184,444.256 263.504,442.864 265.448,442.864 C267.416,442.864 268.688,444.28 268.808,446.632 Z" id="AppleStore" fill="#575757" fill-rule="nonzero"></path>
                <path d="M150.816,481.246 L150.816,480.112 C152.804,479.958 153.994,478.768 153.994,477.102 C153.994,475.674 153,474.876 151.348,474.526 L149.948,474.232 C149.318,474.106 148.744,473.812 148.744,473.168 C148.744,472.44 149.346,471.978 150.242,471.978 C151.208,471.978 151.866,472.594 151.922,473.518 L153.868,473.518 C153.742,471.81 152.538,470.662 150.816,470.438 L150.816,469.262 L149.542,469.262 L149.542,470.438 C147.904,470.676 146.77,471.81 146.77,473.322 C146.77,475.002 147.932,475.646 149.29,475.954 L150.718,476.248 C151.432,476.402 151.922,476.752 151.922,477.354 C151.922,478.124 151.18,478.558 150.214,478.558 C149.052,478.558 148.394,477.942 148.366,476.948 L146.42,476.948 C146.546,478.67 147.694,479.846 149.542,480.084 L149.542,481.246 L150.816,481.246 Z M158.068,480.126 C160.238,480.126 161.694,478.936 161.694,477.186 C161.694,476.164 161.022,475.408 159.846,475.03 C160.756,474.554 161.26,473.868 161.26,473 C161.26,471.474 160.042,470.396 158.054,470.396 C156.192,470.396 154.764,471.628 154.75,473.266 L156.64,473.266 C156.654,472.44 157.158,471.936 157.956,471.936 C158.768,471.936 159.258,472.398 159.258,473.14 C159.258,473.91 158.684,474.386 157.732,474.386 L156.822,474.386 L156.822,475.926 L157.844,475.926 C159.006,475.926 159.692,476.416 159.692,477.242 C159.692,478.082 159.104,478.586 158.096,478.586 C157.13,478.586 156.514,478.068 156.458,477.214 L154.568,477.214 C154.582,478.922 156.024,480.126 158.068,480.126 Z M161.89,482.044 C163.654,482.03 165.026,480.924 165.026,479.244 C165.026,478.054 164.494,477.438 163.598,477.438 C162.884,477.438 162.338,477.928 162.338,478.656 C162.338,479.286 162.814,479.804 163.444,479.804 C163.528,479.804 163.612,479.804 163.738,479.762 C163.626,480.518 162.926,480.994 161.89,481.008 L161.89,482.044 Z M167.98,480 L171.48,471.67 L171.48,470.536 L164.83,470.536 L164.83,472.272 L169.324,472.272 L165.894,480 L167.98,480 Z M175.316,480.126 C177.486,480.126 178.942,478.936 178.942,477.186 C178.942,476.164 178.27,475.408 177.094,475.03 C178.004,474.554 178.508,473.868 178.508,473 C178.508,471.474 177.29,470.396 175.302,470.396 C173.44,470.396 172.012,471.628 171.998,473.266 L173.888,473.266 C173.902,472.44 174.406,471.936 175.204,471.936 C176.016,471.936 176.506,472.398 176.506,473.14 C176.506,473.91 175.932,474.386 174.98,474.386 L174.07,474.386 L174.07,475.926 L175.092,475.926 C176.254,475.926 176.94,476.416 176.94,477.242 C176.94,478.082 176.352,478.586 175.344,478.586 C174.378,478.586 173.762,478.068 173.706,477.214 L171.816,477.214 C171.83,478.922 173.272,480.126 175.316,480.126 Z M185.858,480 L185.858,478.138 L187.188,478.138 L187.188,476.444 L185.858,476.444 L185.858,470.536 L184.318,470.536 L179.432,476.696 L179.432,478.138 L183.926,478.138 L183.926,480 L185.858,480 Z M183.926,476.444 L181.56,476.444 L183.926,473.322 L183.926,476.444 Z M189.092,480.07 C189.862,480.07 190.394,479.524 190.394,478.754 C190.394,477.97 189.862,477.424 189.092,477.424 C188.322,477.424 187.776,477.97 187.776,478.754 C187.776,479.524 188.322,480.07 189.092,480.07 Z M194.636,480.14 C197.016,480.14 198.22,478.53 198.22,476.906 C198.22,475.31 197.142,473.756 194.888,473.756 C194.328,473.756 193.782,473.896 193.306,474.204 L193.6,472.272 L197.66,472.272 L197.66,470.536 L192.186,470.536 L191.36,475.842 L192.956,476.36 C193.25,475.716 193.81,475.408 194.566,475.408 C195.714,475.408 196.204,476.164 196.204,476.906 C196.204,477.676 195.77,478.404 194.622,478.404 C193.74,478.404 193.096,477.942 192.984,477.116 L191.038,477.116 C191.094,478.88 192.62,480.14 194.636,480.14 Z M202.56,480.14 C204.926,480.14 206.228,478.404 206.228,475.282 C206.228,472.146 204.898,470.396 202.56,470.396 C200.222,470.396 198.906,472.146 198.906,475.282 C198.906,478.404 200.194,480.14 202.56,480.14 Z M202.56,478.404 C201.468,478.404 200.908,477.312 200.908,475.282 C200.908,473.238 201.496,472.132 202.56,472.132 C203.638,472.132 204.226,473.238 204.226,475.282 C204.226,477.312 203.638,478.404 202.56,478.404 Z" id="$3,734.50" fill="#EA7474" fill-rule="nonzero"></path>
                <path d="M448.22,465.255 C451.246,465.255 452.878,463.351 452.878,460.614 L452.878,452.794 L450.277,452.794 L450.277,460.682 C450.277,462.059 449.733,462.943 448.22,462.943 C446.741,462.943 446.214,462.042 446.18,460.75 L443.596,460.75 C443.63,463.351 445.245,465.255 448.22,465.255 Z M457.723,465.17 C458.879,465.17 459.882,464.609 460.375,463.81 L460.375,465 L462.534,465 L462.534,455.922 L460.188,455.922 L460.188,461.175 C460.188,462.399 459.372,463.079 458.522,463.079 C457.57,463.079 456.941,462.518 456.941,461.243 L456.941,455.922 L454.578,455.922 L454.578,461.702 C454.578,464.065 455.904,465.17 457.723,465.17 Z M466.614,465 L466.614,452.794 L464.234,452.794 L464.234,465 L466.614,465 Z M472.071,468.281 L476.491,455.922 L474.128,455.922 L472.054,462.144 L469.776,455.922 L467.226,455.922 L470.796,464.898 L469.504,468.281 L472.071,468.281 Z M483.988,465.153 C486.623,465.153 488.391,463.708 488.391,461.583 C488.391,460.342 487.575,459.424 486.147,458.965 C487.252,458.387 487.864,457.554 487.864,456.5 C487.864,454.647 486.385,453.338 483.971,453.338 C481.71,453.338 479.976,454.834 479.959,456.823 L482.254,456.823 C482.271,455.82 482.883,455.208 483.852,455.208 C484.838,455.208 485.433,455.769 485.433,456.67 C485.433,457.605 484.736,458.183 483.58,458.183 L482.475,458.183 L482.475,460.053 L483.716,460.053 C485.127,460.053 485.96,460.648 485.96,461.651 C485.96,462.671 485.246,463.283 484.022,463.283 C482.849,463.283 482.101,462.654 482.033,461.617 L479.738,461.617 C479.755,463.691 481.506,465.153 483.988,465.153 Z M493.78,465.17 C496.653,465.17 498.234,463.062 498.234,459.271 C498.234,455.463 496.619,453.338 493.78,453.338 C490.941,453.338 489.343,455.463 489.343,459.271 C489.343,463.062 490.907,465.17 493.78,465.17 Z M493.78,463.062 C492.454,463.062 491.774,461.736 491.774,459.271 C491.774,456.789 492.488,455.446 493.78,455.446 C495.089,455.446 495.803,456.789 495.803,459.271 C495.803,461.736 495.089,463.062 493.78,463.062 Z" id="July30" fill="#A5A4A4" fill-rule="nonzero" opacity="0.600000024"></path>
                <g id="Apple_logo_black" transform="translate(57.000000, 432.641463)" fill="#000000" fill-rule="nonzero">
                    <path d="M35.8106783,49.3047793 C33.0451621,51.989422 29.9939099,51.5709036 27.0855256,50.3051405 C23.993454,49.013858 21.1667086,48.9321959 17.9011544,50.3051405 C13.8345189,52.0608764 11.6761917,51.5504881 9.22702602,49.3047793 C-4.60055511,35.0649445 -2.55958373,13.3734399 13.1558959,12.5568185 C16.96741,12.7609739 19.6359801,14.6647224 21.8810486,14.8229428 C25.2180368,14.1441263 28.412157,12.1995467 31.983857,12.4547408 C36.2749993,12.8018049 39.4844268,14.4962942 41.6274467,17.5433126 C32.8002455,22.8513514 34.8922412,34.4882057 43,37.7546911 C41.3774277,42.0164338 39.2956369,46.2271376 35.8055759,49.3405065 L35.8106783,49.3047793 Z M21.5749029,12.403702 C21.1616062,6.07488654 26.2895468,0.868925419 32.1879541,0.358537074 C32.9992402,7.6570904 25.5547971,13.1182457 21.5749029,12.403702 Z" id="Shape"></path>
                </g>
                <g id="Group-28" transform="translate(5.000000, 52.000000)">
                    <path d="M2.5,152 C1.11875637,152 0,150.973157 0,149.705391 L0,112.294609 C0,111.026843 1.11875637,110 2.5,110 C3.87869521,110 5,111.026843 5,112.294609 L5,149.705391 C5,150.973157 3.87869521,152 2.5,152" id="Clip-353" fill="#31C6EC"></path>
                    <path d="M14.5,152 C13.1187564,152 12,150.973157 12,149.705391 L12,112.294609 C12,111.026843 13.1187564,110 14.5,110 C15.8786952,110 17,111.026843 17,112.294609 L17,149.705391 C17,150.973157 15.8786952,152 14.5,152" id="Fill-352" fill="#31C6EC"></path>
                    <path d="M26.5012749,152 C25.1193269,152 24,151.002046 24,149.769948 L24,84.2300523 C24,82.9979541 25.1193269,82 26.5012749,82 C27.8806731,82 29,82.9979541 29,84.2300523 L29,149.769948 C29,151.002046 27.8806731,152 26.5012749,152" id="Clip-356" fill="#31C6EC"></path>
                    <path d="M38.5012749,152 C37.1193269,152 36,151.002046 36,149.769948 L36,84.2300523 C36,82.9979541 37.1193269,82 38.5012749,82 C39.8806731,82 41,82.9979541 41,84.2300523 L41,149.769948 C41,151.002046 39.8806731,152 38.5012749,152" id="Fill-355" fill="#31C6EC"></path>
                    <path d="M2.5,152 C1.11875637,152 0,150.99939 0,149.764014 L0,68.2359863 C0,67.0006096 1.11875637,66 2.5,66 C3.87869521,66 5,67.0006096 5,68.2359863 L5,149.764014 C5,150.99939 3.87869521,152 2.5,152" id="Clip-359" fill="#31C6EC"></path>
                    <path d="M50.5,152 C49.1187564,152 48,150.99939 48,149.764014 L48,68.2359863 C48,67.0006096 49.1187564,66 50.5,66 C51.8786952,66 53,67.0006096 53,68.2359863 L53,149.764014 C53,150.99939 51.8786952,152 50.5,152" id="Fill-358" fill="#31C6EC"></path>
                    <path d="M26.5012749,152 C25.1193269,152 24,150.989546 24,149.742016 L24,58.2556824 C24,57.0081519 25.1193269,56 26.5012749,56 C27.8806731,56 29,57.0081519 29,58.2556824 L29,149.742016 C29,150.989546 27.8806731,152 26.5012749,152" id="Clip-362" fill="#31C6EC"></path>
                    <path d="M14.5012749,152 C13.1193269,152 12,150.989546 12,149.742016 L12,58.2556824 C12,57.0081519 13.1193269,56 14.5012749,56 C15.8806731,56 17,57.0081519 17,58.2556824 L17,149.742016 C17,150.989546 15.8806731,152 14.5012749,152" id="Fill-361" fill="#31C6EC"></path>
                    <path d="M38.4987251,152 C37.1193269,152 36,150.996824 36,149.758278 L36,54.2394369 C36,53.0008912 37.1193269,52 38.4987251,52 C39.8806731,52 41,53.0008912 41,54.2394369 L41,149.758278 C41,150.996824 39.8806731,152 38.4987251,152" id="Clip-365" fill="#31C6EC"></path>
                    <path d="M98.4987251,152 C97.1193269,152 96,150.996824 96,149.758278 L96,54.2394369 C96,53.0008912 97.1193269,52 98.4987251,52 C99.8806731,52 101,53.0008912 101,54.2394369 L101,149.758278 C101,150.996824 99.8806731,152 98.4987251,152" id="Fill-364" fill="#31C6EC"></path>
                    <path d="M62.5,152 C61.1187564,152 60,150.992132 60,149.747793 L60,51.2545025 C60,50.0078682 61.1187564,49 62.5,49 C63.8786952,49 65,50.0078682 65,51.2545025 L65,149.747793 C65,150.992132 63.8786952,152 62.5,152" id="Clip-368" fill="#31C6EC"></path>
                    <path d="M50.5,152 C49.1187564,152 48,150.992132 48,149.747793 L48,51.2545025 C48,50.0078682 49.1187564,49 50.5,49 C51.8786952,49 53,50.0078682 53,51.2545025 L53,149.747793 C53,150.992132 51.8786952,152 50.5,152" id="Fill-367" fill="#31C6EC"></path>
                    <path d="M86.5012749,152 C85.1193269,152 84,150.992132 84,149.747793 L84,51.2545025 C84,50.0078682 85.1193269,49 86.5012749,49 C87.8806731,49 89,50.0078682 89,51.2545025 L89,149.747793 C89,150.992132 87.8806731,152 86.5012749,152" id="Clip-371" fill="#31C6EC"></path>
                    <path d="M74.5012749,152 C73.1193269,152 72,150.992132 72,149.747793 L72,51.2545025 C72,50.0078682 73.1193269,49 74.5012749,49 C75.8806731,49 77,50.0078682 77,51.2545025 L77,149.747793 C77,150.992132 75.8806731,152 74.5012749,152" id="Fill-370" fill="#31C6EC"></path>
                    <path d="M110.5,152 C109.118756,152 108,150.994877 108,149.753927 L108,53.2460726 C108,52.0051232 109.118756,51 110.5,51 C111.878695,51 113,52.0051232 113,53.2460726 L113,149.753927 C113,150.994877 111.878695,152 110.5,152" id="Clip-374" fill="#31C6EC"></path>
                    <path d="M98.5,152 C97.1187564,152 96,150.994877 96,149.753927 L96,53.2460726 C96,52.0051232 97.1187564,51 98.5,51 C99.8786952,51 101,52.0051232 101,53.2460726 L101,149.753927 C101,150.994877 99.8786952,152 98.5,152" id="Fill-373" fill="#31C6EC"></path>
                    <path d="M134.501275,152 C133.119327,152 132,150.989546 132,149.742016 L132,58.2556824 C132,57.0081519 133.119327,56 134.501275,56 C135.880673,56 137,57.0081519 137,58.2556824 L137,149.742016 C137,150.989546 135.880673,152 134.501275,152" id="Clip-377" fill="#31C6EC"></path>
                    <path d="M122.501275,152 C121.119327,152 120,150.989546 120,149.742016 L120,58.2556824 C120,57.0081519 121.119327,56 122.501275,56 C123.880673,56 125,57.0081519 125,58.2556824 L125,149.742016 C125,150.989546 123.880673,152 122.501275,152" id="Fill-376" fill="#31C6EC"></path>
                    <path d="M146.498725,152 C145.116777,152 144,150.988347 144,149.739335 L144,66.2606646 C144,65.0116532 145.116777,64 146.498725,64 C147.880673,64 149,65.0116532 149,66.2606646 L149,149.739335 C149,150.988347 147.880673,152 146.498725,152" id="Clip-380" fill="#31C6EC"></path>
                    <path d="M158.498725,152 C157.116777,152 156,150.988347 156,149.739335 L156,66.2606646 C156,65.0116532 157.116777,64 158.498725,64 C159.880673,64 161,65.0116532 161,66.2606646 L161,149.739335 C161,150.988347 159.880673,152 158.498725,152" id="Fill-379" fill="#31C6EC"></path>
                    <path d="M182.5,152 C181.121305,152 180,150.989235 180,149.741319 L180,80.2563783 C180,79.008463 181.121305,78 182.5,78 C183.881244,78 185,79.008463 185,80.2563783 L185,149.741319 C185,150.989235 183.881244,152 182.5,152" id="Clip-383" fill="#31C6EC"></path>
                    <path d="M170.5,152 C169.121305,152 168,150.989235 168,149.741319 L168,80.2563783 C168,79.008463 169.121305,78 170.5,78 C171.881244,78 173,79.008463 173,80.2563783 L173,149.741319 C173,150.989235 171.881244,152 170.5,152" id="Fill-382" fill="#31C6EC"></path>
                    <path d="M206.5,152 C205.118756,152 204,150.997259 204,149.759251 L204,99.2407492 C204,98.002741 205.118756,97 206.5,97 C207.881244,97 209,98.002741 209,99.2407492 L209,149.759251 C209,150.997259 207.881244,152 206.5,152" id="Clip-386" fill="#31C6EC"></path>
                    <path d="M194.5,152 C193.118756,152 192,150.997259 192,149.759251 L192,99.2407492 C192,98.002741 193.118756,97 194.5,97 C195.881244,97 197,98.002741 197,99.2407492 L197,149.759251 C197,150.997259 195.881244,152 194.5,152" id="Fill-385" fill="#31C6EC"></path>
                    <path d="M170.5,152 C169.121305,152 168,151.008182 168,149.78366 L168,117.214081 C168,115.989559 169.121305,115 170.5,115 C171.881244,115 173,115.989559 173,117.214081 L173,149.78366 C173,151.008182 171.881244,152 170.5,152" id="Clip-389" fill="#31C6EC"></path>
                    <path d="M194.5,152 C193.121305,152 192,151.008182 192,149.78366 L192,117.214081 C192,115.989559 193.121305,115 194.5,115 C195.881244,115 197,115.989559 197,117.214081 L197,149.78366 C197,151.008182 195.881244,152 194.5,152" id="Fill-388" fill="#31C6EC"></path>
                    <path d="M182.5,152 C181.118756,152 180,151.006009 180,149.778803 L180,128.221197 C180,126.993991 181.118756,126 182.5,126 C183.881244,126 185,126.993991 185,128.221197 L185,149.778803 C185,151.006009 183.881244,152 182.5,152" id="Clip-392" fill="#31C6EC"></path>
                    <path d="M206.5,152 C205.118756,152 204,151.006009 204,149.778803 L204,128.221197 C204,126.993991 205.118756,126 206.5,126 C207.881244,126 209,126.993991 209,128.221197 L209,149.778803 C209,151.006009 207.881244,152 206.5,152" id="Fill-391" fill="#31C6EC"></path>
                    <path d="M146.5,152 C145.118756,152 144,150.980913 144,149.722724 L144,136.274955 C144,135.016766 145.118756,134 146.5,134 C147.878695,134 149,135.016766 149,136.274955 L149,149.722724 C149,150.980913 147.878695,152 146.5,152" id="Clip-395" fill="#31C6EC"></path>
                    <path d="M158.5,152 C157.118756,152 156,150.980913 156,149.722724 L156,136.274955 C156,135.016766 157.118756,134 158.5,134 C159.878695,134 161,135.016766 161,136.274955 L161,149.722724 C161,150.980913 159.878695,152 158.5,152" id="Fill-394" fill="#31C6EC"></path>
                    <path d="M122.5,152 C121.121305,152 120,150.995259 120,149.754782 L120,140.245218 C120,139.004741 121.121305,138 122.5,138 C123.881244,138 125,139.004741 125,140.245218 L125,149.754782 C125,150.995259 123.881244,152 122.5,152" id="Clip-398" fill="#31C6EC"></path>
                    <path d="M134.5,152 C133.121305,152 132,150.995259 132,149.754782 L132,140.245218 C132,139.004741 133.121305,138 134.5,138 C135.881244,138 137,139.004741 137,140.245218 L137,149.754782 C137,150.995259 135.881244,152 134.5,152" id="Fill-397" fill="#31C6EC"></path>
                    <path d="M206.5,152 C205.118756,152 204,151.012744 204,149.793853 L204,142.203898 C204,140.985007 205.118756,140 206.5,140 C207.881244,140 209,140.985007 209,142.203898 L209,149.793853 C209,151.012744 207.881244,152 206.5,152" id="Clip-401" fill="#31C6EC"></path>
                    <path d="M110.5,152 C109.118756,152 108,151.012744 108,149.793853 L108,142.203898 C108,140.985007 109.118756,140 110.5,140 C111.881244,140 113,140.985007 113,142.203898 L113,149.793853 C113,151.012744 111.881244,152 110.5,152" id="Fill-400" fill="#31C6EC"></path>
                    <path d="M74.5,152 C73.1213048,152 72,150.938448 72,149.62783 L72,143.37217 C72,142.059134 73.1213048,141 74.5,141 C75.8812436,141 77,142.059134 77,143.37217 L77,149.62783 C77,150.938448 75.8812436,152 74.5,152" id="Clip-404" fill="#31C6EC"></path>
                    <path d="M86.5,152 C85.1213048,152 84,150.938448 84,149.62783 L84,143.37217 C84,142.059134 85.1213048,141 86.5,141 C87.8812436,141 89,142.059134 89,143.37217 L89,149.62783 C89,150.938448 87.8812436,152 86.5,152" id="Fill-403" fill="#31C6EC"></path>
                    <path d="M194.5,152 C193.118756,152 192,151.012744 192,149.793853 L192,142.203898 C192,140.985007 193.118756,140 194.5,140 C195.881244,140 197,140.985007 197,142.203898 L197,149.793853 C197,151.012744 195.881244,152 194.5,152" id="Clip-407" fill="#31C6EC"></path>
                    <path d="M62.5,152 C61.1187564,152 60,151.012744 60,149.793853 L60,142.203898 C60,140.985007 61.1187564,140 62.5,140 C63.8812436,140 65,140.985007 65,142.203898 L65,149.793853 C65,151.012744 63.8812436,152 62.5,152" id="Fill-406" fill="#31C6EC"></path>
                    <path d="M230.498725,152 C229.119327,152 228,150.956224 228,149.667552 L228,137.332448 C228,136.043776 229.119327,135 230.498725,135 C231.880673,135 233,136.043776 233,137.332448 L233,149.667552 C233,150.956224 231.880673,152 230.498725,152" id="Clip-410" fill="#31C6EC"></path>
                    <path d="M218.498725,152 C217.119327,152 216,150.956224 216,149.667552 L216,137.332448 C216,136.043776 217.119327,135 218.498725,135 C219.880673,135 221,136.043776 221,137.332448 L221,149.667552 C221,150.956224 219.880673,152 218.498725,152" id="Fill-409" fill="#31C6EC"></path>
                    <path d="M254.5,152 C253.121305,152 252,150.991176 252,149.745657 L252,129.254343 C252,128.008824 253.121305,127 254.5,127 C255.881244,127 257,128.008824 257,129.254343 L257,149.745657 C257,150.991176 255.881244,152 254.5,152" id="Clip-413" fill="#31C6EC"></path>
                    <path d="M242.5,152 C241.121305,152 240,150.991176 240,149.745657 L240,129.254343 C240,128.008824 241.121305,127 242.5,127 C243.881244,127 245,128.008824 245,129.254343 L245,149.745657 C245,150.991176 243.881244,152 242.5,152" id="Fill-412" fill="#31C6EC"></path>
                    <path d="M218.5,152 C217.118756,152 216,150.995954 216,149.756334 L216,115.243666 C216,114.004046 217.118756,113 218.5,113 C219.881244,113 221,114.004046 221,115.243666 L221,149.756334 C221,150.995954 219.881244,152 218.5,152" id="Clip-416" fill="#31C6EC"></path>
                    <path d="M230.5,152 C229.118756,152 228,150.995954 228,149.756334 L228,115.243666 C228,114.004046 229.118756,113 230.5,113 C231.881244,113 233,114.004046 233,115.243666 L233,149.756334 C233,150.995954 231.881244,152 230.5,152" id="Fill-415" fill="#31C6EC"></path>
                    <path d="M230.5,152 C229.121305,152 228,150.717156 228,149.133325 L228,82.8637526 C228,81.2799221 229.121305,80 230.5,80 C231.881244,80 233,81.2799221 233,82.8637526 L233,149.133325 C233,150.717156 231.881244,152 230.5,152" id="Clip-419" fill="#31C6EC"></path>
                    <path d="M218.5,152 C217.121305,152 216,150.984415 216,149.730549 L216,97.2671375 C216,96.0132716 217.121305,95 218.5,95 C219.881244,95 221,96.0132716 221,97.2671375 L221,149.730549 C221,150.984415 219.881244,152 218.5,152" id="Fill-418" fill="#31C6EC"></path>
                    <path d="M242.501275,152 C241.119327,152 240,150.997882 240,149.760644 L240,71.2416392 C240,70.0044004 241.119327,69 242.501275,69 C243.883223,69 245,70.0044004 245,71.2416392 L245,149.760644 C245,150.997882 243.883223,152 242.501275,152" id="Clip-422" fill="#31C6EC"></path>
                    <path d="M254.501275,152 C253.119327,152 252,150.997882 252,149.760644 L252,71.2416392 C252,70.0044004 253.119327,69 254.501275,69 C255.883223,69 257,70.0044004 257,71.2416392 L257,149.760644 C257,150.997882 255.883223,152 254.501275,152" id="Fill-421" fill="#31C6EC"></path>
                    <path d="M278.5,152 C277.118756,152 276,150.989835 276,149.742662 L276,39.2550373 C276,38.0078636 277.118756,37 278.5,37 C279.878695,37 281,38.0078636 281,39.2550373 L281,149.742662 C281,150.989835 279.878695,152 278.5,152" id="Clip-425" fill="#31C6EC"></path>
                    <path d="M266.5,152 C265.118756,152 264,150.989835 264,149.742662 L264,39.2550373 C264,38.0078636 265.118756,37 266.5,37 C267.878695,37 269,38.0078636 269,39.2550373 L269,149.742662 C269,150.989835 267.878695,152 266.5,152" id="Fill-424" fill="#31C6EC"></path>
                    <path d="M302.501275,152 C301.119327,152 300,150.992902 300,149.749514 L300,16.2527803 C300,15.0093924 301.119327,14 302.501275,14 C303.880673,14 305,15.0093924 305,16.2527803 L305,149.749514 C305,150.992902 303.880673,152 302.501275,152" id="Clip-428" fill="#31C6EC"></path>
                    <path d="M314.501275,152 C313.119327,152 312,150.992902 312,149.749514 L312,16.2527803 C312,15.0093924 313.119327,14 314.501275,14 C315.880673,14 317,15.0093924 317,16.2527803 L317,149.749514 C317,150.992902 315.880673,152 314.501275,152" id="Fill-427" fill="#31C6EC"></path>
                    <path d="M290.498725,152 C289.119327,152 288,151.139387 288,150.076854 L288,25.921186 C288,24.8586525 289.119327,24 290.498725,24 C291.880673,24 293,24.8586525 293,25.921186 L293,150.076854 C293,151.139387 291.880673,152 290.498725,152" id="Clip-431" fill="#31C6EC"></path>
                    <path d="M326.498725,152 C325.119327,152 324,150.991469 324,149.746313 L324,4.25138989 C324,3.00623344 325.119327,2 326.498725,2 C327.880673,2 329,3.00623344 329,4.25138989 L329,149.746313 C329,150.991469 327.880673,152 326.498725,152" id="Fill-430" fill="#D3D3D3"></path>
                    <path d="M338.5,152 C337.118756,152 336,150.99356 336,149.750984 L336,2.24672328 C336,1.00414775 337.118756,0 338.5,0 C339.878695,0 341,1.00414775 341,2.24672328 L341,149.750984 C341,150.99356 339.878695,152 338.5,152" id="Clip-434" fill="#D3D3D3"></path>
                    <path d="M400.5,152 C399.118756,152 398,151.284898 398,150.402015 L398,45.596356 C398,44.7134734 399.118756,44 400.5,44 C401.878695,44 403,44.7134734 403,45.596356 L403,150.402015 C403,151.284898 401.878695,152 400.5,152" id="Fill-433" fill="#D3D3D3"></path>
                    <path d="M364.00153,152 C362.343192,152 361,150.997578 361,149.759963 L361,6.24003703 C361,5.00242228 362.343192,4 364.00153,4 C365.656808,4 367,5.00242228 367,6.24003703 L367,149.759963 C367,150.997578 365.656808,152 364.00153,152" id="Clip-437" fill="#D3D3D3"></path>
                    <path d="M351.00153,152 C349.343192,152 348,150.997578 348,149.759963 L348,6.24003703 C348,5.00242228 349.343192,4 351.00153,4 C352.656808,4 354,5.00242228 354,6.24003703 L354,149.759963 C354,150.997578 352.656808,152 351.00153,152" id="Fill-436" fill="#D3D3D3"></path>
                    <path d="M388.5,152 C387.118756,152 386,150.998063 386,149.761048 L386,22.2366692 C386,20.9996542 387.118756,20 388.5,20 C389.878695,20 391,20.9996542 391,22.2366692 L391,149.761048 C391,150.998063 389.878695,152 388.5,152" id="Clip-440" fill="#D3D3D3"></path>
                    <path d="M376.5,152 C375.118756,152 374,150.998063 374,149.761048 L374,22.2366692 C374,20.9996542 375.118756,20 376.5,20 C377.878695,20 379,20.9996542 379,22.2366692 L379,149.761048 C379,150.998063 377.878695,152 376.5,152" id="Fill-439" fill="#D3D3D3"></path>
                    <path d="M424.501275,152 C423.119327,152 422,150.995353 422,149.754991 L422,56.247297 C422,55.004647 423.119327,54 424.501275,54 C425.880673,54 427,55.004647 427,56.247297 L427,149.754991 C427,150.995353 425.880673,152 424.501275,152" id="Clip-443" fill="#D3D3D3"></path>
                    <path d="M412.501275,152 C411.119327,152 410,150.995353 410,149.754991 L410,56.247297 C410,55.004647 411.119327,54 412.501275,54 C413.880673,54 415,55.004647 415,56.247297 L415,149.754991 C415,150.995353 413.880673,152 412.501275,152" id="Fill-442" fill="#D3D3D3"></path>
                    <path d="M412.5,152 C411.118756,152 410,151.002976 410,149.772026 L410,125.227974 C410,123.997024 411.118756,123 412.5,123 C413.878695,123 415,123.997024 415,125.227974 L415,149.772026 C415,151.002976 413.878695,152 412.5,152" id="Clip-449" fill="#D3D3D3"></path>
                    <path d="M424.5,152 C423.118756,152 422,151.002976 422,149.772026 L422,125.227974 C422,123.997024 423.118756,123 424.5,123 C425.878695,123 427,123.997024 427,125.227974 L427,149.772026 C427,151.002976 425.878695,152 424.5,152" id="Fill-448" fill="#D3D3D3"></path>
                    <path d="M508.5,152 C507.118756,152 506,150.956224 506,149.667552 L506,137.332448 C506,136.043776 507.118756,135 508.5,135 C509.878695,135 511,136.043776 511,137.332448 L511,149.667552 C511,150.956224 509.878695,152 508.5,152" id="Clip-455" fill="#D3D3D3"></path>
                    <path d="M532.5,152 C531.118756,152 530,150.956224 530,149.667552 L530,137.332448 C530,136.043776 531.118756,135 532.5,135 C533.878695,135 535,136.043776 535,137.332448 L535,149.667552 C535,150.956224 533.878695,152 532.5,152" id="Fill-454" fill="#D3D3D3"></path>
                    <path d="M484.501275,152 C483.119327,152 482,150.980913 482,149.722724 L482,136.274955 C482,135.016766 483.119327,134 484.501275,134 C485.880673,134 487,135.016766 487,136.274955 L487,149.722724 C487,150.980913 485.880673,152 484.501275,152" id="Clip-458" fill="#D3D3D3"></path>
                    <path d="M496.501275,152 C495.119327,152 494,150.980913 494,149.722724 L494,136.274955 C494,135.016766 495.119327,134 496.501275,134 C497.880673,134 499,135.016766 499,136.274955 L499,149.722724 C499,150.980913 497.880673,152 496.501275,152" id="Fill-457" fill="#D3D3D3"></path>
                    <path d="M472.498725,152 C471.119327,152 470,150.991176 470,149.745657 L470,129.254343 C470,128.008824 471.119327,127 472.498725,127 C473.880673,127 475,128.008824 475,129.254343 L475,149.745657 C475,150.991176 473.880673,152 472.498725,152" id="Clip-461" fill="#D3D3D3"></path>
                    <path d="M460.498725,152 C459.119327,152 458,150.991176 458,149.745657 L458,129.254343 C458,128.008824 459.119327,127 460.498725,127 C461.880673,127 463,128.008824 463,129.254343 L463,149.745657 C463,150.991176 461.880673,152 460.498725,152" id="Fill-460" fill="#D3D3D3"></path>
                    <path d="M436.501275,152 C435.119327,152 434,150.984885 434,149.7316 L434,113.2684 C434,112.015115 435.119327,111 436.501275,111 C437.880673,111 439,112.015115 439,113.2684 L439,149.7316 C439,150.984885 437.880673,152 436.501275,152" id="Clip-464" fill="#D3D3D3"></path>
                    <path d="M448.501275,152 C447.119327,152 446,150.984885 446,149.7316 L446,113.2684 C446,112.015115 447.119327,111 448.501275,111 C449.880673,111 451,112.015115 451,113.2684 L451,149.7316 C451,150.984885 449.880673,152 448.501275,152" id="Fill-463" fill="#D3D3D3"></path>
                    <path d="M436.498725,152 C435.116777,152 434,151.001572 434,149.768889 L434,86.2311114 C434,84.998428 435.116777,84 436.498725,84 C437.880673,84 439,84.998428 439,86.2311114 L439,149.768889 C439,151.001572 437.880673,152 436.498725,152" id="Clip-467" fill="#D3D3D3"></path>
                    <path d="M448.498725,152 C447.116777,152 446,151.001572 446,149.768889 L446,86.2311114 C446,84.998428 447.116777,84 448.498725,84 C449.880673,84 451,84.998428 451,86.2311114 L451,149.768889 C451,151.001572 449.880673,152 448.498725,152" id="Fill-466" fill="#D3D3D3"></path>
                    <path d="M472.498725,152 C471.119327,152 470,150.998116 470,149.761166 L470,68.2365523 C470,66.9996019 471.119327,66 472.498725,66 C473.880673,66 475,66.9996019 475,68.2365523 L475,149.761166 C475,150.998116 473.880673,152 472.498725,152" id="Clip-470" fill="#D3D3D3"></path>
                    <path d="M460.498725,152 C459.119327,152 458,150.998116 458,149.761166 L458,68.2365523 C458,66.9996019 459.119327,66 460.498725,66 C461.880673,66 463,66.9996019 463,68.2365523 L463,149.761166 C463,150.998116 461.880673,152 460.498725,152" id="Fill-469" fill="#D3D3D3"></path>
                    <path d="M484.5,152 C483.121305,152 482,150.993709 482,149.751317 L482,60.2463909 C482,59.0039992 483.121305,58 484.5,58 C485.881244,58 487,59.0039992 487,60.2463909 L487,149.751317 C487,150.993709 485.881244,152 484.5,152" id="Clip-473" fill="#D3D3D3"></path>
                    <path d="M496.5,152 C495.121305,152 494,150.993709 494,149.751317 L494,60.2463909 C494,59.0039992 495.121305,58 496.5,58 C497.881244,58 499,59.0039992 499,60.2463909 L499,149.751317 C499,150.993709 497.881244,152 496.5,152" id="Fill-472" fill="#D3D3D3"></path>
                    <path d="M508.5,152 C507.118756,152 506,150.995353 506,149.754991 L506,56.247297 C506,55.004647 507.118756,54 508.5,54 C509.881244,54 511,55.004647 511,56.247297 L511,149.754991 C511,150.995353 509.881244,152 508.5,152" id="Clip-476" fill="#D3D3D3"></path>
                    <path d="M520.5,152 C519.118756,152 518,150.995353 518,149.754991 L518,56.247297 C518,55.004647 519.118756,54 520.5,54 C521.881244,54 523,55.004647 523,56.247297 L523,149.754991 C523,150.995353 521.881244,152 520.5,152" id="Fill-475" fill="#D3D3D3"></path>
                    <path d="M532.5,152 C531.121305,152 530,150.994563 530,149.753227 L530,55.2467728 C530,54.0054365 531.121305,53 532.5,53 C533.881244,53 535,54.0054365 535,55.2467728 L535,149.753227 C535,150.994563 533.881244,152 532.5,152" id="Clip-479" fill="#D3D3D3"></path>
                    <path d="M520.5,152 C519.121305,152 518,150.994563 518,149.753227 L518,55.2467728 C518,54.0054365 519.121305,53 520.5,53 C521.881244,53 523,54.0054365 523,55.2467728 L523,149.753227 C523,150.994563 521.881244,152 520.5,152" id="Fill-478" fill="#D3D3D3"></path>
                </g>
                <g id="Group-7-Copy-2" transform="translate(248.000000, 0.000000)">
                    <path d="M138,6.75015599e-14 C140.209139,6.66516584e-14 142,1.790861 142,4 L142,49 C142,51.209139 140.209139,53 138,53 L77.97,53 L71,59.9705627 L64.03,53 L4,53 C1.790861,53 -1.73547709e-16,51.209139 0,49 L0,4 C-7.1463071e-16,1.790861 1.790861,6.74632829e-14 4,6.75015599e-14 L138,6.75015599e-14 Z" id="Combined-Shape" fill="#FCF5F5"></path>
                    <text id="+56%" font-family="GeneralSans-Semibold, General Sans" font-size="17" font-weight="500" letter-spacing="-0.425" fill="#65F752">
                        <tspan x="83.564" y="33">+56%</tspan>
                    </text>
                    <text id="$278" font-family="GeneralSans-Semibold, General Sans" font-size="17" font-weight="500" letter-spacing="-0.425" fill="#A5A4A4">
                        <tspan x="20.123" y="33">$278</tspan>
                    </text>
                </g>
            </g>
            <g id="Group-32-Copy-3" transform="translate(81.000000, 65.000000)">
                <path d="M11.73,29.38 C18.57,29.38 22.75,25.732 22.75,20.526 C22.75,16.498 20.166,14.294 15.378,13.344 L10.704,12.394 C8.728,12.014 7.018,11.216 7.018,9.354 C7.018,7.454 8.614,5.858 11.426,5.858 C14.314,5.858 16.29,7.796 16.48,10.646 L22.332,10.646 C21.952,4.946 17.468,1.374 11.35,1.374 C5.46,1.374 1.166,4.87 1.166,9.734 C1.166,14.256 4.358,16.498 8.5,17.296 L12.984,18.17 C15.302,18.626 16.632,19.652 16.632,21.362 C16.632,23.566 14.542,24.858 11.616,24.858 C8.082,24.858 6.144,22.92 5.992,19.918 L0.14,19.918 C0.558,25.694 4.852,29.38 11.73,29.38 Z M30.7143529,36.334 L30.7143529,26.378 C32.2343529,28.354 34.2863529,29.38 36.6803529,29.38 C42.1523529,29.38 45.6863529,24.858 45.6863529,18.854 C45.6863529,12.888 42.1523529,8.328 36.6803529,8.328 C34.0963529,8.328 31.8543529,9.506 30.2963529,11.672 L30.2963529,8.708 L25.4323529,8.708 L25.4323529,36.334 L30.7143529,36.334 Z M35.5023529,24.668 C32.9183529,24.668 30.7523529,22.692 30.7523529,18.854 C30.7523529,15.016 32.9183529,13.002 35.5023529,13.002 C38.0863529,13.002 40.2523529,15.054 40.2523529,18.854 C40.2523529,22.73 38.0863529,24.668 35.5023529,24.668 Z M56.7667059,29.342 C61.7067059,29.342 65.2407059,26.72 66.3807059,22.122 L61.1367059,22.122 C60.5287059,24.136 58.9707059,25.276 56.6527059,25.276 C53.9547059,25.276 52.3587059,23.452 52.0167059,20.146 L66.4187059,20.146 C67.3687059,13.534 63.1127059,8.328 56.6907059,8.328 C50.8387059,8.328 46.6207059,12.736 46.6207059,18.778 C46.6207059,25.124 50.6867059,29.342 56.7667059,29.342 Z M60.8327059,16.802 L52.0927059,16.802 C52.5487059,13.8 54.1067059,12.204 56.5767059,12.204 C59.0847059,12.204 60.6807059,13.99 60.8327059,16.802 Z M74.1170588,29 L74.1170588,17.942 C74.1170588,14.674 75.9030588,13.002 77.9930588,13.002 C80.3870588,13.002 81.5650588,14.674 81.5650588,17.676 L81.5650588,29 L86.8090588,29 L86.8090588,15.89 C86.8090588,10.988 83.9970588,8.328 79.9310588,8.328 C77.2710588,8.328 75.1810588,9.582 73.6990588,11.596 L73.6990588,8.708 L68.8350588,8.708 L68.8350588,29 L74.1170588,29 Z M97.9274118,29.38 C100.549412,29.38 102.753412,28.202 104.349412,26.074 L104.349412,29 L109.175412,29 L109.175412,1.716 L103.931412,1.716 L103.931412,11.33 C102.411412,9.392 100.359412,8.328 97.9274118,8.328 C92.4554118,8.328 88.9214118,12.85 88.9214118,18.854 C88.9214118,24.782 92.4554118,29.38 97.9274118,29.38 Z M99.1054118,24.668 C96.5214118,24.668 94.3554118,22.654 94.3554118,18.854 C94.3554118,14.978 96.5214118,13.002 99.1054118,13.002 C101.689412,13.002 103.893412,14.94 103.893412,18.778 C103.893412,22.616 101.727412,24.668 99.1054118,24.668 Z M115.353765,7.112 C117.443765,7.112 118.887765,5.782 118.887765,3.996 C118.887765,2.134 117.443765,0.804 115.353765,0.804 C113.301765,0.804 111.857765,2.134 111.857765,3.996 C111.857765,5.782 113.301765,7.112 115.353765,7.112 Z M118.051765,29 L118.051765,8.708 L112.769765,8.708 L112.769765,29 L118.051765,29 Z M126.928118,29 L126.928118,17.942 C126.928118,14.674 128.714118,13.002 130.804118,13.002 C133.198118,13.002 134.376118,14.674 134.376118,17.676 L134.376118,29 L139.620118,29 L139.620118,15.89 C139.620118,10.988 136.808118,8.328 132.742118,8.328 C130.082118,8.328 127.992118,9.582 126.510118,11.596 L126.510118,8.708 L121.646118,8.708 L121.646118,29 L126.928118,29 Z M151.688471,36.714 C157.692471,36.714 161.340471,33.446 161.340471,28.05 L161.340471,8.708 L156.514471,8.708 L156.514471,11.482 C155.032471,9.392 152.980471,8.328 150.244471,8.328 C145.228471,8.328 141.732471,12.394 141.732471,18.284 C141.732471,24.022 145.456471,28.24 150.434471,28.24 C152.904471,28.24 154.994471,27.1 156.096471,25.162 L156.096471,28.126 C156.096471,31.052 154.576471,32.61 151.650471,32.61 C149.142471,32.61 147.660471,31.394 147.432471,29.076 L142.340471,29.076 C142.568471,33.75 146.216471,36.714 151.688471,36.714 Z M151.460471,23.68 C148.724471,23.68 147.014471,21.59 147.014471,18.284 C147.014471,14.978 148.762471,12.888 151.460471,12.888 C154.234471,12.888 156.058471,15.016 156.058471,18.322 C156.058471,21.514 154.234471,23.68 151.460471,23.68 Z" id="Spending" fill="#393838" fill-rule="nonzero"></path>
                <path d="M184,9 L184,11 L175,11 L175,20 L173,20 L173,9 L184,9 Z" id="Combined-Shape" fill="#D8D8D8" transform="translate(178.500000, 14.500000) scale(1, -1) rotate(45.000000) translate(-178.500000, -14.500000) "></path>
            </g>
        </g>
        <g id="Group-27-Copy-4" transform="translate(914.000000, 155.000000)">
            <circle id="Oval-Copy-11" fill="#FFC761" cx="108" cy="108" r="108"></circle>
            <path d="M66.5872,130.7392 L65.1352,140.909067 C64.7450667,143.6488 65.6661333,146.417867 67.6256,148.3744 C69.5821333,150.333867 72.3512,151.254933 75.0909333,150.8648 C75.0909333,150.8648 75.0909333,150.8648 75.0909333,150.8648 C78.2912,150.4072 81.9784,149.876267 85.076,149.670933 C85.1493333,149.665067 85.2226667,149.6592 85.296,149.647467 C88.9421333,149.125333 92.6616,149.380533 96.2021333,150.3984 C96.2109333,150.3984 96.2197333,150.401333 96.2285333,150.404267 C99.9744,151.442667 103.922667,152 108,152 C132.285067,152 152,132.285067 152,108 C152,83.7149333 132.285067,64 108,64 C83.7149333,64 64,83.7149333 64,108 C64,112.1272 64.572,116.125333 65.8656,119.850667 C66.8570667,123.356 67.1093333,127.081333 66.5872,130.7392 Z M90.5178571,122.142857 L108.196429,122.142857 C109.822857,122.142857 111.142857,120.734857 111.142857,119 C111.142857,117.265143 109.822857,115.857143 108.196429,115.857143 L90.5178571,115.857143 C88.8914286,115.857143 87.5714286,117.265143 87.5714286,119 C87.5714286,120.734857 88.8914286,122.142857 90.5178571,122.142857 Z M90.4897959,111.142857 L125.510204,111.142857 C127.121143,111.142857 128.428571,109.734857 128.428571,108 C128.428571,106.265143 127.121143,104.857143 125.510204,104.857143 L90.4897959,104.857143 C88.8788571,104.857143 87.5714286,106.265143 87.5714286,108 C87.5714286,109.734857 88.8788571,111.142857 90.4897959,111.142857 Z M90.4897959,100.142857 L125.510204,100.142857 C127.121143,100.142857 128.428571,98.7348571 128.428571,97 C128.428571,95.2651429 127.121143,93.8571429 125.510204,93.8571429 L90.4897959,93.8571429 C88.8788571,93.8571429 87.5714286,95.2651429 87.5714286,97 C87.5714286,98.7348571 88.8788571,100.142857 90.4897959,100.142857 Z" id="Shape" fill="#FFFFFF"></path>
        </g>
        <g id="Group-18-Copy-5" transform="translate(107.259259, 717.000000)">
            <circle id="Oval-Copy-7" fill="#17DF7E" cx="108.740741" cy="108" r="108"></circle>
            <path d="M114.886767,160 L114.886767,150.537383 C131.685288,149.252336 141.740741,139.32243 141.740741,125.420561 C141.740741,113.504673 133.34148,106.845794 119.382146,103.925234 L107.552201,101.471963 C102.228726,100.420561 97.3784487,97.9672897 97.3784487,92.5934579 C97.3784487,86.5186916 102.465325,82.6635514 110.036489,82.6635514 C118.199151,82.6635514 123.759225,87.8037383 124.232423,95.5140187 L140.676046,95.5140187 C139.611351,81.2616822 129.437598,71.682243 114.886767,69.8130841 L114.886767,60 L104.121517,60 L104.121517,69.8130841 C90.280482,71.7990654 80.6982269,81.2616822 80.6982269,93.8785047 C80.6982269,107.897196 90.5170809,113.271028 101.992127,115.841121 L114.058671,118.294393 C120.091942,119.579439 124.232423,122.5 124.232423,127.523364 C124.232423,133.948598 117.962552,137.570093 109.79989,137.570093 C99.9810365,137.570093 94.4209626,132.429907 94.1843637,124.135514 L77.7407407,124.135514 C78.8054357,138.504673 88.5059903,148.317757 104.121517,150.303738 L104.121517,160 L114.886767,160 Z" id="$" fill="#FFFFFF" fill-rule="nonzero"></path>
        </g>
        <g id="Group-19-Copy-2" transform="translate(82.295194, 52.000000)">
            <circle id="Oval" fill="#31C6EC" cx="77.2048056" cy="76.5" r="76.5"></circle>
            <circle id="Oval" fill="#FFFFFF" cx="95.7048056" cy="54" r="13"></circle>
            <circle id="Oval-Copy-8" fill="#FFFFFF" cx="74.2048056" cy="80.5" r="9.5"></circle>
            <circle id="Oval-Copy-9" fill="#FFFFFF" cx="54.7048056" cy="102" r="7"></circle>
        </g>
        <g id="Group-20-Copy-2" transform="translate(914.222222, 646.000000)">
            <circle id="Oval-Copy-10" fill="#FB9064" cx="90.2777778" cy="89.5" r="89.5"></circle>
            <path d="M97.8777778,55 C103.124483,55 107.377778,59.2724251 107.377778,64.5427286 L107.376778,78.103 L115.777778,78.1034483 C117.434632,78.1034483 118.777778,79.446594 118.777778,81.1034483 L118.777778,119 C118.777778,120.656854 117.434632,122 115.777778,122 L64.7777778,122 C63.1209235,122 61.7777778,120.656854 61.7777778,119 L61.7777778,81.1034483 C61.7777778,79.446594 63.1209235,78.1034483 64.7777778,78.1034483 L73.1767778,78.103 L73.1777778,64.5427286 C73.1777778,59.2724251 77.4310727,55 82.6777778,55 L97.8777778,55 Z M97.8777778,60.7256372 L82.6777778,60.7256372 C80.6744904,60.7256372 79.033264,62.2827773 78.8882007,64.2578546 L78.8777778,64.5427286 L78.8767778,78.103 L101.676778,78.103 L101.677778,64.5427286 C101.677778,62.5304309 100.12761,60.8818228 98.1613762,60.736107 L97.8777778,60.7256372 Z" id="Combined-Shape" fill="#FFFFFF"></path>
        </g>
    </g>
</svg>