<?xml version="1.0" encoding="UTF-8"?>
<svg width="513px" height="440px" viewBox="0 0 513 440" version="1.1" xmlns="http://www.w3.org/2000/svg" xmlns:xlink="http://www.w3.org/1999/xlink">
    <title>Group 41</title>
    <g id="Page-1" stroke="none" stroke-width="1" fill="none" fill-rule="evenodd">
        <g id="Group-41">
            <rect id="Rectangle" fill="#FFFFFF" x="0" y="0" width="513" height="440"></rect>
            <path d="M261.5,118 C360.749077,118 442.033827,195.18336 448.999951,292.998737 L343.852316,293.000751 C337.42217,253.304062 303.100221,223 261.725041,223 C220.34986,223 186.027912,253.304062 179.597765,293.000751 L74.0000486,292.998737 C80.9661733,195.18336 162.250923,118 261.5,118 Z" id="Combined-Shape-Copy-46" fill="#31C6EC"></path>
            <path d="M448.999951,292.998737 L343.852316,293.000751 C338.958661,262.789632 317.910204,238.018679 289.892503,227.905567 L319.040519,127.001094 C390.58474,150.059699 443.442515,214.96356 448.999951,292.998737 Z" id="Combined-Shape" fill="#5D75FF"></path>
            <path d="M94.121606,323.876374 L94.121606,316.223901 L96.9252565,316.223901 L96.9252565,315 L90,315 L90,316.223901 L92.8036506,316.223901 L92.8036506,323.876374 L94.121606,323.876374 Z M98.3700739,323.876374 L98.3700739,320.526099 C98.3700739,319.07967 99.3645312,318.461538 100.730412,318.535714 L100.730412,317.237637 C99.6880293,317.237637 98.7295163,317.806319 98.2862041,318.708791 L98.2862041,317.324176 L97.1599513,317.324176 L97.1599513,323.876374 L98.3700739,323.876374 Z M103.145724,324 C104.080274,324 104.787178,323.592033 105.182564,322.862637 L105.182564,323.876374 L106.189003,323.876374 L106.189003,319.673077 C106.189003,318.115385 105.278416,317.200549 103.70885,317.200549 C102.223155,317.200549 101.204735,318.177198 101.144828,319.648352 L102.247118,319.648352 C102.283062,318.733516 102.822226,318.18956 103.70885,318.18956 C104.547549,318.18956 105.038787,318.721154 105.038787,319.660714 L105.038787,320.142857 C104.523587,320.081044 104.224051,320.068681 103.852627,320.068681 C101.959564,320.068681 100.965107,320.736264 100.965107,322.021978 C100.965107,323.221154 101.827769,324 103.145724,324 Z M103.385352,323.10989 C102.606561,323.10989 102.115323,322.664835 102.115323,321.98489 C102.115323,321.218407 102.714393,320.847527 103.924516,320.847527 C104.236033,320.847527 104.571512,320.85989 105.038787,320.921703 L105.038787,321.453297 C105.038787,322.45467 104.403772,323.10989 103.385352,323.10989 Z M110.137936,323.876374 L112.522237,317.324176 L111.288151,317.324176 L109.502921,322.442308 L107.741653,317.324176 L106.435679,317.324176 L108.81998,323.876374 L110.137936,323.876374 Z M115.440768,324 C116.938444,324 118.028753,323.122253 118.34027,321.663462 L117.142128,321.663462 C116.938444,322.516484 116.315411,323.023352 115.416805,323.023352 C114.350459,323.023352 113.703463,322.244505 113.607612,320.909341 L118.34027,320.909341 C118.555935,318.782967 117.297887,317.200549 115.404824,317.200549 C113.655537,317.200549 112.373526,318.622253 112.373526,320.563187 C112.373526,322.627747 113.607612,324 115.440768,324 Z M117.058259,320.081044 L113.619593,320.081044 C113.751389,318.857143 114.410366,318.14011 115.380861,318.14011 C116.363337,318.14011 116.998352,318.869505 117.058259,320.081044 Z M120.49199,323.876374 L120.49199,315 L119.269886,315 L119.269886,323.876374 L120.49199,323.876374 Z M126.688495,323.987637 C128.449763,323.987637 129.647904,322.986264 129.647904,321.527473 C129.647904,320.513736 128.988926,319.846154 128.138246,319.524725 C128.809205,319.215659 129.336387,318.56044 129.336387,317.707418 C129.336387,316.347527 128.222116,315.395604 126.688495,315.395604 C125.130912,315.395604 124.028622,316.347527 124.028622,317.707418 C124.028622,318.56044 124.543822,319.215659 125.226763,319.524725 C124.376083,319.846154 123.705123,320.513736 123.705123,321.527473 C123.705123,322.986264 124.915246,323.987637 126.688495,323.987637 Z M126.688495,319.054945 C125.849796,319.054945 125.274689,318.56044 125.274689,317.744505 C125.274689,316.916209 125.849796,316.396978 126.688495,316.396978 C127.515213,316.396978 128.09032,316.916209 128.09032,317.744505 C128.09032,318.56044 127.515213,319.054945 126.688495,319.054945 Z M126.688495,322.986264 C125.670075,322.986264 124.975153,322.429945 124.975153,321.502747 C124.975153,320.600275 125.670075,320.056319 126.688495,320.056319 C127.694934,320.056319 128.401837,320.600275 128.401837,321.502747 C128.401837,322.429945 127.694934,322.986264 126.688495,322.986264 Z M135.262253,323.876374 L135.262253,322.034341 L136.364543,322.034341 L136.364543,320.946429 L135.262253,320.946429 L135.262253,315.519231 L134.327703,315.519231 L130.158171,321.156593 L130.158171,322.034341 L134.05213,322.034341 L134.05213,323.876374 L135.262253,323.876374 Z M134.05213,320.946429 L131.512071,320.946429 L134.05213,317.410714 L134.05213,320.946429 Z M139.319019,320.637363 C140.792732,320.637363 141.847097,319.475275 141.847097,318.041209 C141.847097,316.607143 140.792732,315.445055 139.319019,315.445055 C137.857286,315.445055 136.802922,316.607143 136.802922,318.041209 C136.802922,319.475275 137.857286,320.637363 139.319019,320.637363 Z M141.044342,323.876374 L145.621242,315.519231 L144.626784,315.519231 L140.049885,323.876374 L141.044342,323.876374 Z M139.319019,319.73489 C138.516264,319.73489 137.821342,319.141484 137.821342,318.041209 C137.821342,316.928571 138.516264,316.347527 139.319019,316.347527 C140.133755,316.347527 140.828677,316.928571 140.828677,318.041209 C140.828677,319.141484 140.133755,319.73489 139.319019,319.73489 Z M146.483903,323.975275 C147.957617,323.975275 149,322.825549 149,321.379121 C149,319.945055 147.957617,318.782967 146.483903,318.782967 C145.01019,318.782967 143.967807,319.945055 143.967807,321.379121 C143.967807,322.825549 145.01019,323.975275 146.483903,323.975275 Z M146.483903,323.072802 C145.681149,323.072802 144.974245,322.479396 144.974245,321.379121 C144.974245,320.278846 145.681149,319.697802 146.483903,319.697802 C147.298639,319.697802 147.98158,320.278846 147.98158,321.379121 C147.98158,322.479396 147.298639,323.072802 146.483903,323.072802 Z" id="Travel84%" fill="#6B6B6B" fill-rule="nonzero"></path>
            <path d="M386.393092,324 C389.026553,324 390.714362,322.110963 390.666481,319.343583 L386.3093,319.343583 L386.3093,320.402406 L389.277929,320.402406 C389.038524,321.882353 388.03302,322.868984 386.440973,322.868984 C384.525729,322.868984 383.364612,321.425134 383.364612,319.512032 C383.364612,317.47861 384.58558,316.191176 386.28536,316.191176 C387.757704,316.191176 388.703356,317.045455 389.026553,318.152406 L390.558749,318.152406 C390.032057,316.359626 388.535772,315 386.32127,315 C383.819482,315 382,316.937166 382,319.487968 C382,322.110963 383.915245,324 386.393092,324 Z M392.804232,323.819519 L392.804232,320.558824 C392.804232,319.15107 393.797765,318.549465 395.162377,318.621658 L395.162377,317.358289 C394.120963,317.358289 393.163341,317.911765 392.72044,318.790107 L392.72044,317.442513 L391.595234,317.442513 L391.595234,323.819519 L392.804232,323.819519 Z M398.401393,323.93984 C400.196935,323.93984 401.513666,322.520053 401.513666,320.631016 C401.513666,318.741979 400.196935,317.322193 398.401393,317.322193 C396.605852,317.322193 395.289121,318.741979 395.289121,320.631016 C395.289121,322.520053 396.605852,323.93984 398.401393,323.93984 Z M398.401393,322.868984 C397.359979,322.868984 396.546,322.026738 396.546,320.631016 C396.546,319.235294 397.359979,318.40508 398.401393,318.40508 C399.442808,318.40508 400.268757,319.235294 400.268757,320.631016 C400.268757,322.026738 399.442808,322.868984 398.401393,322.868984 Z M404.896326,323.951872 C406.488373,323.951872 407.613579,322.917112 407.829044,321.23262 L406.572164,321.23262 C406.428521,322.26738 405.806067,322.868984 404.908296,322.868984 C403.866882,322.868984 403.184576,321.990642 403.184576,320.631016 C403.184576,319.283422 403.866882,318.393048 404.908296,318.393048 C405.794096,318.393048 406.428521,319.006684 406.560194,320.029412 L407.829044,320.029412 C407.601608,318.368984 406.464432,317.322193 404.896326,317.322193 C403.184576,317.322193 401.939667,318.705882 401.939667,320.631016 C401.939667,322.580214 403.160635,323.951872 404.896326,323.951872 Z M411.247614,323.93984 C412.743899,323.93984 413.833194,323.085561 414.144422,321.665775 L412.947394,321.665775 C412.743899,322.495989 412.121445,322.989305 411.223674,322.989305 C410.158319,322.989305 409.511924,322.231283 409.416162,320.931818 L414.144422,320.931818 C414.359887,318.862299 413.103007,317.322193 411.211703,317.322193 C409.464043,317.322193 408.183223,318.705882 408.183223,320.59492 C408.183223,322.604278 409.416162,323.93984 411.247614,323.93984 Z M412.863602,320.125668 L409.428132,320.125668 C409.559805,318.934492 410.21817,318.236631 411.187763,318.236631 C412.169326,318.236631 412.80375,318.946524 412.863602,320.125668 Z M416.282172,323.819519 L416.282172,320.558824 C416.282172,319.15107 417.275706,318.549465 418.640317,318.621658 L418.640317,317.358289 C417.598903,317.358289 416.641281,317.911765 416.19838,318.790107 L416.19838,317.442513 L415.073174,317.442513 L415.073174,323.819519 L416.282172,323.819519 Z M419.844386,316.768717 C420.359108,316.768717 420.718217,316.419786 420.718217,315.962567 C420.718217,315.493316 420.359108,315.156417 419.844386,315.156417 C419.329664,315.156417 418.958586,315.493316 418.958586,315.962567 C418.958586,316.419786 419.329664,316.768717 419.844386,316.768717 Z M420.454871,323.819519 L420.454871,317.442513 L419.245872,317.442513 L419.245872,323.819519 L420.454871,323.819519 Z M424.388163,323.93984 C425.884448,323.93984 426.973743,323.085561 427.28497,321.665775 L426.087943,321.665775 C425.884448,322.495989 425.261993,322.989305 424.364223,322.989305 C423.298868,322.989305 422.652473,322.231283 422.556711,320.931818 L427.28497,320.931818 C427.500435,318.862299 426.243556,317.322193 424.352252,317.322193 C422.604592,317.322193 421.323772,318.705882 421.323772,320.59492 C421.323772,322.604278 422.556711,323.93984 424.388163,323.93984 Z M426.004151,320.125668 L422.568681,320.125668 C422.700354,318.934492 423.358719,318.236631 424.328312,318.236631 C425.309875,318.236631 425.944299,318.946524 426.004151,320.125668 Z M430.583838,323.93984 C432.271647,323.93984 433.24124,323.169786 433.24124,321.918449 C433.24124,321.004011 432.642726,320.450535 431.385847,320.221925 L430.308522,320.01738 C429.542424,319.872995 429.219227,319.632353 429.219227,319.114973 C429.219227,318.561497 429.733949,318.236631 430.500046,318.236631 C431.349936,318.236631 431.912539,318.681818 431.984361,319.451872 L433.145478,319.451872 C433.037745,318.140374 432.008301,317.322193 430.488076,317.322193 C429.015732,317.322193 428.046139,318.104278 428.046139,319.223262 C428.046139,320.185829 428.704505,320.787433 429.877592,321.016043 L430.907036,321.208556 C431.697074,321.364973 432.020272,321.593583 432.020272,322.122995 C432.020272,322.724599 431.457669,323.025401 430.607779,323.025401 C429.638186,323.025401 429.003762,322.532086 428.95588,321.737968 L427.794763,321.737968 C427.914466,323.109626 428.907999,323.93984 430.583838,323.93984 Z M438.522245,323.819519 L438.522245,315.685829 L435.73317,315.685829 L435.73317,316.744652 L437.301277,316.744652 L437.301277,323.819519 L438.522245,323.819519 Z M442.455538,323.927807 C444.191228,323.927807 445.424167,322.724599 445.424167,321.184492 C445.424167,319.608289 444.27502,318.537433 442.694943,318.537433 C442.479478,318.537433 442.240073,318.585561 442.000667,318.669786 L444.382752,315.685829 L443.00617,315.685829 L440.564234,318.717914 C439.869958,319.56016 439.498879,320.209893 439.498879,321.244652 C439.498879,322.724599 440.743788,323.927807 442.455538,323.927807 Z M442.467508,322.90508 C441.521856,322.90508 440.767728,322.231283 440.767728,321.208556 C440.767728,320.07754 441.521856,319.5 442.467508,319.5 C443.42513,319.5 444.167287,320.149733 444.167287,321.220588 C444.167287,322.231283 443.42513,322.90508 442.467508,322.90508 Z M448.328015,320.667112 C449.800359,320.667112 450.853744,319.536096 450.853744,318.140374 C450.853744,316.744652 449.800359,315.613636 448.328015,315.613636 C446.867641,315.613636 445.814257,316.744652 445.814257,318.140374 C445.814257,319.536096 446.867641,320.667112 448.328015,320.667112 Z M450.051735,323.819519 L454.624382,315.685829 L453.630848,315.685829 L449.058202,323.819519 L450.051735,323.819519 Z M448.328015,319.78877 C447.526007,319.78877 446.831731,319.21123 446.831731,318.140374 C446.831731,317.057487 447.526007,316.491979 448.328015,316.491979 C449.141994,316.491979 449.83627,317.057487 449.83627,318.140374 C449.83627,319.21123 449.141994,319.78877 448.328015,319.78877 Z M455.486242,323.915775 C456.958586,323.915775 458,322.796791 458,321.389037 C458,319.993316 456.958586,318.862299 455.486242,318.862299 C454.013897,318.862299 452.972483,319.993316 452.972483,321.389037 C452.972483,322.796791 454.013897,323.915775 455.486242,323.915775 Z M455.486242,323.037433 C454.684233,323.037433 453.977987,322.459893 453.977987,321.389037 C453.977987,320.318182 454.684233,319.752674 455.486242,319.752674 C456.300221,319.752674 456.982526,320.318182 456.982526,321.389037 C456.982526,322.459893 456.300221,323.037433 455.486242,323.037433 Z" id="Groceries16%" fill="#6B6B6B" fill-rule="nonzero"></path>
            <circle id="Oval-Copy-13" fill="#5D75FF" cx="370.5" cy="318.5" r="4.5"></circle>
            <circle id="Oval-Copy-16" fill="#31C6EC" cx="77.5" cy="319.5" r="4.5"></circle>
        </g>
    </g>
</svg>