<?xml version="1.0" encoding="UTF-8"?>
<svg width="332px" height="311px" viewBox="0 0 332 311" version="1.1" xmlns="http://www.w3.org/2000/svg" xmlns:xlink="http://www.w3.org/1999/xlink">
    <title>Group 42</title>
    <g id="Page-1" stroke="none" stroke-width="1" fill="none" fill-rule="evenodd">
        <g id="Group-42">
            <rect id="Rectangle" fill="#FFFFFF" x="0" y="0" width="332" height="311"></rect>
            <g id="Group-40" transform="translate(54.000000, 236.000000)">
                <path d="M7.488,26.208 C11.492,26.208 14.3,23.53 14.3,20.15 C14.3,16.822 11.778,14.456 8.19,14.456 C7.904,14.456 7.618,14.482 7.332,14.586 L12.376,8.424 L8.294,8.424 L2.99,14.82 C1.352,16.77 0.702,18.174 0.702,20.384 C0.702,23.53 3.484,26.208 7.488,26.208 Z M7.514,23.192 C5.876,23.192 4.472,22.152 4.472,20.254 C4.472,18.2 5.876,17.29 7.514,17.29 C9.152,17.29 10.556,18.278 10.556,20.28 C10.556,22.152 9.152,23.192 7.514,23.192 Z M27.456,26 L27.456,22.776 L20.67,22.776 L23.322,19.916 C26.39,16.822 27.17,15.47 27.17,13.338 C27.17,10.374 24.596,8.164 21.086,8.164 C17.316,8.164 14.664,10.66 14.664,14.17 L18.174,14.17 C18.174,12.454 19.214,11.388 20.904,11.388 C22.438,11.388 23.4,12.35 23.4,13.78 C23.4,15.314 22.542,16.406 20.514,18.486 L15.184,23.946 L15.184,26 L27.456,26 Z M34.112,19.188 C37.362,19.188 39.806,16.718 39.806,13.728 C39.806,10.712 37.362,8.268 34.112,8.268 C30.836,8.268 28.418,10.712 28.418,13.728 C28.418,16.718 30.836,19.188 34.112,19.188 Z M38.428,26 L48.412,8.424 L45.526,8.424 L35.542,26 L38.428,26 Z M34.112,16.64 C32.656,16.64 31.356,15.652 31.356,13.728 C31.356,11.804 32.656,10.816 34.112,10.816 C35.594,10.816 36.842,11.804 36.842,13.728 C36.842,15.652 35.594,16.64 34.112,16.64 Z M50.284,26.234 C53.56,26.234 55.978,23.764 55.978,20.774 C55.978,17.758 53.56,15.314 50.284,15.314 C47.008,15.314 44.59,17.758 44.59,20.774 C44.59,23.764 47.008,26.234 50.284,26.234 Z M50.284,23.66 C48.828,23.66 47.528,22.698 47.528,20.774 C47.528,18.824 48.828,17.862 50.284,17.862 C51.766,17.862 53.04,18.824 53.04,20.774 C53.04,22.698 51.766,23.66 50.284,23.66 Z" id="62%" fill="#484848" fill-rule="nonzero"></path>
                <path d="M18.88,47 L18.88,39.82 L17.78,39.82 L17.78,47 L18.88,47 Z M21.12,47 L21.12,44.01 C21.12,43.07 21.7,42.49 22.39,42.49 C23.14,42.49 23.54,43 23.54,43.91 L23.54,47 L24.55,47 L24.55,43.57 C24.55,42.3 23.83,41.6 22.74,41.6 C22.01,41.6 21.41,41.99 21.05,42.58 L21.05,41.7 L20.11,41.7 L20.11,47 L21.12,47 Z M27.73,47.11 C29.06,47.11 30,46.25 30.18,44.85 L29.13,44.85 C29.01,45.71 28.49,46.21 27.74,46.21 C26.87,46.21 26.3,45.48 26.3,44.35 C26.3,43.23 26.87,42.49 27.74,42.49 C28.48,42.49 29.01,43 29.12,43.85 L30.18,43.85 C29.99,42.47 29.04,41.6 27.73,41.6 C26.3,41.6 25.26,42.75 25.26,44.35 C25.26,45.97 26.28,47.11 27.73,47.11 Z M33.12,47.1 C34.62,47.1 35.72,45.92 35.72,44.35 C35.72,42.78 34.62,41.6 33.12,41.6 C31.62,41.6 30.52,42.78 30.52,44.35 C30.52,45.92 31.62,47.1 33.12,47.1 Z M33.12,46.21 C32.25,46.21 31.57,45.51 31.57,44.35 C31.57,43.19 32.25,42.5 33.12,42.5 C33.99,42.5 34.68,43.19 34.68,44.35 C34.68,45.51 33.99,46.21 33.12,46.21 Z M37.51,47 L37.51,43.96 C37.51,43.07 38.06,42.49 38.76,42.49 C39.5,42.49 39.89,43.01 39.89,43.89 L39.89,47 L40.9,47 L40.9,43.96 C40.9,43.07 41.46,42.49 42.15,42.49 C42.89,42.49 43.28,43.01 43.28,43.89 L43.28,47 L44.29,47 L44.29,43.57 C44.29,42.31 43.59,41.6 42.5,41.6 C41.69,41.6 41.08,42.02 40.71,42.7 C40.47,42 39.88,41.6 39.1,41.6 C38.37,41.6 37.8,41.97 37.44,42.58 L37.44,41.7 L36.5,41.7 L36.5,47 L37.51,47 Z M47.57,47.1 C48.82,47.1 49.73,46.39 49.99,45.21 L48.99,45.21 C48.82,45.9 48.3,46.31 47.55,46.31 C46.66,46.31 46.12,45.68 46.04,44.6 L49.99,44.6 C50.17,42.88 49.12,41.6 47.54,41.6 C46.08,41.6 45.01,42.75 45.01,44.32 C45.01,45.99 46.04,47.1 47.57,47.1 Z M48.92,43.93 L46.05,43.93 C46.16,42.94 46.71,42.36 47.52,42.36 C48.34,42.36 48.87,42.95 48.92,43.93 Z" id="Income" fill="#A2A2A2" fill-rule="nonzero"></path>
                <path d="M164.358,26.234 C168.388,26.234 171.092,24.024 171.092,20.774 C171.092,18.876 169.844,17.472 167.66,16.77 C169.35,15.886 170.286,14.612 170.286,13 C170.286,10.166 168.024,8.164 164.332,8.164 C160.874,8.164 158.222,10.452 158.196,13.494 L161.706,13.494 C161.732,11.96 162.668,11.024 164.15,11.024 C165.658,11.024 166.568,11.882 166.568,13.26 C166.568,14.69 165.502,15.574 163.734,15.574 L162.044,15.574 L162.044,18.434 L163.942,18.434 C166.1,18.434 167.374,19.344 167.374,20.878 C167.374,22.438 166.282,23.374 164.41,23.374 C162.616,23.374 161.472,22.412 161.368,20.826 L157.858,20.826 C157.884,23.998 160.562,26.234 164.358,26.234 Z M179.152,26.234 C183.182,26.234 185.886,24.024 185.886,20.904 C185.886,18.98 184.612,17.628 182.922,16.874 C184.3,16.12 185.288,14.898 185.288,13.208 C185.288,10.296 182.792,8.164 179.152,8.164 C175.46,8.164 172.964,10.296 172.964,13.208 C172.964,14.898 173.952,16.12 175.33,16.874 C173.614,17.628 172.366,18.98 172.366,20.904 C172.366,24.024 175.044,26.234 179.152,26.234 Z M179.152,15.496 C177.618,15.496 176.682,14.664 176.682,13.338 C176.682,11.908 177.618,11.024 179.152,11.024 C180.634,11.024 181.596,11.908 181.596,13.338 C181.596,14.664 180.634,15.496 179.152,15.496 Z M179.152,23.374 C177.254,23.374 176.084,22.412 176.084,20.826 C176.084,19.318 177.254,18.356 179.152,18.356 C180.998,18.356 182.194,19.318 182.194,20.826 C182.194,22.412 180.998,23.374 179.152,23.374 Z M192.49,19.188 C195.74,19.188 198.184,16.718 198.184,13.728 C198.184,10.712 195.74,8.268 192.49,8.268 C189.214,8.268 186.796,10.712 186.796,13.728 C186.796,16.718 189.214,19.188 192.49,19.188 Z M196.806,26 L206.79,8.424 L203.904,8.424 L193.92,26 L196.806,26 Z M192.49,16.64 C191.034,16.64 189.734,15.652 189.734,13.728 C189.734,11.804 191.034,10.816 192.49,10.816 C193.972,10.816 195.22,11.804 195.22,13.728 C195.22,15.652 193.972,16.64 192.49,16.64 Z M208.662,26.234 C211.938,26.234 214.356,23.764 214.356,20.774 C214.356,17.758 211.938,15.314 208.662,15.314 C205.386,15.314 202.968,17.758 202.968,20.774 C202.968,23.764 205.386,26.234 208.662,26.234 Z M208.662,23.66 C207.206,23.66 205.906,22.698 205.906,20.774 C205.906,18.824 207.206,17.862 208.662,17.862 C210.144,17.862 211.418,18.824 211.418,20.774 C211.418,22.698 210.144,23.66 208.662,23.66 Z" id="38%" fill="#484848" fill-rule="nonzero"></path>
                <circle id="Oval" fill="#31C6EC" cx="5" cy="43" r="5"></circle>
                <path d="M178.01,47.15 C180.09,47.15 181.66,45.52 181.66,43.4 C181.66,41.28 180.09,39.67 178.01,39.67 C175.93,39.67 174.36,41.28 174.36,43.4 C174.36,45.52 175.93,47.15 178.01,47.15 Z M178.01,46.16 C176.49,46.16 175.5,44.94 175.5,43.4 C175.5,41.86 176.49,40.66 178.01,40.66 C179.53,40.66 180.52,41.86 180.52,43.4 C180.52,44.94 179.53,46.16 178.01,46.16 Z M184.23,47.1 C184.95,47.1 185.57,46.71 185.85,46.16 L185.85,47 L186.79,47 L186.79,41.7 L185.78,41.7 L185.78,44.82 C185.78,45.65 185.23,46.21 184.55,46.21 C183.89,46.21 183.43,45.83 183.43,44.91 L183.43,41.7 L182.42,41.7 L182.42,45.11 C182.42,46.47 183.16,47.1 184.23,47.1 Z M190.03,47.1 C190.35,47.1 190.62,47.05 190.93,46.91 L190.93,46.02 C190.72,46.12 190.51,46.16 190.27,46.16 C189.73,46.16 189.38,45.9 189.38,45.17 L189.38,42.56 L190.98,42.56 L190.98,41.7 L189.38,41.7 L189.38,40.13 L188.37,40.13 L188.37,41.7 L187.2,41.7 L187.2,42.56 L188.37,42.56 L188.37,45.4 C188.37,46.57 189.05,47.1 190.03,47.1 Z M193.63,47.11 C194.96,47.11 195.9,46.25 196.08,44.85 L195.03,44.85 C194.91,45.71 194.39,46.21 193.64,46.21 C192.77,46.21 192.2,45.48 192.2,44.35 C192.2,43.23 192.77,42.49 193.64,42.49 C194.38,42.49 194.91,43 195.02,43.85 L196.08,43.85 C195.89,42.47 194.94,41.6 193.63,41.6 C192.2,41.6 191.16,42.75 191.16,44.35 C191.16,45.97 192.18,47.11 193.63,47.11 Z M199.02,47.1 C200.52,47.1 201.62,45.92 201.62,44.35 C201.62,42.78 200.52,41.6 199.02,41.6 C197.52,41.6 196.42,42.78 196.42,44.35 C196.42,45.92 197.52,47.1 199.02,47.1 Z M199.02,46.21 C198.15,46.21 197.47,45.51 197.47,44.35 C197.47,43.19 198.15,42.5 199.02,42.5 C199.89,42.5 200.58,43.19 200.58,44.35 C200.58,45.51 199.89,46.21 199.02,46.21 Z M203.41,47 L203.41,43.96 C203.41,43.07 203.96,42.49 204.66,42.49 C205.4,42.49 205.79,43.01 205.79,43.89 L205.79,47 L206.8,47 L206.8,43.96 C206.8,43.07 207.36,42.49 208.05,42.49 C208.79,42.49 209.18,43.01 209.18,43.89 L209.18,47 L210.19,47 L210.19,43.57 C210.19,42.31 209.49,41.6 208.4,41.6 C207.59,41.6 206.98,42.02 206.61,42.7 C206.37,42 205.78,41.6 205,41.6 C204.27,41.6 203.7,41.97 203.34,42.58 L203.34,41.7 L202.4,41.7 L202.4,47 L203.41,47 Z M213.47,47.1 C214.72,47.1 215.63,46.39 215.89,45.21 L214.89,45.21 C214.72,45.9 214.2,46.31 213.45,46.31 C212.56,46.31 212.02,45.68 211.94,44.6 L215.89,44.6 C216.07,42.88 215.02,41.6 213.44,41.6 C211.98,41.6 210.91,42.75 210.91,44.32 C210.91,45.99 211.94,47.1 213.47,47.1 Z M214.82,43.93 L211.95,43.93 C212.06,42.94 212.61,42.36 213.42,42.36 C214.24,42.36 214.77,42.95 214.82,43.93 Z" id="Outcome" fill="#A2A2A2" fill-rule="nonzero"></path>
                <circle id="Oval-Copy-17" fill="#31C6EC" cx="162" cy="43" r="5"></circle>
            </g>
            <g id="Group-39" transform="translate(81.500000, 54.000000)">
                <path d="M84.5,0 C130.891919,0 168.5,37.608081 168.5,84 C168.5,130.391919 130.891919,168 84.5,168 C38.108081,168 0.5,130.391919 0.5,84 C0.5,37.608081 38.108081,0 84.5,0 Z M84.6967213,44.852459 C62.9674853,44.852459 45.352459,62.4674853 45.352459,84.1967213 C45.352459,105.925957 62.9674853,123.540984 84.6967213,123.540984 C106.425957,123.540984 124.040984,105.925957 124.040984,84.1967213 C124.040984,62.4674853 106.425957,44.852459 84.6967213,44.852459 Z" id="Combined-Shape" fill="#FFFFFF"></path>
                <path d="M84.5,0 C130.891919,0 168.5,37.608081 168.5,84 C168.5,130.391919 130.891919,168 84.5,168 C38.108081,168 0.5,130.391919 0.5,84 C0.5,37.608081 38.108081,0 84.5,0 Z M84.6967213,44.852459 C62.9674853,44.852459 45.352459,62.4674853 45.352459,84.1967213 C45.352459,105.925957 62.9674853,123.540984 84.6967213,123.540984 C106.425957,123.540984 124.040984,105.925957 124.040984,84.1967213 C124.040984,62.4674853 106.425957,44.852459 84.6967213,44.852459 Z" id="Combined-Shape" fill="#EFEFEF"></path>
                <path d="M84.5517846,0.002 L84.354979,0 C130.826991,0 168.5,37.608081 168.5,84 C168.5,130.391919 130.826991,168 84.354979,168 C58.8144771,168 35.9316961,156.640556 20.4997846,138.706556 L55.2320859,110.489293 C62.4469038,118.501851 72.9099796,123.540984 84.55204,123.540984 C106.31879,123.540984 123.964228,105.925957 123.964228,84.1967213 C123.964228,62.4674853 106.31879,44.852459 84.55204,44.852459 L84.5517846,0.002 Z" id="Combined-Shape" fill="#5D75FF"></path>
                <path d="M55.2494251,110.999705 C62.4677258,118.940911 72.9356649,123.935141 84.5831065,123.935141 C94.2300305,123.935141 103.06783,120.509158 109.920324,114.820372 L138.500164,148.523978 C123.867391,160.679107 104.991169,168 84.38595,168 C58.8332189,168 35.9394647,156.741404 20.5000717,138.966591 L55.2494251,110.999705 Z" id="Combined-Shape" fill="#31C6EC"></path>
            </g>
        </g>
    </g>
</svg>