<?xml version="1.0" encoding="UTF-8"?>
<svg width="174px" height="72px" viewBox="0 0 174 72" version="1.1" xmlns="http://www.w3.org/2000/svg" xmlns:xlink="http://www.w3.org/1999/xlink">
    <title>Combined Shape Copy 29</title>
    <g id="Page-1" stroke="none" stroke-width="1" fill="none" fill-rule="evenodd">
        <path d="M69.504,41 C69.4133427,41.6591902 69.304554,42.3183804 69.1685681,42.9685406 C62.5687192,48.9102826 56.0141989,55.1500146 49.7588476,60.7757064 C45.3438388,64.7759977 41.0738816,68.4873289 37.0124362,71.8374599 C36.1203687,71.924148 35.210895,71.9761608 34.2932984,71.9934984 L33.603723,72 L33.504,72 C38.5898726,68.1080687 44.0565057,63.6111273 49.7588476,58.5814157 C56.1229877,53.0369939 62.7681652,46.8695019 69.504,41 Z M69.504,35 L69.504,36.6331185 C62.8033115,42.4427367 56.1382649,48.6093208 49.7939959,54.1155181 C42.2735423,60.7193852 35.1629712,66.4129896 28.8276128,71 C27.704891,70.8393654 26.5910798,70.6251859 25.504,70.3574616 C33.9617347,64.7329326 42.062144,58.5872162 49.758354,51.9558751 C56.1382649,46.6013882 62.7676695,40.6400595 69.504,35 Z M67.504,48 C67.1682121,48.9924091 66.7970781,49.9113064 66.3905979,50.8302038 C60.7970781,56.3619656 55.2654138,62.0315621 49.9634993,67.2049541 C49.1417025,68.0319616 48.3287423,68.8314023 47.498109,69.6032761 C46.1941704,70.1497271 44.8605065,70.616104 43.504,71 C45.6247658,69.0703156 47.7808778,67.0548675 49.9723358,64.9536556 C55.6277113,59.6332401 61.521673,53.7247303 67.504,48 Z M69.295274,30 C69.3769494,30.479836 69.4495497,30.9774436 69.504,31.4661654 C62.7340175,36.9398496 56.0094101,42.760082 49.6568796,47.949419 C41.7772814,54.5390984 33.4945389,60.6520654 24.8547853,66.254272 C23.3846283,67.2228298 21.9598464,68.1114149 20.5985899,69 C19.5368098,68.5734792 18.5113298,68.16473 17.504,67.6848941 C19.781836,66.2809296 22.2502478,64.8503076 24.8638604,63.2419686 C33.5207733,57.9822022 41.8040552,52.1545671 49.6568796,45.7990431 C55.982185,40.8407382 62.5978918,35.2604238 69.295274,30 Z M69.1150141,26 C69.2507069,26.4784236 69.3863996,26.9207398 69.504,27.3811096 C63.0631176,32.5264201 56.712697,37.9154557 50.6246158,42.7267723 C42.7983196,49.1138274 34.5606776,54.9818428 25.9647205,60.2930427 C21.9210767,62.7844562 18.284511,64.8516072 15.1093007,67 C14.2107132,66.4343167 13.3422796,65.8325261 12.504,65.1946279 C16.2310275,62.5497578 20.7812576,60.2569353 25.9285358,57.2600176 C34.554516,52.2721622 42.8107533,46.6731709 50.633662,40.5061647 C56.5950967,35.9295465 62.7826859,30.8564509 69.1150141,26 Z M66.9537593,22 C67.1401312,22.3933711 67.326503,22.849324 67.504,23.2873964 C61.6820987,27.8111644 55.940071,32.5047972 50.4287894,36.6977758 C42.7626305,42.7541374 34.6811781,48.2571606 26.2448243,53.1657218 C19.9703057,56.8222852 14.6098965,59.4238988 10.5540903,63 C9.96480024,62.4850414 9.41526955,61.9471958 8.89186643,61.3818857 L8.504,60.9526821 L8.99211673,60.4609682 C13.1810457,56.4467946 19.1183201,53.9792848 26.2181998,50.1081553 C34.6749095,45.5466611 42.7691859,40.3338865 50.4287894,34.5163541 C55.7714489,30.5915831 61.3182298,26.2108591 66.9537593,22 Z M63.7751314,18 C64.0180876,18.4026626 64.2700422,18.8142732 64.504,19.234832 C59.3119363,23.0646006 54.1738628,26.9659537 49.2067585,30.5451768 C41.4303425,36.3088546 33.2275155,41.48061 24.6681835,46.0163684 C17.4694816,49.8640332 11.4495672,52.3336971 7.21133146,56.3871672 C6.38017703,57.188043 5.62418357,58.0626073 4.95273875,59 C4.40383773,58.373636 3.96291724,57.7293758 3.504,57.0672196 C4.45875208,55.3117175 5.72372947,53.7416114 7.2383266,52.4321257 C11.4675639,48.7365779 17.47848,46.6069402 24.6771819,43.0277172 C33.2365531,38.8246176 41.4319723,33.9252866 49.1797634,28.3797468 C53.8769164,25.1584461 58.7990288,21.5344828 63.7751314,18 Z M159.231,28.408 C167.223,28.408 173.163,33.808 173.973,41.908 L173.973,41.908 L164.145,41.908 C163.983,38.722 162.093,36.724 159.285,36.724 C156.045,36.724 154.155,39.208 154.155,43.474 C154.155,47.848 155.991,50.278 159.285,50.278 C162.147,50.278 163.929,48.334 164.145,45.04 L164.145,45.04 L173.973,45.04 C173.163,53.356 167.493,58.54 159.231,58.54 C150.591,58.54 144.597,52.33 144.597,43.474 C144.597,34.834 150.861,28.408 159.231,28.408 Z M92.379,46.444 C95.835,46.444 98.211,48.874 98.211,52.384 C98.211,55.84 95.835,58.27 92.379,58.27 C88.923,58.27 86.493,55.84 86.493,52.384 C86.493,48.874 88.923,46.444 92.379,46.444 Z M110.415,28.948 L110.415,58 L101.181,58 L101.181,28.948 L110.415,28.948 Z M132.231,28.408 C137.955,28.408 142.005,32.242 142.005,39.316 L142.005,39.316 L142.005,58 L132.771,58 L132.771,42.394 C132.771,38.722 131.475,36.724 128.667,36.724 C126.399,36.724 124.347,38.344 124.347,42.718 L124.347,42.718 L124.347,58 L115.113,58 L115.113,28.948 L123.591,28.948 L123.591,32.458 C125.859,29.92 128.559,28.408 132.231,28.408 Z M61.6124695,13 C61.9096464,13.3858125 62.2068232,13.7775606 62.504,14.1752443 C58.1889926,17.2380022 53.9363923,20.3185668 49.8175215,23.1320304 C42.1059558,28.5930903 33.9667478,33.4254144 25.47874,37.5821933 C18.3554116,41.0990228 12.3732422,43.2536374 8.20087964,46.9574376 C6.03264236,48.8650075 4.38009043,51.2869336 3.39553046,54 C3.0924101,53.4925081 2.78928975,52.9761129 2.504,52.441911 C3.26418961,48.7257539 5.28600191,45.3857393 8.22762556,42.9865364 C12.4178187,39.6388708 18.3643269,37.8047774 25.4965706,34.581759 C33.9946538,30.7851906 42.1393914,26.2445466 49.8353522,21.0130293 C53.6689331,18.4666667 57.6094978,15.7333333 61.6124695,13 Z M55.0233261,6 C55.5317502,6.3543956 56.022335,6.72696534 56.504,7.10862215 C54.5416611,8.38989856 52.5882418,9.64391378 50.6705015,10.8343195 C42.9742947,15.8448336 34.8442792,20.1275445 26.3820971,23.6289096 C19.2641586,26.5731192 13.3147037,28.1360947 9.13135382,31.2529586 C6.86217363,32.9252903 5.10781549,35.1806741 3.9757833,38.4168435 C4.90290728,37.1070856 5.99861832,36.0310495 7.24269424,35.1247348 C11.5226757,32.0507 17.5783942,30.4726347 24.8634691,27.4898176 C33.5215337,23.9523355 41.8294751,19.6096201 49.6782553,14.5186678 C52.4830091,12.7672889 55.36972,10.9429359 58.3292817,9 C58.7299608,9.37399236 59.1215336,9.76622826 59.504,10.1584641 C56.1710783,12.4206619 52.8927946,14.6554943 49.6782553,16.7352567 C41.8140195,22.0558521 33.5089947,26.6914707 24.8543627,30.5912176 C17.5783942,33.8659313 11.4953567,35.7541366 7.21537521,39.2204073 C5.3188924,40.7286812 3.77713964,42.6430474 2.64980982,45.1787643 C2.56934815,46.1686404 2.52173244,47.2163971 2.50809559,48.3264543 L2.504,48.954 L2.50362065,45.516616 C1.79488858,47.1999122 1.26221599,49.1495097 0.921976174,51.4244522 L0.840934712,52 L0.504,51.3158676 C0.641498832,46.8419626 1.37640886,43.4288982 2.61490092,40.7728225 C3.13386018,33.5704987 5.45166722,29.6257186 9.14919326,27.2001268 C13.3325431,24.4558326 19.2552389,23.2199915 26.3910168,20.566568 C34.854526,17.4094254 42.9879243,13.4003699 50.6705015,8.5989011 C52.1036036,7.768949 53.5545451,6.90264863 55.0233261,6 Z M49.4978406,3 C49.9535169,3.21920513 50.4013027,3.44652898 50.8438282,3.68197153 L51.504,4.04122439 L50.4299058,4.6805727 C42.7743468,9.43372811 34.6880459,13.4102816 26.2849783,16.5541842 C19.2101594,19.1937793 13.2982029,20.4724759 9.13497826,23.2399408 C4.97175362,26.0074056 2.56613768,30.7659837 2.504,40 C2.504,38.2554925 2.504,36.5018514 2.54838406,34.7573439 C2.60164493,25.9526043 4.99838406,21.5959022 9.1616087,19.1663787 C13.3248333,16.7368551 19.2101594,15.8143668 26.3116087,13.4761787 C34.3684903,10.8099263 42.1379832,7.29945525 49.4978406,3 Z M41.2117949,1 C42.3305944,1.23522316 43.4218825,1.52472859 44.504,1.85946924 C38.2668922,5.06925938 31.7550934,7.73034451 25.0442251,9.81182147 C17.7353464,12.1007238 11.6278016,13.0416164 7.33601334,15.4571773 C3.12086417,17.8296032 0.648356226,22.0782956 0.509268895,30.5345623 L0.505,30.902 L0.531511463,25.8431846 C0.50626146,23.5263609 0.780530513,21.2158145 1.34768487,18.9674306 C2.77295112,16.413985 4.49986989,14.0361314 6.49232847,11.8835947 C6.7748871,11.7185511 7.06565038,11.5675778 7.3635248,11.4312425 C11.655313,9.3504222 17.7170054,8.76236429 25.0533956,6.76296743 C30.5940627,5.29318652 35.999322,3.36537594 41.2117949,1 Z M105.717,16.906 C109.227,16.906 111.657,19.12 111.657,22.198 C111.657,25.222 109.227,27.436 105.717,27.436 C102.207,27.436 99.777,25.222 99.777,22.198 C99.777,19.12 102.207,16.906 105.717,16.906 Z M33.504,0 C30.8117331,1.06719368 28.2365212,1.93675889 25.7963729,2.61857708 C22.4197839,3.63636364 19.2953136,4.31818182 16.504,5 C21.7035516,1.80768168 27.546599,0.0891383293 33.504,0 Z" id="Combined-Shape-Copy-29" fill="#A5A9B6" fill-rule="nonzero"></path>
    </g>
</svg>