<?xml version="1.0" encoding="UTF-8"?>
<svg width="211px" height="47px" viewBox="0 0 211 47" version="1.1" xmlns="http://www.w3.org/2000/svg" xmlns:xlink="http://www.w3.org/1999/xlink">
    <title>Combined Shape Copy 32</title>
    <g id="Page-1" stroke="none" stroke-width="1" fill="none" fill-rule="evenodd">
        <path d="M23.9337241,0.000615508484 L24.2427973,0.00257839965 C37.1971446,0.413444902 47.3918733,11.2813136 46.9884267,24.2382754 C46.5776108,37.1952265 35.7120021,47.391952 22.7576013,46.9884243 C9.79674056,46.5775792 -0.398521916,35.7265032 0.0119736049,22.7694453 C0.409172211,10.0146212 10.9336001,-0.0703877396 23.6253718,0.00257839965 C23.8268548,0.00364663973 24.0403531,-0.00372421687 24.2427973,0.00257839965 Z M72.26413,13 C78.8834001,13 83.9906542,17.3783422 84.7634624,23.7286096 L84.7634624,23.7286096 L78.0433912,23.7286096 C77.5393858,20.7205882 75.288162,18.6483957 72.3313307,18.6483957 C68.7696929,18.6483957 66.5184691,21.3890374 66.5184691,25.4665775 C66.5184691,29.5775401 68.7696929,32.3516043 72.3313307,32.3516043 C75.2545616,32.3516043 77.5057855,30.2794118 78.0433912,27.2379679 L78.0433912,27.2379679 L84.7634624,27.2379679 C83.9570538,33.6550802 78.8834001,38 72.26413,38 C65.4096573,38 60,32.5187166 60,25.4665775 C60,18.447861 65.4096573,13 72.26413,13 Z M128.712728,13.5013369 C133.987984,13.5013369 137.280819,15.8074866 137.280819,19.9852941 C137.280819,22.0909091 136.172007,23.7286096 134.155986,24.9318182 C136.608812,25.9679144 137.986426,27.7393048 137.986426,30.2794118 C137.986426,34.7914439 134.626391,37.4986631 129.015131,37.4986631 L129.015131,37.4986631 L119.035826,37.4986631 L119.035826,13.5013369 Z M153.711393,13.5013369 L162.548287,37.4986631 L155.693814,37.4986631 L154.215398,33.0534759 L145.748109,33.0534759 L144.236093,37.4986631 L137.818425,37.4986631 L146.756119,13.5013369 L153.711393,13.5013369 Z M171.082777,13.5013369 L179.986871,27.3716578 L179.986871,13.5013369 L185.799733,13.5013369 L185.799733,37.4986631 L179.684468,37.4986631 L170.074766,22.5254011 L170.074766,37.4986631 L164.261905,37.4986631 L164.261905,13.5013369 L171.082777,13.5013369 Z M196.014241,13.5013369 L196.014241,23.5949198 L203.540721,13.5013369 L210.764798,13.5013369 L202.263907,24.7647059 L211,37.4986631 L203.271918,37.4986631 L196.014241,26.6697861 L196.014241,37.4986631 L189.663774,37.4986631 L189.663774,13.5013369 L196.014241,13.5013369 Z M90.6099243,13.5013369 L93.8691589,27.8061497 L97.6995995,13.5013369 L104.117267,13.5013369 L107.813,27.871 L111.106142,13.5013369 L117.322207,13.5013369 L111.173342,37.4986631 L104.789275,37.4986631 L100.858033,22.5588235 L96.9267913,37.4986631 L90.5091233,37.4986631 L84.3938585,13.5013369 L90.6099243,13.5013369 Z M23.9324577,2.23866303 L23.6583322,2.2403524 C12.1336811,2.17230545 2.60965288,11.3564558 2.24900516,23.0223463 C2.07866248,28.4353719 3.91272235,33.4268583 7.07322129,37.3015873 L7.07322129,37.3015873 L38.047619,7.98892008 C34.4079782,4.56844522 29.5791298,2.41213771 24.207262,2.2403524 C24.0233982,2.23477478 23.841291,2.24142502 23.6583322,2.2403524 Z M128.511126,27.605615 L124.781486,27.605615 L124.781486,32.5187166 L128.511126,32.5187166 C130.896751,32.5187166 132.005563,31.5828877 132.005563,30.0454545 C132.005563,28.5748663 130.896751,27.605615 128.511126,27.605615 L128.511126,27.605615 Z M150.048954,20.4532086 L147.461727,28.0735294 L152.568981,28.0735294 L150.048954,20.4532086 Z M128.208723,18.4812834 L124.781486,18.4812834 L124.781486,22.6256684 L128.208723,22.6256684 C130.325545,22.6256684 131.299955,21.8235294 131.299955,20.5200535 C131.299955,19.2834225 130.325545,18.4812834 128.208723,18.4812834 L128.208723,18.4812834 Z" id="Combined-Shape-Copy-32" fill="#A5A9B6" fill-rule="nonzero"></path>
    </g>
</svg>