<?xml version="1.0" encoding="UTF-8"?>
<svg width="195px" height="53px" viewBox="0 0 195 53" version="1.1" xmlns="http://www.w3.org/2000/svg" xmlns:xlink="http://www.w3.org/1999/xlink">
    <title>Combined Shape Copy 30</title>
    <g id="Page-1" stroke="none" stroke-width="1" fill="none" fill-rule="evenodd">
        <path d="M43.1568696,0 C49.6402123,0 54.896,5.27309072 54.896,11.7777778 C54.896,15.7558655 52.9302254,19.2733104 49.9200979,21.4056574 C50.4854556,23.4981879 50.7873043,25.6998387 50.7873043,27.9722222 C50.7873043,41.7946822 39.6187554,53 25.8416522,53 C12.0645489,53 0.896,41.7946822 0.896,27.9722222 C0.896,14.1497622 12.0645489,2.94444444 25.8416522,2.94444444 C28.7210668,2.94444444 31.4865371,3.43390393 34.0599161,4.33441862 C36.2116844,1.68890321 39.4876919,0 43.1568696,0 Z M25.8416522,7.85787321 C14.7692563,7.85787321 5.79330595,16.863374 5.79330595,27.9722222 C5.79330595,39.0810704 14.7692563,48.0865712 25.8416522,48.0865712 C36.9140481,48.0865712 45.8899984,39.0810704 45.8899984,27.9722222 C45.8899984,26.3810221 45.7058398,24.8329762 45.35774,23.3483683 C44.6449268,23.4845584 43.9091621,23.5555556 43.1568696,23.5555556 C36.6735269,23.5555556 31.4177391,18.2824648 31.4177391,11.7777778 C31.4177391,10.7358718 31.5525864,9.72556474 31.8057262,8.76346582 C29.9222299,8.1748101 27.9188319,7.85787321 25.8416522,7.85787321 Z M85.1502595,10 C88.500194,10 91.3979659,10.7272222 93.8435754,12.1816667 C96.2891848,13.6361111 98.1646763,15.6855556 99.4700498,18.33 C100.775423,20.9744444 101.42811,24.0311111 101.42811,27.5 C101.42811,30.9688889 100.775423,34.0255556 99.4700498,36.67 C98.1646763,39.3144444 96.2891848,41.3638889 93.8435754,42.8183333 C91.3979659,44.2727778 88.500194,45 85.1502595,45 C81.8160524,45 78.9261442,44.2727778 76.4805347,42.8183333 C74.0349253,41.3638889 72.1594338,39.3144444 70.8540603,36.67 C69.5486868,34.0255556 68.896,30.9688889 68.896,27.5 C68.896,24.0311111 69.5486868,20.9744444 70.8540603,18.33 C72.1594338,15.6855556 74.0349253,13.6361111 76.4805347,12.1816667 C78.9261442,10.7272222 81.8160524,10 85.1502595,10 Z M183.973326,18.4 C185.93925,18.4 187.692855,18.7033333 189.234139,19.31 C190.775423,19.9166667 192.021819,20.7838889 192.973326,21.9116667 C193.924834,23.0394444 194.502815,24.35 194.707271,25.8433333 L194.707271,25.8433333 L188.903864,26.87 L188.861497,26.6263116 C188.667743,25.667574 188.182521,24.9010256 187.40583,24.3266667 C186.564414,23.7044444 185.451701,23.3544444 184.067691,23.2766667 C182.730862,23.2144444 181.653536,23.4205556 180.835712,23.895 C180.017887,24.3694444 179.608975,25.0266667 179.608975,25.8666667 C179.608975,26.38 179.778045,26.8 180.116183,27.1266667 C180.454322,27.4533333 181.103077,27.7838889 182.062448,28.1183333 C183.021819,28.4527778 184.523785,28.8766667 186.568346,29.39 C188.628634,29.9188889 190.260351,30.51 191.463497,31.1633333 C192.666642,31.8166667 193.539512,32.5983333 194.082107,33.5083333 C194.624702,34.4183333 194.896,35.5344444 194.896,36.8566667 C194.896,38.5366667 194.475292,39.9872222 193.633877,41.2083333 C192.792461,42.4294444 191.581452,43.3666667 190.000849,44.02 C188.420246,44.6733333 186.544755,45 184.374375,45 C181.228896,45 178.673195,44.3 176.707271,42.9 C174.741347,41.5 173.546066,39.5322222 173.121426,36.9966667 L173.121426,36.9966667 L178.924834,36.11 L178.991214,36.3757738 C179.303635,37.5091468 179.938127,38.4044444 180.894689,39.0616667 C181.924834,39.7694444 183.218412,40.1233333 184.775423,40.1233333 C186.127979,40.1233333 187.181714,39.855 187.936629,39.3183333 C188.691544,38.7816667 189.069001,38.0466667 189.069001,37.1133333 C189.069001,36.5066667 188.923523,36.04 188.632566,35.7133333 C188.341609,35.3866667 187.763628,35.0638889 186.898621,34.745 C186.033615,34.4261111 184.594558,34.0022222 182.581452,33.4733333 C180.426799,32.9133333 178.724309,32.3105556 177.473982,31.665 C176.223654,31.0194444 175.323261,30.2572222 174.772802,29.3783333 C174.222343,28.4994444 173.947114,27.4222222 173.947114,26.1466667 C173.947114,24.5911111 174.359958,23.23 175.185646,22.0633333 C176.011334,20.8966667 177.183025,19.9944444 178.700718,19.3566667 C180.218412,18.7188889 181.975948,18.4 183.973326,18.4 Z M109.991675,10.7 L109.991675,21.9 L110.236105,21.6252662 C111.149167,20.6372184 112.247245,19.8615741 113.530338,19.2983333 C114.930076,18.6838889 116.526406,18.3766667 118.319329,18.3766667 C121.165987,18.3766667 123.328503,19.0883333 124.806878,20.5116667 C126.285253,21.935 127.244624,23.5177778 127.684991,25.26 C128.125358,27.0022222 128.345541,28.6588889 128.345541,30.23 L128.345541,30.23 L128.345541,44.3 L122.589316,44.3 L122.589316,32.1666667 L122.586938,31.8303307 C122.509257,26.3923324 120.528398,23.6733333 116.644362,23.6733333 C114.930076,23.6733333 113.506747,24.2527778 112.374375,25.4116667 C111.242003,26.5705556 110.675817,28.55 110.675817,31.35 L110.675817,31.35 L110.675817,44.3 L104.919591,44.3 L104.919591,10.7 L109.991675,10.7 Z M160.85406,18.47 C162.694165,18.47 164.270836,18.8472222 165.584073,19.6016667 C166.897311,20.3561111 167.892068,21.4138889 168.568346,22.775 C169.244624,24.1361111 169.582763,25.7344444 169.582763,27.57 L169.582763,27.57 L169.582763,44.3 L163.897311,44.3 L163.897311,28.9933333 L163.892242,28.6767839 C163.841558,27.1154557 163.410744,25.8754167 162.599801,24.9566667 C161.734794,23.9766667 160.563104,23.4866667 159.084729,23.4866667 C158.17254,23.4866667 157.350784,23.6966667 156.61946,24.1166667 C155.888136,24.5366667 155.314087,25.1472222 154.897311,25.9483333 C154.480535,26.7494444 154.272147,27.6944444 154.272147,28.7833333 L154.272147,28.7833333 L154.272147,44.3 L148.610286,44.3 L148.610286,29.0633333 L148.605217,28.7410872 C148.554533,27.1519596 148.12372,25.894375 147.312776,24.9683333 C146.447769,23.9805556 145.268215,23.4866667 143.774113,23.4866667 C142.814742,23.4866667 141.973326,23.7083333 141.249866,24.1516667 C140.526406,24.595 139.968084,25.2172222 139.574899,26.0183333 C139.181714,26.8194444 138.985122,27.7411111 138.985122,28.7833333 L138.985122,28.7833333 L138.985122,44.3 L133.252488,44.3 L133.252488,19.1 L138.277389,19.1 L138.277389,21.83 L138.514372,21.5473003 C139.322188,20.6242516 140.308725,19.8940404 141.473982,19.3566667 C142.755764,18.7655556 144.15157,18.47 145.6614,18.47 C147.40714,18.47 148.909106,18.8238889 150.167298,19.5316667 C151.425489,20.2394444 152.400587,21.2233333 153.092592,22.4833333 C153.878962,21.2233333 154.956288,20.2394444 156.324571,19.5316667 C157.692855,18.8238889 159.202684,18.47 160.85406,18.47 Z M85.008713,15.2966667 C82.7911507,15.2966667 80.9274548,15.8061111 79.4176252,16.825 C77.9077955,17.8438889 76.7793552,19.2711111 76.0323041,21.1066667 C75.2852529,22.9422222 74.9117274,25.0966667 74.9117274,27.57 C74.9117274,30.0433333 75.3009803,32.19 76.0794862,34.01 C76.8579921,35.83 78.0218191,37.2338889 79.5709672,38.2216667 C81.1201153,39.2094444 83.0270616,39.7033333 85.291806,39.7033333 C87.4936409,39.7033333 89.353405,39.2016667 90.8710983,38.1983333 C92.3887916,37.195 93.5250957,35.7755556 94.2800105,33.94 C95.0349253,32.1044444 95.4123827,29.9577778 95.4123827,27.5 C95.4123827,25.0111111 95.0231298,22.8527778 94.2446239,21.025 C93.466118,19.1972222 92.2983591,17.7855556 90.7413473,16.79 C89.1843355,15.7944444 87.2734574,15.2966667 85.008713,15.2966667 Z" id="Combined-Shape-Copy-30" fill="#A5A9B6" fill-rule="nonzero"></path>
    </g>
</svg>