<?xml version="1.0" encoding="UTF-8"?>
<svg width="172px" height="48px" viewBox="0 0 172 48" version="1.1" xmlns="http://www.w3.org/2000/svg" xmlns:xlink="http://www.w3.org/1999/xlink">
    <title>Combined Shape Copy 28</title>
    <g id="Page-1" stroke="none" stroke-width="1" fill="none" fill-rule="evenodd">
        <path d="M35.9832238,36.8571429 C39.0602389,36.8571429 41.5546524,39.3515564 41.5546524,42.4285714 C41.5546524,45.5055865 39.0602389,48 35.9832238,48 L16.526081,48 C13.4490659,48 10.9546524,45.5055865 10.9546524,42.4285714 C10.9546524,39.3515564 13.4490659,36.8571429 16.526081,36.8571429 L35.9832238,36.8571429 Z M83.5972708,8 C84.2158873,8 84.7477466,8.2247619 85.1928488,8.67428571 C85.6379509,9.12380952 85.860502,9.66095238 85.860502,10.2857143 L85.860502,10.2857143 L85.860502,37.7142857 L85.8522593,37.9192945 C85.8082986,38.457331 85.5884951,38.9261376 85.1928488,39.3257143 C84.7477466,39.7752381 84.2158873,40 83.5972708,40 C82.9786542,40 82.450567,39.7714286 82.0130089,39.3142857 C81.8168622,39.1314286 81.6659802,38.9333333 81.5603627,38.72 L81.5603627,38.72 L72.2811148,19.9771429 L72.2811148,37.7142857 L72.2728722,37.9192945 C72.2289115,38.457331 72.0091079,38.9261376 71.6134616,39.3257143 C71.1683594,39.7752381 70.6365001,40 70.0178836,40 C69.3992671,40 68.8674077,39.7752381 68.4223056,39.3257143 C67.9772035,38.8761905 67.7546524,38.3390476 67.7546524,37.7142857 L67.7546524,37.7142857 L67.7546524,10.2857143 L67.762895,10.0807055 C67.8068557,9.54266902 68.0266593,9.07386243 68.4223056,8.67428571 C68.8674077,8.2247619 69.3992671,8 70.0178836,8 C70.6365001,8 71.1721315,8.22095238 71.6247777,8.66285714 C71.8058362,8.86095238 71.9491742,9.06666667 72.0547917,9.28 L72.0547917,9.28 L81.3340396,28.0228571 L81.3340396,10.2857143 L81.3422822,10.0807055 C81.3862429,9.54266902 81.6060464,9.07386243 82.0016928,8.67428571 C82.4467949,8.2247619 82.9786542,8 83.5972708,8 Z M105.070808,8 C105.689425,8 106.221284,8.2247619 106.666386,8.67428571 C107.111489,9.12380952 107.33404,9.66095238 107.33404,10.2857143 L107.33404,10.2857143 L107.33404,30.8571429 L107.328569,31.1997639 C107.251974,33.5819126 106.371138,35.6238961 104.686059,37.3257143 C102.920739,39.1085714 100.785757,40 98.2811148,40 C95.7764723,40 93.6414908,39.1085714 91.8761705,37.3257143 C90.1108502,35.5428571 89.22819,33.3866667 89.22819,30.8571429 L89.22819,30.8571429 L89.22819,10.2857143 L89.2364326,10.0807055 C89.2803933,9.54266902 89.5001969,9.07386243 89.8958432,8.67428571 C90.3409453,8.2247619 90.8728047,8 91.4914212,8 C92.1100377,8 92.6418971,8.2247619 93.0869992,8.67428571 C93.5321013,9.12380952 93.7546524,9.66095238 93.7546524,10.2857143 L93.7546524,10.2857143 L93.7546524,30.8571429 L93.7605368,31.1076063 C93.8154579,32.2648212 94.2548265,33.2594286 95.0786426,34.0914286 C95.9613028,34.9828571 97.0287935,35.4285714 98.2811148,35.4285714 C99.5334361,35.4285714 100.600927,34.9828571 101.483587,34.0914286 C102.366247,33.2 102.807577,32.1219048 102.807577,30.8571429 L102.807577,30.8571429 L102.807577,10.2857143 L102.81582,10.0807055 C102.859781,9.54266902 103.079584,9.07386243 103.47523,8.67428571 C103.920333,8.2247619 104.452192,8 105.070808,8 Z M126.544346,8 C127.162963,8 127.694822,8.2247619 128.139924,8.67428571 C128.585026,9.12380952 128.807577,9.66095238 128.807577,10.2857143 L128.807577,10.2857143 L128.807577,37.7142857 L128.799335,37.9192945 C128.755374,38.457331 128.53557,38.9261376 128.139924,39.3257143 C127.694822,39.7752381 127.162963,40 126.544346,40 C125.925729,40 125.397642,39.7714286 124.960084,39.3142857 C124.763937,39.1314286 124.613055,38.9333333 124.507438,38.72 L124.507438,38.72 L115.22819,19.9771429 L115.22819,37.7142857 L115.219947,37.9192945 C115.175987,38.457331 114.956183,38.9261376 114.560537,39.3257143 C114.115435,39.7752381 113.583575,40 112.964959,40 C112.346342,40 111.814483,39.7752381 111.369381,39.3257143 C110.924279,38.8761905 110.701728,38.3390476 110.701728,37.7142857 L110.701728,37.7142857 L110.701728,10.2857143 L110.70997,10.0807055 C110.753931,9.54266902 110.973734,9.07386243 111.369381,8.67428571 C111.814483,8.2247619 112.346342,8 112.964959,8 C113.583575,8 114.119207,8.22095238 114.571853,8.66285714 C114.752911,8.86095238 114.896249,9.06666667 115.001867,9.28 L115.001867,9.28 L124.281115,28.0228571 L124.281115,10.2857143 L124.289357,10.0807055 C124.333318,9.54266902 124.553122,9.07386243 124.948768,8.67428571 C125.39387,8.2247619 125.925729,8 126.544346,8 Z M141.22819,8 L141.567441,8.00552538 C143.926158,8.08288076 145.948056,8.97246753 147.633134,10.6742857 C149.398455,12.4571429 150.281115,14.6133333 150.281115,17.1428571 C150.281115,19.672381 149.398455,21.8285714 147.633134,23.6114286 C147.49734,23.7485714 147.361547,23.8780952 147.225753,24 C147.361547,24.1219048 147.49734,24.2514286 147.633134,24.3885714 C149.398455,26.1714286 150.281115,28.327619 150.281115,30.8571429 C150.281115,33.3866667 149.398455,35.5428571 147.633134,37.3257143 C145.867814,39.1085714 143.732833,40 141.22819,40 L141.22819,40 L134.438496,40 L134.235504,39.9916755 C133.70276,39.9472781 133.238565,39.725291 132.842918,39.3257143 C132.397816,38.8761905 132.175265,38.3390476 132.175265,37.7142857 L132.175265,37.7142857 L132.175265,10.2857143 L132.183508,10.0807055 C132.227469,9.54266902 132.447272,9.07386243 132.842918,8.67428571 C133.288021,8.2247619 133.81988,8 134.438496,8 L134.438496,8 L141.22819,8 Z M169.491421,8 C170.110038,8 170.641897,8.2247619 171.086999,8.67428571 C171.532101,9.12380952 171.754652,9.66095238 171.754652,10.2857143 C171.754652,10.8038095 171.60377,11.2609524 171.302006,11.6571429 L171.302006,11.6571429 L171.324638,11.7028571 L165.236547,24 L171.324638,36.2971429 L171.302006,36.3428571 L171.408095,36.4942857 C171.639133,36.8542857 171.754652,37.2609524 171.754652,37.7142857 C171.754652,38.3390476 171.532101,38.8761905 171.086999,39.3257143 C170.641897,39.7752381 170.110038,40 169.491421,40 C168.872805,40 168.344717,39.7714286 167.907159,39.3142857 C167.711013,39.1314286 167.560131,38.9333333 167.454513,38.72 L167.454513,38.72 L161.298524,26.2857143 L158.175265,26.2857143 L158.175265,37.7142857 L158.167023,37.9192945 C158.123062,38.457331 157.903258,38.9261376 157.507612,39.3257143 C157.06251,39.7752381 156.530651,40 155.912034,40 C155.293417,40 154.761558,39.7752381 154.316456,39.3257143 C153.871354,38.8761905 153.648803,38.3390476 153.648803,37.7142857 L153.648803,37.7142857 L153.648803,10.2857143 L153.657045,10.0807055 C153.701006,9.54266902 153.92081,9.07386243 154.316456,8.67428571 C154.761558,8.2247619 155.293417,8 155.912034,8 C156.530651,8 157.06251,8.2247619 157.507612,8.67428571 C157.952714,9.12380952 158.175265,9.66095238 158.175265,10.2857143 L158.175265,10.2857143 L158.175265,21.7142857 L161.298524,21.7142857 L167.454513,9.28 L167.542213,9.12142857 C167.638401,8.96428571 167.760049,8.81142857 167.907159,8.66285714 C168.344717,8.22095238 168.872805,8 169.491421,8 Z M141.22819,26.2857143 L136.701728,26.2857143 L136.701728,35.4285714 L141.22819,35.4285714 C142.480511,35.4285714 143.548002,34.9828571 144.430662,34.0914286 C145.313322,33.2 145.754652,32.1219048 145.754652,30.8571429 C145.754652,29.592381 145.313322,28.5142857 144.430662,27.6228571 C143.548002,26.7314286 142.480511,26.2857143 141.22819,26.2857143 L141.22819,26.2857143 Z M46.6244749,0 C49.3851445,0 51.6365121,2.19544036 51.7501518,4.94679863 L51.753,5.101 L51.9275305,5.1016185 L51.9285305,5.2516185 C51.9285305,19.3348796 40.4339942,30.7516185 26.2547652,30.7516185 C12.2173285,30.7516185 0.811159194,19.5620727 0.584439551,5.67330763 L0.581,5.2516185 L0.581437356,5.10118678 L0.767848527,5.10117636 C0.954882809,2.50417383 3.10681382,0.455747312 5.73394233,0.455747312 C8.48392823,0.455747312 10.7132323,2.70024255 10.7132323,5.46896774 C10.7132323,5.73775232 10.6922226,6.0015964 10.6517666,6.25892611 C11.246694,14.2177631 17.9371521,20.4912635 26.1028495,20.4912635 C34.3406916,20.4912635 41.0771116,14.1064193 41.5694296,6.04731145 C41.519873,5.76115548 41.4942974,5.46615294 41.4942974,5.1651362 C41.4942974,2.31251025 43.7911561,0 46.6244749,0 Z M141.22819,12.5714286 L136.701728,12.5714286 L136.701728,21.7142857 L141.22819,21.7142857 C142.480511,21.7142857 143.548002,21.2685714 144.430662,20.3771429 C145.313322,19.4857143 145.754652,18.407619 145.754652,17.1428571 C145.754652,15.8780952 145.313322,14.8 144.430662,13.9085714 C143.548002,13.0171429 142.480511,12.5714286 141.22819,12.5714286 L141.22819,12.5714286 Z" id="Combined-Shape-Copy-28" fill="#A5A9B6"></path>
    </g>
</svg>