<?xml version="1.0" encoding="UTF-8"?>
<svg width="138px" height="47px" viewBox="0 0 138 47" version="1.1" xmlns="http://www.w3.org/2000/svg" xmlns:xlink="http://www.w3.org/1999/xlink">
    <title>Combined Shape Copy 42</title>
    <g id="Page-1" stroke="none" stroke-width="1" fill="none" fill-rule="evenodd">
        <path d="M11.8624694,2.35789927 L28.9393432,19.0741253 C29.1247124,19.2555797 29.296417,19.4457278 29.4544433,19.6432874 L29.5029973,19.7048527 C29.4219632,19.6101247 29.3375872,19.5172414 29.2498665,19.4263548 L29.1731829,19.3482999 L29.095128,19.2716163 L28.8997648,19.0903773 C28.5862063,18.8108407 28.252543,18.5662378 27.9037998,18.3565686 C27.9959857,18.4317822 28.0866123,18.5105941 28.1754929,18.5923694 L28.3614965,18.7704082 L28.3812211,18.7901329 C28.4286294,18.8377494 28.4751282,18.8859283 28.5207175,18.9346479 L28.5158538,18.9323989 L28.3278949,18.7549472 C28.098155,18.5463928 27.8571353,18.3571764 27.6069276,18.1872979 C25.2081027,16.9108796 22.1926004,17.2116577 20.0852249,19.0903773 L19.8898617,19.2716163 L15.3409973,23.6627309 L14.9579973,23.2877309 L14.8535166,23.3910467 L19.3949367,27.8494375 C21.5960841,30.0102557 24.9490404,30.2927531 27.4513543,28.6969299 L11.4411005,44.6369199 C8.99721441,47.0701177 5.08297518,47.129464 2.56736452,44.8149588 L2.38136098,44.6369199 L2.36163629,44.6171952 C-0.0578201566,42.1871108 -0.108425776,38.292397 2.20353426,35.8009831 L2.38136098,35.616803 L14.8599973,23.1927309 L2.7189464,11.3083195 C0.247356106,8.88892689 0.205041507,4.92400187 2.6244341,2.45241157 L2.7189464,2.35789927 C5.25949158,-0.128991942 9.32192419,-0.128991942 11.8624694,2.35789927 Z M117.278504,13 C123.011222,13 127.168537,16.7894737 128,22.800363 L128,22.800363 L123.361312,22.800363 C122.879939,19.0980036 120.560595,16.876588 117.322265,16.876588 C113.51504,16.876588 111.020651,20.0998185 111.020651,24.9782214 C111.020651,29.9001815 113.51504,33.0798548 117.322265,33.0798548 C120.604356,33.0798548 122.879939,30.9019964 123.405073,27.1560799 L123.405073,27.1560799 L128,27.1560799 C127.212298,33.2540835 123.098745,37 117.278504,37 C110.933129,37 106.469486,32.0344828 106.469486,24.9782214 C106.469486,18.0090744 111.020651,13 117.278504,13 Z M49.0213166,13 C54.7540348,13 58.0798866,16.2232305 58.0798866,21.7114338 L58.0798866,21.7114338 L58.0798866,36.5208711 L54.4039452,36.5208711 L54.4039452,32.9491833 C52.9598253,35.5190563 50.377914,36.9564428 46.9645398,36.9564428 C42.150807,36.9564428 39,34.2123412 39,29.9872958 C39,25.4573503 42.6321803,23.1052632 49.5464511,23.1052632 C50.9030485,23.1052632 51.9970787,23.1488203 53.8788107,23.3666062 L53.8788107,23.3666062 L53.8788107,21.6678766 C53.8788107,18.3575318 52.0846011,16.4845735 49.0213166,16.4845735 C45.7829872,16.4845735 43.8137329,18.4010889 43.6824492,21.6243194 L43.6824492,21.6243194 L39.6564181,21.6243194 C39.8752242,16.4410163 43.5949268,13 49.0213166,13 Z M93.5341875,13 C100.098369,13 104.912102,18.1397459 104.912102,24.9782214 C104.912102,31.8166969 100.098369,36.9564428 93.5341875,36.9564428 C86.9700064,36.9564428 82.1562735,31.8166969 82.1562735,24.9782214 C82.1562735,18.1397459 86.9700064,13 93.5341875,13 Z M65.7638399,13.4355717 L71.4965581,22.1470054 L77.2292763,13.4355717 L81.999248,13.4355717 L74.3847978,24.8475499 L82.5243825,36.5208711 L77.4480824,36.5208711 L71.2339909,27.3303085 L65.1074218,36.5208711 L60.1186441,36.5208711 L68.3457511,24.7168784 L60.6437786,13.4355717 L65.7638399,13.4355717 Z M49.8090183,25.8493648 C45.3891363,25.8493648 43.201076,27.1560799 43.201076,29.8566243 C43.201076,32.2522686 44.9952855,33.8203267 47.839764,33.8203267 C51.5594667,33.8203267 53.8788107,31.5117967 53.8788107,27.9836661 L53.8788107,27.9836661 L53.8788107,26.1107078 C52.1721236,25.892922 50.9468097,25.8493648 49.8090183,25.8493648 Z M93.5341875,16.9201452 C89.7269625,16.9201452 86.7512003,19.9255898 86.7512003,24.9782214 C86.7512003,30.030853 89.7269625,33.0798548 93.5341875,33.0798548 C97.3414126,33.0798548 100.360936,30.030853 100.360936,24.9782214 C100.360936,19.9255898 97.3414126,16.9201452 93.5341875,16.9201452 Z M134.495063,12 C136.499295,12 138,13.5611511 138,15.505036 C138,17.4388489 136.499295,19 134.495063,19 C132.500705,19 131,17.4388489 131,15.505036 C131,13.5611511 132.500705,12 134.495063,12 Z M134.495063,12.5640288 C132.816643,12.5640288 131.641749,13.8733813 131.641749,15.505036 C131.641749,17.1266187 132.816643,18.4359712 134.495063,18.4359712 C136.183357,18.4359712 137.358251,17.1266187 137.358251,15.505036 C137.358251,13.8733813 136.183357,12.5640288 134.495063,12.5640288 Z M134.48519,13.6618705 C135.383639,13.6618705 136.084626,14.2661871 136.212976,15.1625899 L136.212976,15.1625899 L135.531735,15.1625899 C135.442877,14.628777 135.028209,14.2460432 134.495063,14.2460432 C133.863188,14.2460432 133.4189,14.7697842 133.4189,15.505036 C133.4189,16.2402878 133.863188,16.7741007 134.495063,16.7741007 C135.028209,16.7741007 135.442877,16.381295 135.531735,15.847482 L135.531735,15.847482 L136.212976,15.847482 C136.084626,16.7438849 135.383639,17.3482014 134.48519,17.3482014 C133.507757,17.3482014 132.757405,16.542446 132.757405,15.505036 C132.757405,14.457554 133.507757,13.6618705 134.48519,13.6618705 Z" id="Combined-Shape-Copy-42" fill="#374D96"></path>
    </g>
</svg>