<?xml version="1.0" encoding="UTF-8"?>
<svg width="186px" height="56px" viewBox="0 0 186 56" version="1.1" xmlns="http://www.w3.org/2000/svg" xmlns:xlink="http://www.w3.org/1999/xlink">
    <title>Combined Shape Copy 31</title>
    <g id="Page-1" stroke="none" stroke-width="1" fill="none" fill-rule="evenodd">
        <path d="M6.608,16 C17.653695,16 26.608,24.954305 26.608,36 C26.608,47.045695 17.653695,56 6.608,56 L0.608,56 L0.608,16 L6.608,16 Z M142.128,20.2 C148.128,20.2 148.128,20.2 152.128,24.46 C156.128,28.72 156.128,28.72 156.128,34.96 C156.128,41.24 156.128,41.24 152.148,45.32 C148.168,49.4 148.168,49.4 142.248,49.4 C136.248,49.4 136.248,49.4 132.168,45.2 C128.088,41 128.088,41 128.088,34.88 C128.088,28.4 128.088,28.4 131.988,24.3 C135.888,20.2 135.888,20.2 142.128,20.2 Z M79.488,20.6 L79.6581775,20.6066272 C80.6664615,20.6861538 80.6664615,20.6861538 81.368,21.72 L81.368,21.72 L95.608,41.48 L95.608,24.44 L95.5994,24.2566 C95.522,23.434 95.522,23.434 94.748,22.66 C93.888,21.8 93.888,21.8 93.888,21.4 L93.888,21.4 L93.888,21.28 L93.8934438,21.1794083 C93.9587692,20.6 93.9587692,20.6 94.808,20.6 L94.808,20.6 L99.488,20.6 L99.6240947,20.6040237 C100.408,20.6523077 100.408,20.6523077 100.408,21.28 L100.408,21.28 L100.408,21.4 L100.402028,21.4698611 C100.336333,21.8716667 100.336333,21.8716667 99.548,22.66 C98.688,23.52 98.688,23.52 98.688,24.44 L98.688,24.44 L98.688,47.4 L98.6814375,47.5846875 C98.6355,48.2125 98.6355,48.2125 98.268,48.58 C97.848,49 97.848,49 97.128,49 L97.128,49 L95.248,49 L95.1126154,48.9926627 C94.3003077,48.9046154 94.3003077,48.9046154 93.488,47.76 L93.488,47.76 L78.248,27.32 L78.248,45.08 L78.255438,45.2538843 C78.3298182,46.12 78.3298182,46.12 79.148,46.92 C80.048,47.8 80.048,47.8 80.048,48.2 L80.048,48.2 L80.048,48.32 L80.0425562,48.4205917 C79.9772308,49 79.9772308,49 79.128,49 L79.128,49 L74.488,49 L74.3519053,48.9959763 C73.568,48.9476923 73.568,48.9476923 73.568,48.32 L73.568,48.32 L73.568,48.2 L73.5746116,48.1233058 C73.6407273,47.72 73.6407273,47.72 74.368,46.92 C75.168,46.04 75.168,46.04 75.168,45.08 L75.168,45.08 L75.168,24.48 L75.16,24.2892 C75.088,23.436 75.088,23.436 74.368,22.68 C73.568,21.84 73.568,21.84 73.568,21.44 L73.568,21.44 L73.568,21.28 L73.5734438,21.1794083 C73.6387692,20.6 73.6387692,20.6 74.488,20.6 L74.488,20.6 L79.488,20.6 Z M113.648,20.6 L114.10734,20.6039583 C119.343833,20.695 119.343833,20.695 122.468,22.88 C125.728,25.16 125.728,25.16 125.768,29.56 C125.768,32 125.768,32 124.348,34.06 C122.928,36.12 122.928,36.12 120.288,37.24 L120.288,37.24 L125.528,45.16 L125.707444,45.4205556 C126.171333,46.0566667 126.171333,46.0566667 126.788,46.54 C127.528,47.12 127.528,47.12 127.968,47.46 C128.408,47.8 128.408,47.8 128.408,48.2 L128.408,48.2 L128.408,48.32 L128.402556,48.4205917 C128.337231,49 128.337231,49 127.488,49 L127.488,49 L119.128,49 L118.987444,48.9952778 C118.248,48.9433333 118.248,48.9433333 118.248,48.32 L118.248,48.32 L118.248,48.2 L118.255188,48.1084375 C118.3055,47.7825 118.3055,47.7825 118.708,47.38 C119.168,46.92 119.168,46.92 119.348,46.54 C119.528,46.16 119.528,46.16 119.128,45.16 L119.128,45.16 L114.928,38.2 L110.528,38.28 L110.528,45.16 L110.5366,45.3434 C110.614,46.166 110.614,46.166 111.388,46.94 C112.248,47.8 112.248,47.8 112.248,48.2 L112.248,48.2 L112.248,48.32 L112.24232,48.4205917 C112.174154,49 112.174154,49 111.288,49 L111.288,49 L103.768,49 L103.627444,48.9952778 C102.888,48.9433333 102.888,48.9433333 102.888,48.32 L102.888,48.32 L102.888,48.2 L102.894281,48.1234711 C102.957091,47.7218182 102.957091,47.7218182 103.648,46.94 C104.408,46.08 104.408,46.08 104.408,45.16 L104.408,45.16 L104.408,24.44 L104.4004,24.2566 C104.332,23.434 104.332,23.434 103.648,22.66 C102.888,21.8 102.888,21.8 102.888,21.4 L102.888,21.4 L102.888,21.24 L102.894111,21.1377778 C102.961333,20.6 102.961333,20.6 103.768,20.6 L103.768,20.6 L113.648,20.6 Z M166.488,20.6 L166.624095,20.603787 C167.408,20.6492308 167.408,20.6492308 167.408,21.24 L167.408,21.24 L167.408,21.4 L167.402028,21.4698611 C167.336333,21.8716667 167.336333,21.8716667 166.548,22.66 C165.688,23.52 165.688,23.52 165.688,24.44 L165.688,24.44 L165.688,34.92 L175.928,24.48 L176.050813,24.3603125 C176.4555,23.9425 176.4555,23.9425 176.508,23.54 C176.568,23.08 176.568,23.08 176.348,22.78 C176.128,22.48 176.128,22.48 175.868,22.08 C175.608,21.68 175.608,21.68 175.608,21.4 L175.608,21.4 L175.608,21.24 L175.613444,21.1453254 C175.678769,20.6 175.678769,20.6 176.528,20.6 L176.528,20.6 L182.288,20.6 L182.428556,20.6044444 C183.168,20.6533333 183.168,20.6533333 183.168,21.24 L183.168,21.24 L183.168,21.4 L183.160188,21.5 C183.1055,21.85 183.1055,21.85 182.668,22.2 C182.168,22.6 182.168,22.6 181.248,23.22 C180.328,23.84 180.328,23.84 179.688,24.48 L179.688,24.48 L173.928,30.28 L182.888,45.12 L183.064111,45.4055556 C183.511333,46.1 183.511333,46.1 184.028,46.6 C184.648,47.2 184.648,47.2 184.968,47.5 C185.288,47.8 185.288,47.8 185.288,48.2 L185.288,48.2 L185.288,48.32 L185.282167,48.4286111 C185.218,49 185.218,49 184.448,49 L184.448,49 L175.968,49 L175.827444,48.9952778 C175.088,48.9433333 175.088,48.9433333 175.088,48.32 L175.088,48.32 L175.088,48.2 L175.0955,48.108125 C175.148,47.78 175.148,47.78 175.568,47.36 C176.048,46.88 176.048,46.88 176.308,46.52 C176.568,46.16 176.568,46.16 176.208,45.32 L176.208,45.32 L169.768,34.48 L165.688,38.6 L165.688,45.12 L165.6966,45.311 C165.774,46.166 165.774,46.166 166.548,46.94 C167.408,47.8 167.408,47.8 167.408,48.2 L167.408,48.2 L167.408,48.32 L167.402556,48.4205917 C167.337231,49 167.337231,49 166.488,49 L166.488,49 L159.008,49 L158.867444,48.9952778 C158.128,48.9433333 158.128,48.9433333 158.128,48.32 L158.128,48.32 L158.128,48.2 L158.134281,48.1234711 C158.197091,47.7218182 158.197091,47.7218182 158.888,46.94 C159.648,46.08 159.648,46.08 159.648,45.12 L159.648,45.12 L159.648,24.44 L159.6404,24.2566 C159.572,23.434 159.572,23.434 158.888,22.66 C158.128,21.8 158.128,21.8 158.128,21.4 L158.128,21.4 L158.128,21.24 L158.134111,21.1377778 C158.201333,20.6 158.201333,20.6 159.008,20.6 L159.008,20.6 L166.488,20.6 Z M139.968,22.8 C137.208,22.8 137.208,22.8 135.588,24.8 C133.968,26.8 133.968,26.8 133.968,30.12 C133.968,34.2 133.968,34.2 135.268,38.04 C136.568,41.88 136.568,41.88 138.888,44.34 C141.208,46.8 141.208,46.8 143.928,46.8 C146.688,46.8 146.688,46.8 148.368,44.76 C150.048,42.72 150.048,42.72 150.048,39.56 C150.048,35.64 150.048,35.64 148.728,31.78 C147.408,27.92 147.408,27.92 145.048,25.36 C142.688,22.8 142.688,22.8 139.968,22.8 Z M53.608,0 L53.608,40 L46.608,40 C35.562305,40 26.608,31.045695 26.608,20 C26.608,8.954305 35.562305,-1.26872023e-14 46.608,0 L46.608,0 L53.608,0 Z M113.248,23.04 L111.888,23.04 L111.741086,23.0455556 C110.528,23.14 110.528,23.14 110.528,24.84 L110.528,24.84 L110.528,33.16 L110.53175,33.3943056 C110.573,34.6516667 110.573,34.6516667 111.068,35.22 C111.608,35.84 111.608,35.84 112.768,35.84 L112.768,35.84 L114.488,35.84 C116.768,35.84 116.768,35.84 118.148,34.42 C119.528,33 119.528,33 119.528,30.24 C119.528,26.96 119.528,26.96 117.628,25 C115.728,23.04 115.728,23.04 113.248,23.04 L113.248,23.04 Z" id="Combined-Shape-Copy-31" fill="#A5A9B6" fill-rule="nonzero"></path>
    </g>
</svg>