<?xml version="1.0" encoding="UTF-8"?>
<svg width="181px" height="65px" viewBox="0 0 181 65" version="1.1" xmlns="http://www.w3.org/2000/svg" xmlns:xlink="http://www.w3.org/1999/xlink">
    <title>Combined Shape Copy 27</title>
    <g id="Page-1" stroke="none" stroke-width="1" fill="none" fill-rule="evenodd">
        <path d="M28.4996323,46 C33.7154809,46 36.0839019,48.6985507 36.0839019,52.3057971 L36.0839019,52.3057971 L36.0839019,52.4710145 L33.2364744,52.4710145 L33.2364744,52.1130435 C33.2364744,49.8550725 31.9325122,48.726087 28.2335175,48.726087 C24.9869179,48.726087 23.7095672,49.5521739 23.7095672,51.2043478 C23.7095672,52.8014493 24.6143573,53.3246377 26.7166636,53.7927536 L26.7166636,53.7927536 L31.0543336,54.5637681 C34.6202709,55.2246377 36.3766281,56.9043478 36.3766281,59.6028986 C36.3766281,62.4115942 34.1678759,65 28.8988043,65 C23.5765098,65 20.8621397,62.5768116 20.8621397,58.6942029 L20.8621397,58.6942029 L20.8621397,58.5289855 L23.7361787,58.5289855 L23.7361787,58.9695652 C23.7361787,61.1724638 24.9869179,62.273913 28.8988043,62.273913 C32.3050728,62.273913 33.5025891,61.5028986 33.5025891,59.7681159 C33.5025891,58.1710145 32.597799,57.5652174 30.3358239,57.1246377 L30.3358239,57.1246377 L25.9715424,56.3811594 C22.964446,55.8304348 20.8355282,54.3985507 20.8355282,51.3695652 C20.8355282,48.6985507 22.964446,46 28.4996323,46 Z M45.5043632,46 C50.7202118,46 53.0886329,48.6985507 53.0886329,52.3057971 L53.0886329,52.3057971 L53.0886329,52.4710145 L50.2412053,52.4710145 L50.2412053,52.1130435 C50.2412053,49.8550725 48.9372431,48.726087 45.2382485,48.726087 C41.9916488,48.726087 40.7142981,49.5521739 40.7142981,51.2043478 C40.7142981,52.8014493 41.6190882,53.3246377 43.7213945,53.7927536 L43.7213945,53.7927536 L48.0590646,54.5637681 C51.6250019,55.2246377 53.3813591,56.9043478 53.3813591,59.6028986 C53.3813591,62.4115942 51.1726068,65 45.9035353,65 C40.5812408,65 37.8668706,62.5768116 37.8668706,58.6942029 L37.8668706,58.6942029 L37.8668706,58.5289855 L40.7409096,58.5289855 L40.7409096,58.9695652 C40.7409096,61.1724638 41.9916488,62.273913 45.9035353,62.273913 C49.3098038,62.273913 50.50732,61.5028986 50.50732,59.7681159 C50.50732,58.1710145 49.60253,57.5652174 47.3405548,57.1246377 L47.3405548,57.1246377 L42.9762733,56.3811594 C39.9691769,55.8304348 37.8402591,54.3985507 37.8402591,51.3695652 C37.8402591,48.6985507 39.9691769,46 45.5043632,46 Z M96.5451674,46 C101.761016,46 104.129437,48.6985507 104.129437,52.3057971 L104.129437,52.3057971 L104.129437,52.4710145 L101.28201,52.4710145 L101.28201,52.1130435 C101.28201,49.8550725 99.9780474,48.726087 96.2790527,48.726087 C93.0324531,48.726087 91.7551024,49.5521739 91.7551024,51.2043478 C91.7551024,52.8014493 92.6598925,53.3246377 94.7621988,53.7927536 L94.7621988,53.7927536 L99.0998688,54.5637681 C102.665806,55.2246377 104.422163,56.9043478 104.422163,59.6028986 C104.422163,62.4115942 102.213411,65 96.9443395,65 C91.622045,65 88.9076748,62.5768116 88.9076748,58.6942029 L88.9076748,58.6942029 L88.9076748,58.5289855 L91.7817139,58.5289855 L91.7817139,58.9695652 C91.7817139,61.1724638 93.0324531,62.273913 96.9443395,62.273913 C100.350608,62.273913 101.548124,61.5028986 101.548124,59.7681159 C101.548124,58.1710145 100.643334,57.5652174 98.3813591,57.1246377 L98.3813591,57.1246377 L94.0170776,56.3811594 C91.0099812,55.8304348 88.8810634,54.3985507 88.8810634,51.3695652 C88.8810634,48.6985507 91.0099812,46 96.5451674,46 Z M12.1335767,46.2753623 L20.090407,64.7246377 L16.8438073,64.7246377 L14.7947239,59.9333333 L5.37426266,59.9333333 L3.32517928,64.7246377 L0.131802575,64.7246377 L8.08863285,46.2753623 L12.1335767,46.2753623 Z M69.6941917,46.2753623 L69.6941917,48.9463768 L58.3044815,48.9463768 L58.3044815,54.1231884 L69.2950196,54.1231884 L69.2950196,56.7666667 L58.3044815,56.7666667 L58.3044815,62.0536232 L69.6941917,62.0536232 L69.6941917,64.7246377 L55.4304424,64.7246377 L55.4304424,46.2753623 L69.6941917,46.2753623 Z M87.789993,46.2753623 L87.789993,48.9463768 L80.7911757,48.9463768 L80.7911757,64.7246377 L77.9437482,64.7246377 L77.9437482,48.9463768 L70.9183194,48.9463768 L70.9183194,46.2753623 L87.789993,46.2753623 Z M116.317492,46.2753623 C119.72376,46.2753623 121.772843,47.9 121.772843,50.8188406 C121.772843,52.9942029 120.601939,54.6188406 117.887568,54.9492754 L117.887568,54.9492754 L117.887568,55.142029 C120.921276,55.5 122.411519,57.2072464 122.411519,59.6304348 C122.411519,62.7971014 120.362435,64.7246377 116.690052,64.7246377 L116.690052,64.7246377 L106.338189,64.7246377 L106.338189,46.2753623 Z M134.945522,46.2753623 L142.902353,64.7246377 L139.655753,64.7246377 L137.60667,59.9333333 L128.186208,59.9333333 L126.137125,64.7246377 L122.943748,64.7246377 L130.900578,46.2753623 L134.945522,46.2753623 Z M147.319857,46.2753623 L155.303299,57.0695652 L157.618497,60.5115942 L157.831389,60.5115942 L157.698331,57.1797101 L157.698331,46.2753623 L160.57237,46.2753623 L160.57237,64.7246377 L157.485439,64.7246377 L149.448775,53.957971 L147.213411,50.7086957 L147.000519,50.7086957 L147.106965,53.9028986 L147.106965,64.7246377 L144.232926,64.7246377 L144.232926,46.2753623 L147.319857,46.2753623 Z M166.107557,46.2753623 L166.107557,54.1507246 L171.509685,54.1507246 L176.725534,46.2753623 L180.131803,46.2753623 L173.904718,55.3898551 L180.105191,64.7246377 L176.698923,64.7246377 L171.562908,57.0144928 L166.107557,57.0144928 L166.107557,64.7246377 L163.233518,64.7246377 L163.233518,46.2753623 L166.107557,46.2753623 Z M116.370714,56.4637681 L109.185617,56.4637681 L109.185617,62.0536232 L116.370714,62.0536232 C118.499632,62.0536232 119.53748,61.2275362 119.53748,59.2173913 C119.53748,57.2898551 118.473021,56.4637681 116.370714,56.4637681 L116.370714,56.4637681 Z M10.1909392,49.0289855 L9.9780474,49.0289855 L8.94019997,51.6449275 L6.51855598,57.2623188 L13.6504306,57.2623188 L11.2287866,51.6449275 L10.1909392,49.0289855 Z M133.002885,49.0289855 L132.789993,49.0289855 L131.752146,51.6449275 L129.330502,57.2623188 L136.462376,57.2623188 L134.040732,51.6449275 L133.002885,49.0289855 Z M115.998154,48.9463768 L109.185617,48.9463768 L109.185617,54.0130435 L115.918319,54.0130435 C117.91418,54.0130435 118.925416,53.2144928 118.925416,51.4797101 C118.925416,49.7449275 117.994014,48.9463768 115.998154,48.9463768 L115.998154,48.9463768 Z M76.7151359,0 C79.246441,-4.64993204e-16 81.2984692,2.05202823 81.2984692,4.58333333 L81.2984692,25.4166667 C81.2984692,27.9479718 79.246441,30 76.7151359,30 C74.1838308,30 72.1318026,27.9479718 72.1318026,25.4166667 L72.1318026,4.58333333 C72.1318026,2.05202823 74.1838308,4.64993204e-16 76.7151359,0 Z M89.2151359,5 C91.746441,5 93.7984692,7.05202823 93.7984692,9.58333333 L93.7984692,21.25 C93.7984692,23.7813051 91.746441,25.8333333 89.2151359,25.8333333 C86.6838308,25.8333333 84.6318026,23.7813051 84.6318026,21.25 L84.6318026,9.58333333 C84.6318026,7.05202823 86.6838308,5 89.2151359,5 Z M102.548469,10.8333333 C105.079774,10.8333333 107.131803,12.8853616 107.131803,15.4166667 C107.131803,17.9479718 105.079774,20 102.548469,20 C100.017164,20 97.9651359,17.9479718 97.9651359,15.4166667 C97.9651359,12.8853616 100.017164,10.8333333 102.548469,10.8333333 Z" id="Combined-Shape-Copy-27" fill="#A5A9B6"></path>
    </g>
</svg>