<?xml version="1.0" encoding="UTF-8"?>
<svg width="34px" height="24px" viewBox="0 0 34 24" version="1.1" xmlns="http://www.w3.org/2000/svg" xmlns:xlink="http://www.w3.org/1999/xlink">
    <title>cta-arrow-white</title>
    <g id="Page-1" stroke="none" stroke-width="1" fill="none" fill-rule="evenodd">
        <g id="cta-arrow-white" fill="#000000" fill-rule="nonzero">
            <path d="M2,10.5 C1.17157,10.5 0.5,11.1716 0.5,12 C0.5,12.8284 1.17157,13.5 2,13.5 L2,10.5 Z M33.0607,13.0607 C33.6464,12.4749 33.6464,11.5251 33.0607,10.9393 L23.5147,1.3934 C22.9289,0.807614 21.9792,0.807614 21.3934,1.3934 C20.8076,1.97919 20.8076,2.92893 21.3934,3.51472 L29.8787,12 L21.3934,20.4853 C20.8076,21.0711 20.8076,22.0208 21.3934,22.6066 C21.9792,23.1924 22.9289,23.1924 23.5147,22.6066 L33.0607,13.0607 Z M2,13.5 L32,13.5 L32,10.5 L2,10.5 L2,13.5 Z" id="Shape"></path>
        </g>
    </g>
</svg>