<?xml version="1.0" encoding="UTF-8"?>
<svg width="49px" height="36px" viewBox="0 0 49 36" version="1.1" xmlns="http://www.w3.org/2000/svg" xmlns:xlink="http://www.w3.org/1999/xlink">
    <title>“</title>
    <g id="Page-1" stroke="none" stroke-width="1" fill="none" fill-rule="evenodd">
        <path d="M39.8695652,36 C45.3043478,36 49,32.4537313 49,26.8656716 C49,21.9223881 45.7391304,18.6985075 41.0652174,18.6985075 C39.9782609,18.6985075 39.2173913,18.9134328 38.4565217,18.9134328 C37.2608696,18.9134328 36.3913043,17.9462687 36.3913043,16.6567164 C36.3913043,12.4656716 40.0869565,7.95223881 48.2391304,2.3641791 L47.0434783,0 C34.4347826,6.55522388 29,14.2925373 29,23.5343284 C29,31.1641791 33.0217391,36 39.8695652,36 Z M10.8695652,36 C16.3043478,36 20,32.4537313 20,26.8656716 C20,21.9223881 16.7391304,18.6985075 12.0652174,18.6985075 C10.9782609,18.6985075 10.2173913,18.9134328 9.45652174,18.9134328 C8.26086957,18.9134328 7.39130435,17.9462687 7.39130435,16.6567164 C7.39130435,12.4656716 11.0869565,7.95223881 19.2391304,2.3641791 L18.0434783,0 C5.43478261,6.55522388 0,14.2925373 0,23.5343284 C0,31.1641791 4.02173913,36 10.8695652,36 Z" id="“" fill="#454545" fill-rule="nonzero"></path>
    </g>
</svg>