<?xml version="1.0" encoding="UTF-8"?>
<svg width="138px" height="138px" viewBox="0 0 138 138" version="1.1" xmlns="http://www.w3.org/2000/svg" xmlns:xlink="http://www.w3.org/1999/xlink">
    <title>Group 37</title>
    <g id="Page-1" stroke="none" stroke-width="1" fill="none" fill-rule="evenodd">
        <g id="Group-37">
            <circle id="Oval-Copy-15" fill="#A4CE42" cx="69" cy="69" r="69"></circle>
            <path d="M51.742428,57.972 C46.530428,63.184 44.818428,70.552 46.578428,77.2 C58.666428,68.5 67.842428,70.668 67.998428,70.668 C58.498428,73 49.494428,83.5 49.494428,83.5 L42.306428,90.044 C40.674428,91.528 40.554428,94.06 42.042428,95.692 C42.830428,96.56 43.914428,97 45.002428,97 C45.962428,97 46.926428,96.656 47.694428,95.956 L55.106428,89.208 C55.170428,89.152 55.194428,89.068 55.254428,89.008 C62.982428,93.876 73.302428,92.98 80.030428,86.252 C92.526428,73.76 96.998428,41 96.998428,41 C96.998428,41 64.238428,45.472 51.742428,57.972 Z" id="Path-Copy-2" fill="#FFFFFF" fill-rule="nonzero"></path>
        </g>
    </g>
</svg>