<?xml version="1.0" encoding="UTF-8"?>
<svg width="67px" height="65px" viewBox="0 0 67 65" version="1.1" xmlns="http://www.w3.org/2000/svg" xmlns:xlink="http://www.w3.org/1999/xlink">
    <title>Fill 28</title>
    <g id="Page-1" stroke="none" stroke-width="1" fill="none" fill-rule="evenodd">
        <path d="M57.658,25.645 C58.85,26.597 57.746,22.786 57.374,22.805 C56.824,22.828 57.302,25.36 57.658,25.645 Z M38.025,14.589 C38.131,15.438 38.579,17.215 38.668,17.694 C38.829,18.57 40.946,19.33 40.801,18.719 C40.375,16.87 40.433,15.699 40.196,15.448 C39.671,14.895 37.918,13.724 38.025,14.589 Z M4.521,52.505 C5.215,54.062 8.725,56.933 8.707,60.708 C8.701,62.008 10.116,63.127 11.397,62.936 C14.352,62.49 2.992,49.081 4.521,52.505 Z M41.096,14.833 C41.635,15.22 51.39,13.569 60.809,2.875 C61.949,1.582 59.516,1.294 58.976,1.798 C55.681,4.871 52.512,8.409 47.326,10.457 C42.675,12.292 39.528,12.819 38.606,12.966 C37.996,13.063 39.734,13.853 41.096,14.833 Z M44.168,25.831 C47.804,20.982 48.728,19.592 47.368,19.778 C44.564,20.161 42.813,24.927 37.589,29.96 C35.055,32.397 32.142,34.475 29.24,36.484 C10.571,49.399 0.312,48.585 5.16,50.922 C6.754,51.689 34.257,39.057 44.168,25.831 Z M62.506,3.843 C62.387,3.156 62.11,3.086 61.598,3.597 C56.568,8.623 50.914,13.653 43.288,15.433 C40.801,16.013 41.253,16.225 41.765,18.213 C42.325,20.367 47.21,19.051 48.966,18.229 C51.762,16.92 48.34,29.126 19.179,45.929 C9.422,51.553 6.222,51.166 7.369,52.598 C9.831,55.651 12.818,58.6 13.224,62.903 C13.449,65.281 42.799,52.274 54.831,25.143 C56.856,20.573 56.281,21.125 57.532,20.283 C58.58,19.579 59.645,25.236 59.74,26.282 C59.74,26.922 60.123,27.215 60.881,27.074 C64.534,26.384 65.456,26.683 65.323,25.141 C65.071,22.272 65.23,20.002 63.735,9.581 C63.476,7.783 62.916,6.184 62.506,3.843 Z M66.675,24.298 C66.675,27.481 67.112,27.147 60.213,28.169 C59.525,28.271 59.088,28.046 58.335,27.658 C57.204,27.076 55.982,26.526 56.115,25.828 C56.156,25.597 55.835,25.493 55.65,25.852 C45.47,45.655 34.194,54.789 14.55,64.622 C13.617,65.088 12.754,65.292 11.695,64.51 C9.811,63.124 7.29,63.905 7.451,62.076 C7.98,56.083 0.927,52.219 0.833968683,50.105 C0.814,49.618 10.38,45.553 10.837,45.391 C31.501,38.097 46.47,20.103 43.157,20.424 C41.488,20.586 40.088,19.697 38.579,19.241 C37.807,19.008 37.629,17.526 37.066,13.624 C36.943,12.781 37.057,12.424 37.933,12.35 C45.762,11.697 53.545,6.882 58.16,1.04 C58.997,-0.017 59.277,0.09 60.608,0.49 C61.882,0.873 63.35,1.738 63.701,3.082 C64.274,5.281 64.818,7.186 65.526,12.798 C65.979,16.393 66.675,24.115 66.675,24.298 L66.675,24.298 Z" id="Fill-28" fill="#0A1953" transform="translate(33.757247, 32.620109) rotate(-180.000000) translate(-33.757247, -32.620109) "></path>
    </g>
</svg>