<?xml version="1.0" encoding="UTF-8"?>
<svg width="35px" height="30px" viewBox="0 0 35 30" version="1.1" xmlns="http://www.w3.org/2000/svg" xmlns:xlink="http://www.w3.org/1999/xlink">
    <title>Fill 13 Copy</title>
    <g id="Page-1" stroke="none" stroke-width="1" fill="none" fill-rule="evenodd">
        <path d="M15.586,11.034 C15.802,11.02 15.868,12.067 15.506,12.0700029 C15.254,12.072 15.309,11.052 15.586,11.034 Z M15.485,13.037 C16.528,14.447 16.52,9.314 15.69,10.331 C15.335,10.769 14.626,11.101 14.613,11.765 C14.601,12.363 15.205,12.656 15.485,13.037 Z M18.057,16.738 C18.522,16.688 18.554,18.276 18.106,18.246 C17.738,18.225 17.775,16.77 18.057,16.738 Z M17.672,19.208 C18.381,18.954 19.298,17.973 19,16.981 C18.899,16.647 18.537,16.144 18.152,15.696 C17.278,14.685 17.298,19.342 17.672,19.208 Z M17.554,4.89 C17.587,4.828 17.647,1.598 17.647,1.529 C17.658,0.766 17.168,1.207 17.176,1.527 C17.186,1.871 16.53,6.703 17.554,4.89 Z M10.928,21.195 C10.72,21.51 8.578,24.869 8.571,24.881 C8.415,25.14 8.546,25.384 8.843,25.006 C12.59,20.235 11.279,20.663 10.928,21.195 Z M11.103,9.378 C11.629,9.796 12.177,9.496 11.559,8.903 C11.398,8.75 9.225,6.606 8.922,6.663 C8.174,6.798 8.214,7.096 11.103,9.378 Z M22.713,11.382 C27.209,10.178 26.887,10.315 27.115,9.754 C27.139,9.691 27.025,9.468 26.871,9.42 C25.337,8.947 23.901,10.404 22.463,10.909 C22.364,10.944 22.196,11.216 22.285,11.357 C22.362,11.477 22.581,11.416 22.713,11.382 Z M7.529,14.743 C5.078,15.056 5.328,14.73 4.828,15.295 C4.217,15.985 10.627,15.119 10.018,14.474 C9.791,14.234 8.61,14.605 7.529,14.743 Z M27.09,21.104 C27.043,20.914 22.949,18.855 22.773,18.767 C22.545,18.653 22.109,18.819 22.237,19.133 C22.338,19.382 22.759,19.579 26.646,21.709 C27.069,21.941 27.179,21.445 27.09,21.104 Z M21.217,8.731 C26.141,4.165 24.01,5.901 27.549,3.161 C27.777,2.983 28.176,2.945 28.268,2.664 C28.894,0.755 22.523,6.834 20.862,8.35 C20.427,8.748 20.723,9.189 21.217,8.731 Z M14.17,7.952 C14.195,7.798 14.086,7.7 14.041,7.602 C9.648,-1.802 9.105,0.806 9.568,1.287 C12.812,4.659 13.885,9.712 14.17,7.952 Z M10.752,17.112 C10.672,17.096 10.569,17.102 10.495,17.14 C-12.272,28.935 12.464,17.466 10.752,17.112 Z M3.061,7.788 C4.893,9.543 8.407,11.466 8.748,11.716 C9.087,11.967 9.938,13.104 10.241,12.402 C10.382,12.076 9.422,11.595 8.646,11.06 C1.987,6.458 2.407,6.325 2.215,6.733 C2.14,6.898 1.989,7.152 2.049,7.23 C2.281,7.536 2.841,7.577 3.061,7.788 Z M20.735,21.567 C19.686,22.051 21.241,23.327 21.509,23.668 C26.287,29.748 26.494,29.999 26.893,29.67 C27.419,29.235 22.006,23.738 21.082,21.818 C21.023,21.698 20.801,21.537 20.735,21.567 Z M33.801,15.755 C33.463,15.686 22.362,13.512 22.3419994,14.728 C22.34,14.861 27.179,15.292 30.345,15.873 C31.273,16.044 32.223,16.096 33.152,16.276 C33.492,16.343 33.813,16.442 34.008,16.46 C34.699,16.524 34.446,15.882 33.801,15.755 Z M15.002,10.038 C15.5,9.712 16.376,9.599 16.505,8.987 C16.582,8.629 16.372,7.634 16.742,7.512 C17.469,7.267 17.334,8.588 17.375,8.929 C17.433,9.416 17.955,9.349 18.726,9.688 C18.987,9.802 19.776,10.321 19.723,10.602 C19.62,11.143 19.617,11.616 19.135,11.318 C17.867,10.529 17.395,10.969 17.499,12.07 C17.689,14.054 17.309,13.99 18.586,14.508 C19.975,15.07 21.086,17.529 20.672,18.324 C20.285,19.068 20.222,19.436 18.464,20.391 C17.767,20.77 16.912,20.58 17.305,21.345 C17.622,21.958 17.303,22.089 16.514,22.165 C16.173,22.197 16.163,20.225 15.668,20.247 C14.802,20.284 14.161,19.762 13.516,19.332 C13.06,19.032 13.487,18.675 13.72,18.456 C13.834,18.349 14.053,18.446 14.189,18.506 C14.688,18.733 16.412,19.931 16.43,18.52 C16.484,14.28 16.512,14.159 16.029,14.022 C12.831,13.12 14.197,10.568 15.002,10.038 Z M14.725,14.237 C16.002,14.893 16.005,15.417 15.741,18.286 C15.666,19.095 13.368,16.587 13.126,17.94 C12.899,19.215 12.216,19.516 13.117,20.056 C14.814,21.076 15.523,20.865 15.588,21.722 C15.674,22.834 15.704,22.831 16.81,22.809 C18.584,22.775 17.49,21.48 18.132,21.206 C19.226,20.741 20.196,20.123 20.842,19.095 C21.712,17.709 21.327,16.907 20.467,15.482 C19.131,13.27 17.689,14.058 18.139,12.612 C18.218,12.362 18.072,11.78 18.364,11.688 C18.558,11.627 19.239,12.398 19.273,12.382 C20.028,12.027 19.924,11.346 20.253,10.893 C20.905,9.986 19.827,9.737 18.293,8.71 C17.424,8.131 18.799,6.964 16.415,6.891 C15.474,6.862 16.296,8.921 15.626,9.112 C14.092,9.55 12,12.84 14.725,14.237 Z" id="Fill-13-Copy" fill="#0A1953"></path>
    </g>
</svg>