<?xml version="1.0" encoding="UTF-8"?>
<svg width="33px" height="23px" viewBox="0 0 33 23" version="1.1" xmlns="http://www.w3.org/2000/svg" xmlns:xlink="http://www.w3.org/1999/xlink">
    <title>icon-youtube</title>
    <g id="Page-1" stroke="none" stroke-width="1" fill="none" fill-rule="evenodd">
        <g id="icon-youtube" fill="#142568" fill-rule="nonzero">
            <path d="M32.652089,4.95777778 C32.652089,4.95777778 32.3299492,2.70888889 31.3377587,1.71222222 C30.0878563,0.408888889 28.6833268,0.408888889 28.0261616,0.332222222 C23.4260055,0 16.5064427,0 16.5064427,0 L16.4935573,0 C16.4935573,0 9.57399453,0 4.94806717,0.332222222 C4.30378758,0.408888889 2.89925811,0.408888889 1.63647013,1.71222222 C0.65716517,2.70888889 0.335025381,4.95777778 0.335025381,4.95777778 C0.335025381,4.95777778 0,7.61555556 0,10.2605556 L0,12.7394444 C0,15.3844444 0.335025381,18.0294444 0.335025381,18.0294444 C0.335025381,18.0294444 0.65716517,20.2783333 1.64935573,21.275 C2.89925811,22.5783333 4.54861382,22.54 5.28309254,22.6677778 C7.92463881,22.9233333 16.4935573,23 16.4935573,23 C16.4935573,23 23.4260055,22.9872222 28.0390472,22.655 C28.6833268,22.5783333 30.0878563,22.5783333 31.3506443,21.275 C32.3428348,20.2783333 32.6649746,18.0294444 32.6649746,18.0294444 C32.6649746,18.0294444 33,15.3844444 33,12.7394444 L33,10.2605556 C32.9871144,7.61555556 32.652089,4.95777778 32.652089,4.95777778 L32.652089,4.95777778 Z M13.091761,15.7422222 L13.091761,6.555 L22.0085904,11.1677778 L13.091761,15.7422222 L13.091761,15.7422222 Z" id="Shape"></path>
        </g>
    </g>
</svg>