<?xml version="1.0" encoding="UTF-8"?>
<svg width="24px" height="24px" viewBox="0 0 24 24" version="1.1" xmlns="http://www.w3.org/2000/svg" xmlns:xlink="http://www.w3.org/1999/xlink">
    <title>icon-linkedin</title>
    <g id="Page-1" stroke="none" stroke-width="1" fill="none" fill-rule="evenodd">
        <g id="icon-linkedin" fill="#142568" fill-rule="nonzero">
            <path d="M21.6,0 L2.4,0 C1.08,0 0,1.08 0,2.4 L0,21.6 C0,22.92 1.08,24 2.4,24 L21.6,24 C22.92,24 24,22.92 24,21.6 L24,2.4 C24,1.08 22.92,0 21.6,0 Z M7.2,20.4 L3.6,20.4 L3.6,9.6 L7.2,9.6 L7.2,20.4 Z M5.4,7.56 C4.2,7.56 3.24,6.6 3.24,5.4 C3.24,4.2 4.2,3.24 5.4,3.24 C6.6,3.24 7.56,4.2 7.56,5.4 C7.56,6.6 6.6,7.56 5.4,7.56 Z M20.4,20.4 L16.8,20.4 L16.8,14.04 C16.8,13.0800471 15.96,12.24 15,12.24 C14.04,12.24 13.2,13.0800471 13.2,14.04 L13.2,20.4 L9.6,20.4 L9.6,9.6 L13.2,9.6 L13.2,11.04 C13.8,10.08 15.12,9.36 16.2,9.36 C18.48,9.36 20.4,11.28 20.4,13.56 L20.4,20.4 Z" id="Shape"></path>
        </g>
    </g>
</svg>