<?xml version="1.0" encoding="UTF-8"?>
<svg width="162px" height="162px" viewBox="0 0 162 162" version="1.1" xmlns="http://www.w3.org/2000/svg" xmlns:xlink="http://www.w3.org/1999/xlink">
    <title>Group 26</title>
    <g id="Page-1" stroke="none" stroke-width="1" fill="none" fill-rule="evenodd">
        <g id="Group-26">
            <circle id="Oval-Copy-10" fill="#F44529" cx="81" cy="81" r="81"></circle>
            <path d="M80.192059,45.0039499 C60.7493448,44.892172 44.626817,60.3415474 44.0183425,79.8808523 C43.3894983,99.7299623 59.0077728,116.352887 78.8627084,116.982267 C98.7077478,117.600437 115.352936,101.979921 115.982271,82.1309751 C116.600316,62.2820124 100.98286,45.6333624 81.1379022,45.0039499 C80.8277749,44.9942948 80.5007137,45.0055863 80.192059,45.0039499 L80.192059,45.0039499 Z M80.8994331,49.0034118 C81.1804404,49.0050331 81.4601395,48.994981 81.7425367,49.0034118 C89.9932113,49.2630728 97.4098601,52.5224258 103,57.692623 L55.4262907,102 C50.5720669,96.1431778 47.7551265,88.5983282 48.0167566,80.4163035 C48.570677,62.7828004 63.1986724,48.9005559 80.8994331,49.0034118 L80.8994331,49.0034118 Z" id="Shape" fill="#FFFFFF"></path>
        </g>
    </g>
</svg>