<?xml version="1.0" encoding="UTF-8"?>
<svg width="49px" height="61px" viewBox="0 0 49 61" version="1.1" xmlns="http://www.w3.org/2000/svg" xmlns:xlink="http://www.w3.org/1999/xlink">
    <title>Fill 3 Copy</title>
    <g id="Page-1" stroke="none" stroke-width="1" fill="none" fill-rule="evenodd">
        <path d="M31.252,8.918 C32.433,7.265 36.486,9.798 33.381,12.357 C33.096,12.591 32.932,12.511 32.368,11.956 C30.124,9.748 30.72,9.664 31.252,8.918 Z M31.145,11.435 C32.792,13.203 32.981,13.403 33.821,12.674 C35.997,10.788 35.371,9.165 32.714,7.619 C32.089,7.255 28.973,9.101 31.145,11.435 Z M20.64,3.25 C22.31,3.068 27.666,3.726 29.775,5.958 C30.688,6.924 29.805,8.765 29.052,8.668 C27.394,8.454 23.28,3.965 18.102,4.205 C17.299,4.243 17.743,3.566 20.64,3.25 Z M17.684,4.851 C18.996,4.672 23.582,6.019 24.244,6.445 C29.005,9.366 29.144,9.756 30.188,8.557 C33.29,4.989 22.831,0.921 17.448,3.513 C16.122,4.153 15.879,4.092 15.836,4.562 C15.79,5.059 17.194,4.915 17.684,4.851 Z M32.858,55.387 C31.556,54.908 37.683,52.142 37.883,51.672 C37.961,51.491 38.103,51.362 38.293,51.276 C38.386,51.233 42.059,48.206 43.023,47.214 C45.029,45.155 44.855,44.903 45.703,44.915 C49.325,44.951 34.743,56.079 32.858,55.387 Z M46.732,49.973 C46.179,50.488 38.998,56.808 37.107,58.318 C37.083,58.285 36.087,58.982 36.056,59.005 C35.323,59.498 34.789,59.017 34.986,58.379 C35.213,57.632 35.442,57.566 38.427,55.418 C43.759,51.598 46.963,47.177 47.41,48.49 C47.545,48.891 47.742,49.03 46.732,49.973 Z M42.167,55.459 C41.416,55.931 39.797,57.353 39.966,56.76 C39.994,56.66 46.396,51.034 47.22,50.214 C47.564,49.874 47.79,50.899 48.099,51.096 C49.353,51.902 43.094,54.566 42.167,55.459 Z M47.885,53.308 C47.778,53.991 48.747,53.783 44.789,56.35 C41.518,58.472 39.287,59.844 38.709,59.393 C37.829,58.708 38.509,58.902 38.8,58.507 C39.064,58.149 47.471,52.601 47.898,52.851 C47.988,52.903 47.903,53.197 47.885,53.308 Z M43.268,59.113 C39.949,59.328 43.37,58.05 46.428,55.932 C47.805,54.981 45.389,58.974 43.268,59.113 Z M37.231,53.949 C37.231,53.949 43.945,49.323 45.641,47.201 C45.967,46.793 46.281,46.239 46.688,46.848 C47.487,48.041 35.163,57.202 34.909,57.405 C34.397,57.814 31.521,57.41 37.231,53.949 Z M43.33,45.892 C44.762,44.471 40.346,50.136 34.993,52.905 C33.281,53.791 32.835,54.437 32.59,53.979 C31.807,52.528 32.249,53.014 34.146,51.966 C38.387,49.837 41.252,47.957 43.33,45.892 Z M27.633,34.433 C28.683,33.815 28.137,33.28 29.046,34.522 C29.095,34.591 39.009,48.627 38.948,48.684 C38.173,49.408 38.289,49.199 35.988,45.916 C36.226,46.257 28.217,36.129 28.102,35.855 C27.856,35.275 26.955,34.833 27.633,34.433 Z M21.79,22.636 C27.198,20.438 33.484,26.746 28.514,32.551 C28.184,32.935 20.985,22.964 21.79,22.636 Z M20.896,23.045 C21.097,22.979 21.189,23.142 21.313,23.341 C28.794,35.221 28.738,32.188 27.072,34.113 C27.007,34.187 19.809,24.575 19.75,24.5 C18.872,23.323 18.717,23.772 20.896,23.045 Z M17.983,23.309 C9.043,27.739 11.153,14.067 13.027,16.313 C13.244,16.569 18.283,23.16 17.983,23.309 Z M16.419,20.247 C13.218,15.401 12.635,15.696 13.318,15.247 C16,13.477 15.116,13.707 19.878,21.32 C20.824,23.015 21.023,22.08 18.924,23 C18.768,23.069 18.607,23.084 18.498,22.954 C18.319,22.739 16.845,20.891 16.419,20.247 Z M30.582,51.977 C30.329,51.691 30.004,51.508 30.95,51.247 C32.963,50.685 35.818,48.975 36.032,48.624 C36.709,47.53 30.384,51.723 29.454,50.909 C29.402,50.865 28.79,50.356 28.768,50.335 C28.576,50.127 34.099,47.97 33.863,47.488 C33.727,47.203 31.751,48.499 31.118,48.704 C30.282,48.973 29.975,49.445 28.654,49.606 C27.945,49.693 28.294,49.778 27.342,48.773 C27.208,48.636 27.249,48.452 27.551,48.422 C28.192,48.354 31.532,46.987 31.673,46.496 C31.903,45.696 27.414,48.781 26.548,48.002 C25.811,47.34 25.375,47.035 25.597,46.995 C26.577,46.822 28.73,46.128 29.087,45.734 C29.311,45.484 28.557,45.465 28.193,45.709 C27.716,46.03 26.551,46.287 25.831,46.438 C24.663,46.681 24.7,46.499 23.901,45.879 C23.323,45.435 24.9,45.435 25.443,44.979 C25.493,44.934 25.588,44.947 25.666,44.929 C26.061,44.836 26.066,44.315 25.564,44.524 C21.942,46.048 23.133,44.367 10.643,39.677 C6.946,38.289 6.785,37.334 5.946,36.799 C5.946,36.799 5.568,36.159 4.926,35.406 C1.59,31.505 1.761,31.383 1.133,29.03 C-0.001,24.781 0.494,17.495 3.34,13.08 C7.443,6.716 19.003,0.754 22.892,1.107 C28.849,1.65 36.318,7.553 38.979,11.67 C41.896,16.17 42.334,21.539 41.619,26.853 C40.797,32.976 43.848,40.754 44.779,42.5 C45.379,43.624 44.285,44.546 43.276,45.323 C42.545,45.884 43.069,45.904 39.926,48.042 C39.233,48.512 28.961,33.727 28.842,33.473 C28.701,33.169 28.871,33.079 29.395,32.466 C33.479,27.672 28.385,19.032 21.413,22.057 C21.008,22.232 20.91,22.077 20.345,21.251 C19.595,20.159 17.485,16.627 17.446,16.527 C16.759,14.709 14.992,13.768 17.276,13.873 C19.063,13.957 18.73,13.584 20.51,14.906 C20.837,15.15 21.84,14.708 19.292,13.456 C18.935,13.283 16.827,13.147 15.879,13.52 C15.41,13.705 14.026,10.777 13.874,11.417 C13.766,11.873 14.333,12.429 15.018,13.542 C15.208,13.85 14.721,13.798 13.31,14.582 C12.67,14.939 12.708,15.223 12.475,14.951 C11.728,14.082 11.29,13.359 11.046,13.417 C10.875,13.455 10.874,13.73 10.999,13.836 C11.362,14.134 11.809,15.022 12.154,15.28 C12.337,15.417 12.151,15.582 11.989,15.724 C9.629,17.819 10.118,27.498 17.89,24.055 C19.174,23.481 17.769,23.409 25.598,32.883 C26.015,33.386 25.83,33.557 26.274,34.009 C27.158,34.903 23.691,35.629 23.032,35.661 C19.831,35.815 19.157,35.063 18.233,34.807 C17.952,34.728 17.687,35.019 17.87,35.216 C19.786,37.28 25.419,35.685 25.707,35.627 C27.684,35.213 25.378,33.21 31.113,40.249 C31.29,40.466 35.376,45.717 36.803,47.871 C37.933,49.574 38.55,49.191 36.124,50.349 C34.583,51.088 31.66,53.201 30.582,51.977 Z M45.725,44.331 C44.936,44.188 45.677,43.174 45.153,42.384 C45.153,42.384 44.906,41.445 43.912,39.289 C38.886,28.368 46.085,20.208 38.588,10.41 C35.167,5.936 27.77,0.325 22.422,0.409 C15.032,0.518 5.621,9.516 5.378,9.91 C5.348,9.961 3.794,11.618 3.778,11.633 C0.69,14.722 -1.329,25.561 1.576,31.852 C2.082,32.951 5.4,36.744 5.72,37.22 C8.474,41.318 20.226,41.181 30.066,52.302 C31.241,53.629 31.117,52.224 32.139,54.341 C32.192,54.45 32.294,54.46 32.234,54.611 C31.415,56.703 33.889,55.689 33.281,56.666 C33.082,56.988 33.225,57.598 33.39,57.722 C34.213,58.337 34.1,58.001 34.391,58.147 C34.68,58.293 34.139,59.746 35.127,59.715 C36.709,59.668 36.64,59.761 36.997,59.503 C37.817,58.908 37.867,60.078 38.944,60.0760026 C40.174,60.072 40.274,59.375 41.267,59.591 C46.357,60.699 47.509,55.144 47.734,54.982 C48.89,54.149 48.313,52.424 48.492,52.185 C49.052,51.434 48.746,50.816 48.532,50.624 C48.314,50.433 47.788,49.575 47.969,49.294 C48.598,48.309 47.315,47.801 47.378,47.435 C47.59,46.159 46.572,46.313 46.729,45.661 C46.928,44.824 46.523,44.477 45.725,44.331 L45.725,44.331 Z" id="Fill-3-Copy" fill="#0A1953"></path>
    </g>
</svg>