<?xml version="1.0" encoding="UTF-8"?>
<svg width="94px" height="60px" viewBox="0 0 94 60" version="1.1" xmlns="http://www.w3.org/2000/svg" xmlns:xlink="http://www.w3.org/1999/xlink">
    <title>Fill 8</title>
    <g id="Page-1" stroke="none" stroke-width="1" fill="none" fill-rule="evenodd">
        <g id="43900" transform="translate(-8.000000, -83.000000)" fill="#0A1953">
            <path d="M39.05,111.228 C39.434,111.554 38.789,112.253 38.647,111.554 C38.536,111.027 38.296,110.88 37.825,111.095 C37.036,111.458 35.894,111.398 35.947,111.057 C36.022,110.572 38.317,111.039 37.577,109.834 C37.021,108.93 36.738,108.269 36.355,108.412 C35.365,108.774 32.927,107.499 35.042,105.661 C35.581,105.197 34.745,104.616 34.701,104.275 C34.695,104.223 34.812,104.078 34.905,104.094 C35.092,104.118 35.151,104.4 35.205,104.561 C35.57,105.623 37.252,103.931 37.285,104.843 C37.297,105.077 37.462,105.42 36.974,105.364 C36.411,105.3 36.112,105.582 36.38,106.097 C37.011,107.304 37.1,108.241 37.945,107.896 C39.106,107.416 40.28,107.686 40.503,108.911 C40.764,110.327 38.276,110.571 39.05,111.228 Z M38.03,107.313 C37.68,107.485 37.082,106.095 37.175,105.974 C37.245,105.886 37.404,105.983 37.509,105.952 C38.298,105.728 38.082,105.735 38.006,105.283 C37.874,104.493 38.075,103.899 37.394,103.876 C36.245,103.84 35.992,104.894 35.611,103.507 C35.423,102.825 35.187,103.084 33.842,104.146 C33.644,104.3 33.883,104.463 34.239,105.09 C34.453,105.472 34.239,105.43 34.026,105.767 C33.501,106.609 33.202,106.988 33.935,108.115 C34.283,108.654 34.762,109.02 35.407,109.192 C35.743,109.281 36.178,109.044 36.415,109.473 C36.523,109.673 36.85,109.885 36.734,110.085 C36.641,110.242 36.152,110.129 35.996,110.046 C35.233,109.635 35.35,110.712 35.173,111.237 C35.044,111.624 35.132,111.79 35.549,111.834 C36.161,111.899 36.991,111.872 37.363,111.817 C38.697,111.618 37.832,112.987 38.589,112.579 C40.008,111.811 40.049,111.702 39.868,111.36 C39.667,110.976 39.731,110.756 40.108,110.528 C42.546,109.046 40.226,106.229 38.03,107.313 Z M35.158,107.047 C35.132,106.914 35.215,106.776 35.301,106.774 C35.43,106.769 35.419,107.007 35.487,107.115 C35.62,107.328 35.2,107.253 35.158,107.047 Z M35.419,105.956 C34.795,106.175 33.672,107.628 35.835,107.952 C36.332,108.027 36.665,107.618 36.433,107.191 C35.937,106.274 35.915,105.783 35.419,105.956 Z M38.789,109.497 C38.727,109.273 38.461,108.979 38.624,108.817 C38.799,108.641 39.096,108.712 39.194,109.215 C39.216,109.331 38.855,109.733 38.789,109.497 Z M38.226,108.219 C36.969,108.725 37.657,108.797 37.889,109.303 C37.974,109.495 38.2,110.384 38.403,110.365 C40.362,110.181 40.326,107.374 38.226,108.219 Z M81.856,93.457 C82.323,93.9 81.095,94.279 80.78,94.017 C79.944,93.318 80.722,92.388 81.856,93.457 Z M81.733,94.646 C82.769,94.058 83.071,93.354 82.124,92.633 C81.536,92.186 81.207,92.144 80.399,92.576 C78.785,93.437 80.016,95.624 81.733,94.646 Z M73.323,95.066 C73.55,94.72 74.219,94.303 74.684,94.371 L75.833,94.85 C76.521,96.9 72.7,96.008 73.323,95.066 Z M72.804,96.276 C76.602,97.903 77.355,94.33 76.068,94.03 C75.727,93.952 74.86,93.633 74.325,93.788 C72.267,94.373 72.341,96.077 72.804,96.276 Z M67.219,96.414 C67.794,94.463 67.086,94.037 68.544,93.548 C68.65,93.514 69.397,95.028 69.468,95.139 C70.142,96.18 70.641,96.244 72.143,98.83 C72.686,99.766 73.023,99.839 71.683,100.283 C71.096,100.476 69.127,95.159 68.447,96.49 C68.04,97.293 68.123,97.017 67.421,96.747 C67.257,96.685 67.131,96.711 67.219,96.414 Z M75.783,92.805 C77.895,93.34 79.269,96.602 77.368,97.934 C74.55,99.901 72.365,96.993 71.541,96.395 C70.49,95.631 71.122,91.623 75.783,92.805 Z M82.323,92 C82.678,92.37 85.088,94.342 83.652,95.452 C82.407,96.418 80.228,96.323 79.202,95.088 C76.769,92.163 80.813,90.428 82.323,92 Z M68.523,97.508 C68.729,97.167 68.833,97.479 70.833,100.697 C71.326,101.484 71.215,101.245 73.064,100.31 C73.12,100.279 73.204,100.303 73.256,100.27 C73.835,99.913 73.63,99.966 73.496,99.66 C73.349,99.319 72.491,98.396 73.957,99.086 C75.183,99.661 78.064,99.217 78.883,96.325 C78.898,96.274 79.064,96.208 79.125,96.233 C80.228,96.699 81.519,97.216 82.97,96.525 C84.604,95.749 85.293,94.63 84.365,92.998 C82.496,89.709 78.323,90.365 77.865,92.685 C77.824,92.897 77.709,92.893 77.608,92.758 C77.021,91.938 73.027,90.987 71.274,93.267 C71.156,93.421 70.492,95.007 70.381,94.911 C68.304,93.09 70.406,91.608 67.643,93.333 C66.654,93.954 67.04,94.092 66.808,95.462 C66.574,96.836 66.121,97.25 66.821,97.394 C67.616,97.558 68,98.379 68.523,97.508 Z M71.405,113.353 C71.172,113.376 70.05,113.947 69.322,114.254 C65.728,115.774 65.193,115.738 66.026,116.142 L71.436,113.894 C71.94,113.649 71.656,113.327 71.405,113.353 Z M42.578,109.378 C41.444,113.063 35.359,114.738 32.5,111.563 C30.26,109.078 29.588,104.385 35.345,102.455 C36.054,102.217 36.315,102.425 36.85,102.438 C41.891,102.551 43.393,106.742 42.578,109.378 Z M31.907,112.15 C32.924,113.194 33.221,113.298 34.143,113.567 C35.984,114.1 35.731,114.258 38.266,113.637 C42.739,112.542 45.267,106.847 42.002,103.602 C35.762,97.397 26.254,106.339 31.907,112.15 Z M95.619,113.886 C95.958,113.725 92.119,115.686 89.973,116.499 C90.409,116.335 74.845,122.98 74.828,122.984 C74.507,123.073 74.571,122.447 74.733,122.337 C77.886,120.164 84.069,118.97 83.771,118.064 C83.693,117.831 75.965,121.077 75.472,121.316 C74.248,121.909 74.553,121.963 74.907,116.447 C75.094,113.499 73.157,114.66 86.988,109.407 C87.079,109.373 87.189,109.367 87.288,109.371 C87.5,109.38 87.882,109.074 87.893,108.86 C87.923,108.26 87.215,108.954 84.17,110.083 C79.285,111.895 75.136,113.489 75.136,113.489 C74.24,112.752 80.04,110.699 100.422,102.922 C100.644,102.838 100.822,102.862 100.784,103.174 C100.585,104.833 100.689,105.031 99.959,105.537 C99.454,105.889 99.685,106.284 98.581,106.827 C97.884,107.172 95.233,107.993 93.533,108.618 C93.878,108.49 78.299,114.135 77.774,114.481 C75.142,116.205 88.316,110.722 96.854,107.891 C97.454,107.693 99.811,107.207 100.016,107.349 C100.069,107.388 100.055,108.209 100.048,108.272 C99.974,109.221 82.739,114.802 81.395,115.282 C81.737,115.161 77.811,116.493 76.848,117.087 C74.334,118.649 87.758,113.491 90.946,112.394 C95.137,110.949 93.577,111.664 99.446,109.294 C100.203,108.988 100.382,110.035 99.649,110.359 C86.396,116.221 90.69,114.045 80.469,117.618 C77.195,118.76 78.277,119.067 79.003,118.795 C90.292,114.57 84.591,117.063 93.698,113.528 C98.919,111.503 99.997,109.99 100.226,111.349 C100.376,112.24 100.258,111.681 95.619,113.886 Z M73.552,123.284 C73.552,123.284 73.39,121.769 73.739,117.276 C73.784,116.698 73.291,116.899 73.26,117.194 C72.777,121.915 73.207,124.095 72.673,123.944 C72.477,123.888 72.443,121.108 72.445,120.906 C72.462,118.123 72.425,118.769 72.684,117.824 C72.9,117.03 72.196,117.359 72.143,117.725 C71.934,119.256 72.123,120.94 71.937,123.872 C71.926,124.028 71.944,124.197 71.89,124.335 C71.867,124.392 71.621,124.436 71.587,124.398 C70.998,123.639 71.636,119.271 71.351,118.479 C70.607,116.406 70.839,122.058 70.839,124.12 C70.839,124.575 70.908,124.642 70.595,124.937 C70.553,124.974 70.048,125.211 69.962,125.163 C69.729,125.027 69.99,119.089 69.991,118.82 C69.991,118.649 69.786,118.492 69.648,118.715 C69.438,119.054 69.462,119.216 69.434,121.05 C69.397,123.492 69.719,125.888 68.882,125.762 C68.295,125.674 68.922,119.568 68.952,119.227 C68.982,118.884 68.399,118.231 68.297,120.894 C68.203,123.328 68.255,125.462 68.127,126.079 C68.098,126.218 67.796,126.469 67.589,126.406 C67.512,126.383 67.516,126.264 67.481,126.189 C67.065,125.329 67.427,124.449 67.414,123.578 C67.403,122.862 67.384,122.145 67.412,121.429 C67.429,120.999 67.551,120.574 67.585,120.141 C67.611,119.801 67.131,118.777 66.967,122.319 C66.845,124.964 67.088,127.283 66.421,127.019 C66.002,126.852 66.136,123.557 66.158,123.113 C66.194,122.375 66.276,121.644 66.312,120.908 C66.335,120.442 65.877,120.578 65.849,120.869 C65.788,121.479 65.636,127.314 65.636,127.317 C65.501,127.659 64.805,128.396 64.87,126.303 C65.049,120.833 65.103,122.484 65.165,121.462 C65.186,121.121 64.664,120.701 64.585,122.42 C64.403,126.464 64.555,128.664 63.832,128.295 C63.545,128.152 64.03,122.655 63.937,122.157 C63.871,121.815 63.505,121.935 63.49,122.135 C63.424,123.075 63.269,127.274 63.104,128.47 C63.086,128.624 62.486,129.036 62.327,128.936 C62.134,128.816 62.513,126.841 62.613,125.499 C62.706,124.276 62.756,119.394 63.283,117.055 C63.439,116.365 63.387,116.957 59.288,112.312 C53.318,105.531 51.772,101.878 44.848,96.144 C45.235,96.465 39.349,91.456 39.743,91.387 C44.318,90.582 43.008,90.919 49.513,89.762 C51.601,89.39 51.701,89.17 52.236,89.671 C67.75,104.236 62.281,100.883 68.669,106.882 C70.153,108.275 74.636,112.21 74.6101126,112.555 C74.453,114.764 74.148,122.895 73.93,123.344 C73.835,123.541 73.561,123.49 73.552,123.284 Z M61.927,127.887 C61.621,130.5 62.311,128.585 50.007,135.156 C49.997,135.161 41.001,140.305 39.296,141.377 C38.17,142.084 38.473,141.947 38.342,139.964 C38.286,139.137 38.406,139.155 38.673,139.025 C40.957,137.9 38.739,138.922 42.546,137.166 C45.85,135.643 48.824,134.474 48.834,134.469 C49.361,134.231 48.894,133.917 48.558,134.056 C48.558,134.056 47.54,134.52 44.219,135.968 C42.783,136.596 41.65,137.105 40.124,137.819 C39.353,138.182 37.887,139 37.708,138.052 C37.511,137.02 37.859,137.536 54.59,129.745 C55.054,129.529 55.532,129.339 55.996,129.125 C56.345,128.966 56.404,128.475 56.044,128.605 C56.044,128.605 39.729,135.953 39.727,135.953 C38.451,136.527 38.598,136.35 37.885,136.812 C37.65,136.963 37.525,136.859 37.516,136.625 C37.438,135.125 37.075,135.171 40.321,133.632 C47.572,130.195 44.762,131.642 50.271,129.399 C50.269,129.399 57.599,126.584 57.599,126.584 L61.648,124.974 C62.413,124.659 62.233,125.244 61.927,127.887 Z M37.757,141.202 C37.663,141.338 36.562,140.272 36.423,140.151 C34.477,138.474 34.051,138.363 29.97,133.746 C27.322,130.753 28.789,132.079 24.46,127.012 C24.46,127.012 20.338,122.417 20.189,122.26 C20.189,122.26 17.976,119.994 15.243,117.619 C13.443,116.056 14.722,117.414 11.658,114.363 C10.4,113.112 9.682,112.94 9.82,111.796 C9.891,111.198 9.788,110.366 9.747,109.363 C9.717,108.707 11.935,111.193 12.466,111.728 C12.069,111.326 16.668,115.671 20.216,119.467 C20.207,119.455 21.148,120.526 28.287,128.036 C32.905,132.897 31.453,131.733 32.866,132.692 C32.976,132.766 33.171,132.642 33.015,132.498 C31.758,131.316 32.123,131.751 31.054,130.561 C29.486,128.816 20.84,119.733 20.512,119.387 C20.187,119.046 16.819,115.449 14.954,113.629 C14.25,112.94 14.25,113.136 12.675,111.541 C10.706,109.547 10.077,108.693 10.077,108.693 C9.77,108.403 9.605,108.248 9.659,107.493 C9.68,107.17 9.549,106.513 9.585,106.177 C9.607,105.927 9.658,106.052 9.741,106.132 C9.741,106.132 13.88,110.705 13.88,110.707 C16.122,113.171 19.702,116.889 20.046,117.233 C22.253,119.44 19.873,116.937 26.746,123.986 C26.72,123.962 28.173,125.527 30.683,127.857 C31.545,128.66 33.703,130.912 34.597,131.729 C35.056,132.147 36.597,133.357 37.158,133.7 C38.093,134.267 38.855,133.537 37.299,134.981 C36.959,135.294 36.65,135.331 36.805,135.844 C36.957,136.341 37.082,137.724 37.297,138.985 C37.312,139.077 37.717,139.178 37.717,139.178 C37.65,139.896 38.553,141.345 33.02,134.874 L29.929,131.372 C29.929,131.372 25.294,126.436 25.294,126.434 C25.092,126.241 24.396,126.237 24.709,126.535 C27.073,128.782 24.56,126.261 27.324,129.134 C31.068,133.021 34.475,137.398 35.919,138.754 C36.972,139.745 38.153,140.631 37.757,141.202 Z M10.468,104.956 C10.478,104.944 13.272,107.818 13.279,107.828 C15.438,110.302 18.949,114.186 19.997,115.319 C21.831,117.306 21.04,116.776 23.685,119.067 C23.917,119.266 24.082,118.875 23.969,118.73 C23.963,118.724 20.709,115.471 19.011,113.612 C19.011,113.612 16.993,111.434 12.209,106.001 C10.911,104.525 11.22,104.891 11.207,104.443 C11.194,103.989 9.827,102.35 9.63,102.285 C9.138,102.125 9.304,101.878 9.214,100.844 C9.201,100.688 9.209,100.606 9.362,100.755 C10.011,101.384 11.43,102.798 12.053,103.454 C12.053,103.454 15.668,107.502 16.332,108.287 C16.209,108.144 18.587,111.295 19.071,111.855 C20.654,113.682 22.068,115.42 26.956,120.439 C30.724,124.308 27.863,121.823 30.972,124.678 C33.873,127.336 35.521,128.651 35.996,129.947 C37.026,132.761 35.821,132.346 37.899,132.254 C38.196,132.24 38.154,132.342 38.032,132.519 C37.391,133.452 38.117,134.936 24.909,121.393 C25.154,121.646 21.279,117.975 17.973,114.483 C16.679,113.115 12.215,108.423 11.671,107.77 C11.071,107.052 10.53,106.284 10.01,105.506 C9.967,105.446 10.364,105.056 10.468,104.956 Z M9.209,99.392 C9.239,99.381 9.272,99.418 9.296,99.439 C12.247,102.257 10.306,100.374 11.631,101.538 C14.699,104.234 14.624,104.137 14.624,104.137 C14.624,104.137 18.564,108.097 18.564,108.1 C21.384,110.94 21.187,111.566 22.251,112.912 C23.969,115.087 23.139,113.91 28.157,119.382 C29.972,121.365 33.258,125.691 33.604,126.149 C35.1,128.118 25.182,117.995 21.452,113.725 C17.452,109.141 17.498,108.879 15.526,106.596 C11.792,102.267 9.671,100.245 9.35,99.901 C9.226,99.769 9.062,99.449 9.209,99.392 Z M59.391,120.76 C59.777,120.584 47.572,126.184 37.175,129.391 C36.67,129.548 36.395,129.302 36.389971,128.809 C36.386,128.251 36.796,128.237 37.098,128.167 C37.879,127.987 57.156,119.91 57.501,119.758 C59.896,118.704 62.641,117.036 62.609,117.554 C62.467,120.12 62.977,119.134 59.391,120.76 Z M62.327,121.431 C62.277,121.999 61.81,121.955 61.266,122.187 C61.266,122.187 58.228,123.637 52.519,126.043 L38.881,131.54 C38.479,131.741 37.098,131.869 36.972,131.432 C36.846,131.006 36.585,130.178 36.93,130.06 C45.197,127.141 41.917,128.826 55.53,122.775 C55.119,122.955 61.419,120.265 62.294,120.058 C62.345,120.045 62.463,120.248 62.48,120.295 C62.668,120.954 62.38,120.865 62.327,121.431 Z M43.557,131.601 C43.557,131.601 42.01,132.316 39.036,133.645 C38.747,133.775 38.286,133.437 37.993,133.308 C37.847,133.241 38.35,132.287 41.122,131.199 C43.814,130.14 54.891,125.309 58.06,124.044 C58.134,124.015 62.21,122.348 62.283,122.384 C62.398,122.442 62.29,123.872 62.279,124 C62.233,124.522 54.595,127.231 54.254,127.357 C54.973,127.09 43.926,131.443 43.557,131.601 Z M46.708,97.985 C48.56,99.533 55.489,107.997 55.148,107.984015 C52.274,107.882 51.098,108.068 49.036,106.54 C44.271,103.006 44.211,102.365 44.63,99.955 C44.915,98.305 46.074,97.455 46.708,97.985 Z M45.651,97.421 C44.962,97.861 44.401,98.377 44.253,99.244 C43.96,100.949 43.378,101.647 44.315,103.276 C45.316,105.014 47.198,106.459 48.772,107.34 C50.53,108.325 51.439,108.979 55.472,108.742 C56.247,108.697 56.003,109.006 57.357,110.679 L59.791,113.485 C60.894,114.76 61.254,114.946 60.873,115.136 C55.125,118.004 44.762,121.639 44.424,121.784 C41.029,123.242 41.058,123.541 40.884,122.97 C40.429,121.462 39.416,120.688 36.054,120.238 C29.805,119.4 35.613,124.447 25.017,110.493 L19.351,103.91 C19.133,103.642 19.919,103.281 21.068,101.533 C21.715,100.549 21.912,99.416 22.353,98.368 C22.949,96.938 21.433,98.233 27.234,96.903 C43.779,93.11 40.199,92.597 43.43,95.433 C45.122,96.918 44.853,96.594 45.636,97.199 C45.759,97.291 45.745,97.362 45.651,97.421 Z M12.236,97.802 L25.331,94.682 C40.613,90.925 38.427,91.128 40.602,92.969 C41.133,93.421 22.442,97.318 22.098,97.388 C21.951,97.418 21.809,97.824 21.899,98.137 C22.034,98.607 21.56,99.529 21.283,100.179 C20.197,102.709 19.61,102.718 18.99,103.25 C18.106,104.012 19.52,104.677 21.858,107.374 C21.852,107.365 23.5,108.966 27.033,114.092 C28.083,115.609 31.698,120.34 31.967,120.681 C32.941,121.918 32.292,120.35 36.68,121.017 C40.253,121.558 40.303,123.393 40.586,124.08 C40.752,124.482 41.477,123.773 43.22,123.006 L47.889,121.14 C55.908,118.038 61.45,115.621 61.45,115.621 C61.836,115.604 62.25,116.176 62.736,116.769 C62.896,116.96 61.72,117.491 61.486,117.561 C61.486,117.561 39.106,127.203 38.667,127.351 C34.684,128.697 37.137,129.136 28.046,118.685 C27.394,117.934 22.241,112.358 22.189,112.285 C21.942,111.946 20.579,109.4 18.313,107.229 C13.095,102.221 16.846,105.555 12.439,101.63 C11.557,100.844 10.632,100.179 9.511,98.83 C8.965,98.177 9.715,98.375 12.236,97.802 Z M66.326,103.231 C66.187,103.981 66.258,103.698 63.225,99.968 C60.898,97.097 62.24,99.026 58.415,94.943 C58.097,94.601 61.035,93.985 64.088,97.138 C65.877,98.986 66.583,101.862 66.326,103.231 Z M66.459,99.263 C65.717,97.1 64.017,95.635 61.983,94.519 C60.175,93.529 58.626,94.103 57.824,94.208 C57.485,94.252 54.154,91.282 54.75,91.019 C57.746,89.704 60.232,89.458 69.71,87.486 C70.196,87.436 74.269,86.267 74.723,86.618 C75.42,87.162 77.147,89.229 80.247,88.265 C82.458,87.578 80.534,86.16 89.527,96.256 C90.789,97.675 89.4,96.41 93.023,99.256 C93.083,99.307 93.097,99.502 93.053,99.59 C92.003,101.674 92.427,101.956 93.062,103.199 C93.148,103.363 78.411,107.904 78.23,107.96 C74.687,109.086 73.218,109.768 73.218,109.768 C72.481,109.785 74.273,111.844 67.741,105.255 C65.644,103.143 68.233,104.428 66.459,99.263 Z M52.647,89.073 C66.689,86.028 73.256,85.173 73.464,85.133 C73.466,85.133 76.354,84.514 79.61,83.854 C80.758,83.623 80.752,84.115 81.342,84.59 L85.678,88.655 C89.33,92.127 91.908,96.231 98.655,100.945 C102.238,103.454 102.437,101.368 85.674,108.343 C85.674,108.343 85.849,108.266 82.369,109.461 C82.369,109.461 76.955,111.679 75.892,112.164 C75.294,112.439 75.232,112.197 73.341,110.635 C72.41,109.872 94.412,104.007 94.383,103.666 C94.368,103.483 94.326,103.193 94.222,103.155 C93.785,103.006 93.026,101.611 93.174,100.826 C93.573,98.744 94.499,99.515 93.309,98.734 C89.166,96.017 87.308,92.805 84.834,90.159 C83.832,89.086 83.247,88.992 82.395,87.158 C82.099,86.517 81.511,87.259 80.989,87.449 C78.904,88.209 76.902,87.856 75.317,85.808 C75.081,85.505 73.42,86.022 73.08,86.196 C73.08,86.196 59.362,88.95 59.062,89.031 C57.905,89.346 57.782,89.442 54.52,90.452 C54.181,90.556 54.284,90.959 53.626,90.272 C53.063,89.687 52.299,89.148 52.647,89.073 Z M100.494,108.521 C100.469,107.842 100.795,106.874 100.336,106.779 C100.135,106.737 99.849,106.974 99.608,106.769 C99.545,106.716 99.556,106.59 99.577,106.546 C99.947,105.793 100.981,105.565 101,104.962 C101.16,99.846 104.031,105.371 94.15,96.998 C94.15,96.998 87.616,90.039 81.608,84.292 C80.276,83.017 81.517,82.991 74.962,84.4 C74.962,84.4 68.395,85.48 58.787,87.378 C55.119,88.102 50.172,89.168 49.984,89.205 C44.706,90.227 40.543,90.58 33.251,92.319 C22.906,94.78 28.606,93.685 22.332,94.975 L12.818,97.22 C12.427,97.316 10.367,97.802 9.717,97.914 C8.886,98.056 8.398,97.337 8.546,98.672 C8.667,99.738 8.836,99.5 8.746,101.155 C8.696,102.04 8.451,102.529 8.982,102.709 C9.708,102.956 11.025,104.581 9.369,104.926 C8.751,105.056 8.84,105.187 9.151,106.343 C9.442,107.424 9.045,107.265 9.402,108.757 C9.529,109.271 9.254,109.052 9.309,109.386 C9.339,109.586 9.464,109.771 9.487,109.97 C9.494,110.015 9.423,111.788 9.358,111.857 C9.136,112.097 9.207,112.821 9.468,113.016 C9.808,113.273 10.15,113.528 10.475,113.8 C10.436,113.765 12.673,115.97 14.791,117.779 C15.131,118.07 18.233,120.76 19.432,122.077 C26.562,129.919 21.084,123.586 27.557,131.375 C27.84,131.715 32.109,136.948 34.136,138.857 C33.743,138.487 38.091,142.405 38.553,142.186 C39.133,141.915 41.279,140.462 42.933,139.499 C42.591,139.698 49.804,135.538 52.199,134.409 C55.953,132.631 53.918,133.529 59.955,130.534 C59.955,130.534 60.815,130.239 66.618,127.317 C68.972,126.131 70.212,125.571 73.292,124.132 C73.292,124.132 79.064,121.454 87.76,117.864 C92.96,115.717 94.846,114.616 96.767,113.782 C100.769,112.05 101.37,112.35 100.987,111.641 C100.706,111.118 100.581,111.011 100.494,108.521 L100.494,108.521 Z" id="Fill-8"></path>
        </g>
    </g>
</svg>