<?xml version="1.0" encoding="UTF-8"?>
<svg width="165px" height="165px" viewBox="0 0 165 165" version="1.1" xmlns="http://www.w3.org/2000/svg" xmlns:xlink="http://www.w3.org/1999/xlink">
    <title>Group 25</title>
    <g id="Page-1" stroke="none" stroke-width="1" fill="none" fill-rule="evenodd">
        <g id="Group-25">
            <circle id="Oval" fill="#3196EC" cx="82.5" cy="82.5" r="82.5"></circle>
            <g id="Group" transform="translate(44.000000, 44.000000)" fill="#FFFFFF" fill-rule="nonzero">
                <path d="M77.5,39 C77.5,34.107 67.936,29.392 54.084,27.376 C54.475,31.135 54.673,35.039 54.673,39 C54.673,42.96 54.475,46.864 54.084,50.623 C67.936,48.607 77.5,43.895 77.5,39 Z" id="Path"></path>
                <path d="M26.984,26.984 C26.548,30.872 26.327,34.91 26.327,39 C26.327,43.089 26.548,47.127 26.984,51.016 C34.766,51.889 43.231,51.889 51.016,51.016 C51.453,47.123 51.673,43.085 51.673,39 C51.673,34.914 51.452,30.875 51.016,26.984 C43.238,26.112 34.761,26.112 26.984,26.984 Z" id="Path"></path>
                <path d="M76.932,32.422 C74.176,16.399 61.602,3.825 45.578,1.069 C49.344,5.481 52.288,13.786 53.717,24.283 C64.213,25.71 72.518,28.654 76.932,32.422 Z" id="Path"></path>
                <path d="M50.623,23.915 C48.607,10.064 43.895,0.5 39,0.5 C34.106,0.5 29.392,10.064 27.376,23.916 C34.877,23.134 43.109,23.135 50.623,23.915 Z" id="Path"></path>
                <path d="M27.376,54.084 C29.392,67.936 34.106,77.5 39,77.5 C43.895,77.5 48.607,67.936 50.623,54.084 C43.104,54.865 34.893,54.865 27.376,54.084 Z" id="Path"></path>
                <path d="M1.069,45.578 C3.825,61.601 16.399,74.176 32.422,76.932 C28.654,72.518 25.71,64.213 24.283,53.717 C13.787,52.288 5.482,49.344 1.069,45.578 Z" id="Path"></path>
                <path d="M45.578,76.932 C61.601,74.176 74.176,61.602 76.932,45.578 C72.52,49.344 64.213,52.288 53.717,53.717 C52.288,64.213 49.344,72.52 45.578,76.932 Z" id="Path"></path>
                <path d="M23.914,50.623 C23.524,46.871 23.326,42.968 23.326,39 C23.326,35.039 23.524,31.135 23.915,27.376 C10.063,29.392 0.5,34.106 0.5,39 C0.5,43.895 10.063,48.607 23.914,50.623 Z" id="Path"></path>
                <path d="M32.422,1.07 C16.398,3.825 3.825,16.398 1.069,32.423 C5.481,28.655 13.786,25.711 24.283,24.284 C25.71,13.787 28.654,5.482 32.422,1.07 Z" id="Path"></path>
            </g>
        </g>
    </g>
</svg>