<?xml version="1.0" encoding="UTF-8"?>
<svg width="24px" height="24px" viewBox="0 0 24 24" version="1.1" xmlns="http://www.w3.org/2000/svg" xmlns:xlink="http://www.w3.org/1999/xlink">
    <title>icon-instagram</title>
    <g id="Page-1" stroke="none" stroke-width="1" fill="none" fill-rule="evenodd">
        <g id="icon-instagram" fill="#142568" fill-rule="nonzero">
            <path d="M12,2 C15.256976,2 15.642733,2.01239536 16.9289446,2.0710796 C18.1182207,2.12535768 18.7640864,2.32407072 19.1939534,2.49106904 C19.7632681,2.71234544 20.1696518,2.97671512 20.5964683,3.40353168 C21.0232848,3.83034824 21.2876546,4.23673192 21.5088825,4.80604664 C21.6759293,5.2359136 21.8746422,5.88177928 21.9289204,7.07100696 C21.9876046,8.35726704 22,8.743024 22,12 C22,15.256976 21.9876046,15.642733 21.9289204,16.9289446 C21.8746422,18.1182207 21.6759293,18.7640864 21.5088825,19.1939534 C21.2876546,19.7632681 21.0232848,20.1696518 20.5964683,20.5964683 C20.1696518,21.0232848 19.7632681,21.2876546 19.1939534,21.5088825 C18.7640864,21.6759293 18.1182207,21.8746424 16.9289446,21.9289204 C15.6429266,21.9876046 15.2571698,22 12,22 C8.74283032,22 8.35707336,21.9876046 7.07105536,21.9289204 C5.88177928,21.8746424 5.2359136,21.6759293 4.80609504,21.5088825 C4.23673192,21.2876546 3.83034824,21.0232848 3.40353168,20.5964683 C2.97671512,20.1696518 2.71234544,19.7632681 2.49111744,19.1939534 C2.32407072,18.7640864 2.12535768,18.1182207 2.0710796,16.928993 C2.01239536,15.642733 2,15.256976 2,12 C2,8.743024 2.01239536,8.35726704 2.0710796,7.07105544 C2.12535768,5.88177928 2.32407072,5.2359136 2.49111744,4.80604664 C2.71234544,4.23673192 2.97671512,3.83034824 3.40353168,3.40353168 C3.83034824,2.97671512 4.23673192,2.71234544 4.80609504,2.49106904 C5.2359136,2.32407072 5.88177928,2.12535768 7.07100696,2.0710796 C8.35726704,2.01239536 8.743024,2 12,2 L12,2 Z M11.9999762,0 C8.74094808,0 8.33234296,0.01381388 7.05241536,0.072213256 C5.7751076,0.130517368 4.90283248,0.333343256 4.1394964,0.63000828 C3.35039032,0.93667648 2.6811792,1.3469964 2.01406392,2.0141116 C1.34694872,2.6812268 0.9366288,3.35043792 0.62996064,4.139544 C0.333295624,4.90288008 0.130469728,5.77515528 0.072165624,7.05246296 C0.013766248,8.33234296 0,8.74099568 0,12.0000238 C0,15.259052 0.013766248,15.6677046 0.072165624,16.9475846 C0.130469728,18.2248924 0.333295624,19.0971676 0.62996064,19.8605036 C0.9366288,20.649562 1.34694872,21.3188208 2.01406392,21.985936 C2.6811792,22.6530513 3.35039032,23.0633712 4.1394964,23.3700394 C4.90283248,23.6667044 5.7751076,23.8695303 7.05241536,23.9278343 C8.33234296,23.9862338 8.74094808,24 11.9999762,24 C15.2590043,24 15.667657,23.9862338 16.947537,23.9278343 C18.2248447,23.8695303 19.09712,23.6667044 19.860456,23.3700394 C20.649562,23.0633712 21.3187731,22.6530513 21.9858884,21.985936 C22.6530037,21.3188208 23.0633236,20.6496097 23.3699918,19.8605036 C23.6666568,19.0971676 23.8694826,18.2248924 23.9277867,16.9475846 C23.9861862,15.6677046 24,15.259052 24,12.0000238 C24,8.74099568 23.9861862,8.33234296 23.9277867,7.05246296 C23.8694826,5.77515528 23.6666568,4.90288008 23.3699918,4.139544 C23.0633236,3.35043792 22.6530037,2.6812268 21.9858884,2.0141116 C21.3187731,1.3469964 20.649562,0.93667648 19.860456,0.63000828 C19.09712,0.333343256 18.2248447,0.130517368 16.947537,0.072213256 C15.667657,0.01381388 15.2590043,0 11.9999762,0 Z M12,6 C8.68630616,6 6,8.68630616 6,12 C6,15.3136938 8.68630616,18 12,18 C15.3136938,18 18,15.3136938 18,12 C18,8.68630616 15.3136938,6 12,6 Z M12,16 C9.79088768,16 8,14.2091123 8,12 C8,9.79088768 9.79088768,8 12,8 C14.2091123,8 16,9.79088768 16,12 C16,14.2091123 14.2091123,16 12,16 Z M20,5.33331128 C20,6.06969784 19.4030752,6.66666664 18.6666886,6.66666664 C17.9303022,6.66666664 17.3333334,6.06969784 17.3333334,5.33331128 C17.3333334,4.59692472 17.9303022,4 18.6666886,4 C19.4030752,4 20,4.59692472 20,5.33331128 Z" id="Shape"></path>
        </g>
    </g>
</svg>