<?xml version="1.0" encoding="UTF-8"?>
<svg width="226px" height="225px" viewBox="0 0 226 225" version="1.1" xmlns="http://www.w3.org/2000/svg" xmlns:xlink="http://www.w3.org/1999/xlink">
    <title>Group 45</title>
    <g id="Page-1" stroke="none" stroke-width="1" fill="none" fill-rule="evenodd">
        <g id="Group-45" transform="translate(112.989592, 112.090097) rotate(-45.000000) translate(-112.989592, -112.090097) translate(47.989592, 18.590097)" fill="#2C7FC9">
            <path d="M28.6659305,103.555607 C27.5259305,100.333607 30.1259305,96.0646068 31.1859305,93.0416068 C32.5859305,89.0456068 34.2159305,85.1486068 35.9859305,81.2996068 C39.6059305,73.4046068 43.5359305,65.5816068 48.3159305,58.3206068 C57.5659305,44.2896068 69.1059305,32.6536068 81.0459305,20.9786068 C86.4259305,15.7206068 91.8559305,10.3756068 97.6159305,5.52560685 C98.4959305,4.78360685 100.97593,2.50960685 101.56593,2.52160685 C103.27593,2.55560685 102.75593,2.67660685 103.09593,4.13860685 C103.38593,5.36560685 103.12593,7.14760685 103.17593,8.39060685 C103.32593,12.6236068 103.63593,16.8466068 103.73593,21.0826068 C104.17593,38.5066068 102.21593,55.8936068 99.4859305,73.0806068 C98.0659305,81.9566068 96.2659305,90.3846068 94.0559305,99.0966068 C91.7859305,108.051607 90.7159305,117.276607 88.5459305,126.282607 C88.2959305,127.323607 91.1559305,126.897607 91.3959305,125.925607 C93.5659305,116.918607 94.6359305,107.697607 96.9059305,98.7396068 C99.1859305,89.7166068 101.00593,80.9686068 102.47593,71.7776068 C105.49593,52.9266068 107.27593,33.9136068 106.38593,14.8186068 C106.29593,12.7196068 106.13593,10.6226068 106.05593,8.52260685 C105.97593,6.54860685 106.45593,3.95660685 105.94593,2.01660685 C105.53593,0.498606847 105.12593,-0.0633931532 103.43593,0.00560684679 C101.25593,0.0926068468 99.0259305,2.16660685 97.4059305,3.39460685 C93.7159305,6.19560685 90.4159305,9.53760685 87.0159305,12.6766068 C73.7559305,24.9056068 60.8859305,37.3276068 50.1359305,51.8786068 C43.9059305,60.3116068 38.9059305,69.4136068 34.4259305,78.8796068 C32.3059305,83.3636068 30.2959305,87.9036068 28.6259305,92.5766068 C27.4059305,96.0036068 24.5459305,100.697607 25.8159305,104.317607 C26.1659305,105.309607 28.9959305,104.492607 28.6659305,103.555607" id="Fill-91"></path>
            <path d="M25.4459305,105.278607 C33.0859305,106.953607 39.6459305,110.655607 46.8259305,113.747607 C54.0259305,116.845607 61.2259305,119.935607 68.3959305,123.100607 C73.7559305,125.466607 80.1859305,130.709607 86.2259305,130.853607 C89.3659305,130.929607 89.8559305,129.281607 90.4659305,126.493607 C90.6959305,125.433607 87.8259305,125.877607 87.6159305,126.850607 C86.9159305,130.108607 85.6959305,129.116607 82.6459305,127.724607 C80.1159305,126.573607 77.7559305,125.036607 75.2559305,123.827607 C69.7159305,121.155607 63.9959305,118.863607 58.3559305,116.414607 C48.1259305,111.970607 38.0459305,106.113607 27.1859305,103.732607 C26.2759305,103.533607 23.8359305,104.926607 25.4459305,105.278607" id="Fill-92"></path>
            <path d="M58.6059305,39.9786068 C58.5259305,40.1766068 58.4359305,40.3736068 58.3459305,40.5726068 C59.1159305,40.2556068 59.8759305,39.9376068 60.6459305,39.6206068 C53.8659305,38.8746068 47.0659305,37.6446068 40.2859305,39.3986068 C34.0659305,41.0056068 28.5159305,44.4556068 24.0459305,49.0316068 C18.6659305,54.5386068 14.3959305,61.3976068 10.4359305,67.9616068 C6.62593046,74.2806068 1.36593046,81.7856068 0.935930455,89.3616068 C0.925930455,89.5966068 0.995930455,89.7686068 1.22593046,89.8716068 C5.02593046,91.5716068 9.18593046,90.6986068 13.2159305,90.6276068 C15.3759305,90.5896068 17.5159305,90.5716068 19.6659305,90.4136068 C23.0059305,90.1686068 26.3959305,88.8776068 29.7059305,88.8516068 C30.7759305,88.8436068 32.7259305,87.2236068 30.8159305,87.2386068 C26.5059305,87.2716068 22.4659305,88.7696068 18.1359305,88.9456068 C14.9159305,89.0766068 11.2759305,89.5476068 8.05593046,89.3116068 C4.33593046,89.0386068 3.56593046,87.7036068 4.54593046,84.4726068 C5.29593046,81.9936068 6.59593046,79.7196068 7.81593046,77.4516068 C9.79593046,73.7696068 11.7859305,70.1006068 13.9859305,66.5466068 C18.3459305,59.5066068 23.0259305,51.8416068 29.5159305,46.5686068 C38.4559305,39.3086068 48.1659305,39.9836068 58.8959305,41.1666068 C59.7159305,41.2556068 60.8359305,41.0486068 61.1959305,40.2156068 C61.2859305,40.0166068 61.3659305,39.8196068 61.4559305,39.6206068 C61.8359305,38.7456068 59.0159305,39.0496068 58.6059305,39.9786068" id="Fill-93"></path>
            <path d="M103.27593,55.7926068 C111.22593,62.5196068 119.04593,70.6896068 123.22593,80.3466068 C127.44593,90.1176068 126.14593,100.799607 124.94593,111.094607 C124.37593,116.031607 123.36593,120.593607 122.04593,125.389607 C121.78593,126.367607 121.54593,130.152607 120.82593,131.014607 C118.78593,133.464607 115.84593,129.815607 114.39593,128.641607 C106.67593,122.388607 99.4459305,115.677607 94.1059305,107.231607 C93.5959305,106.438607 90.8359305,107.354607 91.4559305,108.345607 C94.7659305,113.567607 98.7559305,118.193607 103.25593,122.424607 C107.23593,126.175607 111.66593,130.656607 116.28593,133.600607 C123.92593,138.467607 124.91593,125.164607 126.07593,120.860607 C127.68593,114.937607 128.45593,108.479607 128.81593,102.361607 C129.15593,96.5716068 129.53593,89.7846068 127.86593,84.1996068 C124.32593,72.3396068 115.14593,62.4926068 105.91593,54.6796068 C105.15593,54.0326068 102.49593,55.1376068 103.27593,55.7926068" id="Fill-94"></path>
            <path d="M88.8259305,43.4586068 C84.5859305,38.7606068 75.8759305,40.8016068 71.3559305,44.1076068 C64.4159305,49.1756068 66.8359305,58.6096068 73.2459305,62.9016068 C79.1259305,66.8406068 86.9559305,67.9406068 90.3159305,60.2846068 C91.8859305,56.7216068 92.2759305,52.6456068 91.2959305,48.8986068 C90.7159305,46.6246068 89.8859305,42.5696068 87.4959305,41.4716068 C86.6659305,41.0866068 84.0559305,42.3086068 85.2359305,42.8486068 C87.8659305,44.0566068 89.1459305,51.4516068 89.0159305,53.9186068 C88.9159305,56.0516068 88.4059305,58.3396068 87.5759305,60.2956068 C87.3459305,60.9976068 87.0059305,61.6426068 86.5559305,62.2306068 C84.4559305,62.8316068 82.3559305,63.4316068 80.2559305,64.0326068 C79.3159305,63.9246068 77.9659305,62.9316068 77.1659305,62.4876068 C72.9159305,60.1406068 69.2159305,55.6986068 70.0059305,50.5246068 C70.9959305,44.0696068 81.3059305,39.1656068 86.1859305,44.5726068 C86.8459305,45.3036068 89.5559305,44.2736068 88.8259305,43.4586068" id="Fill-95"></path>
            <path d="M76.9659305,80.3256068 C74.9059305,75.6826068 65.3859305,75.4926068 61.3759305,77.1766068 C58.1059305,78.5476068 54.7559305,81.5856068 53.4359305,84.9066068 C51.6459305,89.4156068 55.2059305,93.6376068 58.3259305,96.6696068 C63.2959305,101.503607 71.9959305,105.012607 77.1459305,98.5386068 C79.9159305,95.0516068 80.2859305,91.0206068 79.0859305,86.9706068 C78.2059305,84.0186068 77.7959305,80.0886068 74.6059305,78.7326068 C73.7559305,78.3716068 71.1659305,79.6086068 72.3459305,80.1086068 C75.2259305,81.3366068 77.3759305,89.0496068 77.1159305,91.9376068 C77.0359305,92.8686068 76.6259305,93.9626068 76.3259305,94.8466068 C75.2359305,97.9716068 75.0459305,97.9576068 71.4259305,99.0106068 C67.9459305,100.025607 67.7659305,100.077607 65.0959305,98.5226068 C63.6259305,97.6626068 62.2059305,96.7446068 60.9659305,95.5556068 C59.3559305,94.0046068 58.0059305,92.1226068 56.8559305,90.2056068 C54.6559305,86.5556068 56.4959305,83.0266068 59.4859305,80.3816068 C62.2759305,77.9136068 71.9459305,76.2026068 74.1159305,81.0886068 C74.5559305,82.0726068 77.3459305,81.1956068 76.9659305,80.3256068" id="Fill-96"></path>
            <path d="M40.1659305,110.488607 C37.6459305,114.499607 34.8759305,118.169607 31.7859305,121.743607 C30.3859305,123.360607 25.4159305,128.473607 26.1259305,130.995607 C26.7259305,133.140607 31.3059305,133.464607 33.0159305,133.996607 C38.7859305,135.801607 44.4959305,137.819607 50.2459305,139.686607 C54.7459305,141.143607 59.0659305,142.978607 63.5159305,144.496607 C64.9959305,145.000607 66.7359305,145.786607 68.1359305,144.721607 C70.3059305,143.068607 70.0159305,137.806607 70.2959305,135.508607 C70.8159305,131.077607 71.7759305,126.677607 71.2459305,122.203607 C71.1359305,121.231607 68.5259305,121.962607 68.4059305,122.763607 C68.3859305,122.849607 68.3759305,122.935607 68.3559305,123.022607 C68.1859305,124.125607 71.0559305,123.637607 71.2059305,122.666607 C71.2159305,122.579607 71.2359305,122.492607 71.2459305,122.405607 C70.2959305,122.592607 69.3459305,122.779607 68.4059305,122.966607 C68.8759305,127.036607 68.0559305,130.977607 67.5459305,134.995607 C67.3259305,136.732607 67.2259305,138.485607 66.9459305,140.216607 C66.9459305,140.213607 65.5759305,144.660607 67.1859305,143.407607 C66.3759305,144.040607 59.0459305,140.436607 57.6359305,139.971607 C53.6559305,138.661607 49.6559305,137.418607 45.6959305,136.062607 C42.2159305,134.871607 38.7259305,133.714607 35.2359305,132.566607 C34.0959305,132.192607 31.8159305,131.812607 30.7859305,131.104607 C29.8459305,131.253607 29.4759305,130.842607 29.6859305,129.870607 C29.3459305,129.072607 29.5059305,128.376607 30.1559305,127.782607 C31.3759305,124.591607 34.3659305,122.001607 36.4959305,119.443607 C38.8359305,116.641607 40.8759305,113.637607 42.8159305,110.548607 C43.5059305,109.434607 40.6559305,109.693607 40.1659305,110.488607" id="Fill-97"></path>
            <path d="M40.4059305,142.136607 C32.4959305,138.943607 22.9159305,149.929607 20.0959305,156.128607 C19.8259305,156.739607 21.0959305,156.758607 21.3259305,156.736607 C22.5859305,156.621607 23.0359305,156.365607 24.2459305,155.974607 C23.8359305,156.107607 29.3659305,154.306607 29.7359305,154.620607 C31.2959305,155.923607 27.6059305,164.880607 27.3059305,166.719607 C26.7159305,170.310607 27.2859305,173.545607 27.8259305,177.103607 C28.1059305,179.007607 28.1559305,184.766607 29.7459305,186.179607 C32.4759305,188.607607 36.0659305,182.781607 37.1859305,181.533607 C39.7859305,178.614607 42.6359305,175.584607 44.9859305,172.478607 C47.1059305,169.682607 48.1459305,166.529607 49.5959305,163.396607 C48.7459305,163.685607 47.8959305,163.974607 47.0459305,164.263607 C50.8059305,165.631607 49.4059305,171.326607 52.4059305,172.865607 C53.0459305,173.191607 54.1959305,172.889607 54.6859305,172.410607 C56.9059305,170.217607 57.1159305,165.723607 56.8259305,162.809607 C56.2259305,156.981607 53.5459305,150.603607 49.0459305,146.755607 C46.9759305,144.986607 42.8159305,141.351607 39.9159305,142.088607 C36.6159305,142.921607 34.9759305,148.544607 34.7059305,151.345607 C34.6459305,151.963607 35.5059305,152.025607 35.9359305,151.953607 C38.4359305,151.539607 40.4359305,150.429607 42.6559305,149.167607 C41.8859305,149.086607 41.1159305,149.005607 40.3459305,148.924607 C40.2859305,154.224607 34.6259305,158.415607 34.0559305,163.903607 C34.0359305,164.173607 34.1359305,164.269607 34.3459305,164.413607 C40.7759305,168.786607 52.3359305,149.213607 45.6659305,144.978607 C44.8759305,144.482607 42.2559305,145.629607 43.3959305,146.354607 C48.4759305,149.578607 38.9359305,164.060607 36.9959305,162.702607 C35.9959305,162.003607 43.1659305,150.906607 43.1959305,148.566607 C43.2059305,147.504607 41.3959305,148.033607 40.8859305,148.323607 C40.4859305,148.555607 37.2959305,150.218607 36.3259305,150.379607 C36.7359305,150.582607 37.1459305,150.784607 37.5459305,150.987607 C37.7859305,148.518607 38.8759305,144.443607 41.1659305,143.157607 C40.4959305,143.246607 39.8259305,143.335607 39.1559305,143.424607 C44.8959305,146.000607 49.6459305,149.941607 51.9259305,155.910607 C53.4159305,159.806607 56.0659305,168.327607 52.3959305,171.943607 C53.1559305,171.792607 53.9159305,171.639607 54.6759305,171.488607 C53.5759305,170.928607 52.8759305,167.390607 52.3359305,166.309607 C51.5659305,164.751607 51.0359305,163.515607 49.3059305,162.887607 C48.4659305,162.579607 47.1559305,162.888607 46.7559305,163.753607 C44.6759305,168.223607 42.8159305,171.595607 39.6559305,175.316607 C36.9559305,178.493607 34.3259305,183.222607 30.8559305,185.486607 C31.5259305,185.397607 32.1959305,185.308607 32.8659305,185.220607 C31.4659305,184.622607 31.1959305,179.965607 30.9659305,178.709607 C30.3559305,175.305607 29.5859305,171.393607 29.8959305,167.946607 C30.3159305,163.361607 33.7559305,157.971607 32.8959305,153.457607 C32.8559305,153.213607 32.5359305,153.124607 32.3459305,153.065607 C28.7959305,151.971607 25.1659305,154.845607 21.7159305,155.161607 C22.1259305,155.364607 22.5359305,155.567607 22.9459305,155.770607 C24.8159305,151.655607 32.7659305,141.342607 38.1459305,143.513607 C38.9959305,143.856607 41.5859305,142.610607 40.4059305,142.136607" id="Fill-98"></path>
            <path d="M72.7359305,42.8746068 C70.9059305,44.5816068 71.3659305,48.0466068 71.3659305,50.3236068 C71.3559305,53.0496068 70.6359305,57.5256068 72.2159305,59.9206068 C72.5659305,60.4466068 74.4059305,59.8256068 73.9759305,59.1786068 C72.7259305,57.2816068 73.3059305,53.6646068 73.2759305,51.5336068 C73.2459305,49.5816068 72.5659305,44.7636068 74.2559305,43.1856068 C75.0559305,42.4376068 73.1959305,42.4466068 72.7359305,42.8746068" id="Fill-99"></path>
            <path d="M78.3659305,43.0596068 C78.3859305,42.9686068 78.4159305,42.8766068 78.4359305,42.7846068 C78.5959305,42.0876068 76.6959305,42.3776068 76.5359305,43.0226068 C74.9359305,49.4986068 73.7759305,56.7596068 74.9459305,63.4316068 C75.0559305,64.0666068 76.3959305,63.5676068 76.6559305,63.3336068 C77.1559305,62.8876068 77.1759305,62.8566068 77.3359305,62.1986068 C77.5059305,61.5016068 75.5959305,61.7876068 75.4359305,62.4356068 C75.3359305,62.6316068 75.2359305,62.8266068 75.1359305,63.0226068 C75.7059305,62.9896068 76.2759305,62.9566068 76.8459305,62.9236068 C75.6859305,56.3226068 76.8559305,49.1996068 78.4359305,42.7846068 C77.8059305,42.8636068 77.1659305,42.9436068 76.5359305,43.0226068 C76.5159305,43.1146068 76.4959305,43.2056068 76.4659305,43.2986068 C76.3059305,43.9936068 78.2159305,43.7086068 78.3659305,43.0596068" id="Fill-100"></path>
            <path d="M81.1259305,42.0406068 C78.7859305,48.4406068 77.0059305,56.6226068 78.0159305,63.4506068 C78.1159305,64.1016068 79.8359305,63.6116068 79.9159305,63.0776068 C79.9259305,62.9936068 79.9459305,62.9096068 79.9559305,62.8256068 C80.0659305,62.0906068 78.1559305,62.4166068 78.0559305,63.0646068 C78.0459305,63.1476068 78.0359305,63.2316068 78.0159305,63.3156068 C78.6559305,63.1916068 79.2859305,63.0666068 79.9159305,62.9426068 C78.9059305,56.1926068 80.7159305,48.1156068 83.0259305,41.8026068 C83.2459305,41.1766068 81.3559305,41.4066068 81.1259305,42.0406068" id="Fill-101"></path>
            <path d="M84.6659305,42.0996068 C83.7259305,46.8216068 82.8959305,51.5646068 82.4159305,56.3586068 C82.1759305,58.7556068 80.9659305,62.5756068 81.6259305,64.8456068 C81.8059305,65.5046068 83.7059305,64.9916068 83.5159305,64.3366068 C83.1359305,63.0196068 83.8759305,60.9296068 84.0059305,59.5776068 C84.1659305,57.9236068 84.2859305,56.2646068 84.4659305,54.6126068 C84.9459305,50.3306068 85.7159305,46.0846068 86.5659305,41.8616068 C86.7159305,41.1476068 84.7959305,41.4506068 84.6659305,42.0996068" id="Fill-102"></path>
            <path d="M86.7559305,44.9726068 C86.0259305,48.1276068 85.5059305,51.3376068 85.1559305,54.5596068 C84.8059305,57.8786068 85.0659305,61.1796068 84.4459305,64.4826068 C84.3059305,65.2146068 86.1959305,64.8716068 86.3459305,64.2446068 C86.3659305,64.1556068 86.3859305,64.0666068 86.4059305,63.9776068 C86.5759305,63.2826068 84.6659305,63.5676068 84.5059305,64.2156068 C84.4859305,64.3046068 84.4659305,64.3936068 84.4459305,64.4826068 C85.0759305,64.4036068 85.7059305,64.3236068 86.3459305,64.2446068 C86.9659305,60.9176068 86.6859305,57.6566068 87.0559305,54.3216068 C87.4159305,51.0976068 87.9159305,47.8936068 88.6459305,44.7346068 C88.8059305,44.0346068 86.8959305,44.3246068 86.7559305,44.9726068" id="Fill-103"></path>
            <path d="M58.2059305,80.9496068 C58.2259305,80.8586068 58.2459305,80.7666068 58.2659305,80.6756068 C57.6359305,80.7556068 57.0059305,80.8346068 56.3759305,80.9136068 C55.5359305,84.5176068 56.4559305,88.1366068 56.2059305,91.7776068 C56.1959305,91.9366068 56.2459305,92.0466068 56.3959305,92.1176068 C56.4959305,92.1636068 56.5959305,92.2096068 56.6959305,92.2566068 C57.2559305,92.5176068 58.9859305,91.7056068 58.2059305,91.3386068 C57.9759305,91.2326068 58.0359305,87.1146068 58.0159305,86.7396068 C57.8759305,84.6926068 57.8059305,82.6906068 58.2659305,80.6756068 C58.4359305,79.9726068 56.5259305,80.2726068 56.3759305,80.9136068 C56.3459305,81.0056068 56.3259305,81.0966068 56.3059305,81.1876068 C56.1359305,81.8806068 58.0459305,81.5976068 58.2059305,80.9496068" id="Fill-104"></path>
            <path d="M60.9559305,78.8176068 C59.2559305,80.5986068 59.3959305,83.0856068 59.1459305,85.3936068 C58.7359305,89.1106068 57.8459305,92.6596068 58.6459305,96.3856068 C58.7859305,97.0396068 60.4559305,96.5496068 60.5459305,96.0126068 C60.5559305,95.9296068 60.5659305,95.8466068 60.5859305,95.7636068 C60.6959305,95.0296068 58.7859305,95.3536068 58.6859305,96.0006068 C58.6759305,96.0846068 58.6559305,96.1676068 58.6459305,96.2506068 C59.2759305,96.1266068 59.9159305,96.0016068 60.5459305,95.8776068 C59.8459305,92.6206068 60.4659305,89.5396068 60.8959305,86.3016068 C61.1859305,84.1216068 60.8359305,80.8406068 62.4759305,79.1286068 C63.2359305,78.3296068 61.3859305,78.3596068 60.9559305,78.8176068" id="Fill-105"></path>
            <path d="M62.9059305,78.5536068 C62.9459305,82.0626068 62.7559305,85.5706068 63.0059305,89.0736068 C63.2359305,92.3876068 62.5959305,95.9016068 63.4159305,99.1346068 C63.5859305,99.7916068 65.0259305,99.2726068 65.2459305,98.9006068 C65.2959305,98.8186068 65.3459305,98.7366068 65.3959305,98.6546068 C65.8459305,97.8976068 63.9559305,98.0776068 63.6259305,98.6146068 C63.5859305,98.6966068 63.5359305,98.7786068 63.4859305,98.8606068 C64.0959305,98.7826068 64.7059305,98.7036068 65.3159305,98.6256068 C64.5259305,95.5366068 65.1359305,91.7986068 64.9059305,88.5646068 C64.6559305,85.0636068 64.8359305,81.5526068 64.7959305,78.0456068 C64.7959305,77.4566068 62.8959305,77.8186068 62.9059305,78.5536068" id="Fill-106"></path>
            <path d="M67.1959305,78.6576068 C65.9359305,85.5246068 65.9759305,93.9036068 67.0859305,100.799607 C67.1859305,101.469607 68.8759305,100.940607 68.9759305,100.426607 C69.0259305,100.213607 69.0659305,100.000607 69.1159305,99.7866068 C69.2659305,99.0766068 67.3559305,99.3756068 67.2159305,100.024607 C67.1759305,100.238607 67.1259305,100.450607 67.0859305,100.664607 C67.7159305,100.539607 68.3459305,100.415607 68.9759305,100.291607 C67.8759305,93.4286068 67.8259305,85.2976068 69.0959305,78.4196068 C69.2259305,77.6976068 67.3159305,78.0086068 67.1959305,78.6576068" id="Fill-107"></path>
            <path d="M71.3859305,77.6846068 C71.2559305,85.0976068 70.0959305,92.2826068 70.5659305,99.7096068 C70.5959305,99.8056068 70.6659305,99.8736068 70.7559305,99.9136068 C70.8559305,99.9596068 70.9459305,100.004607 71.0459305,100.050607 C71.6059305,100.314607 73.3359305,99.5056068 72.5559305,99.1326068 C71.1659305,98.4726068 72.3659305,89.6666068 72.4559305,88.5436068 C72.7659305,84.8366068 73.2159305,81.1706068 73.2859305,77.4466068 C73.2959305,76.6656068 71.3959305,77.0576068 71.3859305,77.6846068" id="Fill-108"></path>
            <path d="M74.9659305,80.9156068 C74.6459305,86.3246068 75.0459305,91.9996068 74.1859305,97.3456068 C74.0659305,98.0776068 75.9859305,97.7556068 76.0859305,97.1076068 C76.9459305,91.7636068 76.5459305,86.0836068 76.8659305,80.6776068 C76.9059305,79.9076068 75.0059305,80.2806068 74.9659305,80.9156068" id="Fill-109"></path>
            <path d="M84.5659305,15.0136068 C87.5659305,18.1936068 90.7359305,21.0516068 94.7259305,22.8756068 C97.6859305,24.2246068 101.12593,24.4556068 103.88593,26.0596068 C104.32593,26.3156068 105.05593,26.0316068 105.40593,25.7566068 C105.54593,25.6486068 105.67593,25.5416068 105.81593,25.4346068 C106.65593,24.7716068 104.77593,24.7456068 104.29593,25.1236068 C104.15593,25.2306068 104.01593,25.3376068 103.88593,25.4446068 C104.38593,25.3436068 104.89593,25.2426068 105.39593,25.1416068 C102.78593,23.6216068 99.6259305,23.4276068 96.8159305,22.2116068 C92.6659305,20.4186068 89.4159305,17.5346068 86.3359305,14.2716068 C85.8759305,13.7926068 84.0759305,14.4886068 84.5659305,15.0136068" id="Fill-110"></path>
            <path d="M93.6159305,9.97260685 C91.9359305,10.5956068 91.1759305,11.6086068 90.1059305,13.0636068 C90.6959305,13.0766068 91.2859305,13.0906068 91.8759305,13.1036068 C92.7159305,11.6226068 93.6659305,10.1926068 94.7159305,8.85460685 C95.2759305,8.15060685 93.3859305,8.38760685 93.0759305,8.67960685 C91.4059305,10.2346068 89.6859305,11.6856068 88.1859305,13.4106068 C88.7759305,13.4246068 89.3659305,13.4376068 89.9459305,13.4506068 C90.7259305,12.3406068 91.7159305,11.4366068 92.9159305,10.7406068 C92.4059305,10.6866068 91.8959305,10.6326068 91.3759305,10.5776068 C91.4159305,11.5366068 91.1159305,12.4016068 90.4959305,13.1746068 C89.9959305,14.0416068 91.8659305,13.5586068 92.1359305,13.3496068 C93.5059305,12.3146068 94.3459305,10.7126068 95.6759305,9.72360685 C95.1059305,9.71160685 94.5359305,9.69960685 93.9659305,9.68660685 C93.3759305,11.5146068 92.2359305,13.2456068 91.2659305,14.8926068 C90.7759305,15.7226068 92.7059305,15.3196068 93.0359305,14.9316068 C94.9859305,12.6646068 96.2859305,9.90360685 98.2159305,7.69660685 C97.6059305,7.72860685 96.9859305,7.76260685 96.3759305,7.79560685 C96.3659305,9.93060685 95.2059305,11.3876068 94.3459305,13.2536068 C93.5159305,15.0566068 93.1359305,17.0236068 91.8759305,18.5956068 C92.4659305,18.6086068 93.0559305,18.6216068 93.6459305,18.6356068 C94.9359305,16.2226068 96.2959305,13.8546068 97.5959305,11.4216068 C98.5459305,9.62060685 99.5059305,6.64660685 100.80593,5.12660685 C100.19593,5.15960685 99.5859305,5.19260685 98.9759305,5.22560685 C98.4059305,10.3556068 95.2359305,14.6386068 93.7059305,19.4526068 C93.6559305,19.5916068 93.7759305,19.7446068 93.8959305,19.7926068 C98.1159305,21.4526068 100.96593,8.39360685 102.40593,6.68060685 C101.79593,6.71360685 101.18593,6.74660685 100.57593,6.77960685 C100.56593,11.3686068 96.5459305,15.1866068 96.0459305,19.7396068 C95.9559305,20.5556068 97.6359305,20.0116068 97.8759305,19.6406068 C100.29593,15.9496068 100.91593,11.4786068 103.06593,7.66460685 C102.45593,7.69860685 101.84593,7.73060685 101.23593,7.76460685 C100.55593,10.4466068 99.6059305,13.0246068 98.9259305,15.6746068 C99.5559305,15.5946068 100.18593,15.5156068 100.81593,15.4356068 C101.24593,13.6146068 104.41593,6.68460685 100.21593,7.23160685 C98.6359305,7.43860685 97.3859305,9.15960685 96.4159305,10.2196068 C94.3259305,12.4966068 92.9959305,15.2006068 91.1159305,17.6236068 C91.7059305,17.6376068 92.2959305,17.6506068 92.8859305,17.6636068 C94.0159305,15.9966068 95.2759305,13.7766068 93.8759305,11.8846068 C93.1859305,10.9486068 92.0059305,10.3706068 90.9059305,11.0546068 C86.3659305,13.8816068 96.2959305,20.5556068 97.8759305,21.8146068 C98.4259305,21.5376068 98.9659305,21.2616068 99.5159305,20.9846068 C96.5359305,18.9866068 93.5759305,15.2176068 89.9459305,14.3816068 C89.5359305,14.2886068 88.4859305,14.4746068 88.4159305,15.0156068 C88.0959305,17.4946068 92.8459305,20.1266068 94.7159305,18.0216068 C96.7759305,15.6936068 91.0759305,13.4786068 89.4159305,13.3796068 C89.0059305,13.3546068 88.4059305,13.5366068 88.1659305,13.8966068 C85.9659305,17.2336068 91.6559305,19.0096068 94.0859305,19.2866068 C94.5059305,19.3356068 95.5259305,19.2256068 95.6159305,18.6526068 C96.2659305,14.6556068 83.4859305,14.3756068 91.2059305,21.1746068 C92.6059305,22.4056068 95.3859305,24.1826068 96.9059305,22.1596068 C98.5659305,19.9616068 94.3459305,13.9056068 92.2359305,13.2776068 C89.6659305,12.5166068 89.2559305,14.7016068 90.0159305,16.6556068 C91.1259305,19.4726068 95.2159305,23.9336068 98.6959305,23.2106068 C104.13593,22.0786068 99.7459305,12.3776068 97.1659305,16.9816068 C96.0659305,18.9476068 97.2959305,22.7856068 99.9559305,22.0796068 C103.54593,21.1266068 103.20593,14.5826068 101.94593,12.1406068 C101.71593,11.6986068 100.97593,11.8506068 100.61593,12.0046068 C98.1059305,13.0876068 97.9659305,19.9936068 100.64593,20.9016068 C101.16593,21.0786068 101.93593,20.9376068 102.28593,20.4626068 C104.11593,17.8986068 104.64593,13.5966068 104.09593,10.5566068 C103.97593,9.92260685 102.23593,10.3736068 102.19593,10.9296068 C102.05593,12.9296068 102.20593,14.8006068 102.36593,16.8096068 C102.51593,18.5976068 102.10593,20.7636068 102.88593,22.3816068 C103.16593,22.9576068 104.24593,22.5936068 104.59593,22.2836068 C105.64593,21.3656068 105.71593,20.3996068 104.61593,19.4546068 C104.16593,19.0696068 103.37593,19.3616068 102.97593,19.6706068 C102.06593,20.3656068 101.00593,21.5796068 99.8059305,21.3966068 C99.4259305,21.7396068 99.0359305,22.0826068 98.6459305,22.4266068 C100.53593,22.6906068 102.26593,22.3626068 104.17593,22.5216068 C104.67593,22.5626068 106.18593,21.7046068 105.12593,21.4686068 C103.00593,20.9936068 101.23593,19.6036068 99.1359305,19.3296068 C98.7959305,19.2846068 97.1859305,19.5696068 97.6759305,20.2166068 C98.9459305,21.9026068 104.48593,24.3266068 106.34593,22.4176068 C106.49593,22.2686068 106.62593,22.0846068 106.46593,21.8906068 C105.07593,20.1856068 101.96593,18.6316068 100.05593,20.6216068 C97.8659305,22.9106068 101.26593,23.9576068 103.08593,24.2326068 C103.55593,24.3046068 104.25593,24.1666068 104.55593,23.7376068 C105.19593,22.7926068 104.93593,21.4896068 105.12593,20.3146068 C105.22593,19.6996068 104.07593,19.9096068 103.80593,20.0436068 C102.26593,20.7916068 99.8959305,22.0556068 98.3159305,20.6156068 C96.9559305,19.3646068 99.3659305,14.8176068 99.7359305,14.0476068 C100.95593,11.5436068 102.54593,9.22860685 102.07593,6.34560685 C101.95593,5.62760685 100.47593,6.29860685 100.24593,6.57960685 C98.5859305,8.58460685 98.4059305,11.0756068 97.8359305,13.5356068 C97.6559305,14.2806068 99.4459305,13.8516068 99.6659305,13.4366068 C101.46593,10.0146068 103.37593,6.36460685 103.86593,2.48860685 C103.94593,1.85660685 102.83593,2.10360685 102.53593,2.21760685 C99.0559305,3.57060685 97.6459305,8.33160685 94.7759305,10.5206068 C95.3259305,10.5786068 95.8659305,10.6376068 96.4159305,10.6966068 C97.3559305,8.98360685 98.8259305,7.15960685 100.17593,5.81760685 C101.06593,4.93960685 101.94593,4.43360685 102.49593,3.29360685 C102.89593,2.49060685 101.34593,2.78260685 101.02593,2.99260685 C98.5959305,4.60460685 96.4859305,6.77160685 93.8959305,8.12760685 C94.3859305,8.22860685 94.8759305,8.32860685 95.3659305,8.42960685 C96.0759305,7.04260685 97.6559305,5.78260685 98.8459305,4.85660685 C98.2759305,4.84460685 97.7159305,4.83160685 97.1359305,4.81960685 C96.6159305,6.08760685 95.2959305,7.11760685 94.2759305,8.00160685 C93.4259305,8.74260685 95.3459305,8.65060685 95.7959305,8.31260685 C96.9659305,7.42960685 97.7559305,6.30760685 98.8459305,5.38860685 C100.37593,4.10160685 101.34593,2.83560685 101.15593,5.79160685 C101.01593,7.86560685 100.25593,9.77560685 100.28593,11.8726068 C100.28593,12.5026068 102.06593,12.0266068 102.17593,11.4996068 C102.61593,9.41160685 103.16593,7.35160685 103.64593,5.27260685 C103.01593,5.35160685 102.37593,5.43160685 101.74593,5.51060685 C101.46593,8.69260685 101.68593,12.2756068 102.18593,15.4656068 C102.29593,16.1286068 103.98593,15.6146068 104.08593,15.0926068 C104.46593,13.0576068 105.78593,8.26960685 104.10593,6.44960685 C103.66593,5.97560685 102.48593,6.42160685 102.27593,6.93960685 C100.94593,10.1866068 101.34593,13.9676068 100.87593,17.4116068 C100.77593,18.1786068 102.61593,17.7726068 102.77593,17.1736068 C103.62593,13.9606068 105.12593,9.89260685 102.93593,6.86860685 C102.66593,6.48760685 101.74593,6.77160685 101.46593,6.95760685 C100.21593,7.78860685 100.30593,8.55360685 99.8259305,10.0136068 C98.7659305,13.2576068 97.9259305,16.4406068 97.1459305,19.7726068 C96.9859305,20.4716068 98.8959305,20.1836068 99.0459305,19.5346068 C99.5959305,17.1846068 100.04593,14.7776068 100.77593,12.4776068 C101.11593,11.3966068 101.64593,8.18160685 102.64593,7.52060685 C102.15593,7.55060685 101.66593,7.58060685 101.17593,7.61060685 C103.22593,10.4526068 101.67593,14.4216068 100.87593,17.4116068 C101.50593,17.3316068 102.14593,17.2526068 102.77593,17.1736068 C103.23593,13.7396068 102.84593,9.93960685 104.16593,6.70160685 C103.55593,6.86560685 102.94593,7.02860685 102.33593,7.19160685 C103.73593,8.70360685 102.50593,13.6426068 102.18593,15.3306068 C102.81593,15.2056068 103.45593,15.0816068 104.08593,14.9566068 C103.65593,12.1886068 103.39593,8.09160685 103.64593,5.27260685 C103.71593,4.49360685 101.88593,4.90360685 101.74593,5.51060685 C101.26593,7.58960685 100.72593,9.64960685 100.28593,11.7376068 C100.91593,11.6136068 101.54593,11.4886068 102.17593,11.3646068 C102.16593,9.79260685 104.62593,3.17460685 102.05593,2.24960685 C99.3259305,1.27160685 95.7059305,6.92660685 94.2759305,8.00160685 C94.7859305,8.10460685 95.2959305,8.20860685 95.7959305,8.31260685 C97.0259305,7.23960685 98.4059305,6.12360685 99.0359305,4.58160685 C99.3459305,3.84460685 97.5159305,4.39660685 97.3259305,4.54560685 C95.9959305,5.57460685 94.3759305,6.86460685 93.6059305,8.38960685 C93.1759305,9.21660685 94.7759305,8.84660685 95.0759305,8.69060685 C97.6659305,7.33060685 99.7659305,5.17360685 102.20593,3.55560685 C101.71593,3.45460685 101.22593,3.35360685 100.73593,3.25360685 C100.04593,4.66060685 98.6359305,5.36760685 97.6159305,6.48760685 C96.5559305,7.66760685 95.4159305,9.26160685 94.6459305,10.6566068 C94.1759305,11.5336068 96.0159305,11.0456068 96.2959305,10.8316068 C98.7759305,8.94460685 100.36593,4.13460685 103.28593,2.99760685 C102.84593,2.90760685 102.40593,2.81660685 101.96593,2.72660685 C101.49593,6.50560685 99.6459305,10.0686068 97.8959305,13.3966068 C98.5059305,13.3636068 99.1159305,13.3306068 99.7259305,13.2976068 C100.27593,10.9726068 100.42593,8.52760685 102.00593,6.61860685 C101.39593,6.69760685 100.78593,6.77560685 100.17593,6.85360685 C100.84593,11.0006068 93.5159305,17.8116068 96.8059305,21.7946068 C98.8959305,24.3236068 102.45593,21.8416068 104.55593,20.8236068 C104.10593,20.7326068 103.66593,20.6426068 103.22593,20.5526068 C103.00593,21.1206068 102.78593,21.6896068 102.56593,22.2586068 C102.50593,22.3536068 102.43593,22.5616068 102.56593,22.6496068 C102.63593,22.9986068 102.71593,23.3476068 102.78593,23.6976068 C103.27593,23.5326068 103.75593,23.3676068 104.24593,23.2026068 C102.85593,22.9926068 104.53593,22.3636068 104.32593,21.9036068 C104.29593,21.8366068 103.01593,21.4336068 102.47593,21.2266068 C101.45593,20.8336068 100.11593,20.3706068 99.4359305,19.4736068 C98.9559305,19.7696068 98.4659305,20.0646068 97.9759305,20.3606068 C99.9259305,20.6156068 101.96593,22.0516068 103.96593,22.4986068 C104.28593,22.1476068 104.59593,21.7966068 104.91593,21.4456068 C103.20593,21.3036068 101.51593,21.6356068 99.8059305,21.3966068 C99.2159305,21.3136068 97.5759305,22.2626068 98.6459305,22.4266068 C101.41593,22.8506068 102.43593,21.5586068 104.49593,19.9816068 C103.94593,20.0536068 103.40593,20.1256068 102.85593,20.1976068 C102.92593,20.7886068 103.00593,21.3806068 103.07593,21.9716068 C103.64593,21.9386068 104.21593,21.9066068 104.78593,21.8726068 C104.21593,20.6926068 104.46593,19.1756068 104.39593,17.9286068 C104.25593,15.4756068 103.92593,13.1726068 104.09593,10.6916068 C103.46593,10.8156068 102.82593,10.9406068 102.19593,11.0646068 C102.69593,13.7996068 102.17593,18.0936068 100.51593,20.4226068 C101.05593,20.2766068 101.60593,20.1306068 102.15593,19.9836068 C100.70593,19.4926068 99.8659305,13.4326068 101.36593,12.7846068 C100.92593,12.7396068 100.48593,12.6946068 100.04593,12.6486068 C100.92593,14.3406068 101.18593,16.3766068 100.71593,18.2496068 C100.27593,19.9796068 99.2859305,21.8756068 98.8559305,18.9956068 C98.5059305,16.5596068 98.9859305,16.9856068 99.1359305,18.8186068 C99.1859305,19.3496068 99.5959305,20.6886068 99.2459305,21.1686068 C97.9759305,22.9166068 95.5759305,20.6766068 94.6459305,19.8616068 C94.1759305,19.4506068 91.0259305,15.0266068 91.5059305,14.9026068 C92.2059305,14.7226068 94.7859305,18.9746068 94.9359305,19.5086068 C95.8759305,22.9426068 92.7259305,20.5056068 91.6959305,19.1106068 C89.1659305,15.7016068 94.0259305,16.9656068 93.7159305,18.8906068 C94.2259305,18.6796068 94.7359305,18.4676068 95.2459305,18.2566068 C95.1259305,18.2426068 87.9359305,16.1936068 89.8759305,14.8456068 C89.9359305,14.8006068 91.4959305,15.5366068 91.5959305,15.6376068 C93.5659305,17.6746068 90.0159305,17.0326068 90.3059305,14.7776068 C89.7959305,14.9896068 89.2859305,15.2006068 88.7759305,15.4116068 C92.2759305,16.2156068 95.1159305,19.9646068 98.0059305,21.9026068 C98.4559305,22.2046068 100.16593,21.4866068 99.6359305,21.0726068 C97.6159305,19.4576068 95.3259305,18.1886068 93.6759305,16.1326068 C92.8359305,15.0746068 92.0959305,13.6516068 92.1859305,13.1016068 C92.9159305,13.3296068 93.0059305,13.9766068 92.4659305,15.0426068 C92.1559305,15.9836068 91.7059305,16.8436068 91.1159305,17.6236068 C90.6159305,18.3646068 92.5259305,18.1206068 92.8859305,17.6636068 C94.1759305,15.9916068 96.7859305,9.92860685 98.9659305,9.50760685 C99.3459305,8.67060685 99.6659305,8.64060685 99.9359305,9.41660685 C100.37593,9.76960685 100.43593,10.1866068 100.11593,10.6666068 C100.20593,12.1316068 99.2659305,14.2356068 98.9259305,15.6746068 C98.7559305,16.3776068 100.65593,16.0726068 100.81593,15.4356068 C101.50593,12.7806068 102.45593,10.2156068 103.13593,7.52660685 C103.31593,6.77760685 101.52593,7.22760685 101.29593,7.62560685 C99.1459305,11.4316068 98.5159305,15.9206068 96.1159305,19.6006068 C96.7259305,19.5676068 97.3359305,19.5346068 97.9459305,19.5016068 C98.4459305,14.9396068 102.46593,11.1686068 102.47593,6.54160685 C102.47593,5.68560685 100.92593,6.29960685 100.64593,6.64060685 C99.1959305,8.36160685 98.8059305,10.7446068 97.9559305,12.7846068 C97.4359305,14.0276068 95.5459305,16.5476068 95.4159305,17.8456068 C95.2559305,19.5526068 96.2459305,17.4426068 96.7159305,16.7326068 C97.3659305,15.7436068 97.6659305,14.3086068 98.1359305,13.2206068 C99.2959305,10.5396068 100.54593,7.93160685 100.87593,4.98760685 C100.96593,4.12360685 99.2959305,4.78960685 99.0359305,5.08660685 C97.5459305,6.83060685 96.9159305,9.37460685 95.8259305,11.3816068 C94.5159305,13.7956068 93.1659305,16.1886068 91.8759305,18.5956068 C91.4159305,19.4446068 93.3159305,19.0466068 93.6459305,18.6356068 C94.8059305,17.1846068 95.1359305,15.5816068 95.8459305,13.9046068 C96.7959305,11.6936068 98.2559305,10.0576068 98.2759305,7.55660685 C98.2859305,6.69360685 96.7359305,7.32760685 96.4459305,7.65660685 C94.5159305,9.86360685 93.2259305,12.6246068 91.2659305,14.8926068 C91.8559305,14.9056068 92.4459305,14.9186068 93.0359305,14.9316068 C94.0759305,13.1666068 95.2359305,11.4046068 95.8659305,9.44960685 C96.1159305,8.67060685 94.3559305,9.26160685 94.1559305,9.41260685 C92.7859305,10.4286068 92.0059305,11.9826068 90.6159305,13.0386068 C91.1659305,13.0966068 91.7159305,13.1556068 92.2559305,13.2146068 C92.8259305,12.2316068 93.1759305,11.4986068 93.2759305,10.3406068 C93.3459305,9.61360685 92.0459305,10.0206068 91.7359305,10.1776068 C90.1859305,10.9816068 89.2759305,12.0346068 88.1859305,13.4106068 C87.6459305,14.0866068 89.5659305,13.8886068 89.9459305,13.4506068 C91.3759305,11.8156068 93.0159305,10.4606068 94.5959305,8.99060685 C94.0459305,8.93160685 93.4959305,8.87360685 92.9559305,8.81460685 C91.8959305,10.1526068 90.9459305,11.5826068 90.1059305,13.0636068 C89.6459305,13.8746068 91.5459305,13.5566068 91.8759305,13.1036068 C92.4859305,12.1146068 93.3259305,11.3306068 94.3659305,10.7526068 C95.6059305,10.2926068 94.4759305,9.65360685 93.6159305,9.97260685" id="Fill-111"></path>
        </g>
    </g>
</svg>