<?xml version="1.0" encoding="UTF-8"?>
<svg width="137px" height="132px" viewBox="0 0 137 132" version="1.1" xmlns="http://www.w3.org/2000/svg" xmlns:xlink="http://www.w3.org/1999/xlink">
    <title>Group 44</title>
    <g id="Page-1" stroke="none" stroke-width="1" fill="none" fill-rule="evenodd">
        <g id="Group-44" fill="#2C7FC9">
            <path d="M35.0788404,44.8328852 C34.7978404,44.7538852 40.4488404,25.3328852 40.8698404,23.3788852 C41.0928404,22.3468852 41.1628404,19.8658852 42.0228404,19.1528852 C42.5898404,18.6828852 46.0248404,18.8478852 46.6638404,18.7378852 C50.0278404,18.1568852 53.2698404,17.0778852 56.5448404,16.1408852 C73.1458404,11.3948852 90.3908404,9.59388518 107.51984,7.92688518 C115.31184,7.16888518 123.13684,7.00188518 130.92684,6.19188518 C130.97084,6.18688518 133.77584,5.82488518 133.73384,5.79388518 C134.44784,6.31088518 134.33284,4.85088518 133.74084,6.06688518 C133.22584,7.12288518 129.38984,8.28988518 128.16784,8.75788518 C124.74884,10.0678852 121.19184,10.9788852 117.78484,12.3218852 C109.87584,15.4398852 101.65584,17.5078852 93.6058404,20.2618852 C86.2818404,22.7648852 78.9038404,25.2208852 71.6138404,27.7878852 C67.4098404,29.2678852 63.1268404,30.3968852 58.9098404,31.8238852 C55.2958404,33.0468852 51.4438404,33.7678852 47.9128404,35.1678852 C44.9098404,36.3588852 43.1638404,37.9388852 40.7418404,39.9898852 C37.8458404,42.4408852 34.8038404,44.6168852 32.2088404,47.4118852 C31.9578404,47.6818852 32.1418404,47.8858852 32.4778404,47.8898852 C32.5868404,47.8918852 32.6948404,47.8928852 32.8038404,47.8949347 C33.2978404,47.9018852 34.1928404,47.1648852 33.3128404,47.1528852 C34.7368404,47.1728852 36.7708404,44.1928852 37.7358404,43.3358852 C39.2688404,41.9758852 41.0268404,40.8918852 42.5608404,39.5258852 C46.7508404,35.7918852 51.3788404,35.0848852 56.5218404,33.3778852 C65.2138404,30.4918852 74.0818404,28.1228852 82.6978404,25.0058852 C92.4938404,21.4628852 102.40284,18.5518852 112.26584,15.2708852 C116.71484,13.7918852 121.02084,11.9118852 125.47984,10.4248852 C129.25484,9.16488518 132.86484,7.71088518 136.11384,5.37888518 C136.57684,5.04588518 136.24484,4.79888518 135.79684,4.82388518 C130.27884,5.12988518 124.77684,6.22888518 119.23484,6.48688518 C113.88984,6.73588518 108.59884,7.10688518 103.27384,7.64388518 C91.9048404,8.79088518 80.5308404,10.0778852 69.3238404,12.3488852 C63.6338404,13.5018852 58.0798404,15.0328852 52.5028404,16.6288852 C49.1418404,17.5898852 45.9588404,17.9218852 42.5308404,18.4118852 C41.9368404,18.4968852 41.4968404,18.3468852 40.9788404,18.6828852 C40.0248404,19.3008852 40.0248404,21.3688852 39.8188404,22.2758852 C39.2688404,24.7038852 38.7338404,27.1308852 38.1138404,29.5438852 C36.8158404,34.5938852 33.8788404,39.9668852 33.6028404,45.1508852 C33.5938404,45.3248852 33.7028404,45.3808852 33.8568404,45.4238852 C33.9968404,45.4638852 34.1378404,45.5038852 34.2778404,45.5428852 C34.6948404,45.6608852 35.8118404,45.0398852 35.0788404,44.8328852" id="Fill-40"></path>
            <path d="M134.56984,5.11788518 C133.37584,5.55888518 132.70284,6.47988518 131.81384,7.35988518 C129.94284,9.21188518 127.84684,10.8488852 125.83484,12.5438852 C122.13484,15.6618852 118.12384,18.3358852 114.31984,21.3178852 C105.34384,28.3538852 96.4028404,35.4528852 86.7458404,41.5498852 C78.0838404,47.0178852 68.7038404,50.9048852 60.6028404,57.2548852 C59.9738404,57.7468852 59.0428404,58.8218852 58.0878404,58.4378852 C57.2798404,58.1138852 56.3558404,55.3108852 55.9398404,54.3658852 C54.9268404,52.0658852 54.0658404,49.6738852 53.2718404,47.2898852 C51.8908404,43.1408852 50.7618404,38.4598852 47.9438404,35.0408852 C47.7028404,34.7488852 46.8878404,34.9838852 46.7278404,35.2828852 C46.6738404,35.3848852 46.6198404,35.4878852 46.5648404,35.5898852 C46.2748404,36.1348852 47.5798404,35.9978852 47.7828404,35.6168852 C47.8368404,35.5148852 47.8908404,35.4128852 47.9458404,35.3108852 C47.5408404,35.3908852 47.1348404,35.4718852 46.7298404,35.5528852 C50.1968404,39.7598852 51.3448404,46.1238852 53.2258404,51.1768852 C53.9248404,53.0558852 55.4618404,59.3548852 58.1038404,59.5458852 C60.4418404,59.7148852 63.3408404,56.2128852 65.0128404,54.9868852 C70.1988404,51.1858852 76.0008404,48.6368852 81.5898404,45.5008852 C91.3258404,40.0388852 100.40984,33.3188852 109.18484,26.4418852 C113.67084,22.9268852 118.18384,19.4978852 122.75384,16.0928852 C124.94584,14.4598852 127.00684,12.6658852 129.09284,10.9008852 C130.70284,9.53888518 133.10484,6.38688518 135.08584,5.65588518 C135.94184,5.33888518 135.16284,4.89888518 134.56984,5.11788518" id="Fill-41"></path>
            <path d="M33.3158404,47.7928852 C38.7188404,45.1578852 44.9058404,44.2618852 50.1158404,41.2558852 C50.8778404,40.8158852 49.7308404,40.6218852 49.3048404,40.8678852 C44.2248404,43.7998852 38.0888404,44.6768852 32.7998404,47.2548852 C31.9858404,47.6528852 32.7328404,48.0768852 33.3158404,47.7928852" id="Fill-42"></path>
            <path d="M33.7118404,47.4418852 C34.2638404,45.0408852 34.8158404,42.6398852 35.3678404,40.2398852 C35.4788404,39.7568852 34.1638404,39.9568852 34.0608404,40.4038852 C33.5088404,42.8038852 32.9568404,45.2048852 32.4048404,47.6058852 C32.2938404,48.0888852 33.6088404,47.8888852 33.7118404,47.4418852" id="Fill-43"></path>
            <path d="M135.34584,4.51688518 C130.80184,3.69888518 126.11884,4.36688518 121.53984,4.46088518 C116.04984,4.57288518 110.50584,4.14988518 105.01884,3.94988518 C93.8348404,3.54088518 82.6058404,2.91088518 71.4408404,2.14988518 C60.5258404,1.40588518 49.5878404,0.532885181 38.6478404,0.253885181 C34.2138404,0.140885181 29.6558404,-0.274114819 25.2428404,0.286885181 C22.4048404,0.648885181 18.8128404,0.857885181 16.2398404,2.16188518 C16.0438404,2.26188518 15.6238404,2.54188518 15.9778404,2.74688518 C21.3128404,5.82488518 25.8888404,9.58688518 30.8448404,13.1868852 C32.5818404,14.4488852 34.3928404,15.4178852 36.2498404,16.4778852 C37.7048404,17.3078852 38.7948404,18.3738852 40.4298404,18.7918852 C40.8468404,18.8988852 41.9658404,18.2708852 41.2308404,18.0818852 C39.2498404,17.5748852 35.9408404,15.2498852 34.1958404,14.1568852 C31.5088404,12.4738852 29.1458404,10.3758852 26.6908404,8.39188518 C24.8088404,6.87088518 22.8048404,5.57388518 20.7418404,4.30988518 C19.6198404,3.62388518 17.4428404,3.13788518 18.9798404,2.08888518 C19.3998404,1.80188518 20.4888404,1.85388518 21.0038404,1.76288518 C33.2128404,-0.393114819 46.0498404,1.41288518 58.3708404,2.04688518 C70.7418404,2.68288518 83.1008404,3.59688518 95.4698404,4.29088518 C101.99584,4.65788518 108.53184,4.80588518 115.06184,5.06188518 C121.45384,5.31288518 128.23884,4.09088518 134.54584,5.22688518 C134.96184,5.30188518 136.08384,4.64988518 135.34584,4.51688518" id="Fill-44"></path>
            <path d="M41.3538404,18.5448852 C40.5328404,19.4178852 40.4388404,19.7298852 40.1008404,21.2028852 C39.8128404,22.4598852 39.5228404,23.7158852 39.2338404,24.9718852 C38.6378404,27.5648852 38.1278404,30.1978852 37.3078404,32.7198852 C35.6218404,37.9028852 32.4588404,42.6778852 31.7698404,48.1908852 C31.7068404,48.6898852 32.6298404,48.4078852 32.8288404,48.3028852 C33.9558404,47.7018852 35.0128404,46.4988852 36.1638404,46.0098852 C37.0018404,45.6538852 36.2378404,45.2218852 35.6478404,45.4718852 C34.2838404,46.0518852 33.3388404,47.2108852 32.0178404,47.9148852 C32.3708404,47.9518852 32.7238404,47.9888852 33.0768404,48.0268852 C33.7618404,42.5518852 36.9318404,37.7298852 38.6148404,32.5548852 C39.4358404,30.0308852 39.9448404,27.4038852 40.5418404,24.8078852 C41.0238404,22.7118852 41.9378404,20.3808852 42.0058404,18.2398852 C42.0088404,18.1348852 41.9818404,18.0498852 41.8718404,18.0058852 C41.7728404,17.9658852 41.6718404,17.9258852 41.5718404,17.8848852 C41.2688404,17.7628852 40.7578404,17.8498852 40.5278404,18.0938852 C40.4538404,18.1728852 40.3798404,18.2508852 40.3058404,18.3298852 C39.7828404,18.8848852 41.0548404,18.8628852 41.3538404,18.5448852" id="Fill-45"></path>
            <path d="M27.9818404,55.7808852 C27.9388404,55.6998852 27.8948404,55.6208852 27.8518404,55.5408852 C27.6488404,55.1658852 26.9178404,55.3688852 26.6738404,55.6088852 C22.0418404,60.1438852 17.8158404,65.9068852 14.6538404,71.5558852 C11.8958404,76.4828852 9.02284042,83.0618852 9.15084042,88.8158852 C9.22984042,92.3178852 11.8618404,96.1608852 15.7458404,95.7208852 C19.3968404,95.3078852 21.5278404,91.0838852 21.5388404,87.7618852 C21.5478404,84.5188852 19.6228404,82.0188852 16.2338404,82.7988852 C11.9298404,83.7908852 10.0408404,89.0068852 8.27384042,92.4968852 C5.26984042,98.4308852 3.64884042,104.918885 2.04684042,111.345885 C1.16584042,114.881885 0.0878404186,118.556885 0.00284041859,122.223885 C-0.0701595814,125.387885 1.28884042,128.278885 1.21284042,131.429885 C1.19984042,131.966885 2.50984042,131.698885 2.52084042,131.265885 C2.61284042,127.394885 1.05384042,123.977885 1.48384042,120.012885 C1.95684042,115.651885 3.28884042,111.279885 4.42984042,107.056885 C5.72084042,102.282885 6.99984042,97.5498852 9.19984042,93.0978852 C10.0508404,91.3758852 10.9748404,89.6868852 11.9168404,88.0138852 C12.2968404,87.3388852 12.7018404,86.1818852 13.3338404,85.6868852 C15.3018404,85.2828852 17.2688404,84.8778852 19.2368404,84.4728852 C19.6348404,85.0198852 19.8968404,85.6168852 20.0218404,86.2638852 C20.4438404,87.8428852 20.1888404,89.5888852 19.6128404,91.0968852 C18.2258404,94.7358852 14.2288404,95.9368852 11.7298404,92.6428852 C9.02984042,89.0858852 11.1598404,83.3028852 12.4178404,79.5298852 C15.3078404,70.8628852 21.1948404,62.2138852 27.7218404,55.8228852 C27.3298404,55.8458852 26.9368404,55.8678852 26.5448404,55.8908852 C26.5868404,55.9708852 26.6308404,56.0508852 26.6738404,56.1308852 C26.9128404,56.5728852 28.1788404,56.1448852 27.9818404,55.7808852" id="Fill-46"></path>
        </g>
    </g>
</svg>