<?xml version="1.0" encoding="UTF-8"?>
<svg width="181px" height="233px" viewBox="0 0 181 233" version="1.1" xmlns="http://www.w3.org/2000/svg" xmlns:xlink="http://www.w3.org/1999/xlink">
    <title>Shape</title>
    <g id="Page-1" stroke="none" stroke-width="1" fill="none" fill-rule="evenodd">
        <path d="M51.7142857,54.2671239 C51.7142857,31.1146906 69.4005714,12.9444444 90.5,12.9444444 C111.599429,12.9444444 129.285714,31.1146906 129.285714,54.2671239 L129.285714,58.0093478 L142.214286,58.0093478 L142.214286,54.2671239 C142.214286,24.6268056 119.382429,0 90.5,0 C61.6175714,0 38.7857143,24.6268056 38.7857143,54.2671239 L38.7857143,77.6666667 L32.3214286,77.6666667 C14.4708207,77.6666667 0,92.1553833 0,110.027778 L0,200.638889 C0,218.511283 14.4708207,233 32.3214286,233 L148.678571,233 C166.52905,233 181,218.511283 181,200.638889 L181,110.027778 C181,92.1553833 166.52905,77.6666667 148.678571,77.6666667 L51.7142857,77.6666667 L51.7142857,54.2671239 Z M45.2916667,91 L32.375,91 C21.6744458,91 13,99.66364 13,110.35 L13,200.65 C13,211.33636 21.6744458,220 32.375,220 L148.625,220 C159.325167,220 168,211.33636 168,200.65 L168,110.35 C168,99.66364 159.325167,91 148.625,91 L45.2916667,91 Z M90.5,137 C94.0893,137 97,138.999428 97,141.465001 L97,171.534999 C97,174.000572 94.0893,176 90.5,176 C86.9107,176 84,174.000572 84,171.534999 L84,141.465001 C84,138.999428 86.9107,137 90.5,137 Z" id="Shape" fill="#6312FF"></path>
    </g>
</svg>