<?xml version="1.0" encoding="UTF-8"?>
<svg width="78px" height="78px" viewBox="0 0 78 78" version="1.1" xmlns="http://www.w3.org/2000/svg" xmlns:xlink="http://www.w3.org/1999/xlink">
    <title>Group 18</title>
    <g id="Page-1" stroke="none" stroke-width="1" fill="none" fill-rule="evenodd">
        <g id="Group-18">
            <circle id="Oval-Copy-7" fill="#17DF7E" cx="39" cy="39" r="39"></circle>
            <path d="M41.448,57.738 L41.448,54.336 C47.412,53.874 50.982,50.304 50.982,45.306 C50.982,41.022 48,38.628 43.044,37.578 L38.844,36.696 C36.954,36.318 35.232,35.436 35.232,33.504 C35.232,31.32 37.038,29.934 39.726,29.934 C42.624,29.934 44.598,31.782 44.766,34.554 L50.604,34.554 C50.226,29.43 46.614,25.986 41.448,25.314 L41.448,21.786 L37.626,21.786 L37.626,25.314 C32.712,26.028 29.31,29.43 29.31,33.966 C29.31,39.006 32.796,40.938 36.87,41.862 L41.154,42.744 C43.296,43.206 44.766,44.256 44.766,46.062 C44.766,48.372 42.54,49.674 39.642,49.674 C36.156,49.674 34.182,47.826 34.098,44.844 L28.26,44.844 C28.638,50.01 32.082,53.538 37.626,54.252 L37.626,57.738 L41.448,57.738 Z" id="$" fill="#FFFFFF" fill-rule="nonzero"></path>
        </g>
    </g>
</svg>