<?xml version="1.0" encoding="UTF-8"?>
<svg width="78px" height="78px" viewBox="0 0 78 78" version="1.1" xmlns="http://www.w3.org/2000/svg" xmlns:xlink="http://www.w3.org/1999/xlink">
    <title>Group 20</title>
    <g id="Page-1" stroke="none" stroke-width="1" fill="none" fill-rule="evenodd">
        <g id="Group-20">
            <circle id="Oval-Copy-10" fill="#FB9064" cx="39" cy="39" r="39"></circle>
            <path d="M42.8333333,24 C45.1345198,24 47,25.8492586 47,28.1304348 L47,34 L49,34 C50.6568542,34 52,35.3431458 52,37 L52,50 C52,51.6568542 50.6568542,53 49,53 L30,53 C28.3431458,53 27,51.6568542 27,50 L27,37 C27,35.3431458 28.3431458,34 30,34 L32,34 L32,28.1304348 C32,25.8492586 33.8654802,24 36.1666667,24 L42.8333333,24 Z M42.8333333,26.4782609 L36.1666667,26.4782609 C35.2880318,26.4782609 34.5681957,27.1522469 34.5045714,28.0071311 L34.5,28.1304348 L34.5,34 L44.5,34 L44.5,28.1304348 C44.5,27.2594403 43.8201018,26.5458636 42.9577186,26.4827926 L42.8333333,26.4782609 Z" id="Combined-Shape" fill="#FFFFFF"></path>
        </g>
    </g>
</svg>