<?xml version="1.0" encoding="UTF-8"?>
<svg width="331px" height="331px" viewBox="0 0 331 331" version="1.1" xmlns="http://www.w3.org/2000/svg" xmlns:xlink="http://www.w3.org/1999/xlink">
    <title>log-16</title>
    <g id="Page-1" stroke="none" stroke-width="1" fill="none" fill-rule="evenodd">
        <g id="log-16">
            <g id="Group-25-Copy-5" fill="#FFE41E">
                <rect id="Rectangle-Copy-39" x="0" y="-5.68434189e-14" width="331" height="331"></rect>
            </g>
            <g id="Group-21" transform="translate(93.000000, 89.000000)" fill="#000000" fill-rule="nonzero">
                <path d="M51.5689354,135.598086 C46.0401396,139.062201 40.8184991,142.143541 36,145.167464 C38.1308901,146.200957 40.3001745,147.08134 42.5462478,148 C45.425829,146.086124 48.4397906,144.172249 51.5497382,142.086124 C69.82614,130.019833 87.347326,116.853443 104.015707,102.660287 C117.453752,91.4832536 131.678883,78.9473684 146,67.1578947 C145.884817,66.1052632 145.731239,65.0334928 145.558464,64 C131.390925,75.3301435 117.396161,87.3492823 104.015707,98.0287081 C87.4039629,111.717529 69.8816357,124.269359 51.5689354,135.598086 L51.5689354,135.598086 Z" id="Path"></path>
                <path d="M51.4976988,121.332232 C40.5710205,127.691546 30.91176,132.556803 23,138.169089 C24.7795059,139.522677 26.6230228,140.799648 28.5305507,142 C35.2709094,137.441215 42.9906364,133.054822 51.574512,127.768164 C69.82207,116.498057 87.3089942,104.046414 103.922711,90.493395 C116.846532,80.2840159 130.32725,68.848745 144,57.9306473 C143.750357,56.9537649 143.462308,56.0151915 143.174258,55 C129.731947,65.3051519 116.596889,76.0700132 103.941914,85.7813738 C87.3353887,98.8674601 69.80899,110.748247 51.4976988,121.332232 L51.4976988,121.332232 Z" id="Path"></path>
                <path d="M51.6779661,5.23715415 C56.845339,3.87351779 62.2987288,2.13438735 68,0 C55.3843273,0.178276659 43.0108151,3.61536337 32,10 C37.9110169,8.63636364 44.5275424,7.27272727 51.6779661,5.23715415 Z" id="Path"></path>
                <path d="M103.444309,115.885969 C117.142163,104.108825 131.532604,90.9191869 146,78.493059 C146,77.8058999 146,77.0996529 146,76.4124938 L146,75 C131.45565,87.0634606 117.142163,99.8140803 103.367355,111.266733 C86.7505381,125.450435 69.2610181,138.595439 51,150.625682 C53.3471041,151.198314 55.7519239,151.65642 58.1759822,152 C71.854597,142.188894 87.2069664,130.010907 103.444309,115.885969 Z" id="Path"></path>
                <path d="M1,65 C1.11504794,46.2979493 6.31137974,36.9951749 15.2851188,31.8419783 C24.2588579,26.6887817 37.0291788,24.681544 52.3113797,19.7985525 C66.3431953,15.3580683 79.9587746,9.68108667 93,2.83353438 C90.7373906,2.11942099 88.4556065,1.50180941 86.1162985,1 C75.2174914,6.04613534 63.9155857,10.1587979 52.3305544,13.2943305 C36.9908295,17.5597105 24.3163818,18.814234 15.3426428,23.2533172 C14.7198144,23.5441659 14.1118548,23.8662424 13.5210504,24.2183353 C9.35500068,28.8104136 5.74417052,33.883168 2.76406836,39.3305187 C1.57820016,44.1270709 1.00472851,49.0562365 1.05752397,53.9987937 L1,65 Z" id="Path"></path>
                <path d="M102.995582,143.079904 C114.483063,132.28326 126.468336,120.451059 138.587629,108.906512 C139.468336,106.988813 140.272459,105.071115 141,103 C128.038292,114.947263 115.268041,127.278066 103.014728,138.381542 C98.2665685,142.76668 93.5949926,146.972833 89,151 C91.9390973,150.198826 94.8287025,149.225517 97.6539028,148.085098 C99.4536082,146.474231 101.215022,144.805833 102.995582,143.079904 Z" id="Path"></path>
                <path d="M144.291866,91.1910865 C144.578947,89.8068745 144.808612,88.4034372 145,87 C130.779904,99.4963589 116.751196,112.627148 103.315789,124.431401 C91.277512,135.139819 79.7368421,144.713953 69,153 L69.2105263,153 C71.6411483,153 74.0526316,152.884649 76.4066986,152.653947 C84.9808612,145.52141 93.9952153,137.619866 103.315789,129.103117 C116.521531,117.125837 130.358852,103.841247 144.291866,91.1910865 Z" id="Path"></path>
                <path d="M18.4129061,133 C27.143201,125.324466 38.6817088,119.740515 52.1878761,111.892281 C70.3474852,101.356833 87.7431539,89.5454656 104.244886,76.5464457 C116.108153,67.5468818 128.468111,57.4727431 141,47.7631923 C140.61793,46.8229394 140.216757,45.8443088 139.815584,45 C127.684868,54.0379416 115.745187,63.440471 104.244886,71.8643698 C87.7572645,84.3507808 70.3339916,95.5391751 52.1305656,105.329699 C36.8477738,113.638465 24.0675391,118.934584 15.0506919,127.550371 L14,128.605757 C15.3754513,130.160052 16.8273165,131.618404 18.4129061,133 Z" id="Path"></path>
                <path d="M15.2365378,66.4423077 C24.2229931,59.8461538 37.0033036,56.5384615 52.2936901,50.3076923 C70.4717109,42.8978267 87.9361885,33.8344152 104.468781,23.2307692 C108.588371,20.7115385 112.784605,18.0576923 117,15.3461538 C115.965312,14.5384615 114.911463,13.75 113.819293,13 C110.664134,14.9102564 107.547297,16.7435897 104.468781,18.5 C87.9654671,28.6612479 70.4937226,37.1455282 52.312851,43.8269231 C36.9841427,49.4423077 24.2613148,52.0576923 15.2748596,57.8653846 C6.28840436,63.6730769 1.09580443,73.5961538 1,92.9615385 L1,104 C1,83.7307692 6.2309217,72.9807692 15.2365378,66.4423077 Z" id="Path"></path>
                <path d="M1,46 C1,44.9807692 1,44.0769231 1,43 L1,43.1153846 L1,46 Z" id="Path"></path>
                <path d="M15.1052632,83.9548154 C24.1004785,76.6192193 36.8851675,72.6232499 52.1770335,65.693042 C70.3664295,57.4400893 87.821058,47.6298265 104.349282,36.3699618 C111.105263,31.9686042 117.995215,27.2390751 125,22.4516334 C124.196172,21.6215528 123.373206,20.7914722 122.5311,20 C116.311005,24.1117947 110.244019,27.9726347 104.349282,31.6790412 C87.8535409,42.452917 70.3927826,51.6433146 52.1961722,59.1296139 C36.8851675,65.4420874 24.1578947,68.781714 15.1626794,75.2872295 C6.74162679,81.4645736 1.55502392,91.3676283 1,109.552185 L1.70813397,111 C3.44976077,97.7380144 8.13875598,89.5337293 15.1052632,83.9548154 Z" id="Path"></path>
                <path d="M13.9008703,119.391969 C22.933176,110.691838 35.7625018,105.391096 51.1039976,97.1326931 C69.345197,87.3974068 86.8266315,76.2970538 103.399321,63.9262331 C113.984954,56.2439983 124.934946,47.8703623 136,39.650371 C135.501401,38.7477084 134.964449,37.8642514 134.446674,37 C123.841865,44.5862069 113.352117,52.3644697 103.341791,59.278481 C86.8301049,71.1811028 69.3644574,81.6967401 51.1231745,90.7180271 C35.7816787,98.4002619 22.9715297,102.971192 13.9584009,110.903099 C10.730571,113.713703 8.03471754,117.083686 6,120.851593 C6.97802036,122.272807 7.91768697,123.655609 9.08747603,125 C10.518424,122.988035 12.1295576,121.110922 13.9008703,119.391969 Z" id="Path"></path>
                <path d="M1,85 C1.13315217,65.5336954 6.28804348,55.5020982 15.2092391,49.6679832 C24.1304348,43.8338682 36.798913,41.1382375 51.9592391,35.5736855 C69.9658127,28.945999 87.2936003,20.5629944 103.69837,10.5428289 L106,9.19501358 C104.592391,8.42483337 103.165761,7.69316218 101.701087,7 C85.929964,16.0637165 69.2810507,23.464169 52.0163043,29.0849173 C36.798913,34.0140706 24.1875,35.9587756 15.2663043,41.080474 C6.3451087,46.2021723 1.20923913,55.3865712 1.0951087,73.9479141 C1,77.6255246 1,81.3223895 1,85 Z" id="Path"></path>
                <path d="M51.4340267,74.3218241 C36.0997028,81.2395223 23.3147103,85.1761129 14.3057949,92.3613464 C7.98130412,97.5108552 3.63440765,104.679667 2,112.655809 C2.61337296,113.802389 3.26508172,114.910749 3.91679049,116 C6.03359442,110.176833 9.58658108,104.978553 14.2482912,100.884256 C23.2188707,92.9346363 36.0805349,88.3100977 51.3956909,80.7617807 C69.6449077,71.8399139 87.1442049,61.4680963 103.724071,49.746797 C112.579643,43.7081433 121.722734,37.0961998 131,30.5224756 C130.36107,29.6689106 129.72214,28.8280854 129.08321,28 C120.47682,33.8666667 112.004606,39.7333333 103.762407,45.1986971 C87.2160916,56.4273195 69.7049057,66.173092 51.4340267,74.3218241 Z" id="Path"></path>
            </g>
        </g>
    </g>
</svg>