<?xml version="1.0" encoding="UTF-8"?>
<svg width="331px" height="331px" viewBox="0 0 331 331" version="1.1" xmlns="http://www.w3.org/2000/svg" xmlns:xlink="http://www.w3.org/1999/xlink">
    <title>log-7</title>
    <g id="Page-1" stroke="none" stroke-width="1" fill="none" fill-rule="evenodd">
        <g id="log-7">
            <rect id="Rectangle-Copy-24" fill="#8931F9" x="0" y="0" width="331" height="331"></rect>
            <g id="Group-12" transform="translate(71.680000, 113.580696)" fill="#D3D3D3">
                <path d="M2.289,103.372146 C1.02433333,103.372146 -2.27817765e-13,102.355515 -2.27817765e-13,101.100357 L-2.27817765e-13,64.0616201 C-2.27817765e-13,62.8064622 1.02433333,61.7898307 2.289,61.7898307 C3.55133333,61.7898307 4.578,62.8064622 4.578,64.0616201 L4.578,101.100357 C4.578,102.355515 3.55133333,103.372146 2.289,103.372146" id="Clip-353"></path>
                <path d="M2.289,103.372146 C1.02433333,103.372146 -2.27817765e-13,102.355515 -2.27817765e-13,101.100357 L-2.27817765e-13,64.0616201 C-2.27817765e-13,62.8064622 1.02433333,61.7898307 2.289,61.7898307 C3.55133333,61.7898307 4.578,62.8064622 4.578,64.0616201 L4.578,101.100357 C4.578,102.355515 3.55133333,103.372146 2.289,103.372146" id="Fill-352"></path>
                <path d="M12.5633333,103.402679 C11.2986667,103.402679 10.2743333,102.401211 10.2743333,101.164773 L10.2743333,35.3940543 C10.2743333,34.1576168 11.2986667,33.1561481 12.5633333,33.1561481 C13.8256667,33.1561481 14.85,34.1576168 14.85,35.3940543 L14.85,101.164773 C14.85,102.401211 13.8256667,103.402679 12.5633333,103.402679" id="Clip-356"></path>
                <path d="M12.5633333,103.402679 C11.2986667,103.402679 10.2743333,102.401211 10.2743333,101.164773 L10.2743333,35.3940543 C10.2743333,34.1576168 11.2986667,33.1561481 12.5633333,33.1561481 C13.8256667,33.1561481 14.85,34.1576168 14.85,35.3940543 L14.85,101.164773 C14.85,102.401211 13.8256667,103.402679 12.5633333,103.402679" id="Fill-355"></path>
                <path d="M22.8376667,103.401971 C21.573,103.401971 20.5486667,102.400151 20.5486667,101.163279 L20.5486667,19.5365864 C20.5486667,18.2997146 21.573,17.2978941 22.8376667,17.2978941 C24.1,17.2978941 25.1266667,18.2997146 25.1266667,19.5365864 L25.1266667,101.163279 C25.1266667,102.400151 24.1,103.401971 22.8376667,103.401971" id="Clip-359"></path>
                <path d="M22.8376667,103.401971 C21.573,103.401971 20.5486667,102.400151 20.5486667,101.163279 L20.5486667,19.5365864 C20.5486667,18.2997146 21.573,17.2978941 22.8376667,17.2978941 C24.1,17.2978941 25.1266667,18.2997146 25.1266667,19.5365864 L25.1266667,101.163279 C25.1266667,102.400151 24.1,103.401971 22.8376667,103.401971" id="Fill-358"></path>
                <path d="M34.4453333,103.384049 C33.1806667,103.384049 32.1563333,102.373328 32.1563333,101.125467 L32.1563333,9.61493225 C32.1563333,8.36707179 33.1806667,7.35865319 34.4453333,7.35865319 C35.7076667,7.35865319 36.732,8.36707179 36.732,9.61493225 L36.732,101.125467 C36.732,102.373328 35.7076667,103.384049 34.4453333,103.384049" id="Clip-362"></path>
                <path d="M34.4453333,103.384049 C33.1806667,103.384049 32.1563333,102.373328 32.1563333,101.125467 L32.1563333,9.61493225 C32.1563333,8.36707179 33.1806667,7.35865319 34.4453333,7.35865319 C35.7076667,7.35865319 36.732,8.36707179 36.732,9.61493225 L36.732,101.125467 C36.732,102.373328 35.7076667,103.384049 34.4453333,103.384049" id="Fill-361"></path>
                <path d="M44.7173333,103.395927 C43.455,103.395927 42.4306667,102.391104 42.4306667,101.150527 L42.4306667,5.47497101 C42.4306667,4.23439324 43.455,3.2318599 44.7173333,3.2318599 C45.982,3.2318599 47.0063333,4.23439324 47.0063333,5.47497101 L47.0063333,101.150527 C47.0063333,102.391104 45.982,103.395927 44.7173333,103.395927" id="Clip-365"></path>
                <path d="M44.7173333,103.395927 C43.455,103.395927 42.4306667,102.391104 42.4306667,101.150527 L42.4306667,5.47497101 C42.4306667,4.23439324 43.455,3.2318599 44.7173333,3.2318599 C45.982,3.2318599 47.0063333,4.23439324 47.0063333,5.47497101 L47.0063333,101.150527 C47.0063333,102.391104 45.982,103.395927 44.7173333,103.395927" id="Fill-364"></path>
                <path d="M55.994,103.382261 C54.7293333,103.382261 53.705,102.370652 53.705,101.121696 L53.705,2.26286957 C53.705,1.0116087 54.7293333,1.3500312e-13 55.994,1.3500312e-13 C57.2563333,1.3500312e-13 58.283,1.0116087 58.283,2.26286957 L58.283,101.121696 C58.283,102.370652 57.2563333,103.382261 55.994,103.382261" id="Clip-368"></path>
                <path d="M55.994,103.382261 C54.7293333,103.382261 53.705,102.370652 53.705,101.121696 L53.705,2.26286957 C53.705,1.0116087 54.7293333,1.3500312e-13 55.994,1.3500312e-13 C57.2563333,1.3500312e-13 58.283,1.0116087 58.283,2.26286957 L58.283,101.121696 C58.283,102.370652 57.2563333,103.382261 55.994,103.382261" id="Fill-367"></path>
                <path d="M66.6016667,103.382261 C65.337,103.382261 64.3126667,102.370652 64.3126667,101.121696 L64.3126667,2.26286957 C64.3126667,1.0116087 65.337,1.3500312e-13 66.6016667,1.3500312e-13 C67.864,1.3500312e-13 68.8883333,1.0116087 68.8883333,2.26286957 L68.8883333,101.121696 C68.8883333,102.370652 67.864,103.382261 66.6016667,103.382261" id="Clip-371"></path>
                <path d="M66.6016667,103.382261 C65.337,103.382261 64.3126667,102.370652 64.3126667,101.121696 L64.3126667,2.26286957 C64.3126667,1.0116087 65.337,1.3500312e-13 66.6016667,1.3500312e-13 C67.864,1.3500312e-13 68.8883333,1.0116087 68.8883333,2.26286957 L68.8883333,101.121696 C68.8883333,102.370652 67.864,103.382261 66.6016667,103.382261" id="Fill-370"></path>
                <path d="M76.876,103.395927 C75.6113333,103.395927 74.587,102.391104 74.587,101.150527 L74.587,4.67157101 C74.587,3.43099324 75.6113333,2.42617101 76.876,2.42617101 C78.1383333,2.42617101 79.165,3.43099324 79.165,4.67157101 L79.165,101.150527 C79.165,102.391104 78.1383333,103.395927 76.876,103.395927" id="Clip-374"></path>
                <path d="M76.876,103.395927 C75.6113333,103.395927 74.587,102.391104 74.587,101.150527 L74.587,4.67157101 C74.587,3.43099324 75.6113333,2.42617101 76.876,2.42617101 C78.1383333,2.42617101 79.165,3.43099324 79.165,4.67157101 L79.165,101.150527 C79.165,102.391104 78.1383333,103.395927 76.876,103.395927" id="Fill-373"></path>
                <path d="M88.1503333,103.384049 C86.8856667,103.384049 85.8613333,102.373328 85.8613333,101.125467 L85.8613333,9.61493225 C85.8613333,8.36707179 86.8856667,7.35865319 88.1503333,7.35865319 C89.4126667,7.35865319 90.437,8.36707179 90.437,9.61493225 L90.437,101.125467 C90.437,102.373328 89.4126667,103.384049 88.1503333,103.384049" id="Clip-377"></path>
                <path d="M88.1503333,103.384049 C86.8856667,103.384049 85.8613333,102.373328 85.8613333,101.125467 L85.8613333,9.61493225 C85.8613333,8.36707179 86.8856667,7.35865319 88.1503333,7.35865319 C89.4126667,7.35865319 90.437,8.36707179 90.437,9.61493225 L90.437,101.125467 C90.437,102.373328 89.4126667,103.384049 88.1503333,103.384049" id="Fill-376"></path>
                <path d="M98.7556667,103.386104 C97.491,103.386104 96.469,102.376404 96.469,101.129804 L96.469,17.8123043 C96.469,16.5657043 97.491,15.5560043 98.7556667,15.5560043 C100.020333,15.5560043 101.044667,16.5657043 101.044667,17.8123043 L101.044667,101.129804 C101.044667,102.376404 100.020333,103.386104 98.7556667,103.386104" id="Clip-380"></path>
                <path d="M98.7556667,103.386104 C97.491,103.386104 96.469,102.376404 96.469,101.129804 L96.469,17.8123043 C96.469,16.5657043 97.491,15.5560043 98.7556667,15.5560043 C100.020333,15.5560043 101.044667,16.5657043 101.044667,17.8123043 L101.044667,101.129804 C101.044667,102.376404 100.020333,103.386104 98.7556667,103.386104" id="Fill-379"></path>
                <path d="M109.03,103.391304 C107.767667,103.391304 106.741,102.384187 106.741,101.140775 L106.741,31.9065985 C106.741,30.6631867 107.767667,29.6583632 109.03,29.6583632 C110.294667,29.6583632 111.319,30.6631867 111.319,31.9065985 L111.319,101.140775 C111.319,102.384187 110.294667,103.391304 109.03,103.391304" id="Clip-383"></path>
                <path d="M109.03,103.391304 C107.767667,103.391304 106.741,102.384187 106.741,101.140775 L106.741,31.9065985 C106.741,30.6631867 107.767667,29.6583632 109.03,29.6583632 C110.294667,29.6583632 111.319,30.6631867 111.319,31.9065985 L111.319,101.140775 C111.319,102.384187 110.294667,103.391304 109.03,103.391304" id="Fill-382"></path>
                <path d="M120.304333,103.403784 C119.039667,103.403784 118.015333,102.402864 118.015333,101.167104 L118.015333,50.7403443 C118.015333,49.5045843 119.039667,48.5036643 120.304333,48.5036643 C121.569,48.5036643 122.593333,49.5045843 122.593333,50.7403443 L122.593333,101.167104 C122.593333,102.402864 121.569,103.403784 120.304333,103.403784" id="Clip-386"></path>
                <path d="M120.304333,103.403784 C119.039667,103.403784 118.015333,102.402864 118.015333,101.167104 L118.015333,50.7403443 C118.015333,49.5045843 119.039667,48.5036643 120.304333,48.5036643 C121.569,48.5036643 122.593333,49.5045843 122.593333,50.7403443 L122.593333,101.167104 C122.593333,102.402864 121.569,103.403784 120.304333,103.403784" id="Fill-385"></path>
                <path d="M130.912,103.405749 C129.649667,103.405749 128.623,102.405804 128.623,101.171249 L128.623,68.3348043 C128.623,67.1002488 129.649667,66.1025821 130.912,66.1025821 C132.176667,66.1025821 133.201,67.1002488 133.201,68.3348043 L133.201,101.171249 C133.201,102.405804 132.176667,103.405749 130.912,103.405749" id="Clip-389"></path>
                <path d="M130.912,103.405749 C129.649667,103.405749 128.623,102.405804 128.623,101.171249 L128.623,68.3348043 C128.623,67.1002488 129.649667,66.1025821 130.912,66.1025821 C132.176667,66.1025821 133.201,67.1002488 133.201,68.3348043 L133.201,101.171249 C133.201,102.405804 132.176667,103.405749 130.912,103.405749" id="Fill-388"></path>
                <path d="M141.186333,103.379304 C139.921667,103.379304 138.897333,102.366227 138.897333,101.115458 L138.897333,79.1439197 C138.897333,77.8931505 139.921667,76.8800736 141.186333,76.8800736 C142.451,76.8800736 143.475333,77.8931505 143.475333,79.1439197 L143.475333,101.115458 C143.475333,102.366227 142.451,103.379304 141.186333,103.379304" id="Clip-392"></path>
                <path d="M141.186333,103.379304 C139.921667,103.379304 138.897333,102.366227 138.897333,101.115458 L138.897333,79.1439197 C138.897333,77.8931505 139.921667,76.8800736 141.186333,76.8800736 C142.451,76.8800736 143.475333,77.8931505 143.475333,79.1439197 L143.475333,101.115458 C143.475333,102.366227 142.451,103.379304 141.186333,103.379304" id="Fill-391"></path>
                <path d="M152.460667,103.356638 C151.196,103.356638 150.171667,102.332304 150.171667,101.067638 L150.171667,87.5506377 C150.171667,86.285971 151.196,85.263971 152.460667,85.263971 C153.723,85.263971 154.749667,86.285971 154.749667,87.5506377 L154.749667,101.067638 C154.749667,102.332304 153.723,103.356638 152.460667,103.356638" id="Clip-395"></path>
                <path d="M152.460667,103.356638 C151.196,103.356638 150.171667,102.332304 150.171667,101.067638 L150.171667,87.5506377 C150.171667,86.285971 151.196,85.263971 152.460667,85.263971 C153.723,85.263971 154.749667,86.285971 154.749667,87.5506377 L154.749667,101.067638 C154.749667,102.332304 153.723,103.356638 152.460667,103.356638" id="Fill-394"></path>
                <path d="M162.735,103.398733 C161.472667,103.398733 160.446,102.395304 160.446,101.156447 L160.446,91.6593043 C160.446,90.4204472 161.472667,89.4170186 162.735,89.4170186 C163.999667,89.4170186 165.024,90.4204472 165.024,91.6593043 L165.024,101.156447 C165.024,102.395304 163.999667,103.398733 162.735,103.398733" id="Clip-398"></path>
                <path d="M162.735,103.398733 C161.472667,103.398733 160.446,102.395304 160.446,101.156447 L160.446,91.6593043 C160.446,90.4204472 161.472667,89.4170186 162.735,89.4170186 C163.999667,89.4170186 165.024,90.4204472 165.024,91.6593043 L165.024,101.156447 C165.024,102.395304 163.999667,103.398733 162.735,103.398733" id="Fill-397"></path>
                <path d="M174.342667,103.398733 C173.078,103.398733 172.053667,102.395304 172.053667,101.156447 L172.053667,93.4421615 C172.053667,92.2033043 173.078,91.2021615 174.342667,91.2021615 C175.607333,91.2021615 176.631667,92.2033043 176.631667,93.4421615 L176.631667,101.156447 C176.631667,102.395304 175.607333,103.398733 174.342667,103.398733" id="Clip-401"></path>
                <path d="M174.342667,103.398733 C173.078,103.398733 172.053667,102.395304 172.053667,101.156447 L172.053667,93.4421615 C172.053667,92.2033043 173.078,91.2021615 174.342667,91.2021615 C175.607333,91.2021615 176.631667,92.2033043 176.631667,93.4421615 L176.631667,101.156447 C176.631667,102.395304 175.607333,103.398733 174.342667,103.398733" id="Fill-400"></path>
                <path d="M184.617,103.356638 C183.354667,103.356638 182.328,102.332304 182.328,101.067638 L182.328,95.0313043 C182.328,93.7643043 183.354667,92.7423043 184.617,92.7423043 C185.881667,92.7423043 186.906,93.7643043 186.906,95.0313043 L186.906,101.067638 C186.906,102.332304 185.881667,103.356638 184.617,103.356638" id="Clip-404"></path>
                <path d="M184.617,103.356638 C183.354667,103.356638 182.328,102.332304 182.328,101.067638 L182.328,95.0313043 C182.328,93.7643043 183.354667,92.7423043 184.617,92.7423043 C185.881667,92.7423043 186.906,93.7643043 186.906,95.0313043 L186.906,101.067638 C186.906,102.332304 185.881667,103.356638 184.617,103.356638" id="Fill-403"></path>
            </g>
        </g>
    </g>
</svg>