<?xml version="1.0" encoding="UTF-8"?>
<svg width="331px" height="331px" viewBox="0 0 331 331" version="1.1" xmlns="http://www.w3.org/2000/svg" xmlns:xlink="http://www.w3.org/1999/xlink">
    <title>log-2</title>
    <g id="Page-1" stroke="none" stroke-width="1" fill="none" fill-rule="evenodd">
        <g id="log-2">
            <rect id="Rectangle-Copy-18" fill="#32A6FD" x="0" y="0" width="331" height="331"></rect>
            <g id="Group-11" transform="translate(98.000000, 102.000000)">
                <path d="M122.41356,0.5 C129.913505,0.5 135.993412,6.57390767 135.993412,14.0664525 C135.993412,14.5867681 135.964091,15.1002423 135.907011,15.605316 L135.891065,16.2617403 C134.716653,52.5095258 104.991368,81.5334981 68.49386,81.5334981 C32.1173561,81.5334981 2.46824444,52.7016592 1.10927651,16.6220297 C1.03330971,16.0466751 0.993710692,15.460197 0.993710692,14.8644791 C0.993710692,7.59230325 6.89479657,1.69703993 14.1741549,1.69703993 C21.0382318,1.69703993 26.6768092,6.93885015 27.2978217,13.634147 L27.3954893,13.63424 C27.3954893,36.1340749 45.6172123,54.3737949 68.0948467,54.3737949 C90.5724812,54.3737949 108.794204,36.1340749 108.794204,13.63424 L108.794204,13.63424 L108.840476,13.634029 C109.069045,6.34159774 115.05844,0.5 122.41356,0.5 Z" id="Combined-Shape" fill="#77E3FF"></path>
                <rect id="Rectangle" fill="#40CDE8" x="27.9937107" y="96.5" width="81" height="30" rx="15"></rect>
            </g>
        </g>
    </g>
</svg>