<?xml version="1.0" encoding="UTF-8"?>
<svg width="331px" height="331px" viewBox="0 0 331 331" version="1.1" xmlns="http://www.w3.org/2000/svg" xmlns:xlink="http://www.w3.org/1999/xlink">
    <title>log-13</title>
    <g id="Page-1" stroke="none" stroke-width="1" fill="none" fill-rule="evenodd">
        <g id="log-13">
            <rect id="Rectangle-Copy-39" fill="#FF581E" x="0" y="0" width="331" height="331"></rect>
            <path d="M166,93 C125.734737,93 93,125.734737 93,166 C93,206.265263 125.734737,239 166,239 C206.265263,239 239,206.265263 239,166 C239,125.734737 206.265263,93 166,93 Z M183.52,127.886316 C188.898947,127.886316 193.202105,132.189474 193.202105,137.568421 C193.202105,142.947368 188.898947,147.250526 183.52,147.250526 C178.141053,147.250526 173.837895,142.947368 173.837895,137.568421 C173.837895,132.189474 178.141053,127.886316 183.52,127.886316 Z M203.037895,192.126316 L128.962105,192.126316 C124.505263,192.126316 121.892632,187.054737 124.505263,183.52 L151.861053,145.406316 C154.012632,142.332632 158.623158,142.332632 160.774737,145.406316 L176.604211,167.536842 C177.372632,168.612632 178.909474,168.612632 179.677895,167.536842 L183.366316,162.465263 C185.517895,159.391579 190.128421,159.391579 192.28,162.465263 L207.494737,183.52 C210.107368,187.054737 207.494737,192.126316 203.037895,192.126316 Z" id="Shape" fill="#FFE841" fill-rule="nonzero"></path>
        </g>
    </g>
</svg>