<?xml version="1.0" encoding="UTF-8"?>
<svg width="331px" height="331px" viewBox="0 0 331 331" version="1.1" xmlns="http://www.w3.org/2000/svg" xmlns:xlink="http://www.w3.org/1999/xlink">
    <title>log-3</title>
    <g id="Page-1" stroke="none" stroke-width="1" fill="none" fill-rule="evenodd">
        <g id="log-3">
            <rect id="Rectangle-Copy-21" fill="#113F97" x="0" y="0" width="331" height="331"></rect>
            <g id="Group-10" transform="translate(65.000000, 98.000000)">
                <path d="M67.6363636,-2.90909091 C81.2928593,-2.90909091 92.3636364,8.16168619 92.3636364,21.8181818 L92.3636364,114.181818 C92.3636364,127.838314 81.2928593,138.909091 67.6363636,138.909091 C53.979868,138.909091 42.9090909,127.838314 42.9090909,114.181818 L42.9090909,21.8181818 C42.9090909,8.16168619 53.979868,-2.90909091 67.6363636,-2.90909091 Z" id="Rectangle" fill="#F45BD6" transform="translate(67.636364, 68.000000) rotate(45.000000) translate(-67.636364, -68.000000) "></path>
                <path d="M133.090909,-2.90909091 C146.747405,-2.90909091 157.818182,8.16168619 157.818182,21.8181818 L157.818182,114.181818 C157.818182,127.838314 146.747405,138.909091 133.090909,138.909091 C119.434413,138.909091 108.363636,127.838314 108.363636,114.181818 L108.363636,21.8181818 C108.363636,8.16168619 119.434413,-2.90909091 133.090909,-2.90909091 Z" id="Rectangle" fill="#5A93FF" transform="translate(133.090909, 68.000000) scale(-1, 1) rotate(45.000000) translate(-133.090909, -68.000000) "></path>
                <path d="M117.905493,17.0207418 C117.987116,17.101221 118.06817,17.182275 118.148649,17.2638977 C127.773614,27.0256208 127.773614,42.7079581 118.148649,52.4696812 L100.8629,69.9997514 L83.5786236,52.4696812 C74.050881,42.8065614 73.9546412,27.3418316 83.2899041,17.5615076 L83.5786236,17.2638977 C83.6591028,17.182275 83.7401568,17.101221 83.8217795,17.0207418 C88.5167718,12.3915249 94.6144283,10.0557961 100.724931,10.0037514 L101.002342,10.0037514 C107.112844,10.0557961 113.210501,12.3915249 117.905493,17.0207418 Z" id="Combined-Shape" fill="#5BF4E7" opacity="0.543378557"></path>
            </g>
        </g>
    </g>
</svg>