<?xml version="1.0" encoding="UTF-8"?>
<svg width="331px" height="331px" viewBox="0 0 331 331" version="1.1" xmlns="http://www.w3.org/2000/svg" xmlns:xlink="http://www.w3.org/1999/xlink">
    <title>log-14</title>
    <g id="Page-1" stroke="none" stroke-width="1" fill="none" fill-rule="evenodd">
        <g id="log-14">
            <rect id="Rectangle-Copy-39" fill="#60C48F" x="0" y="0" width="331" height="331"></rect>
            <g id="Group-14" transform="translate(93.000000, 93.000000)" fill-rule="nonzero">
                <path d="M16.8967359,112.13341 C30.1418932,125.288863 51.5666227,125.288863 64.81178,112.13341 L64.81178,112.13341 C72.8721512,104.101095 76.3372286,92.5654398 74.0316201,81.4394643 C71.7260116,70.3134888 63.9591501,61.0903978 53.3656404,56.8987651 L79.1612287,31.1864445 C93.6320243,16.7993983 117.054433,16.7993983 131.525229,31.1864445 L146,16.7583974 C123.530479,-5.58613247 87.1559778,-5.58613247 64.6864573,16.7583974 L19.9671419,61.3333597 L20.1969002,61.5415566 C19.0343147,62.4179649 17.9318022,63.370855 16.8967359,64.3938545 C3.70108804,77.5891239 3.70108804,98.9381407 16.8967359,112.13341 Z M31.9260104,78.5288789 C35.7146732,74.7503049 41.4154545,73.6181473 46.3689502,75.6605555 C51.3224459,77.7029637 54.5526316,82.5175067 54.5526316,87.858209 C54.5526316,93.1989113 51.3224459,98.0134542 46.3689502,100.055862 C41.4154545,102.098271 35.7146732,100.966113 31.9260104,97.187539 C29.4339806,94.7176616 28.0328947,91.360147 28.0328947,87.858209 C28.0328947,84.3562709 29.4339806,80.9987563 31.9260104,78.5288789 L31.9260104,78.5288789 Z" id="Shape" fill="#BAFF1E"></path>
                <path d="M129.080906,34.8605548 C119.335338,25.2039037 104.646765,22.337415 91.9196354,27.6084984 C79.1925058,32.8795817 70.958311,45.2397917 71.087582,58.87914 C71.216853,72.5184883 79.6838772,84.7240388 92.5086808,89.7585018 L66.9897666,115.003694 C52.4862801,129.30304 29.0109578,129.30304 14.5074713,115.003694 L0,129.343791 C22.5202813,151.552114 58.9769565,151.552114 81.4972379,129.343791 L129.080906,82.3091008 C142.306365,69.1942668 142.306365,47.9753888 129.080906,34.8605548 Z M114.0722,67.5460564 L114.0722,67.5460564 C109.594838,71.9896092 102.586206,72.668757 97.3310753,69.1682986 C92.0759443,65.6678402 90.0372976,58.9622733 92.4614747,53.1510882 C94.8856519,47.3399031 101.097782,44.0408843 107.300042,45.2709075 C113.502301,46.5009307 117.968033,51.917568 117.967105,58.2093242 C117.97344,61.7139981 116.57107,65.0757306 114.0722,67.5460564 Z" id="Shape" fill="#FFFFFF"></path>
            </g>
        </g>
    </g>
</svg>