<?xml version="1.0" encoding="UTF-8"?>
<svg width="331px" height="331px" viewBox="0 0 331 331" version="1.1" xmlns="http://www.w3.org/2000/svg" xmlns:xlink="http://www.w3.org/1999/xlink">
    <title>log-9</title>
    <g id="Page-1" stroke="none" stroke-width="1" fill="none" fill-rule="evenodd">
        <g id="log-9">
            <g id="Group-24">
                <rect id="Rectangle-Copy-39" fill="#FF2C4D" x="0" y="5.68434189e-14" width="331" height="331"></rect>
                <rect id="Rectangle" fill="#FFB81E" transform="translate(193.592820, 226.463170) rotate(-25.000000) translate(-193.592820, -226.463170) " x="160.59282" y="215.46317" width="66" height="22" rx="11"></rect>
                <path d="M157.50446,206.452803 C193.22846,206.452803 215.38046,180.244803 213.97646,143.740803 L156.25646,143.740803 L156.25646,162.616803 L188.70446,162.616803 C185.58446,176.500803 175.13246,186.328803 158.59646,186.328803 C136.13246,186.328803 124.12046,169.792803 124.12046,148.264803 C124.12046,124.240803 137.84846,110.980803 155.94446,110.980803 C170.92046,110.980803 181.21646,119.560803 184.64846,130.948803 L212.57246,130.948803 C205.24046,106.612803 184.96046,89.7648029 156.56846,89.7648029 C123.80846,89.7648029 99.7844601,114.568803 99.7844601,147.640803 C99.7844601,182.272803 125.05646,206.452803 157.50446,206.452803 Z" id="G" fill="#FFFFFF" fill-rule="nonzero" transform="translate(156.911974, 148.108803) rotate(-25.000000) translate(-156.911974, -148.108803) "></path>
            </g>
            <g id="Group-23" transform="translate(165.556546, 165.765769) rotate(-25.000000) translate(-165.556546, -165.765769) translate(108.056546, 87.765769)"></g>
        </g>
    </g>
</svg>