<?xml version="1.0" encoding="UTF-8"?>
<svg width="331px" height="331px" viewBox="0 0 331 331" version="1.1" xmlns="http://www.w3.org/2000/svg" xmlns:xlink="http://www.w3.org/1999/xlink">
    <title>log-4</title>
    <g id="Page-1" stroke="none" stroke-width="1" fill="none" fill-rule="evenodd">
        <g id="log-4">
            <rect id="Rectangle-Copy-22" fill="#F94931" x="0" y="0" width="331" height="331"></rect>
            <path d="M123,106 C132.941125,106 141,114.058875 141,124 L141,209 C141,218.941125 132.941125,227 123,227 C113.058875,227 105,218.941125 105,209 L105,124 C105,114.058875 113.058875,106 123,106 Z M173,124 C182.941125,124 191,132.058875 191,142 L191,191 C191,200.941125 182.941125,209 173,209 C163.058875,209 155,200.941125 155,191 L155,142 C155,132.058875 163.058875,124 173,124 Z M225.5,150 C235.717268,150 244,158.282732 244,168.5 C244,178.717268 235.717268,187 225.5,187 C215.282732,187 207,178.717268 207,168.5 C207,158.282732 215.282732,150 225.5,150 Z" id="Combined-Shape" fill="#FCFBF7"></path>
        </g>
    </g>
</svg>