<?xml version="1.0" encoding="UTF-8"?>
<svg width="331px" height="331px" viewBox="0 0 331 331" version="1.1" xmlns="http://www.w3.org/2000/svg" xmlns:xlink="http://www.w3.org/1999/xlink">
    <title>log-8</title>
    <g id="Page-1" stroke="none" stroke-width="1" fill="none" fill-rule="evenodd">
        <g id="log-8">
            <rect id="Rectangle-Copy-39" fill="#54B1F4" x="0" y="0" width="331" height="331"></rect>
            <path d="M158.336103,110.006912 C124.311353,109.811301 96.0969298,136.847708 95.0320995,171.041492 C93.9316221,205.777434 121.263602,234.867553 156.00974,235.968967 C190.738559,237.050765 219.867637,209.714862 220.968974,174.979206 C222.050554,140.243522 194.720005,111.108384 159.991329,110.006912 C159.448606,109.990016 158.876249,110.009776 158.336103,110.006912 L158.336103,110.006912 Z M158.336103,115.734497 C158.828147,115.737361 159.3179,115.719606 159.812378,115.734497 C174.25931,116.193148 187.245864,121.950288 197.0342,131.082636 L113.732627,209.344717 C105.23288,198.999553 100.300417,185.672751 100.758531,171.220479 C101.728446,140.073641 127.342068,115.552818 158.336103,115.734497 L158.336103,115.734497 Z" id="Shape" fill="#FFFFFF"></path>
        </g>
    </g>
</svg>