<?xml version="1.0" encoding="UTF-8"?>
<svg width="331px" height="331px" viewBox="0 0 331 331" version="1.1" xmlns="http://www.w3.org/2000/svg" xmlns:xlink="http://www.w3.org/1999/xlink">
    <title>log-6</title>
    <g id="Page-1" stroke="none" stroke-width="1" fill="none" fill-rule="evenodd">
        <g id="log-6">
            <rect id="Rectangle-Copy-35" fill="#25B3FC" x="0" y="0" width="331" height="331"></rect>
            <path d="M157.336134,231 C189.403361,231 209,213.80597 209,189.268657 C209,170.283582 196.885714,159.895522 174.438655,155.41791 L152.52605,150.940299 C143.262185,149.149254 135.245378,145.38806 135.245378,136.61194 C135.245378,127.656716 142.727731,120.134328 155.910924,120.134328 C169.45042,120.134328 178.714286,129.268657 179.605042,142.701493 L207.040336,142.701493 C205.258824,115.835821 184.236975,99 155.554622,99 C127.941176,99 107.810084,115.477612 107.810084,138.402985 C107.810084,159.716418 122.77479,170.283582 142.193277,174.044776 L163.215126,178.164179 C174.082353,180.313433 180.317647,185.149254 180.317647,193.208955 C180.317647,203.597015 170.519328,209.686567 156.801681,209.686567 C140.233613,209.686567 131.147899,200.552239 130.435294,186.402985 L103,186.402985 C104.959664,213.626866 125.090756,231 157.336134,231 Z M233.588235,230 C243.294118,230 250,222.984127 250,213.089947 C250,203.015873 243.294118,196 233.588235,196 C223.882353,196 217,203.015873 217,213.089947 C217,222.984127 223.882353,230 233.588235,230 Z" id="S.-Copy" fill="#FFFFFF" fill-rule="nonzero"></path>
        </g>
    </g>
</svg>