<?xml version="1.0" encoding="UTF-8"?>
<svg width="331px" height="331px" viewBox="0 0 331 331" version="1.1" xmlns="http://www.w3.org/2000/svg" xmlns:xlink="http://www.w3.org/1999/xlink">
    <title>Group 13</title>
    <g id="Page-1" stroke="none" stroke-width="1" fill="none" fill-rule="evenodd">
        <g id="Group-13" transform="translate(0.000000, -0.000000)">
            <rect id="log-15" fill="#433C44" x="0" y="0" width="331" height="331"></rect>
            <path d="M205,101 C222.120827,101 236,114.655315 236,131.5 C236,141.896866 230.712594,151.078711 222.639041,156.584616 C224.178107,162.126156 225,167.967096 225,174 C225,209.898509 195.898509,239 160,239 C124.101491,239 95,209.898509 95,174 C95,138.101491 124.101491,109 160,109 C167.283119,109 174.286469,110.197836 180.823791,112.407249 C186.504678,105.45232 195.223868,101 205,101 Z M160,121.760736 C131.149051,121.760736 107.760736,145.149051 107.760736,174 C107.760736,202.850949 131.149051,226.239264 160,226.239264 C188.850949,226.239264 212.239264,202.850949 212.239264,174 C212.239264,169.68417 211.715896,165.490579 210.729164,161.479233 C208.872564,161.821498 206.95747,162 205,162 C187.879173,162 174,148.344685 174,131.5 C174,128.888354 174.333631,126.353375 174.961247,123.934069 C170.221407,122.52034 165.199411,121.760736 160,121.760736 Z" id="Combined-Shape" fill="#FFFFFF" fill-rule="nonzero"></path>
        </g>
    </g>
</svg>