<svg width="430" height="59" viewBox="0 0 430 59" fill="none" xmlns="http://www.w3.org/2000/svg">
<g clip-path="url(#clip0_2_173)">
<path d="M74.9589 21.6259C74.9589 23.0669 75.6347 24.2197 76.9967 25.1152C78.3484 26.0004 80.4784 26.721 83.3662 27.2974C86.8888 27.987 89.4899 29.0987 91.1693 30.622C92.8487 32.1557 93.6986 34.2452 93.6986 36.9214C93.6986 39.5976 92.6234 41.9136 90.4729 43.7972C88.3225 45.6808 85.4961 46.6278 81.9735 46.6278C78.4508 46.6278 75.3378 45.6911 73.0747 43.8178C70.8116 41.9444 69.3882 39.4947 68.825 36.4685L73.1668 34.2246C74.0885 39.6182 77.0172 42.315 81.9325 42.315C83.9908 42.315 85.6497 41.8106 86.8991 40.8122C88.1484 39.8035 88.773 38.5683 88.773 37.1067C88.773 35.4907 88.1279 34.2452 86.8479 33.3703C85.5678 32.4954 83.4788 31.7852 80.5808 31.2087C77.3858 30.5809 74.877 29.4795 73.044 27.9252C71.2109 26.3607 70.2893 24.2918 70.2893 21.7185C70.2893 19.1452 71.3133 17.0969 73.3512 15.5118C75.389 13.9266 78.0412 13.1238 81.2874 13.1238C84.1751 13.1238 86.6533 13.8237 88.7116 15.2133C90.7699 16.6028 92.2445 18.5791 93.1354 21.1215L89.2031 23.4169C87.8617 19.4334 85.2094 17.4366 81.2362 17.4366C79.4441 17.4366 77.9491 17.8071 76.7407 18.5379C75.5323 19.2688 74.9282 20.2981 74.9282 21.6156L74.9589 21.6259Z" fill="white"/>
<path d="M120.856 35.6143H102.833C102.925 37.6523 103.601 39.3095 104.871 40.6064C106.141 41.8931 107.769 42.5416 109.766 42.5416C111.496 42.5416 112.879 42.1401 113.903 41.327C114.927 40.5138 115.818 39.3507 116.565 37.817L120.139 39.9786C117.989 44.4149 114.486 46.6279 109.622 46.6279C106.427 46.6279 103.724 45.4957 101.502 43.2312C99.2795 40.9667 98.1736 38.0846 98.1736 34.5747C98.1736 31.0648 99.3 28.1827 101.553 25.9182C103.806 23.6537 106.571 22.5215 109.848 22.5215C113.124 22.5215 115.777 23.5817 117.814 25.7123C119.842 27.843 120.856 30.581 120.856 33.9365V35.604V35.6143ZM109.766 26.3093C108.096 26.3093 106.622 26.8446 105.362 27.9048C104.092 28.965 103.253 30.3442 102.833 32.022H116.391C116.217 30.2516 115.49 28.862 114.22 27.843C112.95 26.824 111.465 26.3093 109.766 26.3093V26.3093Z" fill="white"/>
<path d="M147.911 13.762V45.9999H143.262V42.315C141.592 45.1971 139.084 46.6278 135.745 46.6278C132.581 46.6278 129.949 45.5162 127.85 43.3031C125.751 41.0798 124.696 38.1772 124.696 34.5849C124.696 30.9926 125.781 28.1517 127.963 25.9078C130.144 23.6639 132.704 22.5317 135.653 22.5317C139.258 22.5317 141.797 23.8904 143.262 26.6283V13.762H147.911ZM131.495 40.1329C132.868 41.5842 134.537 42.315 136.503 42.315C138.469 42.315 140.138 41.5842 141.51 40.1329C142.883 38.6815 143.569 36.8288 143.569 34.5849C143.569 32.341 142.883 30.4882 141.51 29.0369C140.138 27.5856 138.469 26.8548 136.503 26.8548C134.537 26.8548 132.868 27.5856 131.495 29.0369C130.123 30.4882 129.437 32.341 129.437 34.5849C129.437 36.8288 130.123 38.6815 131.495 40.1329Z" fill="white"/>
<path d="M175.334 27.987C176.553 29.8604 177.167 32.0528 177.167 34.5746C177.167 37.0964 176.553 39.2889 175.334 41.1622C174.116 43.0355 172.6 44.4148 170.798 45.3C168.995 46.1852 167.06 46.6278 165.002 46.6278C161.776 46.6278 158.95 45.5573 156.523 43.4164C154.096 41.2754 152.877 38.3316 152.877 34.5849C152.877 30.8382 154.096 27.8944 156.523 25.7534C158.95 23.6125 161.776 22.542 165.002 22.542C167.06 22.542 168.985 22.9846 170.798 23.8698C172.6 24.755 174.116 26.1343 175.334 28.0076V27.987ZM159.769 40.1535C161.203 41.5945 162.943 42.315 165.002 42.315C167.06 42.315 168.801 41.5945 170.235 40.1535C171.668 38.7124 172.385 36.8597 172.385 34.5746C172.385 32.2896 171.668 30.4368 170.235 28.9958C168.801 27.5547 167.06 26.8342 165.002 26.8342C162.943 26.8342 161.203 27.5547 159.769 28.9958C158.335 30.4368 157.618 32.2896 157.618 34.5746C157.618 36.8597 158.335 38.7124 159.769 40.1535Z" fill="white"/>
<path d="M202.44 30.4883V46H197.791V31.8779C197.791 30.2928 197.351 29.0473 196.47 28.1724C195.59 27.2872 194.35 26.8446 192.732 26.8446C191.115 26.8446 189.65 27.5033 188.503 28.8209C187.356 30.1384 186.783 31.847 186.783 33.9468V46H182.134V23.1597H186.783V26.9784C187.612 25.63 188.708 24.5492 190.07 23.7361C191.422 22.9229 192.907 22.5215 194.525 22.5215C196.818 22.5215 198.713 23.2214 200.208 24.6316C201.693 26.0417 202.44 27.9871 202.44 30.478V30.4883Z" fill="white"/>
<path d="M228.604 46H223.955C223.146 45.0736 222.716 43.7355 222.655 41.996C221.159 45.0839 218.64 46.6279 215.097 46.6279C212.803 46.6279 210.94 45.9794 209.506 44.6722C208.072 43.365 207.356 41.6872 207.356 39.6183C207.356 37.5494 208.103 35.7584 209.588 34.5129C211.073 33.2675 212.998 32.4646 215.353 32.1044L222.552 30.9309V29.984C222.552 27.3489 220.975 26.0314 217.811 26.0314C216.254 26.0314 215.087 26.3093 214.278 26.8652C213.469 27.421 213.07 28.1312 213.07 28.9958C213.07 29.2326 213.1 29.4796 213.162 29.7164L209.004 31.1059C208.769 30.5398 208.646 29.9222 208.646 29.2635C208.646 27.4004 209.475 25.8153 211.155 24.4978C212.824 23.1802 215.046 22.5215 217.821 22.5215C220.893 22.5215 223.238 23.1802 224.846 24.4978C226.454 25.8153 227.263 27.7401 227.263 30.2516V40.2771C227.263 42.5827 227.713 44.4869 228.604 45.9897V46ZM215.855 42.7165C217.852 42.7165 219.47 41.9857 220.709 40.5344C221.948 39.0831 222.562 37.2406 222.562 35.0276V34.3997L216.439 35.4805C213.52 35.9849 212.056 37.2818 212.056 39.3507C212.056 40.3697 212.404 41.1829 213.111 41.8004C213.807 42.418 214.729 42.7268 215.865 42.7268L215.855 42.7165Z" fill="white"/>
<path d="M238.64 45.9999V13.762H243.698L258.055 36.2421C258.803 37.4155 259.264 38.2183 259.438 38.6712V13.762H264.179V45.9999H259.171L244.763 23.5198C244.016 22.3464 243.555 21.5435 243.381 21.0906V45.9999H238.64V45.9999Z" fill="#3180C3"/>
<path d="M292.002 35.6143H273.979C274.071 37.6523 274.747 39.3095 276.017 40.6064C277.287 41.8931 278.915 42.5416 280.912 42.5416C282.642 42.5416 284.025 42.1401 285.049 41.327C286.073 40.5138 286.964 39.3507 287.711 37.817L291.295 39.9786C289.145 44.4149 285.643 46.6279 280.778 46.6279C277.584 46.6279 274.88 45.4957 272.658 43.2312C270.436 40.9667 269.33 38.0846 269.33 34.5747C269.33 31.0648 270.456 28.1827 272.709 25.9182C274.962 23.6537 277.727 22.5215 281.004 22.5215C284.281 22.5215 286.933 23.5817 288.971 25.7123C290.998 27.843 292.012 30.581 292.012 33.9365V35.604L292.002 35.6143ZM280.912 26.3093C279.242 26.3093 277.768 26.8446 276.508 27.9048C275.238 28.965 274.399 30.3442 273.979 32.022H287.537C287.363 30.2516 286.636 28.862 285.366 27.843C284.096 26.824 282.611 26.3093 280.912 26.3093V26.3093Z" fill="#3180C3"/>
<path d="M294.552 26.9372V23.1597H298.218V17.0044H302.867V23.1597H307.966V26.9372H302.867V39.0316C302.867 41.2755 303.911 42.4077 306 42.4077C306.533 42.4077 307.106 42.3151 307.7 42.1401L308.1 46.0927C307.116 46.4529 305.98 46.6279 304.7 46.6279C300.378 46.6279 298.218 44.384 298.218 39.8859V26.9372H294.552V26.9372Z" fill="#3180C3"/>
<path d="M329.266 23.1597L333.833 39.9271L337.95 23.1597H342.65L336.25 46H331.509L326.901 29.0473L322.334 46H317.592L311.192 23.1597H315.892L320.009 39.9271L324.576 23.1597H329.276H329.266Z" fill="#3180C3"/>
<path d="M366.612 27.987C367.831 29.8604 368.445 32.0528 368.445 34.5746C368.445 37.0964 367.831 39.2889 366.612 41.1622C365.394 43.0355 363.878 44.4148 362.076 45.3C360.274 46.1852 358.338 46.6278 356.28 46.6278C353.054 46.6278 350.228 45.5573 347.801 43.4164C345.374 41.2754 344.156 38.3316 344.156 34.5849C344.156 30.8382 345.374 27.8944 347.801 25.7534C350.228 23.6125 353.054 22.542 356.28 22.542C358.338 22.542 360.263 22.9846 362.076 23.8698C363.878 24.755 365.394 26.1343 366.612 28.0076V27.987ZM351.047 40.1535C352.481 41.5945 354.222 42.315 356.28 42.315C358.338 42.315 360.079 41.5945 361.513 40.1535C362.946 38.7124 363.663 36.8597 363.663 34.5746C363.663 32.2896 362.946 30.4368 361.513 28.9958C360.079 27.5547 358.338 26.8342 356.28 26.8342C354.222 26.8342 352.481 27.5547 351.047 28.9958C349.614 30.4368 348.897 32.2896 348.897 34.5746C348.897 36.8597 349.614 38.7124 351.047 40.1535Z" fill="#3180C3"/>
<path d="M386.294 22.7479L385.537 27.1945C384.973 27.0195 384.369 26.9269 383.745 26.9269C382.106 26.9269 380.744 27.5959 379.669 28.9237C378.594 30.2619 378.061 31.9396 378.061 33.9777V45.9794H373.412V23.1596H378.061V27.0298C379.464 24.0345 381.656 22.5317 384.635 22.5317C385.086 22.5317 385.629 22.6038 386.294 22.7582V22.7479Z" fill="#3180C3"/>
<path d="M394.845 13.762V30.8485L402.587 23.1596H408.311L400.303 31.0749L409.693 45.9999H404.235L396.944 34.3996L394.845 36.5097V45.9999H390.196V13.762H394.845Z" fill="#3180C3"/>
<path d="M416.667 28.6868C416.667 29.6132 417.138 30.3646 418.08 30.9307C419.022 31.4969 420.446 31.96 422.351 32.3203C424.972 32.8555 426.907 33.6687 428.147 34.7495C429.386 35.8302 430 37.3125 430 39.1961C430 41.2959 429.211 43.056 427.624 44.4764C426.047 45.8969 423.897 46.6071 421.183 46.6071C418.644 46.6071 416.534 45.9792 414.834 44.7235C413.134 43.4677 411.916 41.8414 411.168 39.8651L414.967 37.4771C416.247 40.8944 418.336 42.6031 421.234 42.6031C422.453 42.6031 423.487 42.3046 424.317 41.7076C425.146 41.1106 425.566 40.3283 425.566 39.3711C425.566 38.4138 425.146 37.7036 424.317 37.1683C423.477 36.6331 422.105 36.1802 420.2 35.82C415.039 34.7701 412.458 32.4644 412.458 28.8927C412.458 26.9473 413.247 25.3931 414.834 24.2402C416.411 23.0874 418.326 22.511 420.558 22.511C422.914 22.511 424.818 22.9742 426.262 23.9006C427.706 24.8269 428.843 26.2474 429.683 28.1722L426.242 30.1999C425.709 28.8824 424.941 27.8737 423.958 27.1635C422.975 26.4532 421.869 26.1033 420.651 26.1033C419.545 26.1033 418.603 26.3297 417.835 26.8032C417.056 27.2664 416.667 27.884 416.667 28.6663V28.6868Z" fill="#3180C3"/>
<path d="M2.98993 27.6367L33.2705 58.0734C34.4788 59.2879 36.445 59.2879 37.6533 58.0734C38.8617 56.8588 38.8617 54.8825 37.6533 53.6679L15.309 31.1981L7.12701 22.9739C5.91865 21.7593 5.91865 19.7831 7.12701 18.5685C8.33536 17.3539 10.3015 17.3539 11.5099 18.5685L19.6918 26.7927L37.6431 44.8364C37.7147 44.9085 37.7967 44.9805 37.8786 45.0526C41.5241 48.4802 47.2382 48.4184 50.8018 44.8364C54.3655 41.2544 54.4269 35.5109 51.0169 31.8466C50.9554 31.7642 50.8838 31.6819 50.8018 31.6098L20.2653 0.915821C19.0569 -0.298763 17.0908 -0.298763 15.8825 0.915821C14.6741 2.13041 14.6741 4.10668 15.8825 5.32126L38.237 27.7911L46.4088 36.005C47.6171 37.2196 47.6171 39.1958 46.4088 40.4104C45.2004 41.625 43.2343 41.625 42.0259 40.4104L33.8542 32.1965L15.9029 14.163C15.8313 14.091 15.7493 14.0189 15.6674 13.9469C12.0116 10.5193 6.29754 10.581 2.73392 14.163C-0.901379 17.8171 -0.901379 23.7459 2.73392 27.3999C2.81585 27.4823 2.90801 27.5646 3.00017 27.647L2.98993 27.6367Z" fill="#3180C3"/>
<path d="M33.8544 26.7928L35.544 25.0944L31.1612 20.6787L19.6921 32.2173L17.9922 33.9259L22.375 38.3314L33.8544 26.7928Z" fill="white"/>
<path d="M22.3853 20.6891L37.6638 5.33176C38.8722 4.11718 38.8722 2.1409 37.6638 0.926319C36.4554 -0.288265 34.4893 -0.288265 33.281 0.926319L18.0024 16.2836L22.3853 20.6891Z" fill="white"/>
<path d="M37.6433 14.1737L35.5543 16.2735L39.9372 20.6789L42.0262 18.5791C43.2345 17.3645 45.2007 17.3645 46.409 18.5791C47.6174 19.7937 47.6174 21.77 46.409 22.9846L38.2373 31.1984L35.5441 33.9055L39.9269 38.311L50.7919 27.39C50.8635 27.3179 50.9352 27.2356 51.0069 27.1533C54.4169 23.4889 54.3555 17.7454 50.7919 14.1634C47.2385 10.5917 41.5142 10.5196 37.8686 13.9472C37.7867 14.009 37.7048 14.081 37.6331 14.1634L37.6433 14.1737Z" fill="white"/>
<path d="M15.9032 44.8368L17.9922 42.737L13.6093 38.3316L11.5203 40.4314C10.312 41.6459 8.34583 41.6459 7.13748 40.4314C5.92912 39.2168 5.92912 37.2405 7.13748 36.0259L15.3195 27.8017L18.0024 25.0947L13.6196 20.6892L2.99016 31.3631C2.898 31.4455 2.80584 31.5175 2.72391 31.6102C-0.911389 35.2642 -0.911389 41.193 2.72391 44.8471C6.28753 48.4291 12.0119 48.4908 15.6574 45.0632C15.7393 45.0015 15.8212 44.9294 15.8929 44.8471L15.9032 44.8368Z" fill="white"/>
<path d="M20.2656 58.084L35.5441 42.7267L31.1612 38.3213L15.8827 53.6786C14.6744 54.8932 14.6744 56.8694 15.8827 58.084C17.0911 59.2986 19.0572 59.2986 20.2656 58.084Z" fill="white"/>
</g>
<defs>
<clipPath id="clip0_2_173">
<rect width="430" height="59" fill="white"/>
</clipPath>
</defs>
</svg>
