<?xml version="1.0" encoding="UTF-8"?>
<svg width="167px" height="53px" viewBox="0 0 167 53" version="1.1" xmlns="http://www.w3.org/2000/svg" xmlns:xlink="http://www.w3.org/1999/xlink">
    <title>LOGO-001-GRAY Copy</title>
    <g id="Page-1" stroke="none" stroke-width="1" fill="none" fill-rule="evenodd">
        <path d="M43,0 C48.5228475,-1.01453063e-15 53,4.4771525 53,10 L53,31 C53,36.5228475 48.5228475,41 43,41 L31,41 L31,43 C31,48.5228475 26.5228475,53 21,53 L10,53 C4.4771525,53 2.45271059e-15,48.5228475 0,43 L0,32 C1.10000309e-15,26.4771525 4.4771525,22 10,22 L11.8095238,22 L11.8095238,31.1904762 C11.8095238,36.6197161 16.1361946,41.0384079 21.529619,41.1866344 L21.8095238,41.1904762 L30.9995238,41.19 L30.999,41 L22,41 L21.7200952,40.9961582 L22,41 L30.999,40.999 L30.999,31.93 L31,32 L31,40.999 L31.381,40.9991818 L31.3818182,31.6181818 C31.3818182,26.1889419 27.0551474,21.7702501 21.661723,21.6220236 L21.3818182,21.6181818 L12,21.6181818 L12,10 C12,4.4771525 16.4771525,1.01453063e-15 22,0 L43,0 Z M76.888,17.152 C82.424,17.152 85.144,19.936 86.2,23.584 C86.232,23.68 86.168,23.808 86.04,23.808 L86.04,23.808 L82.264,23.808 C81.976,23.808 81.912,23.68 81.88,23.584 C80.92,21.632 79,20.672 76.888,20.672 C73.048,20.672 70.744,23.872 70.744,28.736 C70.744,33.76 72.92,36.8 76.888,36.8 C80.056,36.8 82.904,35.52 83.128,30.944 L83.128,30.944 L83.128,30.624 C83.128,30.528 83.096,30.496 83,30.496 L83,30.496 L77.016,30.496 C76.92,30.496 76.888,30.432 76.888,30.336 L76.888,30.336 L76.888,27.168 C76.888,27.072 76.92,27.008 77.016,27.008 L77.016,27.008 L86.488,27.008 C86.584,27.008 86.648,27.072 86.648,27.168 L86.648,27.168 L86.648,39.872 C86.648,39.968 86.584,40 86.488,40 L86.488,40 L83.576,40 C83.48,40 83.448,39.968 83.416,39.872 L83.416,39.872 L83.096,38.208 C83.064,38.08 82.936,38.016 82.776,38.144 C81.272,39.36 79.48,40.32 76.888,40.32 C70.456,40.32 66.744,35.52 66.744,28.736 C66.744,21.984 70.456,17.152 76.888,17.152 Z M100.12,17.472 C103.736,17.472 106.872,20.512 106.872,24.416 C106.872,27.104 105.432,29.344 103.384,30.496 C103.352,30.528 103.352,30.56 103.384,30.624 L103.384,30.624 L107.448,39.776 C107.512,39.904 107.416,40 107.288,40 L107.288,40 L103.608,40 C103.544,40 103.48,39.936 103.448,39.904 L103.448,39.904 L99.736,31.52 C99.672,31.392 99.576,31.36 99.48,31.36 L99.48,31.36 L94.552,31.36 C94.456,31.36 94.424,31.392 94.424,31.488 L94.424,31.488 L94.424,39.84 C94.424,39.936 94.36,40 94.264,40 L94.264,40 L90.744,40 C90.648,40 90.584,39.936 90.584,39.84 L90.584,39.84 L90.584,17.632 C90.584,17.536 90.648,17.472 90.744,17.472 L90.744,17.472 Z M125.944,17.472 C126.04,17.472 126.104,17.536 126.104,17.632 L126.104,17.632 L126.104,20.832 C126.104,20.928 126.04,20.992 125.944,20.992 L125.944,20.992 L114.136,20.992 C114.04,20.992 113.976,21.056 113.976,21.152 L113.976,21.152 L113.976,26.656 C113.976,26.752 114.04,26.816 114.136,26.816 L114.136,26.816 L124.344,26.816 C124.44,26.816 124.504,26.88 124.504,26.976 L124.504,26.976 L124.504,30.176 C124.504,30.272 124.44,30.336 124.344,30.336 L124.344,30.336 L114.136,30.336 C114.04,30.336 113.976,30.4 113.976,30.496 L113.976,30.496 L113.976,36.32 C113.976,36.416 114.04,36.48 114.136,36.48 L114.136,36.48 L125.944,36.48 C126.04,36.48 126.104,36.544 126.104,36.64 L126.104,36.64 L126.104,39.84 C126.104,39.936 126.04,40 125.944,40 L125.944,40 L110.296,40 C110.2,40 110.136,39.936 110.136,39.84 L110.136,39.84 L110.136,17.632 C110.136,17.536 110.2,17.472 110.296,17.472 L110.296,17.472 Z M145.048,17.472 C145.144,17.472 145.208,17.536 145.208,17.632 L145.208,17.632 L145.208,20.832 C145.208,20.928 145.144,20.992 145.048,20.992 L145.048,20.992 L133.24,20.992 C133.144,20.992 133.08,21.056 133.08,21.152 L133.08,21.152 L133.08,26.656 C133.08,26.752 133.144,26.816 133.24,26.816 L133.24,26.816 L143.448,26.816 C143.544,26.816 143.608,26.88 143.608,26.976 L143.608,26.976 L143.608,30.176 C143.608,30.272 143.544,30.336 143.448,30.336 L143.448,30.336 L133.24,30.336 C133.144,30.336 133.08,30.4 133.08,30.496 L133.08,30.496 L133.08,36.32 C133.08,36.416 133.144,36.48 133.24,36.48 L133.24,36.48 L145.048,36.48 C145.144,36.48 145.208,36.544 145.208,36.64 L145.208,36.64 L145.208,39.84 C145.208,39.936 145.144,40 145.048,40 L145.048,40 L129.4,40 C129.304,40 129.24,39.936 129.24,39.84 L129.24,39.84 L129.24,17.632 C129.24,17.536 129.304,17.472 129.4,17.472 L129.4,17.472 Z M153.272,17.472 C153.368,17.472 153.432,17.568 153.464,17.632 L153.464,17.632 L162.232,34.464 C162.328,34.688 162.552,34.624 162.552,34.464 L162.552,34.464 L162.552,17.632 C162.552,17.536 162.616,17.472 162.712,17.472 L162.712,17.472 L166.232,17.472 C166.328,17.472 166.392,17.536 166.392,17.632 L166.392,17.632 L166.392,39.84 C166.392,39.936 166.328,40 166.232,40 L166.232,40 L161.464,40 C161.368,40 161.272,39.904 161.24,39.84 L161.24,39.84 L152.504,23.008 C152.408,22.784 152.184,22.848 152.184,23.008 L152.184,23.008 L152.184,39.84 C152.184,39.936 152.12,40 152.024,40 L152.024,40 L148.472,40 C148.408,40 148.344,39.936 148.344,39.84 L148.344,39.84 L148.344,17.632 C148.344,17.536 148.408,17.472 148.504,17.472 L148.504,17.472 Z M99.8,20.992 L94.552,20.992 C94.456,20.992 94.424,21.056 94.424,21.12 L94.424,21.12 L94.424,27.68 C94.424,27.776 94.488,27.84 94.584,27.84 L94.584,27.84 L99.928,27.84 C101.56,27.84 103.064,26.272 103.064,24.416 C103.064,22.528 101.496,20.992 99.8,20.992 L99.8,20.992 Z" id="LOGO-001-GRAY-Copy" fill="#A5A9B6"></path>
    </g>
</svg>