<?xml version="1.0" encoding="UTF-8"?>
<svg width="77px" height="19px" viewBox="0 0 77 19" version="1.1" xmlns="http://www.w3.org/2000/svg" xmlns:xlink="http://www.w3.org/1999/xlink">
    <title>Satoshi</title>
    <g id="Page-1" stroke="none" stroke-width="1" fill="none" fill-rule="evenodd">
        <g id="Artboard-Copy-16" transform="translate(-69.000000, -62.000000)" fill="#FFFFFF" fill-rule="nonzero">
            <path d="M75.67,80.299 C79.373,80.299 81.811,78.275 81.811,75.147 C81.811,72.64 80.408,71.168 77.533,70.547 L74.888,69.972 C73.485,69.65 72.841,68.983 72.841,67.787 C72.841,66.384 74.014,65.51 75.831,65.51 C77.487,65.51 78.522,66.361 78.591,67.81 L81.535,67.81 C81.443,64.774 79.281,62.888 75.877,62.888 C72.335,62.888 69.897,64.935 69.897,67.879 C69.897,70.455 71.392,72.088 74.244,72.709 L76.912,73.307 C78.292,73.606 78.867,74.273 78.867,75.4 C78.867,76.803 77.625,77.654 75.67,77.654 C73.784,77.654 72.634,76.803 72.611,75.377 L69.667,75.377 C69.736,78.39 72.082,80.299 75.67,80.299 Z M87.446,80.299 C89.217,80.299 90.758,79.494 91.241,78.321 L91.448,80 L93.909,80 L93.909,73.1 C93.909,69.949 92.023,68.293 88.964,68.293 C85.882,68.293 83.858,69.903 83.858,72.364 L86.25,72.364 C86.25,71.168 87.17,70.478 88.826,70.478 C90.252,70.478 91.172,71.099 91.172,72.64 L91.172,72.893 L87.768,73.146 C85.077,73.353 83.559,74.664 83.559,76.757 C83.559,78.896 85.031,80.299 87.446,80.299 Z M88.366,78.183 C87.101,78.183 86.411,77.677 86.411,76.642 C86.411,75.722 87.078,75.147 88.826,74.986 L91.195,74.802 L91.195,75.4 C91.195,77.148 90.091,78.183 88.366,78.183 Z M100.533,80 L100.533,70.984 L102.741,70.984 L102.741,68.638 L100.533,68.638 L100.533,65.096 L97.727,65.096 L97.727,68.638 L95.542,68.638 L95.542,70.984 L97.727,70.984 L97.727,80 L100.533,80 Z M109.894,80.276 C113.413,80.276 115.966,77.838 115.966,74.296 C115.966,70.754 113.413,68.316 109.894,68.316 C106.375,68.316 103.822,70.754 103.822,74.296 C103.822,77.838 106.375,80.276 109.894,80.276 Z M109.894,77.769 C107.962,77.769 106.628,76.366 106.628,74.296 C106.628,72.226 107.962,70.823 109.894,70.823 C111.826,70.823 113.16,72.226 113.16,74.296 C113.16,76.366 111.826,77.769 109.894,77.769 Z M121.946,80.299 C124.752,80.299 126.707,78.873 126.707,76.573 C126.707,74.825 125.741,73.951 123.832,73.514 L121.785,73.031 C120.819,72.801 120.313,72.387 120.313,71.743 C120.313,70.892 120.957,70.386 122.061,70.386 C123.142,70.386 123.786,71.007 123.809,71.973 L126.477,71.973 C126.454,69.765 124.729,68.293 122.176,68.293 C119.554,68.293 117.668,69.627 117.668,71.858 C117.668,73.675 118.657,74.641 120.704,75.101 L122.751,75.584 C123.763,75.814 124.062,76.228 124.062,76.803 C124.062,77.631 123.349,78.16 122.038,78.16 C120.75,78.16 120.014,77.539 119.991,76.55 L117.323,76.55 C117.323,78.781 119.117,80.299 121.946,80.299 Z M131.652,80 L131.652,73.79 C131.652,72.088 132.687,70.846 134.458,70.846 C135.884,70.846 136.827,71.766 136.827,73.675 L136.827,80 L139.633,80 L139.633,73.008 C139.633,70.064 138.161,68.293 135.355,68.293 C133.722,68.293 132.388,69.006 131.675,70.11 L131.675,62.888 L128.846,62.888 L128.846,80 L131.652,80 Z M143.796,66.361 C144.716,66.361 145.475,65.602 145.475,64.659 C145.475,63.716 144.716,62.98 143.796,62.98 C142.83,62.98 142.071,63.716 142.071,64.659 C142.071,65.602 142.83,66.361 143.796,66.361 Z M145.199,80 L145.199,68.638 L142.393,68.638 L142.393,80 L145.199,80 Z" id="Satoshi"></path>
        </g>
    </g>
</svg>