<?xml version="1.0" encoding="UTF-8"?>
<svg width="55px" height="35px" viewBox="0 0 55 35" version="1.1" xmlns="http://www.w3.org/2000/svg" xmlns:xlink="http://www.w3.org/1999/xlink">
    <title>“</title>
    <g id="Page-1" stroke="none" stroke-width="1" fill="none" fill-rule="evenodd">
        <path d="M12.4147368,34.32 C18.8947368,34.32 23.2147368,30.36 23.2147368,24.72 C23.2147368,19.8 19.3747368,15.84 14.0947368,15.84 C13.2547368,15.84 12.2947368,15.96 11.3347368,16.2 C12.7747368,10.68 18.1747368,7.92 25.2547368,8.88 L25.2547368,0.48 C11.9347368,-1.32 0.294736842,8.04 0.294736842,20.64 C0.294736842,29.16 5.09473684,34.32 12.4147368,34.32 Z M41.4547368,34.32 C48.0547368,34.32 52.2547368,30.36 52.2547368,24.72 C52.2547368,19.8 48.4147368,15.84 43.1347368,15.84 C42.2947368,15.84 41.3347368,15.96 40.3747368,16.2 C41.8147368,10.68 47.2147368,7.92 54.2947368,8.88 L54.2947368,0.48 C40.9747368,-1.32 29.3347368,8.04 29.3347368,20.64 C29.3347368,29.16 34.1347368,34.32 41.4547368,34.32 Z" id="“" fill="#278DE9" fill-rule="nonzero"></path>
    </g>
</svg>