<?xml version="1.0" encoding="UTF-8"?>
<svg width="602px" height="19px" viewBox="0 0 602 19" version="1.1" xmlns="http://www.w3.org/2000/svg" xmlns:xlink="http://www.w3.org/1999/xlink">
    <title>Path 3</title>
    <g id="Page-1" stroke="none" stroke-width="1" fill="none" fill-rule="evenodd">
        <path d="M39.6394043,7.41053188 C217.237366,-0.396179534 399.477474,-0.0780279118 576.378418,7.29805618 C610.073489,8.70301011 509.052388,11.335743 475.320068,11.9141951 C419.289067,12.8750319 363.231127,12.2669124 307.189209,11.9141951 C301.38973,11.8776943 295.64857,10.8508125 289.850342,10.7468837 C242.050392,9.89010643 194.227565,10.0020008 146.430908,9.03272639 C119.632528,8.4892787 92.8844919,6.76264487 66.0864258,6.20914739 C47.3053709,5.82123632 28.5096623,5.96745254 9.72485352,6.20914739 C7.24987943,6.24099166 -0.106498021,7.00788695 2.36865234,7.02897248 C68.9772198,7.59640367 135.614962,6.39388238 202.202881,7.84884689 C230.472654,8.46654927 258.536511,12.0815607 286.780029,13.24344 C395.531786,17.7172599 494.675053,20.3668426 601.62793,13.3175526" id="Path-3" stroke="#6312FF" stroke-width="2"></path>
    </g>
</svg>