<?xml version="1.0" encoding="UTF-8"?>
<svg width="138px" height="138px" viewBox="0 0 138 138" version="1.1" xmlns="http://www.w3.org/2000/svg" xmlns:xlink="http://www.w3.org/1999/xlink">
    <title>Group 27</title>
    <g id="Page-1" stroke="none" stroke-width="1" fill="none" fill-rule="evenodd">
        <g id="Group-27">
            <circle id="Oval-Copy-11" fill="#FFC761" cx="69" cy="69" r="69"></circle>
            <path d="M42.6464,83.4704 L41.7224,89.9421333 C41.4741333,91.6856 42.0602667,93.4477333 43.3072,94.6928 C44.5522667,95.9397333 46.3144,96.5258667 48.0578667,96.2776 C48.0578667,96.2776 48.0578667,96.2776 48.0578667,96.2776 C50.0944,95.9864 52.4408,95.6485333 54.412,95.5178667 C54.4586667,95.5141333 54.5053333,95.5104 54.552,95.5029333 C56.8722667,95.1706667 59.2392,95.3330667 61.4922667,95.9808 C61.4978667,95.9808 61.5034667,95.9826667 61.5090667,95.9845333 C63.8928,96.6453333 66.4053333,97 69,97 C84.4541333,97 97,84.4541333 97,69 C97,53.5458667 84.4541333,41 69,41 C53.5458667,41 41,53.5458667 41,69 C41,71.6264 41.364,74.1706667 42.1872,76.5413333 C42.8181333,78.772 42.9786667,81.1426667 42.6464,83.4704 Z M57.875,78 L69.125,78 C70.16,78 71,77.104 71,76 C71,74.896 70.16,74 69.125,74 L57.875,74 C56.84,74 56,74.896 56,76 C56,77.104 56.84,78 57.875,78 Z M57.8571429,71 L80.1428571,71 C81.168,71 82,70.104 82,69 C82,67.896 81.168,67 80.1428571,67 L57.8571429,67 C56.832,67 56,67.896 56,69 C56,70.104 56.832,71 57.8571429,71 Z M57.8571429,64 L80.1428571,64 C81.168,64 82,63.104 82,62 C82,60.896 81.168,60 80.1428571,60 L57.8571429,60 C56.832,60 56,60.896 56,62 C56,63.104 56.832,64 57.8571429,64 Z" id="Shape" fill="#FFFFFF"></path>
        </g>
    </g>
</svg>